<?xml version="1.0" encoding="UTF-8" standalone="no"?><svg xmlns="http://www.w3.org/2000/svg" xmlns:xlink="http://www.w3.org/1999/xlink" contentScriptType="application/ecmascript" contentStyleType="text/css" height="510px" preserveAspectRatio="none" style="width:433px;height:510px;" version="1.1" viewBox="0 0 433 510" width="433px" zoomAndPan="magnify"><defs><filter height="300%" id="ftau6isglfgcd" width="300%" x="-1" y="-1"><feGaussianBlur result="blurOut" stdDeviation="2.0"/><feColorMatrix in="blurOut" result="blurOut2" type="matrix" values="0 0 0 0 0 0 0 0 0 0 0 0 0 0 0 0 0 0 .4 0"/><feOffset dx="4.0" dy="4.0" in="blurOut2" result="blurOut3"/><feBlend in="SourceGraphic" in2="blurOut3" mode="normal"/></filter></defs><g><!--MD5=[55497ca6df5e1e80d97c2ba5f282a5c4]
cluster nz.ac.vuw.ecs.swen225.gp20.recnplay--><polygon fill="#FFFFFF" filter="url(#ftau6isglfgcd)" points="16,6,287,6,294,29.6094,411,29.6094,411,481,16,481,16,6" style="stroke: #000000; stroke-width: 1.5;"/><line style="stroke: #000000; stroke-width: 1.5;" x1="16" x2="294" y1="29.6094" y2="29.6094"/><text fill="#000000" font-family="sans-serif" font-size="14" font-weight="bold" lengthAdjust="spacingAndGlyphs" textLength="265" x="20" y="22.5332">nz.ac.vuw.ecs.swen225.gp20.recnplay</text><!--MD5=[4de458f6661f765219bed3b5a11afbda]
class nz.ac.vuw.ecs.swen225.gp20.recnplay.Move--><a href="Move.html" target="_top" title="Move.html" xlink:actuate="onRequest" xlink:href="Move.html" xlink:show="new" xlink:title="Move.html" xlink:type="simple"><rect codeLine="3" fill="#FEFECE" filter="url(#ftau6isglfgcd)" height="103.3438" id="nz.ac.vuw.ecs.swen225.gp20.recnplay.Move" style="stroke: #A80036; stroke-width: 1.5;" width="88" x="307" y="90.5"/><ellipse cx="334.6" cy="106.5" fill="#ADD1B2" rx="11" ry="11" style="stroke: #A80036; stroke-width: 1.0;"/><path d="M337.3656,102.375 Q337.5219,102.1563 337.7094,102.0469 Q337.8969,101.9375 338.1156,101.9375 Q338.4906,101.9375 338.725,102.2031 Q338.9594,102.4531 338.9594,103.0625 L338.9594,104.5156 Q338.9594,105.125 338.725,105.3906 Q338.4906,105.6563 338.1156,105.6563 Q337.7719,105.6563 337.5688,105.4531 Q337.3656,105.2656 337.2563,104.75 Q337.2094,104.3906 337.0219,104.2031 Q336.6938,103.8281 336.0844,103.6094 Q335.475,103.3906 334.85,103.3906 Q334.0844,103.3906 333.4438,103.7188 Q332.8188,104.0469 332.3188,104.7969 Q331.8344,105.5469 331.8344,106.5781 L331.8344,107.6719 Q331.8344,108.9063 332.725,109.7344 Q333.6156,110.5469 335.2094,110.5469 Q336.1469,110.5469 336.8031,110.2969 Q337.1938,110.1406 337.6156,109.7031 Q337.8813,109.4375 338.0219,109.3594 Q338.1781,109.2813 338.3813,109.2813 Q338.7094,109.2813 338.9594,109.5469 Q339.225,109.7969 339.225,110.1406 Q339.225,110.4844 338.8813,110.8906 Q338.3813,111.4688 337.5844,111.7969 Q336.5063,112.25 335.2094,112.25 Q333.6938,112.25 332.4906,111.625 Q331.5063,111.125 330.8188,110.0625 Q330.1313,108.9844 330.1313,107.7031 L330.1313,106.5469 Q330.1313,105.2188 330.7406,104.0781 Q331.3656,102.9219 332.4594,102.3125 Q333.5531,101.6875 334.7875,101.6875 Q335.5219,101.6875 336.1625,101.8594 Q336.8188,102.0156 337.3656,102.375 Z "/><text fill="#000000" font-family="sans-serif" font-size="12" lengthAdjust="spacingAndGlyphs" textLength="28" x="351.4" y="111.4102">Move</text><line style="stroke: #A80036; stroke-width: 1.5;" x1="308" x2="394" y1="122.5" y2="122.5"/><ellipse cx="318" cy="133.5" fill="none" rx="3" ry="3" style="stroke: #038048; stroke-width: 1.0;"/><text fill="#000000" font-family="sans-serif" font-size="11" lengthAdjust="spacingAndGlyphs" textLength="50" x="327" y="137.9189">actorId: int</text><ellipse cx="318" cy="147.3359" fill="none" rx="3" ry="3" style="stroke: #038048; stroke-width: 1.0;"/><text fill="#000000" font-family="sans-serif" font-size="11" lengthAdjust="spacingAndGlyphs" textLength="58" x="327" y="151.7549">direction: int</text><line style="stroke: #A80036; stroke-width: 1.5;" x1="308" x2="394" y1="158.1719" y2="158.1719"/><ellipse cx="318" cy="169.1719" fill="#84BE84" rx="3" ry="3" style="stroke: #038048; stroke-width: 1.0;"/><text fill="#000000" font-family="sans-serif" font-size="11" lengthAdjust="spacingAndGlyphs" textLength="62" x="327" y="173.5908">Move(int, int)</text><ellipse cx="318" cy="183.0078" fill="#84BE84" rx="3" ry="3" style="stroke: #038048; stroke-width: 1.0;"/><text fill="#000000" font-family="sans-serif" font-size="11" lengthAdjust="spacingAndGlyphs" textLength="34" x="327" y="187.4268">Move()</text></a><!--MD5=[d772ef405ae22ee830472995a8945713]
class nz.ac.vuw.ecs.swen225.gp20.recnplay.RecordAndReplay--><a href="RecordAndReplay.html" target="_top" title="RecordAndReplay.html" xlink:actuate="onRequest" xlink:href="RecordAndReplay.html" xlink:show="new" xlink:title="RecordAndReplay.html" xlink:type="simple"><rect codeLine="10" fill="#FEFECE" filter="url(#ftau6isglfgcd)" height="200.1953" id="nz.ac.vuw.ecs.swen225.gp20.recnplay.RecordAndReplay" style="stroke: #A80036; stroke-width: 1.5;" width="239" x="32.5" y="42"/><ellipse cx="98.25" cy="58" fill="#ADD1B2" rx="11" ry="11" style="stroke: #A80036; stroke-width: 1.0;"/><path d="M101.0156,53.875 Q101.1719,53.6563 101.3594,53.5469 Q101.5469,53.4375 101.7656,53.4375 Q102.1406,53.4375 102.375,53.7031 Q102.6094,53.9531 102.6094,54.5625 L102.6094,56.0156 Q102.6094,56.625 102.375,56.8906 Q102.1406,57.1563 101.7656,57.1563 Q101.4219,57.1563 101.2188,56.9531 Q101.0156,56.7656 100.9063,56.25 Q100.8594,55.8906 100.6719,55.7031 Q100.3438,55.3281 99.7344,55.1094 Q99.125,54.8906 98.5,54.8906 Q97.7344,54.8906 97.0938,55.2188 Q96.4688,55.5469 95.9688,56.2969 Q95.4844,57.0469 95.4844,58.0781 L95.4844,59.1719 Q95.4844,60.4063 96.375,61.2344 Q97.2656,62.0469 98.8594,62.0469 Q99.7969,62.0469 100.4531,61.7969 Q100.8438,61.6406 101.2656,61.2031 Q101.5313,60.9375 101.6719,60.8594 Q101.8281,60.7813 102.0313,60.7813 Q102.3594,60.7813 102.6094,61.0469 Q102.875,61.2969 102.875,61.6406 Q102.875,61.9844 102.5313,62.3906 Q102.0313,62.9688 101.2344,63.2969 Q100.1563,63.75 98.8594,63.75 Q97.3438,63.75 96.1406,63.125 Q95.1563,62.625 94.4688,61.5625 Q93.7813,60.4844 93.7813,59.2031 L93.7813,58.0469 Q93.7813,56.7188 94.3906,55.5781 Q95.0156,54.4219 96.1094,53.8125 Q97.2031,53.1875 98.4375,53.1875 Q99.1719,53.1875 99.8125,53.3594 Q100.4688,53.5156 101.0156,53.875 Z "/><text fill="#000000" font-family="sans-serif" font-size="12" lengthAdjust="spacingAndGlyphs" textLength="99" x="118.75" y="62.9102">RecordAndReplay</text><line style="stroke: #A80036; stroke-width: 1.5;" x1="33.5" x2="270.5" y1="74" y2="74"/><line style="stroke: #A80036; stroke-width: 1.5;" x1="33.5" x2="270.5" y1="82" y2="82"/><ellipse cx="43.5" cy="93" fill="#84BE84" rx="3" ry="3" style="stroke: #038048; stroke-width: 1.0;"/><text fill="#000000" font-family="sans-serif" font-size="11" lengthAdjust="spacingAndGlyphs" textLength="112" x="52.5" y="97.4189">RecordAndReplay(Gui)</text><ellipse cx="43.5" cy="106.8359" fill="#84BE84" rx="3" ry="3" style="stroke: #038048; stroke-width: 1.0;"/><text fill="#000000" font-family="sans-serif" font-size="11" lengthAdjust="spacingAndGlyphs" textLength="104" x="52.5" y="111.2549">addMove(Move): void</text><ellipse cx="43.5" cy="120.6719" fill="#84BE84" rx="3" ry="3" style="stroke: #038048; stroke-width: 1.0;"/><text fill="#000000" font-family="sans-serif" font-size="11" lengthAdjust="spacingAndGlyphs" textLength="103" x="52.5" y="125.0908">playRecording(): void</text><ellipse cx="43.5" cy="134.5078" fill="#84BE84" rx="3" ry="3" style="stroke: #038048; stroke-width: 1.0;"/><text fill="#000000" font-family="sans-serif" font-size="11" lengthAdjust="spacingAndGlyphs" text-decoration="underline" textLength="97" x="52.5" y="138.9268">stepForward(): void</text><ellipse cx="43.5" cy="148.3438" fill="#84BE84" rx="3" ry="3" style="stroke: #038048; stroke-width: 1.0;"/><text fill="#000000" font-family="sans-serif" font-size="11" lengthAdjust="spacingAndGlyphs" text-decoration="underline" textLength="79" x="52.5" y="152.7627">stepBack(): void</text><ellipse cx="43.5" cy="162.1797" fill="#84BE84" rx="3" ry="3" style="stroke: #038048; stroke-width: 1.0;"/><text fill="#000000" font-family="sans-serif" font-size="11" lengthAdjust="spacingAndGlyphs" textLength="85" x="52.5" y="166.5986">nextFrame(): void</text><ellipse cx="43.5" cy="176.0156" fill="#84BE84" rx="3" ry="3" style="stroke: #038048; stroke-width: 1.0;"/><text fill="#000000" font-family="sans-serif" font-size="11" lengthAdjust="spacingAndGlyphs" textLength="81" x="52.5" y="180.4346">lastFrame(): void</text><ellipse cx="43.5" cy="189.8516" fill="#84BE84" rx="3" ry="3" style="stroke: #038048; stroke-width: 1.0;"/><text fill="#000000" font-family="sans-serif" font-size="11" lengthAdjust="spacingAndGlyphs" textLength="155" x="52.5" y="194.2705">setPlaybackSpeed(double): void</text><ellipse cx="43.5" cy="203.6875" fill="#84BE84" rx="3" ry="3" style="stroke: #038048; stroke-width: 1.0;"/><text fill="#000000" font-family="sans-serif" font-size="11" lengthAdjust="spacingAndGlyphs" textLength="213" x="52.5" y="208.1064">getMovesByTime(): Map&lt;Long, List&lt;Move&gt;&gt;</text><ellipse cx="43.5" cy="217.5234" fill="#84BE84" rx="3" ry="3" style="stroke: #038048; stroke-width: 1.0;"/><text fill="#000000" font-family="sans-serif" font-size="11" lengthAdjust="spacingAndGlyphs" textLength="86" x="52.5" y="221.9424">getSaveFile(): File</text><ellipse cx="43.5" cy="231.3594" fill="#84BE84" rx="3" ry="3" style="stroke: #038048; stroke-width: 1.0;"/><text fill="#000000" font-family="sans-serif" font-size="11" lengthAdjust="spacingAndGlyphs" textLength="106" x="52.5" y="235.7783">setSaveFile(File): void</text></a><!--MD5=[a1c3453d084563a393921cb009fbef3d]
class nz.ac.vuw.ecs.swen225.gp20.recnplay.RecordAndReplay.State--><rect codeLine="24" fill="#FEFECE" filter="url(#ftau6isglfgcd)" height="144.8516" id="nz.ac.vuw.ecs.swen225.gp20.recnplay.RecordAndReplay.State" style="stroke: #A80036; stroke-width: 1.5;" width="251" x="47.5" y="320"/><ellipse cx="103.75" cy="336" fill="#EB937F" rx="11" ry="11" style="stroke: #A80036; stroke-width: 1.0;"/><path d="M102.6094,336.7969 L102.6094,339.2969 L106.9375,339.2969 L106.9375,338.375 Q106.9375,337.7656 107.1719,337.5 Q107.4219,337.2344 107.7969,337.2344 Q108.1719,337.2344 108.4063,337.5 Q108.6406,337.7656 108.6406,338.375 L108.6406,341 L100.6406,341 Q100.0156,341 99.75,340.7656 Q99.5,340.5313 99.5,340.1406 Q99.5,339.7656 99.7656,339.5313 Q100.0313,339.2969 100.6406,339.2969 L100.9063,339.2969 L100.9063,332.6406 L100.6406,332.6406 Q100.0156,332.6406 99.75,332.4063 Q99.5,332.1719 99.5,331.7813 Q99.5,331.4063 99.75,331.1719 Q100.0156,330.9375 100.6406,330.9375 L108.2656,330.9375 L108.2656,333.5313 Q108.2656,334.1406 108.0313,334.4063 Q107.8125,334.6563 107.4219,334.6563 Q107.0469,334.6563 106.8125,334.4063 Q106.5781,334.1406 106.5781,333.5313 L106.5781,332.6406 L102.6094,332.6406 L102.6094,335.0938 L104.0938,335.0938 Q104.0938,334.4375 104.2188,334.25 Q104.4844,333.8438 104.9531,333.8438 Q105.3281,333.8438 105.5625,334.1094 Q105.7969,334.3594 105.7969,334.9688 L105.7969,336.9375 Q105.7969,337.4844 105.6719,337.6719 Q105.4063,338.0625 104.9531,338.0625 Q104.4844,338.0625 104.2188,337.6563 Q104.0938,337.4688 104.0938,336.7969 L102.6094,336.7969 Z "/><text fill="#000000" font-family="sans-serif" font-size="12" lengthAdjust="spacingAndGlyphs" textLength="130" x="124.25" y="340.9102">RecordAndReplay.State</text><line style="stroke: #A80036; stroke-width: 1.5;" x1="48.5" x2="297.5" y1="352" y2="352"/><ellipse cx="58.5" cy="363" fill="none" rx="3" ry="3" style="stroke: #038048; stroke-width: 1.0;"/><text fill="#000000" font-family="sans-serif" font-size="11" lengthAdjust="spacingAndGlyphs" text-decoration="underline" textLength="59" x="67.5" y="367.4189">RECORDING</text><ellipse cx="58.5" cy="376.8359" fill="none" rx="3" ry="3" style="stroke: #038048; stroke-width: 1.0;"/><text fill="#000000" font-family="sans-serif" font-size="11" lengthAdjust="spacingAndGlyphs" text-decoration="underline" textLength="42" x="67.5" y="381.2549">LOADED</text><ellipse cx="58.5" cy="390.6719" fill="none" rx="3" ry="3" style="stroke: #038048; stroke-width: 1.0;"/><text fill="#000000" font-family="sans-serif" font-size="11" lengthAdjust="spacingAndGlyphs" text-decoration="underline" textLength="58" x="67.5" y="395.0908">REPLAYING</text><ellipse cx="58.5" cy="404.5078" fill="none" rx="3" ry="3" style="stroke: #038048; stroke-width: 1.0;"/><text fill="#000000" font-family="sans-serif" font-size="11" lengthAdjust="spacingAndGlyphs" text-decoration="underline" textLength="48" x="67.5" y="408.9268">SLEEPING</text><line style="stroke: #A80036; stroke-width: 1.5;" x1="48.5" x2="297.5" y1="415.3438" y2="415.3438"/><ellipse cx="58.5" cy="426.3438" fill="#84BE84" rx="3" ry="3" style="stroke: #038048; stroke-width: 1.0;"/><text fill="#000000" font-family="sans-serif" font-size="11" font-style="italic" lengthAdjust="spacingAndGlyphs" textLength="129" x="67.5" y="430.7627">startStopRecording(): void</text><ellipse cx="58.5" cy="440.1797" fill="#84BE84" rx="3" ry="3" style="stroke: #038048; stroke-width: 1.0;"/><text fill="#000000" font-family="sans-serif" font-size="11" font-style="italic" lengthAdjust="spacingAndGlyphs" textLength="112" x="67.5" y="444.5986">startStopReplay(): void</text><ellipse cx="58.5" cy="454.0156" fill="#84BE84" rx="3" ry="3" style="stroke: #038048; stroke-width: 1.0;"/><text fill="#000000" font-family="sans-serif" font-size="11" font-style="italic" lengthAdjust="spacingAndGlyphs" textLength="225" x="67.5" y="458.4346">loadRecording(Map&lt;Long, List&lt;Move&gt;&gt;): void</text><!--MD5=[2f462d5c86206403335311f7608c9116]
link nz.ac.vuw.ecs.swen225.gp20.recnplay.RecordAndReplay to nz.ac.vuw.ecs.swen225.gp20.recnplay.RecordAndReplay.State--><path codeLine="34" d="M138.44,242.08 C138.01,258.15 138.63,274.57 141,290 C142.25,298.09 144.02,306.42 146.1,314.67 " fill="none" id="nz.ac.vuw.ecs.swen225.gp20.recnplay.RecordAndReplay-to-nz.ac.vuw.ecs.swen225.gp20.recnplay.RecordAndReplay.State" style="stroke: #A80036; stroke-width: 1.0;"/><polygon fill="#A80036" points="147.43,319.79,149.0334,310.0725,146.1702,314.9513,141.2914,312.0882,147.43,319.79" style="stroke: #A80036; stroke-width: 1.0;"/><text fill="#000000" font-family="sans-serif" font-size="13" lengthAdjust="spacingAndGlyphs" textLength="29" x="142" y="286.4951">state</text><!--MD5=[f33c87c22983382a72d7c6c7b3e46a32]
reverse link nz.ac.vuw.ecs.swen225.gp20.recnplay.RecordAndReplay to nz.ac.vuw.ecs.swen225.gp20.recnplay.RecordAndReplay.State--><path codeLine="35" d="M174.39,257.15 C175.01,262.16 175.55,267.12 176,272 C176.73,279.97 176.12,282 176,290 C175.86,299.7 175.64,309.91 175.38,319.97 " fill="none" id="nz.ac.vuw.ecs.swen225.gp20.recnplay.RecordAndReplay-backto-nz.ac.vuw.ecs.swen225.gp20.recnplay.RecordAndReplay.State" style="stroke: #A80036; stroke-width: 1.0;"/><ellipse cx="173.4112" cy="249.9766" fill="#FFFFFF" rx="8" ry="8" style="stroke: #A80036; stroke-width: 1.0;"/><line style="stroke: #A80036; stroke-width: 1.0;" x1="174.4925" x2="172.33" y1="257.9032" y2="242.05"/><line style="stroke: #A80036; stroke-width: 1.0;" x1="165.4847" x2="181.3378" y1="251.0578" y2="248.8953"/><text fill="#888888" font-family="sans-serif" font-size="10" lengthAdjust="spacingAndGlyphs" textLength="190" x="112.5" y="497.3809">UMLDoclet 2.0.12, PlantUML 1.2020.16</text><!--MD5=[d8933220839b6760cb29a6aed7c8cb35]
@startuml
    namespace nz.ac.vuw.ecs.swen225.gp20.recnplay {

        class Move [[Move.html]] {
            +actorId: int
            +direction: int
            +Move(int, int)
            +Move()
        }

        class RecordAndReplay [[RecordAndReplay.html]] {
            +RecordAndReplay(Gui)
            +addMove(Move): void
            +playRecording(): void
            {static} +stepForward(): void
            {static} +stepBack(): void
            +nextFrame(): void
            +lastFrame(): void
            +setPlaybackSpeed(double): void
            +getMovesByTime(): Map<Long, List<Move>>
            +getSaveFile(): File
            +setSaveFile(File): void
        }

        enum nz.ac.vuw.ecs.swen225.gp20.recnplay.RecordAndReplay.State {
            {static} +RECORDING
            {static} +LOADED
            {static} +REPLAYING
            {static} +SLEEPING
            {abstract} +startStopRecording(): void
            {abstract} +startStopReplay(): void
            {abstract} +loadRecording(Map<Long, List<Move>>): void
        }

        RecordAndReplay - -> nz.ac.vuw.ecs.swen225.gp20.recnplay.RecordAndReplay.State: state
        RecordAndReplay +- - nz.ac.vuw.ecs.swen225.gp20.recnplay.RecordAndReplay.State
    }

    center footer UMLDoclet 2.0.12, PlantUML 1.2020.16
@enduml

PlantUML version 1.2020.16(Mon Aug 24 08:20:43 NZST 2020)
(APACHE source distribution)
Java Runtime: OpenJDK Runtime Environment
JVM: OpenJDK 64-Bit Server VM
Default Encoding: Cp1252
Language: en
Country: NZ
--></g></svg>