<?xml version="1.0" encoding="UTF-8" standalone="no"?><svg xmlns="http://www.w3.org/2000/svg" xmlns:xlink="http://www.w3.org/1999/xlink" contentScriptType="application/ecmascript" contentStyleType="text/css" height="370px" preserveAspectRatio="none" style="width:439px;height:370px;" version="1.1" viewBox="0 0 439 370" width="439px" zoomAndPan="magnify"><defs><filter height="300%" id="f1futxlshwnl8d" width="300%" x="-1" y="-1"><feGaussianBlur result="blurOut" stdDeviation="2.0"/><feColorMatrix in="blurOut" result="blurOut2" type="matrix" values="0 0 0 0 0 0 0 0 0 0 0 0 0 0 0 0 0 0 .4 0"/><feOffset dx="4.0" dy="4.0" in="blurOut2" result="blurOut3"/><feBlend in="SourceGraphic" in2="blurOut3" mode="normal"/></filter></defs><g><!--MD5=[55497ca6df5e1e80d97c2ba5f282a5c4]
cluster nz.ac.vuw.ecs.swen225.gp20.recnplay--><polygon fill="#FFFFFF" filter="url(#f1futxlshwnl8d)" points="16,6,287,6,294,29.6094,417,29.6094,417,341,16,341,16,6" style="stroke: #000000; stroke-width: 1.5;"/><line style="stroke: #000000; stroke-width: 1.5;" x1="16" x2="294" y1="29.6094" y2="29.6094"/><text fill="#000000" font-family="sans-serif" font-size="14" font-weight="bold" lengthAdjust="spacingAndGlyphs" textLength="265" x="20" y="22.5332">nz.ac.vuw.ecs.swen225.gp20.recnplay</text><!--MD5=[4de458f6661f765219bed3b5a11afbda]
class nz.ac.vuw.ecs.swen225.gp20.recnplay.Move--><a href="Move.html" target="_top" title="Move.html" xlink:actuate="onRequest" xlink:href="Move.html" xlink:show="new" xlink:title="Move.html" xlink:type="simple"><rect codeLine="3" fill="#FEFECE" filter="url(#f1futxlshwnl8d)" height="103.3438" id="nz.ac.vuw.ecs.swen225.gp20.recnplay.Move" style="stroke: #A80036; stroke-width: 1.5;" width="88" x="313" y="132"/><ellipse cx="340.6" cy="148" fill="#ADD1B2" rx="11" ry="11" style="stroke: #A80036; stroke-width: 1.0;"/><path d="M343.3656,143.875 Q343.5219,143.6563 343.7094,143.5469 Q343.8969,143.4375 344.1156,143.4375 Q344.4906,143.4375 344.725,143.7031 Q344.9594,143.9531 344.9594,144.5625 L344.9594,146.0156 Q344.9594,146.625 344.725,146.8906 Q344.4906,147.1563 344.1156,147.1563 Q343.7719,147.1563 343.5688,146.9531 Q343.3656,146.7656 343.2563,146.25 Q343.2094,145.8906 343.0219,145.7031 Q342.6938,145.3281 342.0844,145.1094 Q341.475,144.8906 340.85,144.8906 Q340.0844,144.8906 339.4438,145.2188 Q338.8188,145.5469 338.3188,146.2969 Q337.8344,147.0469 337.8344,148.0781 L337.8344,149.1719 Q337.8344,150.4063 338.725,151.2344 Q339.6156,152.0469 341.2094,152.0469 Q342.1469,152.0469 342.8031,151.7969 Q343.1938,151.6406 343.6156,151.2031 Q343.8813,150.9375 344.0219,150.8594 Q344.1781,150.7813 344.3813,150.7813 Q344.7094,150.7813 344.9594,151.0469 Q345.225,151.2969 345.225,151.6406 Q345.225,151.9844 344.8813,152.3906 Q344.3813,152.9688 343.5844,153.2969 Q342.5063,153.75 341.2094,153.75 Q339.6938,153.75 338.4906,153.125 Q337.5063,152.625 336.8188,151.5625 Q336.1313,150.4844 336.1313,149.2031 L336.1313,148.0469 Q336.1313,146.7188 336.7406,145.5781 Q337.3656,144.4219 338.4594,143.8125 Q339.5531,143.1875 340.7875,143.1875 Q341.5219,143.1875 342.1625,143.3594 Q342.8188,143.5156 343.3656,143.875 Z "/><text fill="#000000" font-family="sans-serif" font-size="12" lengthAdjust="spacingAndGlyphs" textLength="28" x="357.4" y="152.9102">Move</text><line style="stroke: #A80036; stroke-width: 1.5;" x1="314" x2="400" y1="164" y2="164"/><ellipse cx="324" cy="175" fill="none" rx="3" ry="3" style="stroke: #038048; stroke-width: 1.0;"/><text fill="#000000" font-family="sans-serif" font-size="11" lengthAdjust="spacingAndGlyphs" textLength="50" x="333" y="179.4189">actorId: int</text><ellipse cx="324" cy="188.8359" fill="none" rx="3" ry="3" style="stroke: #038048; stroke-width: 1.0;"/><text fill="#000000" font-family="sans-serif" font-size="11" lengthAdjust="spacingAndGlyphs" textLength="58" x="333" y="193.2549">direction: int</text><line style="stroke: #A80036; stroke-width: 1.5;" x1="314" x2="400" y1="199.6719" y2="199.6719"/><ellipse cx="324" cy="210.6719" fill="#84BE84" rx="3" ry="3" style="stroke: #038048; stroke-width: 1.0;"/><text fill="#000000" font-family="sans-serif" font-size="11" lengthAdjust="spacingAndGlyphs" textLength="62" x="333" y="215.0908">Move(int, int)</text><ellipse cx="324" cy="224.5078" fill="#84BE84" rx="3" ry="3" style="stroke: #038048; stroke-width: 1.0;"/><text fill="#000000" font-family="sans-serif" font-size="11" lengthAdjust="spacingAndGlyphs" textLength="34" x="333" y="228.9268">Move()</text></a><!--MD5=[d772ef405ae22ee830472995a8945713]
class nz.ac.vuw.ecs.swen225.gp20.recnplay.RecordAndReplay--><a href="RecordAndReplay.html" target="_top" title="RecordAndReplay.html" xlink:actuate="onRequest" xlink:href="RecordAndReplay.html" xlink:show="new" xlink:title="RecordAndReplay.html" xlink:type="simple"><rect codeLine="10" fill="#FEFECE" filter="url(#f1futxlshwnl8d)" height="283.2109" id="nz.ac.vuw.ecs.swen225.gp20.recnplay.RecordAndReplay" style="stroke: #A80036; stroke-width: 1.5;" width="246" x="32" y="42"/><ellipse cx="101.25" cy="58" fill="#ADD1B2" rx="11" ry="11" style="stroke: #A80036; stroke-width: 1.0;"/><path d="M104.0156,53.875 Q104.1719,53.6563 104.3594,53.5469 Q104.5469,53.4375 104.7656,53.4375 Q105.1406,53.4375 105.375,53.7031 Q105.6094,53.9531 105.6094,54.5625 L105.6094,56.0156 Q105.6094,56.625 105.375,56.8906 Q105.1406,57.1563 104.7656,57.1563 Q104.4219,57.1563 104.2188,56.9531 Q104.0156,56.7656 103.9063,56.25 Q103.8594,55.8906 103.6719,55.7031 Q103.3438,55.3281 102.7344,55.1094 Q102.125,54.8906 101.5,54.8906 Q100.7344,54.8906 100.0938,55.2188 Q99.4688,55.5469 98.9688,56.2969 Q98.4844,57.0469 98.4844,58.0781 L98.4844,59.1719 Q98.4844,60.4063 99.375,61.2344 Q100.2656,62.0469 101.8594,62.0469 Q102.7969,62.0469 103.4531,61.7969 Q103.8438,61.6406 104.2656,61.2031 Q104.5313,60.9375 104.6719,60.8594 Q104.8281,60.7813 105.0313,60.7813 Q105.3594,60.7813 105.6094,61.0469 Q105.875,61.2969 105.875,61.6406 Q105.875,61.9844 105.5313,62.3906 Q105.0313,62.9688 104.2344,63.2969 Q103.1563,63.75 101.8594,63.75 Q100.3438,63.75 99.1406,63.125 Q98.1563,62.625 97.4688,61.5625 Q96.7813,60.4844 96.7813,59.2031 L96.7813,58.0469 Q96.7813,56.7188 97.3906,55.5781 Q98.0156,54.4219 99.1094,53.8125 Q100.2031,53.1875 101.4375,53.1875 Q102.1719,53.1875 102.8125,53.3594 Q103.4688,53.5156 104.0156,53.875 Z "/><text fill="#000000" font-family="sans-serif" font-size="12" lengthAdjust="spacingAndGlyphs" textLength="99" x="121.75" y="62.9102">RecordAndReplay</text><line style="stroke: #A80036; stroke-width: 1.5;" x1="33" x2="277" y1="74" y2="74"/><line style="stroke: #A80036; stroke-width: 1.5;" x1="33" x2="277" y1="82" y2="82"/><ellipse cx="43" cy="93" fill="#84BE84" rx="3" ry="3" style="stroke: #038048; stroke-width: 1.0;"/><text fill="#000000" font-family="sans-serif" font-size="11" lengthAdjust="spacingAndGlyphs" textLength="112" x="52" y="97.4189">RecordAndReplay(Gui)</text><ellipse cx="43" cy="106.8359" fill="#84BE84" rx="3" ry="3" style="stroke: #038048; stroke-width: 1.0;"/><text fill="#000000" font-family="sans-serif" font-size="11" lengthAdjust="spacingAndGlyphs" textLength="220" x="52" y="111.2549">loadRecording(Map&lt;Long, List&lt;Move&gt;&gt;): void</text><ellipse cx="43" cy="120.6719" fill="#84BE84" rx="3" ry="3" style="stroke: #038048; stroke-width: 1.0;"/><text fill="#000000" font-family="sans-serif" font-size="11" lengthAdjust="spacingAndGlyphs" text-decoration="underline" textLength="105" x="52" y="125.0908">startRecording(): void</text><ellipse cx="43" cy="134.5078" fill="#84BE84" rx="3" ry="3" style="stroke: #038048; stroke-width: 1.0;"/><text fill="#000000" font-family="sans-serif" font-size="11" lengthAdjust="spacingAndGlyphs" text-decoration="underline" textLength="104" x="52" y="138.9268">stopRecording(): void</text><ellipse cx="43" cy="148.3438" fill="#84BE84" rx="3" ry="3" style="stroke: #038048; stroke-width: 1.0;"/><text fill="#000000" font-family="sans-serif" font-size="11" lengthAdjust="spacingAndGlyphs" textLength="104" x="52" y="152.7627">addMove(Move): void</text><ellipse cx="43" cy="162.1797" fill="#84BE84" rx="3" ry="3" style="stroke: #038048; stroke-width: 1.0;"/><text fill="#000000" font-family="sans-serif" font-size="11" lengthAdjust="spacingAndGlyphs" textLength="103" x="52" y="166.5986">playRecording(): void</text><ellipse cx="43" cy="176.0156" fill="#84BE84" rx="3" ry="3" style="stroke: #038048; stroke-width: 1.0;"/><text fill="#000000" font-family="sans-serif" font-size="11" lengthAdjust="spacingAndGlyphs" textLength="98" x="52" y="180.4346">stopPlayback(): void</text><ellipse cx="43" cy="189.8516" fill="#84BE84" rx="3" ry="3" style="stroke: #038048; stroke-width: 1.0;"/><text fill="#000000" font-family="sans-serif" font-size="11" lengthAdjust="spacingAndGlyphs" text-decoration="underline" textLength="97" x="52" y="194.2705">stepForward(): void</text><ellipse cx="43" cy="203.6875" fill="#84BE84" rx="3" ry="3" style="stroke: #038048; stroke-width: 1.0;"/><text fill="#000000" font-family="sans-serif" font-size="11" lengthAdjust="spacingAndGlyphs" text-decoration="underline" textLength="79" x="52" y="208.1064">stepBack(): void</text><ellipse cx="43" cy="217.5234" fill="#84BE84" rx="3" ry="3" style="stroke: #038048; stroke-width: 1.0;"/><text fill="#000000" font-family="sans-serif" font-size="11" lengthAdjust="spacingAndGlyphs" textLength="85" x="52" y="221.9424">nextFrame(): void</text><ellipse cx="43" cy="231.3594" fill="#84BE84" rx="3" ry="3" style="stroke: #038048; stroke-width: 1.0;"/><text fill="#000000" font-family="sans-serif" font-size="11" lengthAdjust="spacingAndGlyphs" textLength="81" x="52" y="235.7783">lastFrame(): void</text><ellipse cx="43" cy="245.1953" fill="#84BE84" rx="3" ry="3" style="stroke: #038048; stroke-width: 1.0;"/><text fill="#000000" font-family="sans-serif" font-size="11" lengthAdjust="spacingAndGlyphs" textLength="109" x="52" y="249.6143">isRecording(): boolean</text><ellipse cx="43" cy="259.0313" fill="#84BE84" rx="3" ry="3" style="stroke: #038048; stroke-width: 1.0;"/><text fill="#000000" font-family="sans-serif" font-size="11" lengthAdjust="spacingAndGlyphs" textLength="137" x="52" y="263.4502">isInPlaybackMode(): boolean</text><ellipse cx="43" cy="272.8672" fill="#84BE84" rx="3" ry="3" style="stroke: #038048; stroke-width: 1.0;"/><text fill="#000000" font-family="sans-serif" font-size="11" lengthAdjust="spacingAndGlyphs" textLength="155" x="52" y="277.2861">setPlaybackSpeed(double): void</text><ellipse cx="43" cy="286.7031" fill="#84BE84" rx="3" ry="3" style="stroke: #038048; stroke-width: 1.0;"/><text fill="#000000" font-family="sans-serif" font-size="11" lengthAdjust="spacingAndGlyphs" textLength="213" x="52" y="291.1221">getMovesByTime(): Map&lt;Long, List&lt;Move&gt;&gt;</text><ellipse cx="43" cy="300.5391" fill="#84BE84" rx="3" ry="3" style="stroke: #038048; stroke-width: 1.0;"/><text fill="#000000" font-family="sans-serif" font-size="11" lengthAdjust="spacingAndGlyphs" textLength="86" x="52" y="304.958">getSaveFile(): File</text><ellipse cx="43" cy="314.375" fill="#84BE84" rx="3" ry="3" style="stroke: #038048; stroke-width: 1.0;"/><text fill="#000000" font-family="sans-serif" font-size="11" lengthAdjust="spacingAndGlyphs" textLength="106" x="52" y="318.7939">setSaveFile(File): void</text></a><text fill="#888888" font-family="sans-serif" font-size="10" lengthAdjust="spacingAndGlyphs" textLength="190" x="115.5" y="357.3809">UMLDoclet 2.0.12, PlantUML 1.2020.16</text><!--MD5=[b6d365b0487dbbec81d9aa6f4d45f9f1]
@startuml
    namespace nz.ac.vuw.ecs.swen225.gp20.recnplay {

        class Move [[Move.html]] {
            +actorId: int
            +direction: int
            +Move(int, int)
            +Move()
        }

        class RecordAndReplay [[RecordAndReplay.html]] {
            +RecordAndReplay(Gui)
            +loadRecording(Map<Long, List<Move>>): void
            {static} +startRecording(): void
            {static} +stopRecording(): void
            +addMove(Move): void
            +playRecording(): void
            +stopPlayback(): void
            {static} +stepForward(): void
            {static} +stepBack(): void
            +nextFrame(): void
            +lastFrame(): void
            +isRecording(): boolean
            +isInPlaybackMode(): boolean
            +setPlaybackSpeed(double): void
            +getMovesByTime(): Map<Long, List<Move>>
            +getSaveFile(): File
            +setSaveFile(File): void
        }

    }

    center footer UMLDoclet 2.0.12, PlantUML 1.2020.16
@enduml

PlantUML version 1.2020.16(Mon Aug 24 08:20:43 NZST 2020)
(APACHE source distribution)
Java Runtime: OpenJDK Runtime Environment
JVM: OpenJDK 64-Bit Server VM
Default Encoding: Cp1252
Language: en
Country: NZ
--></g></svg>