<?xml version="1.0" encoding="UTF-8" standalone="no"?><svg xmlns="http://www.w3.org/2000/svg" xmlns:xlink="http://www.w3.org/1999/xlink" contentScriptType="application/ecmascript" contentStyleType="text/css" height="321px" preserveAspectRatio="none" style="width:272px;height:321px;" version="1.1" viewBox="0 0 272 321" width="272px" zoomAndPan="magnify"><defs><filter height="300%" id="fzkty1d1eovf7" width="300%" x="-1" y="-1"><feGaussianBlur result="blurOut" stdDeviation="2.0"/><feColorMatrix in="blurOut" result="blurOut2" type="matrix" values="0 0 0 0 0 0 0 0 0 0 0 0 0 0 0 0 0 0 .4 0"/><feOffset dx="4.0" dy="4.0" in="blurOut2" result="blurOut3"/><feBlend in="SourceGraphic" in2="blurOut3" mode="normal"/></filter></defs><g><!--MD5=[d772ef405ae22ee830472995a8945713]
class nz.ac.vuw.ecs.swen225.gp20.recnplay.RecordAndReplay--><a href="RecordAndReplay.html" target="_top" title="RecordAndReplay.html" xlink:actuate="onRequest" xlink:href="RecordAndReplay.html" xlink:show="new" xlink:title="RecordAndReplay.html" xlink:type="simple"><rect codeLine="5" fill="#FEFECE" filter="url(#fzkty1d1eovf7)" height="283.3984" id="nz.ac.vuw.ecs.swen225.gp20.recnplay.RecordAndReplay" style="stroke: #A80036; stroke-width: 1.5;" width="246" x="7" y="7"/><ellipse cx="36.85" cy="27.0938" fill="#ADD1B2" rx="11" ry="11" style="stroke: #A80036; stroke-width: 1.0;"/><path d="M39.6156,22.9688 Q39.7719,22.75 39.9594,22.6406 Q40.1469,22.5313 40.3656,22.5313 Q40.7406,22.5313 40.975,22.7969 Q41.2094,23.0469 41.2094,23.6563 L41.2094,25.1094 Q41.2094,25.7188 40.975,25.9844 Q40.7406,26.25 40.3656,26.25 Q40.0219,26.25 39.8188,26.0469 Q39.6156,25.8594 39.5063,25.3438 Q39.4594,24.9844 39.2719,24.7969 Q38.9438,24.4219 38.3344,24.2031 Q37.725,23.9844 37.1,23.9844 Q36.3344,23.9844 35.6938,24.3125 Q35.0688,24.6406 34.5688,25.3906 Q34.0844,26.1406 34.0844,27.1719 L34.0844,28.2656 Q34.0844,29.5 34.975,30.3281 Q35.8656,31.1406 37.4594,31.1406 Q38.3969,31.1406 39.0531,30.8906 Q39.4438,30.7344 39.8656,30.2969 Q40.1313,30.0313 40.2719,29.9531 Q40.4281,29.875 40.6313,29.875 Q40.9594,29.875 41.2094,30.1406 Q41.475,30.3906 41.475,30.7344 Q41.475,31.0781 41.1313,31.4844 Q40.6313,32.0625 39.8344,32.3906 Q38.7563,32.8438 37.4594,32.8438 Q35.9438,32.8438 34.7406,32.2188 Q33.7563,31.7188 33.0688,30.6563 Q32.3813,29.5781 32.3813,28.2969 L32.3813,27.1406 Q32.3813,25.8125 32.9906,24.6719 Q33.6156,23.5156 34.7094,22.9063 Q35.8031,22.2813 37.0375,22.2813 Q37.7719,22.2813 38.4125,22.4531 Q39.0688,22.6094 39.6156,22.9688 Z "/><text fill="#000000" font-family="sans-serif" font-size="14" lengthAdjust="spacingAndGlyphs" textLength="115" x="87.15" y="26.5332">RecordAndReplay</text><text fill="#000000" font-family="sans-serif" font-size="10" lengthAdjust="spacingAndGlyphs" textLength="181" x="54.15" y="39.9902">nz.ac.vuw.ecs.swen225.gp20.recnplay</text><line style="stroke: #A80036; stroke-width: 1.5;" x1="8" x2="252" y1="47.1875" y2="47.1875"/><ellipse cx="18" cy="58.1875" fill="#84BE84" rx="3" ry="3" style="stroke: #038048; stroke-width: 1.0;"/><text fill="#000000" font-family="sans-serif" font-size="11" lengthAdjust="spacingAndGlyphs" textLength="112" x="27" y="62.6064">RecordAndReplay(Gui)</text><ellipse cx="18" cy="72.0234" fill="#84BE84" rx="3" ry="3" style="stroke: #038048; stroke-width: 1.0;"/><text fill="#000000" font-family="sans-serif" font-size="11" lengthAdjust="spacingAndGlyphs" textLength="220" x="27" y="76.4424">loadRecording(Map&lt;Long, List&lt;Move&gt;&gt;): void</text><ellipse cx="18" cy="85.8594" fill="#84BE84" rx="3" ry="3" style="stroke: #038048; stroke-width: 1.0;"/><text fill="#000000" font-family="sans-serif" font-size="11" lengthAdjust="spacingAndGlyphs" text-decoration="underline" textLength="105" x="27" y="90.2783">startRecording(): void</text><ellipse cx="18" cy="99.6953" fill="#84BE84" rx="3" ry="3" style="stroke: #038048; stroke-width: 1.0;"/><text fill="#000000" font-family="sans-serif" font-size="11" lengthAdjust="spacingAndGlyphs" text-decoration="underline" textLength="104" x="27" y="104.1143">stopRecording(): void</text><ellipse cx="18" cy="113.5313" fill="#84BE84" rx="3" ry="3" style="stroke: #038048; stroke-width: 1.0;"/><text fill="#000000" font-family="sans-serif" font-size="11" lengthAdjust="spacingAndGlyphs" textLength="104" x="27" y="117.9502">addMove(Move): void</text><ellipse cx="18" cy="127.3672" fill="#84BE84" rx="3" ry="3" style="stroke: #038048; stroke-width: 1.0;"/><text fill="#000000" font-family="sans-serif" font-size="11" lengthAdjust="spacingAndGlyphs" textLength="103" x="27" y="131.7861">playRecording(): void</text><ellipse cx="18" cy="141.2031" fill="#84BE84" rx="3" ry="3" style="stroke: #038048; stroke-width: 1.0;"/><text fill="#000000" font-family="sans-serif" font-size="11" lengthAdjust="spacingAndGlyphs" textLength="98" x="27" y="145.6221">stopPlayback(): void</text><ellipse cx="18" cy="155.0391" fill="#84BE84" rx="3" ry="3" style="stroke: #038048; stroke-width: 1.0;"/><text fill="#000000" font-family="sans-serif" font-size="11" lengthAdjust="spacingAndGlyphs" text-decoration="underline" textLength="97" x="27" y="159.458">stepForward(): void</text><ellipse cx="18" cy="168.875" fill="#84BE84" rx="3" ry="3" style="stroke: #038048; stroke-width: 1.0;"/><text fill="#000000" font-family="sans-serif" font-size="11" lengthAdjust="spacingAndGlyphs" text-decoration="underline" textLength="79" x="27" y="173.2939">stepBack(): void</text><ellipse cx="18" cy="182.7109" fill="#84BE84" rx="3" ry="3" style="stroke: #038048; stroke-width: 1.0;"/><text fill="#000000" font-family="sans-serif" font-size="11" lengthAdjust="spacingAndGlyphs" textLength="85" x="27" y="187.1299">nextFrame(): void</text><ellipse cx="18" cy="196.5469" fill="#84BE84" rx="3" ry="3" style="stroke: #038048; stroke-width: 1.0;"/><text fill="#000000" font-family="sans-serif" font-size="11" lengthAdjust="spacingAndGlyphs" textLength="81" x="27" y="200.9658">lastFrame(): void</text><ellipse cx="18" cy="210.3828" fill="#84BE84" rx="3" ry="3" style="stroke: #038048; stroke-width: 1.0;"/><text fill="#000000" font-family="sans-serif" font-size="11" lengthAdjust="spacingAndGlyphs" textLength="109" x="27" y="214.8018">isRecording(): boolean</text><ellipse cx="18" cy="224.2188" fill="#84BE84" rx="3" ry="3" style="stroke: #038048; stroke-width: 1.0;"/><text fill="#000000" font-family="sans-serif" font-size="11" lengthAdjust="spacingAndGlyphs" textLength="137" x="27" y="228.6377">isInPlaybackMode(): boolean</text><ellipse cx="18" cy="238.0547" fill="#84BE84" rx="3" ry="3" style="stroke: #038048; stroke-width: 1.0;"/><text fill="#000000" font-family="sans-serif" font-size="11" lengthAdjust="spacingAndGlyphs" textLength="155" x="27" y="242.4736">setPlaybackSpeed(double): void</text><ellipse cx="18" cy="251.8906" fill="#84BE84" rx="3" ry="3" style="stroke: #038048; stroke-width: 1.0;"/><text fill="#000000" font-family="sans-serif" font-size="11" lengthAdjust="spacingAndGlyphs" textLength="213" x="27" y="256.3096">getMovesByTime(): Map&lt;Long, List&lt;Move&gt;&gt;</text><ellipse cx="18" cy="265.7266" fill="#84BE84" rx="3" ry="3" style="stroke: #038048; stroke-width: 1.0;"/><text fill="#000000" font-family="sans-serif" font-size="11" lengthAdjust="spacingAndGlyphs" textLength="86" x="27" y="270.1455">getSaveFile(): File</text><ellipse cx="18" cy="279.5625" fill="#84BE84" rx="3" ry="3" style="stroke: #038048; stroke-width: 1.0;"/><text fill="#000000" font-family="sans-serif" font-size="11" lengthAdjust="spacingAndGlyphs" textLength="106" x="27" y="283.9814">setSaveFile(File): void</text></a><text fill="#888888" font-family="sans-serif" font-size="10" lengthAdjust="spacingAndGlyphs" textLength="190" x="35" y="307.7793">UMLDoclet 2.0.12, PlantUML 1.2020.16</text><!--MD5=[fb69d0db5917d4987b24b002c5d94c60]
@startuml
    set namespaceSeparator none
    hide empty fields
    hide empty methods

    class "<size:14>RecordAndReplay\n<size:10>nz.ac.vuw.ecs.swen225.gp20.recnplay" as nz.ac.vuw.ecs.swen225.gp20.recnplay.RecordAndReplay [[RecordAndReplay.html]] {
        +RecordAndReplay(Gui)
        +loadRecording(Map<Long, List<Move>>): void
        {static} +startRecording(): void
        {static} +stopRecording(): void
        +addMove(Move): void
        +playRecording(): void
        +stopPlayback(): void
        {static} +stepForward(): void
        {static} +stepBack(): void
        +nextFrame(): void
        +lastFrame(): void
        +isRecording(): boolean
        +isInPlaybackMode(): boolean
        +setPlaybackSpeed(double): void
        +getMovesByTime(): Map<Long, List<Move>>
        +getSaveFile(): File
        +setSaveFile(File): void
    }

    center footer UMLDoclet 2.0.12, PlantUML 1.2020.16
@enduml

PlantUML version 1.2020.16(Mon Aug 24 08:20:43 NZST 2020)
(APACHE source distribution)
Java Runtime: OpenJDK Runtime Environment
JVM: OpenJDK 64-Bit Server VM
Default Encoding: Cp1252
Language: en
Country: NZ
--></g></svg>