<?xml version="1.0" encoding="UTF-8" standalone="no"?><svg xmlns="http://www.w3.org/2000/svg" xmlns:xlink="http://www.w3.org/1999/xlink" contentScriptType="application/ecmascript" contentStyleType="text/css" height="358px" preserveAspectRatio="none" style="width:265px;height:358px;" version="1.1" viewBox="0 0 265 358" width="265px" zoomAndPan="magnify"><defs><filter height="300%" id="f1rsz1jrxwtt47" width="300%" x="-1" y="-1"><feGaussianBlur result="blurOut" stdDeviation="2.0"/><feColorMatrix in="blurOut" result="blurOut2" type="matrix" values="0 0 0 0 0 0 0 0 0 0 0 0 0 0 0 0 0 0 .4 0"/><feOffset dx="4.0" dy="4.0" in="blurOut2" result="blurOut3"/><feBlend in="SourceGraphic" in2="blurOut3" mode="normal"/></filter></defs><g><!--MD5=[d772ef405ae22ee830472995a8945713]
class nz.ac.vuw.ecs.swen225.gp20.recnplay.RecordAndReplay--><a href="RecordAndReplay.html" target="_top" title="RecordAndReplay.html" xlink:actuate="onRequest" xlink:href="RecordAndReplay.html" xlink:show="new" xlink:title="RecordAndReplay.html" xlink:type="simple"><rect codeLine="5" fill="#FEFECE" filter="url(#f1rsz1jrxwtt47)" height="214.2188" id="nz.ac.vuw.ecs.swen225.gp20.recnplay.RecordAndReplay" style="stroke: #A80036; stroke-width: 1.5;" width="239" x="7" y="7"/><ellipse cx="33.7" cy="27.0938" fill="#ADD1B2" rx="11" ry="11" style="stroke: #A80036; stroke-width: 1.0;"/><path d="M36.4656,22.9688 Q36.6219,22.75 36.8094,22.6406 Q36.9969,22.5313 37.2156,22.5313 Q37.5906,22.5313 37.825,22.7969 Q38.0594,23.0469 38.0594,23.6563 L38.0594,25.1094 Q38.0594,25.7188 37.825,25.9844 Q37.5906,26.25 37.2156,26.25 Q36.8719,26.25 36.6688,26.0469 Q36.4656,25.8594 36.3563,25.3438 Q36.3094,24.9844 36.1219,24.7969 Q35.7938,24.4219 35.1844,24.2031 Q34.575,23.9844 33.95,23.9844 Q33.1844,23.9844 32.5438,24.3125 Q31.9188,24.6406 31.4188,25.3906 Q30.9344,26.1406 30.9344,27.1719 L30.9344,28.2656 Q30.9344,29.5 31.825,30.3281 Q32.7156,31.1406 34.3094,31.1406 Q35.2469,31.1406 35.9031,30.8906 Q36.2938,30.7344 36.7156,30.2969 Q36.9813,30.0313 37.1219,29.9531 Q37.2781,29.875 37.4813,29.875 Q37.8094,29.875 38.0594,30.1406 Q38.325,30.3906 38.325,30.7344 Q38.325,31.0781 37.9813,31.4844 Q37.4813,32.0625 36.6844,32.3906 Q35.6063,32.8438 34.3094,32.8438 Q32.7938,32.8438 31.5906,32.2188 Q30.6063,31.7188 29.9188,30.6563 Q29.2313,29.5781 29.2313,28.2969 L29.2313,27.1406 Q29.2313,25.8125 29.8406,24.6719 Q30.4656,23.5156 31.5594,22.9063 Q32.6531,22.2813 33.8875,22.2813 Q34.6219,22.2813 35.2625,22.4531 Q35.9188,22.6094 36.4656,22.9688 Z "/><text fill="#000000" font-family="sans-serif" font-size="14" lengthAdjust="spacingAndGlyphs" textLength="115" x="83.3" y="26.5332">RecordAndReplay</text><text fill="#000000" font-family="sans-serif" font-size="10" lengthAdjust="spacingAndGlyphs" textLength="181" x="50.3" y="39.9902">nz.ac.vuw.ecs.swen225.gp20.recnplay</text><line style="stroke: #A80036; stroke-width: 1.5;" x1="8" x2="245" y1="47.1875" y2="47.1875"/><ellipse cx="18" cy="58.1875" fill="#84BE84" rx="3" ry="3" style="stroke: #038048; stroke-width: 1.0;"/><text fill="#000000" font-family="sans-serif" font-size="11" lengthAdjust="spacingAndGlyphs" textLength="112" x="27" y="62.6064">RecordAndReplay(Gui)</text><ellipse cx="18" cy="72.0234" fill="#84BE84" rx="3" ry="3" style="stroke: #038048; stroke-width: 1.0;"/><text fill="#000000" font-family="sans-serif" font-size="11" lengthAdjust="spacingAndGlyphs" textLength="104" x="27" y="76.4424">addMove(Move): void</text><ellipse cx="18" cy="85.8594" fill="#84BE84" rx="3" ry="3" style="stroke: #038048; stroke-width: 1.0;"/><text fill="#000000" font-family="sans-serif" font-size="11" lengthAdjust="spacingAndGlyphs" textLength="103" x="27" y="90.2783">playRecording(): void</text><ellipse cx="18" cy="99.6953" fill="#84BE84" rx="3" ry="3" style="stroke: #038048; stroke-width: 1.0;"/><text fill="#000000" font-family="sans-serif" font-size="11" lengthAdjust="spacingAndGlyphs" text-decoration="underline" textLength="97" x="27" y="104.1143">stepForward(): void</text><ellipse cx="18" cy="113.5313" fill="#84BE84" rx="3" ry="3" style="stroke: #038048; stroke-width: 1.0;"/><text fill="#000000" font-family="sans-serif" font-size="11" lengthAdjust="spacingAndGlyphs" text-decoration="underline" textLength="79" x="27" y="117.9502">stepBack(): void</text><ellipse cx="18" cy="127.3672" fill="#84BE84" rx="3" ry="3" style="stroke: #038048; stroke-width: 1.0;"/><text fill="#000000" font-family="sans-serif" font-size="11" lengthAdjust="spacingAndGlyphs" textLength="85" x="27" y="131.7861">nextFrame(): void</text><ellipse cx="18" cy="141.2031" fill="#84BE84" rx="3" ry="3" style="stroke: #038048; stroke-width: 1.0;"/><text fill="#000000" font-family="sans-serif" font-size="11" lengthAdjust="spacingAndGlyphs" textLength="81" x="27" y="145.6221">lastFrame(): void</text><ellipse cx="18" cy="155.0391" fill="#84BE84" rx="3" ry="3" style="stroke: #038048; stroke-width: 1.0;"/><text fill="#000000" font-family="sans-serif" font-size="11" lengthAdjust="spacingAndGlyphs" textLength="155" x="27" y="159.458">setPlaybackSpeed(double): void</text><ellipse cx="18" cy="168.875" fill="#84BE84" rx="3" ry="3" style="stroke: #038048; stroke-width: 1.0;"/><text fill="#000000" font-family="sans-serif" font-size="11" lengthAdjust="spacingAndGlyphs" textLength="213" x="27" y="173.2939">getMovesByTime(): Map&lt;Long, List&lt;Move&gt;&gt;</text><ellipse cx="18" cy="182.7109" fill="#84BE84" rx="3" ry="3" style="stroke: #038048; stroke-width: 1.0;"/><text fill="#000000" font-family="sans-serif" font-size="11" lengthAdjust="spacingAndGlyphs" textLength="86" x="27" y="187.1299">getSaveFile(): File</text><ellipse cx="18" cy="196.5469" fill="#84BE84" rx="3" ry="3" style="stroke: #038048; stroke-width: 1.0;"/><text fill="#000000" font-family="sans-serif" font-size="11" lengthAdjust="spacingAndGlyphs" textLength="106" x="27" y="200.9658">setSaveFile(File): void</text><ellipse cx="18" cy="210.3828" fill="#84BE84" rx="3" ry="3" style="stroke: #038048; stroke-width: 1.0;"/><text fill="#000000" font-family="sans-serif" font-size="11" lengthAdjust="spacingAndGlyphs" textLength="79" x="27" y="214.8018">getState(): State</text></a><!--MD5=[a1c3453d084563a393921cb009fbef3d]
class nz.ac.vuw.ecs.swen225.gp20.recnplay.RecordAndReplay.State--><rect codeLine="19" fill="#FEFECE" filter="url(#f1rsz1jrxwtt47)" height="40.1875" id="nz.ac.vuw.ecs.swen225.gp20.recnplay.RecordAndReplay.State" style="stroke: #A80036; stroke-width: 1.5;" width="213" x="20" y="281"/><ellipse cx="35" cy="301.0938" fill="#EB937F" rx="11" ry="11" style="stroke: #A80036; stroke-width: 1.0;"/><path d="M33.8594,301.8906 L33.8594,304.3906 L38.1875,304.3906 L38.1875,303.4688 Q38.1875,302.8594 38.4219,302.5938 Q38.6719,302.3281 39.0469,302.3281 Q39.4219,302.3281 39.6563,302.5938 Q39.8906,302.8594 39.8906,303.4688 L39.8906,306.0938 L31.8906,306.0938 Q31.2656,306.0938 31,305.8594 Q30.75,305.625 30.75,305.2344 Q30.75,304.8594 31.0156,304.625 Q31.2813,304.3906 31.8906,304.3906 L32.1563,304.3906 L32.1563,297.7344 L31.8906,297.7344 Q31.2656,297.7344 31,297.5 Q30.75,297.2656 30.75,296.875 Q30.75,296.5 31,296.2656 Q31.2656,296.0313 31.8906,296.0313 L39.5156,296.0313 L39.5156,298.625 Q39.5156,299.2344 39.2813,299.5 Q39.0625,299.75 38.6719,299.75 Q38.2969,299.75 38.0625,299.5 Q37.8281,299.2344 37.8281,298.625 L37.8281,297.7344 L33.8594,297.7344 L33.8594,300.1875 L35.3438,300.1875 Q35.3438,299.5313 35.4688,299.3438 Q35.7344,298.9375 36.2031,298.9375 Q36.5781,298.9375 36.8125,299.2031 Q37.0469,299.4531 37.0469,300.0625 L37.0469,302.0313 Q37.0469,302.5781 36.9219,302.7656 Q36.6563,303.1563 36.2031,303.1563 Q35.7344,303.1563 35.4688,302.75 Q35.3438,302.5625 35.3438,301.8906 L33.8594,301.8906 Z "/><text fill="#000000" font-family="sans-serif" font-size="14" lengthAdjust="spacingAndGlyphs" textLength="152" x="63.5" y="300.5332">RecordAndReplay.State</text><text fill="#000000" font-family="sans-serif" font-size="10" lengthAdjust="spacingAndGlyphs" textLength="181" x="49" y="313.9902">nz.ac.vuw.ecs.swen225.gp20.recnplay</text><!--MD5=[f33c87c22983382a72d7c6c7b3e46a32]
reverse link nz.ac.vuw.ecs.swen225.gp20.recnplay.RecordAndReplay to nz.ac.vuw.ecs.swen225.gp20.recnplay.RecordAndReplay.State--><path codeLine="21" d="M126.5,236.19 C126.5,253.52 126.5,269.35 126.5,280.91 " fill="none" id="nz.ac.vuw.ecs.swen225.gp20.recnplay.RecordAndReplay-backto-nz.ac.vuw.ecs.swen225.gp20.recnplay.RecordAndReplay.State" style="stroke: #A80036; stroke-width: 1.0;"/><ellipse cx="126.5" cy="229.01" fill="#FFFFFF" rx="8" ry="8" style="stroke: #A80036; stroke-width: 1.0;"/><line style="stroke: #A80036; stroke-width: 1.0;" x1="126.5" x2="126.5" y1="237.01" y2="221.01"/><line style="stroke: #A80036; stroke-width: 1.0;" x1="118.5" x2="134.5" y1="229.01" y2="229.01"/><text fill="#888888" font-family="sans-serif" font-size="10" lengthAdjust="spacingAndGlyphs" textLength="190" x="28.5" y="344.5684">UMLDoclet 2.0.12, PlantUML 1.2020.16</text><!--MD5=[1700b01198eccebb212271d022645160]
@startuml
    set namespaceSeparator none
    hide empty fields
    hide empty methods

    class "<size:14>RecordAndReplay\n<size:10>nz.ac.vuw.ecs.swen225.gp20.recnplay" as nz.ac.vuw.ecs.swen225.gp20.recnplay.RecordAndReplay [[RecordAndReplay.html]] {
        +RecordAndReplay(Gui)
        +addMove(Move): void
        +playRecording(): void
        {static} +stepForward(): void
        {static} +stepBack(): void
        +nextFrame(): void
        +lastFrame(): void
        +setPlaybackSpeed(double): void
        +getMovesByTime(): Map<Long, List<Move>>
        +getSaveFile(): File
        +setSaveFile(File): void
        +getState(): State
    }
    enum "<size:14>RecordAndReplay.State\n<size:10>nz.ac.vuw.ecs.swen225.gp20.recnplay" as nz.ac.vuw.ecs.swen225.gp20.recnplay.RecordAndReplay.State

    nz.ac.vuw.ecs.swen225.gp20.recnplay.RecordAndReplay +- - nz.ac.vuw.ecs.swen225.gp20.recnplay.RecordAndReplay.State

    center footer UMLDoclet 2.0.12, PlantUML 1.2020.16
@enduml

PlantUML version 1.2020.16(Mon Aug 24 08:20:43 NZST 2020)
(APACHE source distribution)
Java Runtime: OpenJDK Runtime Environment
JVM: OpenJDK 64-Bit Server VM
Default Encoding: Cp1252
Language: en
Country: NZ
--></g></svg>