<?xml version="1.0" encoding="UTF-8" standalone="no"?><svg xmlns="http://www.w3.org/2000/svg" xmlns:xlink="http://www.w3.org/1999/xlink" contentScriptType="application/ecmascript" contentStyleType="text/css" height="296px" preserveAspectRatio="none" style="width:277px;height:296px;" version="1.1" viewBox="0 0 277 296" width="277px" zoomAndPan="magnify"><defs><filter height="300%" id="f1ojl8efxxo6lo" width="300%" x="-1" y="-1"><feGaussianBlur result="blurOut" stdDeviation="2.0"/><feColorMatrix in="blurOut" result="blurOut2" type="matrix" values="0 0 0 0 0 0 0 0 0 0 0 0 0 0 0 0 0 0 .4 0"/><feOffset dx="4.0" dy="4.0" in="blurOut2" result="blurOut3"/><feBlend in="SourceGraphic" in2="blurOut3" mode="normal"/></filter></defs><g><!--MD5=[a1c3453d084563a393921cb009fbef3d]
class nz.ac.vuw.ecs.swen225.gp20.recnplay.RecordAndReplay.State--><rect codeLine="5" fill="#FEFECE" filter="url(#f1ojl8efxxo6lo)" height="153.0391" id="nz.ac.vuw.ecs.swen225.gp20.recnplay.RecordAndReplay.State" style="stroke: #A80036; stroke-width: 1.5;" width="251" x="7" y="107"/><ellipse cx="39.1" cy="127.0938" fill="#EB937F" rx="11" ry="11" style="stroke: #A80036; stroke-width: 1.0;"/><path d="M37.9594,127.8906 L37.9594,130.3906 L42.2875,130.3906 L42.2875,129.4688 Q42.2875,128.8594 42.5219,128.5938 Q42.7719,128.3281 43.1469,128.3281 Q43.5219,128.3281 43.7563,128.5938 Q43.9906,128.8594 43.9906,129.4688 L43.9906,132.0938 L35.9906,132.0938 Q35.3656,132.0938 35.1,131.8594 Q34.85,131.625 34.85,131.2344 Q34.85,130.8594 35.1156,130.625 Q35.3813,130.3906 35.9906,130.3906 L36.2563,130.3906 L36.2563,123.7344 L35.9906,123.7344 Q35.3656,123.7344 35.1,123.5 Q34.85,123.2656 34.85,122.875 Q34.85,122.5 35.1,122.2656 Q35.3656,122.0313 35.9906,122.0313 L43.6156,122.0313 L43.6156,124.625 Q43.6156,125.2344 43.3813,125.5 Q43.1625,125.75 42.7719,125.75 Q42.3969,125.75 42.1625,125.5 Q41.9281,125.2344 41.9281,124.625 L41.9281,123.7344 L37.9594,123.7344 L37.9594,126.1875 L39.4438,126.1875 Q39.4438,125.5313 39.5688,125.3438 Q39.8344,124.9375 40.3031,124.9375 Q40.6781,124.9375 40.9125,125.2031 Q41.1469,125.4531 41.1469,126.0625 L41.1469,128.0313 Q41.1469,128.5781 41.0219,128.7656 Q40.7563,129.1563 40.3031,129.1563 Q39.8344,129.1563 39.5688,128.75 Q39.4438,128.5625 39.4438,127.8906 L37.9594,127.8906 Z "/><text fill="#000000" font-family="sans-serif" font-size="14" lengthAdjust="spacingAndGlyphs" textLength="152" x="71.4" y="126.5332">RecordAndReplay.State</text><text fill="#000000" font-family="sans-serif" font-size="10" lengthAdjust="spacingAndGlyphs" textLength="181" x="56.9" y="139.9902">nz.ac.vuw.ecs.swen225.gp20.recnplay</text><line style="stroke: #A80036; stroke-width: 1.5;" x1="8" x2="257" y1="147.1875" y2="147.1875"/><ellipse cx="18" cy="158.1875" fill="none" rx="3" ry="3" style="stroke: #038048; stroke-width: 1.0;"/><text fill="#000000" font-family="sans-serif" font-size="11" lengthAdjust="spacingAndGlyphs" text-decoration="underline" textLength="59" x="27" y="162.6064">RECORDING</text><ellipse cx="18" cy="172.0234" fill="none" rx="3" ry="3" style="stroke: #038048; stroke-width: 1.0;"/><text fill="#000000" font-family="sans-serif" font-size="11" lengthAdjust="spacingAndGlyphs" text-decoration="underline" textLength="42" x="27" y="176.4424">LOADED</text><ellipse cx="18" cy="185.8594" fill="none" rx="3" ry="3" style="stroke: #038048; stroke-width: 1.0;"/><text fill="#000000" font-family="sans-serif" font-size="11" lengthAdjust="spacingAndGlyphs" text-decoration="underline" textLength="58" x="27" y="190.2783">REPLAYING</text><ellipse cx="18" cy="199.6953" fill="none" rx="3" ry="3" style="stroke: #038048; stroke-width: 1.0;"/><text fill="#000000" font-family="sans-serif" font-size="11" lengthAdjust="spacingAndGlyphs" text-decoration="underline" textLength="48" x="27" y="204.1143">SLEEPING</text><line style="stroke: #A80036; stroke-width: 1.5;" x1="8" x2="257" y1="210.5313" y2="210.5313"/><ellipse cx="18" cy="221.5313" fill="#84BE84" rx="3" ry="3" style="stroke: #038048; stroke-width: 1.0;"/><text fill="#000000" font-family="sans-serif" font-size="11" font-style="italic" lengthAdjust="spacingAndGlyphs" textLength="129" x="27" y="225.9502">startStopRecording(): void</text><ellipse cx="18" cy="235.3672" fill="#84BE84" rx="3" ry="3" style="stroke: #038048; stroke-width: 1.0;"/><text fill="#000000" font-family="sans-serif" font-size="11" font-style="italic" lengthAdjust="spacingAndGlyphs" textLength="112" x="27" y="239.7861">startStopReplay(): void</text><ellipse cx="18" cy="249.2031" fill="#84BE84" rx="3" ry="3" style="stroke: #038048; stroke-width: 1.0;"/><text fill="#000000" font-family="sans-serif" font-size="11" font-style="italic" lengthAdjust="spacingAndGlyphs" textLength="225" x="27" y="253.6221">loadRecording(Map&lt;Long, List&lt;Move&gt;&gt;): void</text><!--MD5=[d772ef405ae22ee830472995a8945713]
class nz.ac.vuw.ecs.swen225.gp20.recnplay.RecordAndReplay--><a href="RecordAndReplay.html" target="_top" title="RecordAndReplay.html" xlink:actuate="onRequest" xlink:href="RecordAndReplay.html" xlink:show="new" xlink:title="RecordAndReplay.html" xlink:type="simple"><rect codeLine="15" fill="#FEFECE" filter="url(#f1ojl8efxxo6lo)" height="40.1875" id="nz.ac.vuw.ecs.swen225.gp20.recnplay.RecordAndReplay" style="stroke: #A80036; stroke-width: 1.5;" width="213" x="26" y="7"/><ellipse cx="41" cy="27.0938" fill="#ADD1B2" rx="11" ry="11" style="stroke: #A80036; stroke-width: 1.0;"/><path d="M43.7656,22.9688 Q43.9219,22.75 44.1094,22.6406 Q44.2969,22.5313 44.5156,22.5313 Q44.8906,22.5313 45.125,22.7969 Q45.3594,23.0469 45.3594,23.6563 L45.3594,25.1094 Q45.3594,25.7188 45.125,25.9844 Q44.8906,26.25 44.5156,26.25 Q44.1719,26.25 43.9688,26.0469 Q43.7656,25.8594 43.6563,25.3438 Q43.6094,24.9844 43.4219,24.7969 Q43.0938,24.4219 42.4844,24.2031 Q41.875,23.9844 41.25,23.9844 Q40.4844,23.9844 39.8438,24.3125 Q39.2188,24.6406 38.7188,25.3906 Q38.2344,26.1406 38.2344,27.1719 L38.2344,28.2656 Q38.2344,29.5 39.125,30.3281 Q40.0156,31.1406 41.6094,31.1406 Q42.5469,31.1406 43.2031,30.8906 Q43.5938,30.7344 44.0156,30.2969 Q44.2813,30.0313 44.4219,29.9531 Q44.5781,29.875 44.7813,29.875 Q45.1094,29.875 45.3594,30.1406 Q45.625,30.3906 45.625,30.7344 Q45.625,31.0781 45.2813,31.4844 Q44.7813,32.0625 43.9844,32.3906 Q42.9063,32.8438 41.6094,32.8438 Q40.0938,32.8438 38.8906,32.2188 Q37.9063,31.7188 37.2188,30.6563 Q36.5313,29.5781 36.5313,28.2969 L36.5313,27.1406 Q36.5313,25.8125 37.1406,24.6719 Q37.7656,23.5156 38.8594,22.9063 Q39.9531,22.2813 41.1875,22.2813 Q41.9219,22.2813 42.5625,22.4531 Q43.2188,22.6094 43.7656,22.9688 Z "/><text fill="#000000" font-family="sans-serif" font-size="14" lengthAdjust="spacingAndGlyphs" textLength="115" x="88" y="26.5332">RecordAndReplay</text><text fill="#000000" font-family="sans-serif" font-size="10" lengthAdjust="spacingAndGlyphs" textLength="181" x="55" y="39.9902">nz.ac.vuw.ecs.swen225.gp20.recnplay</text></a><!--MD5=[f33c87c22983382a72d7c6c7b3e46a32]
reverse link nz.ac.vuw.ecs.swen225.gp20.recnplay.RecordAndReplay to nz.ac.vuw.ecs.swen225.gp20.recnplay.RecordAndReplay.State--><path codeLine="17" d="M132.5,62.48 C132.5,75.67 132.5,91.3 132.5,106.84 " fill="none" id="nz.ac.vuw.ecs.swen225.gp20.recnplay.RecordAndReplay-backto-nz.ac.vuw.ecs.swen225.gp20.recnplay.RecordAndReplay.State" style="stroke: #A80036; stroke-width: 1.0;"/><ellipse cx="132.5" cy="55.26" fill="#FFFFFF" rx="8" ry="8" style="stroke: #A80036; stroke-width: 1.0;"/><line style="stroke: #A80036; stroke-width: 1.0;" x1="132.5" x2="132.5" y1="63.26" y2="47.26"/><line style="stroke: #A80036; stroke-width: 1.0;" x1="124.5" x2="140.5" y1="55.26" y2="55.26"/><text fill="#888888" font-family="sans-serif" font-size="10" lengthAdjust="spacingAndGlyphs" textLength="190" x="34.5" y="283.4199">UMLDoclet 2.0.12, PlantUML 1.2020.16</text><!--MD5=[37938e2ffb4443b1a5315150460fc1d3]
@startuml
    set namespaceSeparator none
    hide empty fields
    hide empty methods

    enum "<size:14>RecordAndReplay.State\n<size:10>nz.ac.vuw.ecs.swen225.gp20.recnplay" as nz.ac.vuw.ecs.swen225.gp20.recnplay.RecordAndReplay.State {
        {static} +RECORDING
        {static} +LOADED
        {static} +REPLAYING
        {static} +SLEEPING
        {abstract} +startStopRecording(): void
        {abstract} +startStopReplay(): void
        {abstract} +loadRecording(Map<Long, List<Move>>): void
    }

    class "<size:14>RecordAndReplay\n<size:10>nz.ac.vuw.ecs.swen225.gp20.recnplay" as nz.ac.vuw.ecs.swen225.gp20.recnplay.RecordAndReplay [[RecordAndReplay.html]]

    nz.ac.vuw.ecs.swen225.gp20.recnplay.RecordAndReplay +- - nz.ac.vuw.ecs.swen225.gp20.recnplay.RecordAndReplay.State

    center footer UMLDoclet 2.0.12, PlantUML 1.2020.16
@enduml

PlantUML version 1.2020.16(Mon Aug 24 08:20:43 NZST 2020)
(APACHE source distribution)
Java Runtime: OpenJDK Runtime Environment
JVM: OpenJDK 64-Bit Server VM
Default Encoding: Cp1252
Language: en
Country: NZ
--></g></svg>