<?xml version="1.0" encoding="UTF-8" standalone="no"?><svg xmlns="http://www.w3.org/2000/svg" xmlns:xlink="http://www.w3.org/1999/xlink" contentScriptType="application/ecmascript" contentStyleType="text/css" height="269px" preserveAspectRatio="none" style="width:242px;height:269px;" version="1.1" viewBox="0 0 242 269" width="242px" zoomAndPan="magnify"><defs><filter height="300%" id="f10vffkxeb73oz" width="300%" x="-1" y="-1"><feGaussianBlur result="blurOut" stdDeviation="2.0"/><feColorMatrix in="blurOut" result="blurOut2" type="matrix" values="0 0 0 0 0 0 0 0 0 0 0 0 0 0 0 0 0 0 .4 0"/><feOffset dx="4.0" dy="4.0" in="blurOut2" result="blurOut3"/><feBlend in="SourceGraphic" in2="blurOut3" mode="normal"/></filter></defs><g><!--MD5=[7674dc426519f0782a783018c8b67c8d]
class nz.ac.vuw.ecs.swen225.gp20.maze.ColoredPickup--><a href="ColoredPickup.html" target="_top" title="ColoredPickup.html" xlink:actuate="onRequest" xlink:href="ColoredPickup.html" xlink:show="new" xlink:title="ColoredPickup.html" xlink:type="simple"><rect codeLine="5" fill="#FEFECE" filter="url(#f10vffkxeb73oz)" height="125.3672" id="nz.ac.vuw.ecs.swen225.gp20.maze.ColoredPickup" style="stroke: #A80036; stroke-width: 1.5;" width="214" x="9" y="107"/><ellipse cx="31.2" cy="127.0938" fill="#ADD1B2" rx="11" ry="11" style="stroke: #A80036; stroke-width: 1.0;"/><path d="M33.9656,122.9688 Q34.1219,122.75 34.3094,122.6406 Q34.4969,122.5313 34.7156,122.5313 Q35.0906,122.5313 35.325,122.7969 Q35.5594,123.0469 35.5594,123.6563 L35.5594,125.1094 Q35.5594,125.7188 35.325,125.9844 Q35.0906,126.25 34.7156,126.25 Q34.3719,126.25 34.1688,126.0469 Q33.9656,125.8594 33.8563,125.3438 Q33.8094,124.9844 33.6219,124.7969 Q33.2938,124.4219 32.6844,124.2031 Q32.075,123.9844 31.45,123.9844 Q30.6844,123.9844 30.0438,124.3125 Q29.4188,124.6406 28.9188,125.3906 Q28.4344,126.1406 28.4344,127.1719 L28.4344,128.2656 Q28.4344,129.5 29.325,130.3281 Q30.2156,131.1406 31.8094,131.1406 Q32.7469,131.1406 33.4031,130.8906 Q33.7938,130.7344 34.2156,130.2969 Q34.4813,130.0313 34.6219,129.9531 Q34.7781,129.875 34.9813,129.875 Q35.3094,129.875 35.5594,130.1406 Q35.825,130.3906 35.825,130.7344 Q35.825,131.0781 35.4813,131.4844 Q34.9813,132.0625 34.1844,132.3906 Q33.1063,132.8438 31.8094,132.8438 Q30.2938,132.8438 29.0906,132.2188 Q28.1063,131.7188 27.4188,130.6563 Q26.7313,129.5781 26.7313,128.2969 L26.7313,127.1406 Q26.7313,125.8125 27.3406,124.6719 Q27.9656,123.5156 29.0594,122.9063 Q30.1531,122.2813 31.3875,122.2813 Q32.1219,122.2813 32.7625,122.4531 Q33.4188,122.6094 33.9656,122.9688 Z "/><text fill="#000000" font-family="sans-serif" font-size="14" lengthAdjust="spacingAndGlyphs" textLength="92" x="83.8" y="126.5332">ColoredPickup</text><text fill="#000000" font-family="sans-serif" font-size="10" lengthAdjust="spacingAndGlyphs" textLength="166" x="46.8" y="139.9902">nz.ac.vuw.ecs.swen225.gp20.maze</text><line style="stroke: #A80036; stroke-width: 1.5;" x1="10" x2="222" y1="147.1875" y2="147.1875"/><polygon fill="none" points="20,153.1875,24,157.1875,20,161.1875,16,157.1875" style="stroke: #B38D22; stroke-width: 1.0;"/><text fill="#000000" font-family="sans-serif" font-size="11" lengthAdjust="spacingAndGlyphs" textLength="74" x="29" y="162.6064">color: KeyColor</text><line style="stroke: #A80036; stroke-width: 1.5;" x1="10" x2="222" y1="169.0234" y2="169.0234"/><ellipse cx="20" cy="180.0234" fill="#84BE84" rx="3" ry="3" style="stroke: #038048; stroke-width: 1.0;"/><text fill="#000000" font-family="sans-serif" font-size="11" lengthAdjust="spacingAndGlyphs" textLength="76" x="29" y="184.4424">ColoredPickup()</text><ellipse cx="20" cy="193.8594" fill="#84BE84" rx="3" ry="3" style="stroke: #038048; stroke-width: 1.0;"/><text fill="#000000" font-family="sans-serif" font-size="11" lengthAdjust="spacingAndGlyphs" textLength="188" x="29" y="198.2783">ColoredPickup(String, String, KeyColor)</text><ellipse cx="20" cy="207.6953" fill="#84BE84" rx="3" ry="3" style="stroke: #038048; stroke-width: 1.0;"/><text fill="#000000" font-family="sans-serif" font-size="11" lengthAdjust="spacingAndGlyphs" textLength="118" x="29" y="212.1143">setColor(KeyColor): void</text><ellipse cx="20" cy="221.5313" fill="#84BE84" rx="3" ry="3" style="stroke: #038048; stroke-width: 1.0;"/><text fill="#000000" font-family="sans-serif" font-size="11" lengthAdjust="spacingAndGlyphs" textLength="98" x="29" y="225.9502">getColor(): KeyColor</text></a><!--MD5=[e982dbd23db6457c672a1ca3a776f93d]
class nz.ac.vuw.ecs.swen225.gp20.maze.Pickup--><a href="Pickup.html" target="_top" title="Pickup.html" xlink:actuate="onRequest" xlink:href="Pickup.html" xlink:show="new" xlink:title="Pickup.html" xlink:type="simple"><rect codeLine="13" fill="#FEFECE" filter="url(#f10vffkxeb73oz)" height="40.1875" id="nz.ac.vuw.ecs.swen225.gp20.maze.Pickup" style="stroke: #A80036; stroke-width: 1.5;" width="198" x="17" y="7"/><ellipse cx="32" cy="27.0938" fill="#A9DCDF" rx="11" ry="11" style="stroke: #A80036; stroke-width: 1.0;"/><path d="M34.1875,28.8594 L30.0469,28.8594 L29.625,29.8906 L30.0469,29.8906 Q30.6563,29.8906 30.9219,30.125 Q31.1875,30.3594 31.1875,30.75 Q31.1875,31.125 30.9219,31.3594 Q30.6563,31.5938 30.0469,31.5938 L27.75,31.5938 Q27.1406,31.5938 26.8906,31.3594 Q26.625,31.125 26.625,30.7344 Q26.625,30.3594 26.9063,30.125 Q27.1719,29.875 27.7969,29.8906 L30.4688,23.2344 L29.3594,23.2344 Q28.75,23.2344 28.4844,23 Q28.2188,22.7656 28.2188,22.375 Q28.2188,22 28.4844,21.7656 Q28.75,21.5313 29.3594,21.5313 L33.0313,21.5313 L36.4219,29.8906 Q37.0156,29.8906 37.2031,30.0313 Q37.5938,30.2969 37.5938,30.75 Q37.5938,31.125 37.3281,31.3594 Q37.0781,31.5938 36.4688,31.5938 L34.1719,31.5938 Q33.5625,31.5938 33.2969,31.3594 Q33.0313,31.125 33.0313,30.7344 Q33.0313,30.3594 33.2969,30.125 Q33.5625,29.8906 34.1719,29.8906 L34.5938,29.8906 L34.1875,28.8594 Z M33.4688,27.1563 L32.1094,23.7813 L30.7344,27.1563 L33.4688,27.1563 Z "/><text fill="#000000" font-family="sans-serif" font-size="14" font-style="italic" lengthAdjust="spacingAndGlyphs" textLength="43" x="107.5" y="26.5332">Pickup</text><text fill="#000000" font-family="sans-serif" font-size="10" font-style="italic" lengthAdjust="spacingAndGlyphs" textLength="166" x="46" y="39.9902">nz.ac.vuw.ecs.swen225.gp20.maze</text></a><!--MD5=[938ce3994746c8e95eb8cde7f970d4d5]
reverse link nz.ac.vuw.ecs.swen225.gp20.maze.Pickup to nz.ac.vuw.ecs.swen225.gp20.maze.ColoredPickup--><path codeLine="15" d="M116,67.25 C116,79.56 116,93.46 116,106.92 " fill="none" id="nz.ac.vuw.ecs.swen225.gp20.maze.Pickup-backto-nz.ac.vuw.ecs.swen225.gp20.maze.ColoredPickup" style="stroke: #A80036; stroke-width: 1.0;"/><polygon fill="none" points="109,67.24,116,47.24,123,67.24,109,67.24" style="stroke: #A80036; stroke-width: 1.0;"/><text fill="#888888" font-family="sans-serif" font-size="10" lengthAdjust="spacingAndGlyphs" textLength="190" x="17" y="255.748">UMLDoclet 2.0.12, PlantUML 1.2020.16</text><!--MD5=[5b3d211594498e76fa4088d0c0891349]
@startuml
    set namespaceSeparator none
    hide empty fields
    hide empty methods

    class "<size:14>ColoredPickup\n<size:10>nz.ac.vuw.ecs.swen225.gp20.maze" as nz.ac.vuw.ecs.swen225.gp20.maze.ColoredPickup [[ColoredPickup.html]] {
        #color: KeyColor
        +ColoredPickup()
        +ColoredPickup(String, String, KeyColor)
        +setColor(KeyColor): void
        +getColor(): KeyColor
    }

    abstract class "<size:14>Pickup\n<size:10>nz.ac.vuw.ecs.swen225.gp20.maze" as nz.ac.vuw.ecs.swen225.gp20.maze.Pickup [[Pickup.html]]

    nz.ac.vuw.ecs.swen225.gp20.maze.Pickup <|- - nz.ac.vuw.ecs.swen225.gp20.maze.ColoredPickup

    center footer UMLDoclet 2.0.12, PlantUML 1.2020.16
@enduml

PlantUML version 1.2020.16(Mon Aug 24 08:20:43 NZST 2020)
(APACHE source distribution)
Java Runtime: OpenJDK Runtime Environment
JVM: OpenJDK 64-Bit Server VM
Default Encoding: Cp1252
Language: en
Country: NZ
--></g></svg>