<?xml version="1.0" encoding="UTF-8" standalone="no"?><svg xmlns="http://www.w3.org/2000/svg" xmlns:xlink="http://www.w3.org/1999/xlink" contentScriptType="application/ecmascript" contentStyleType="text/css" height="283px" preserveAspectRatio="none" style="width:226px;height:283px;" version="1.1" viewBox="0 0 226 283" width="226px" zoomAndPan="magnify"><defs><filter height="300%" id="f1tjcty3ldss2p" width="300%" x="-1" y="-1"><feGaussianBlur result="blurOut" stdDeviation="2.0"/><feColorMatrix in="blurOut" result="blurOut2" type="matrix" values="0 0 0 0 0 0 0 0 0 0 0 0 0 0 0 0 0 0 .4 0"/><feOffset dx="4.0" dy="4.0" in="blurOut2" result="blurOut3"/><feBlend in="SourceGraphic" in2="blurOut3" mode="normal"/></filter></defs><g><!--MD5=[9a760ac0c6a669fa4a787b0802b6a439]
class nz.ac.vuw.ecs.swen225.gp20.maze.Containable--><a href="Containable.html" target="_top" title="Containable.html" xlink:actuate="onRequest" xlink:href="Containable.html" xlink:show="new" xlink:title="Containable.html" xlink:type="simple"><rect codeLine="5" fill="#FEFECE" filter="url(#f1tjcty3ldss2p)" height="139.2031" id="nz.ac.vuw.ecs.swen225.gp20.maze.Containable" style="stroke: #A80036; stroke-width: 1.5;" width="198" x="9" y="107"/><ellipse cx="24" cy="127.0938" fill="#A9DCDF" rx="11" ry="11" style="stroke: #A80036; stroke-width: 1.0;"/><path d="M26.1875,128.8594 L22.0469,128.8594 L21.625,129.8906 L22.0469,129.8906 Q22.6563,129.8906 22.9219,130.125 Q23.1875,130.3594 23.1875,130.75 Q23.1875,131.125 22.9219,131.3594 Q22.6563,131.5938 22.0469,131.5938 L19.75,131.5938 Q19.1406,131.5938 18.8906,131.3594 Q18.625,131.125 18.625,130.7344 Q18.625,130.3594 18.9063,130.125 Q19.1719,129.875 19.7969,129.8906 L22.4688,123.2344 L21.3594,123.2344 Q20.75,123.2344 20.4844,123 Q20.2188,122.7656 20.2188,122.375 Q20.2188,122 20.4844,121.7656 Q20.75,121.5313 21.3594,121.5313 L25.0313,121.5313 L28.4219,129.8906 Q29.0156,129.8906 29.2031,130.0313 Q29.5938,130.2969 29.5938,130.75 Q29.5938,131.125 29.3281,131.3594 Q29.0781,131.5938 28.4688,131.5938 L26.1719,131.5938 Q25.5625,131.5938 25.2969,131.3594 Q25.0313,131.125 25.0313,130.7344 Q25.0313,130.3594 25.2969,130.125 Q25.5625,129.8906 26.1719,129.8906 L26.5938,129.8906 L26.1875,128.8594 Z M25.4688,127.1563 L24.1094,123.7813 L22.7344,127.1563 L25.4688,127.1563 Z "/><text fill="#000000" font-family="sans-serif" font-size="14" font-style="italic" lengthAdjust="spacingAndGlyphs" textLength="76" x="83" y="126.5332">Containable</text><text fill="#000000" font-family="sans-serif" font-size="10" font-style="italic" lengthAdjust="spacingAndGlyphs" textLength="166" x="38" y="139.9902">nz.ac.vuw.ecs.swen225.gp20.maze</text><line style="stroke: #A80036; stroke-width: 1.5;" x1="10" x2="206" y1="147.1875" y2="147.1875"/><polygon fill="none" points="20,153.1875,24,157.1875,20,161.1875,16,157.1875" style="stroke: #B38D22; stroke-width: 1.0;"/><text fill="#000000" font-family="sans-serif" font-size="11" lengthAdjust="spacingAndGlyphs" textLength="88" x="29" y="162.6064">container: PathTile</text><line style="stroke: #A80036; stroke-width: 1.5;" x1="10" x2="206" y1="169.0234" y2="169.0234"/><ellipse cx="20" cy="180.0234" fill="#84BE84" rx="3" ry="3" style="stroke: #038048; stroke-width: 1.0;"/><text fill="#000000" font-family="sans-serif" font-size="11" lengthAdjust="spacingAndGlyphs" textLength="64" x="29" y="184.4424">Containable()</text><ellipse cx="20" cy="193.8594" fill="#84BE84" rx="3" ry="3" style="stroke: #038048; stroke-width: 1.0;"/><text fill="#000000" font-family="sans-serif" font-size="11" lengthAdjust="spacingAndGlyphs" textLength="126" x="29" y="198.2783">Containable(String, String)</text><ellipse cx="20" cy="207.6953" fill="#84BE84" rx="3" ry="3" style="stroke: #038048; stroke-width: 1.0;"/><text fill="#000000" font-family="sans-serif" font-size="11" lengthAdjust="spacingAndGlyphs" textLength="112" x="29" y="212.1143">getContainer(): PathTile</text><ellipse cx="20" cy="221.5313" fill="#84BE84" rx="3" ry="3" style="stroke: #038048; stroke-width: 1.0;"/><text fill="#000000" font-family="sans-serif" font-size="11" lengthAdjust="spacingAndGlyphs" textLength="132" x="29" y="225.9502">setContainer(PathTile): void</text><ellipse cx="20" cy="235.3672" fill="#84BE84" rx="3" ry="3" style="stroke: #038048; stroke-width: 1.0;"/><text fill="#000000" font-family="sans-serif" font-size="11" lengthAdjust="spacingAndGlyphs" textLength="107" x="29" y="239.7861">onWalked(Maze): void</text></a><!--MD5=[f5672be7e8beea8d2a7d197dda3922fd]
class nz.ac.vuw.ecs.swen225.gp20.maze.Drawable--><a href="Drawable.html" target="_top" title="Drawable.html" xlink:actuate="onRequest" xlink:href="Drawable.html" xlink:show="new" xlink:title="Drawable.html" xlink:type="simple"><rect codeLine="14" fill="#FEFECE" filter="url(#f1tjcty3ldss2p)" height="40.1875" id="nz.ac.vuw.ecs.swen225.gp20.maze.Drawable" style="stroke: #A80036; stroke-width: 1.5;" width="198" x="9" y="7"/><ellipse cx="24" cy="27.0938" fill="#ADD1B2" rx="11" ry="11" style="stroke: #A80036; stroke-width: 1.0;"/><path d="M26.7656,22.9688 Q26.9219,22.75 27.1094,22.6406 Q27.2969,22.5313 27.5156,22.5313 Q27.8906,22.5313 28.125,22.7969 Q28.3594,23.0469 28.3594,23.6563 L28.3594,25.1094 Q28.3594,25.7188 28.125,25.9844 Q27.8906,26.25 27.5156,26.25 Q27.1719,26.25 26.9688,26.0469 Q26.7656,25.8594 26.6563,25.3438 Q26.6094,24.9844 26.4219,24.7969 Q26.0938,24.4219 25.4844,24.2031 Q24.875,23.9844 24.25,23.9844 Q23.4844,23.9844 22.8438,24.3125 Q22.2188,24.6406 21.7188,25.3906 Q21.2344,26.1406 21.2344,27.1719 L21.2344,28.2656 Q21.2344,29.5 22.125,30.3281 Q23.0156,31.1406 24.6094,31.1406 Q25.5469,31.1406 26.2031,30.8906 Q26.5938,30.7344 27.0156,30.2969 Q27.2813,30.0313 27.4219,29.9531 Q27.5781,29.875 27.7813,29.875 Q28.1094,29.875 28.3594,30.1406 Q28.625,30.3906 28.625,30.7344 Q28.625,31.0781 28.2813,31.4844 Q27.7813,32.0625 26.9844,32.3906 Q25.9063,32.8438 24.6094,32.8438 Q23.0938,32.8438 21.8906,32.2188 Q20.9063,31.7188 20.2188,30.6563 Q19.5313,29.5781 19.5313,28.2969 L19.5313,27.1406 Q19.5313,25.8125 20.1406,24.6719 Q20.7656,23.5156 21.8594,22.9063 Q22.9531,22.2813 24.1875,22.2813 Q24.9219,22.2813 25.5625,22.4531 Q26.2188,22.6094 26.7656,22.9688 Z "/><text fill="#000000" font-family="sans-serif" font-size="14" lengthAdjust="spacingAndGlyphs" textLength="59" x="91.5" y="26.5332">Drawable</text><text fill="#000000" font-family="sans-serif" font-size="10" lengthAdjust="spacingAndGlyphs" textLength="166" x="38" y="39.9902">nz.ac.vuw.ecs.swen225.gp20.maze</text></a><!--MD5=[e0be509880aaa0c28cc87b3620a1cae0]
reverse link nz.ac.vuw.ecs.swen225.gp20.maze.Drawable to nz.ac.vuw.ecs.swen225.gp20.maze.Containable--><path codeLine="16" d="M108,67.54 C108,79.63 108,93.31 108,106.76 " fill="none" id="nz.ac.vuw.ecs.swen225.gp20.maze.Drawable-backto-nz.ac.vuw.ecs.swen225.gp20.maze.Containable" style="stroke: #A80036; stroke-width: 1.0;"/><polygon fill="none" points="101,67.28,108,47.28,115,67.28,101,67.28" style="stroke: #A80036; stroke-width: 1.0;"/><text fill="#888888" font-family="sans-serif" font-size="10" lengthAdjust="spacingAndGlyphs" textLength="190" x="9" y="269.584">UMLDoclet 2.0.12, PlantUML 1.2020.16</text><!--MD5=[d85ca2482cdea78572819c07980f33f8]
@startuml
    set namespaceSeparator none
    hide empty fields
    hide empty methods

    abstract class "<size:14>Containable\n<size:10>nz.ac.vuw.ecs.swen225.gp20.maze" as nz.ac.vuw.ecs.swen225.gp20.maze.Containable [[Containable.html]] {
        #container: PathTile
        +Containable()
        +Containable(String, String)
        +getContainer(): PathTile
        +setContainer(PathTile): void
        +onWalked(Maze): void
    }

    class "<size:14>Drawable\n<size:10>nz.ac.vuw.ecs.swen225.gp20.maze" as nz.ac.vuw.ecs.swen225.gp20.maze.Drawable [[Drawable.html]]

    nz.ac.vuw.ecs.swen225.gp20.maze.Drawable <|- - nz.ac.vuw.ecs.swen225.gp20.maze.Containable

    center footer UMLDoclet 2.0.12, PlantUML 1.2020.16
@enduml

PlantUML version 1.2020.16(Mon Aug 24 08:20:43 NZST 2020)
(APACHE source distribution)
Java Runtime: OpenJDK Runtime Environment
JVM: OpenJDK 64-Bit Server VM
Default Encoding: Cp1252
Language: en
Country: NZ
--></g></svg>