<?xml version="1.0" encoding="UTF-8" standalone="no"?><svg xmlns="http://www.w3.org/2000/svg" xmlns:xlink="http://www.w3.org/1999/xlink" contentScriptType="application/ecmascript" contentStyleType="text/css" height="995px" preserveAspectRatio="none" style="width:457px;height:995px;" version="1.1" viewBox="0 0 457 995" width="457px" zoomAndPan="magnify"><defs><filter height="300%" id="f5iq0rhsa0a96" width="300%" x="-1" y="-1"><feGaussianBlur result="blurOut" stdDeviation="2.0"/><feColorMatrix in="blurOut" result="blurOut2" type="matrix" values="0 0 0 0 0 0 0 0 0 0 0 0 0 0 0 0 0 0 .4 0"/><feOffset dx="4.0" dy="4.0" in="blurOut2" result="blurOut3"/><feBlend in="SourceGraphic" in2="blurOut3" mode="normal"/></filter></defs><g><!--MD5=[9a7d1fe5e7e205b9dd3fbf94307f920e]
class nz.ac.vuw.ecs.swen225.gp20.maze.Maze--><a href="Maze.html" target="_top" title="Maze.html" xlink:actuate="onRequest" xlink:href="Maze.html" xlink:show="new" xlink:title="Maze.html" xlink:type="simple"><rect codeLine="5" fill="#FEFECE" filter="url(#f5iq0rhsa0a96)" height="850.6719" id="nz.ac.vuw.ecs.swen225.gp20.maze.Maze" style="stroke: #A80036; stroke-width: 1.5;" width="311" x="66.5" y="7"/><ellipse cx="134.75" cy="27.0938" fill="#ADD1B2" rx="11" ry="11" style="stroke: #A80036; stroke-width: 1.0;"/><path d="M137.5156,22.9688 Q137.6719,22.75 137.8594,22.6406 Q138.0469,22.5313 138.2656,22.5313 Q138.6406,22.5313 138.875,22.7969 Q139.1094,23.0469 139.1094,23.6563 L139.1094,25.1094 Q139.1094,25.7188 138.875,25.9844 Q138.6406,26.25 138.2656,26.25 Q137.9219,26.25 137.7188,26.0469 Q137.5156,25.8594 137.4063,25.3438 Q137.3594,24.9844 137.1719,24.7969 Q136.8438,24.4219 136.2344,24.2031 Q135.625,23.9844 135,23.9844 Q134.2344,23.9844 133.5938,24.3125 Q132.9688,24.6406 132.4688,25.3906 Q131.9844,26.1406 131.9844,27.1719 L131.9844,28.2656 Q131.9844,29.5 132.875,30.3281 Q133.7656,31.1406 135.3594,31.1406 Q136.2969,31.1406 136.9531,30.8906 Q137.3438,30.7344 137.7656,30.2969 Q138.0313,30.0313 138.1719,29.9531 Q138.3281,29.875 138.5313,29.875 Q138.8594,29.875 139.1094,30.1406 Q139.375,30.3906 139.375,30.7344 Q139.375,31.0781 139.0313,31.4844 Q138.5313,32.0625 137.7344,32.3906 Q136.6563,32.8438 135.3594,32.8438 Q133.8438,32.8438 132.6406,32.2188 Q131.6563,31.7188 130.9688,30.6563 Q130.2813,29.5781 130.2813,28.2969 L130.2813,27.1406 Q130.2813,25.8125 130.8906,24.6719 Q131.5156,23.5156 132.6094,22.9063 Q133.7031,22.2813 134.9375,22.2813 Q135.6719,22.2813 136.3125,22.4531 Q136.9688,22.6094 137.5156,22.9688 Z "/><text fill="#000000" font-family="sans-serif" font-size="14" lengthAdjust="spacingAndGlyphs" textLength="33" x="221.75" y="26.5332">Maze</text><text fill="#000000" font-family="sans-serif" font-size="10" lengthAdjust="spacingAndGlyphs" textLength="166" x="155.25" y="39.9902">nz.ac.vuw.ecs.swen225.gp20.maze</text><line style="stroke: #A80036; stroke-width: 1.5;" x1="67.5" x2="376.5" y1="47.1875" y2="47.1875"/><ellipse cx="77.5" cy="58.1875" fill="#84BE84" rx="3" ry="3" style="stroke: #038048; stroke-width: 1.0;"/><text fill="#000000" font-family="sans-serif" font-size="11" lengthAdjust="spacingAndGlyphs" textLength="34" x="86.5" y="62.6064">Maze()</text><ellipse cx="77.5" cy="72.0234" fill="#84BE84" rx="3" ry="3" style="stroke: #038048; stroke-width: 1.0;"/><text fill="#000000" font-family="sans-serif" font-size="11" lengthAdjust="spacingAndGlyphs" textLength="147" x="86.5" y="76.4424">Maze(Tile[], List&lt;Containable&gt;)</text><ellipse cx="77.5" cy="85.8594" fill="#84BE84" rx="3" ry="3" style="stroke: #038048; stroke-width: 1.0;"/><text fill="#000000" font-family="sans-serif" font-size="11" lengthAdjust="spacingAndGlyphs" textLength="233" x="86.5" y="90.2783">setMovesByTime(Map&lt;Long, List&lt;Move&gt;&gt;): void</text><ellipse cx="77.5" cy="99.6953" fill="#84BE84" rx="3" ry="3" style="stroke: #038048; stroke-width: 1.0;"/><text fill="#000000" font-family="sans-serif" font-size="11" lengthAdjust="spacingAndGlyphs" textLength="213" x="86.5" y="104.1143">getMovesByTime(): Map&lt;Long, List&lt;Move&gt;&gt;</text><ellipse cx="77.5" cy="113.5313" fill="#84BE84" rx="3" ry="3" style="stroke: #038048; stroke-width: 1.0;"/><text fill="#000000" font-family="sans-serif" font-size="11" lengthAdjust="spacingAndGlyphs" textLength="183" x="86.5" y="117.9502">addListener(MazeEventListener): void</text><ellipse cx="77.5" cy="127.3672" fill="#84BE84" rx="3" ry="3" style="stroke: #038048; stroke-width: 1.0;"/><text fill="#000000" font-family="sans-serif" font-size="11" lengthAdjust="spacingAndGlyphs" textLength="201" x="86.5" y="131.7861">removeListener(MazeEventListener): void</text><ellipse cx="77.5" cy="141.2031" fill="#84BE84" rx="3" ry="3" style="stroke: #038048; stroke-width: 1.0;"/><text fill="#000000" font-family="sans-serif" font-size="11" lengthAdjust="spacingAndGlyphs" textLength="136" x="86.5" y="145.6221">broadcast(MazeEvent): void</text><ellipse cx="77.5" cy="155.0391" fill="#84BE84" rx="3" ry="3" style="stroke: #038048; stroke-width: 1.0;"/><text fill="#000000" font-family="sans-serif" font-size="11" lengthAdjust="spacingAndGlyphs" textLength="102" x="86.5" y="159.458">move(Direction): void</text><ellipse cx="77.5" cy="168.875" fill="#84BE84" rx="3" ry="3" style="stroke: #038048; stroke-width: 1.0;"/><text fill="#000000" font-family="sans-serif" font-size="11" lengthAdjust="spacingAndGlyphs" textLength="112" x="86.5" y="173.2939">preMoveChecks(): void</text><ellipse cx="77.5" cy="182.7109" fill="#84BE84" rx="3" ry="3" style="stroke: #038048; stroke-width: 1.0;"/><text fill="#000000" font-family="sans-serif" font-size="11" lengthAdjust="spacingAndGlyphs" textLength="117" x="86.5" y="187.1299">postMoveChecks(): void</text><ellipse cx="77.5" cy="196.5469" fill="#84BE84" rx="3" ry="3" style="stroke: #038048; stroke-width: 1.0;"/><text fill="#000000" font-family="sans-serif" font-size="11" lengthAdjust="spacingAndGlyphs" textLength="122" x="86.5" y="200.9658">moveChap(PathTile): void</text><ellipse cx="77.5" cy="210.3828" fill="#84BE84" rx="3" ry="3" style="stroke: #038048; stroke-width: 1.0;"/><text fill="#000000" font-family="sans-serif" font-size="11" lengthAdjust="spacingAndGlyphs" textLength="226" x="86.5" y="214.8018">checkWalked(PathTile, PathTile, Direction): void</text><ellipse cx="77.5" cy="224.2188" fill="#84BE84" rx="3" ry="3" style="stroke: #038048; stroke-width: 1.0;"/><text fill="#000000" font-family="sans-serif" font-size="11" lengthAdjust="spacingAndGlyphs" textLength="259" x="86.5" y="228.6377">checkPickup(PathTile, PathTile, Direction, Pickup): void</text><ellipse cx="77.5" cy="238.0547" fill="#84BE84" rx="3" ry="3" style="stroke: #038048; stroke-width: 1.0;"/><text fill="#000000" font-family="sans-serif" font-size="11" lengthAdjust="spacingAndGlyphs" textLength="285" x="86.5" y="242.4736">checkTreasure(PathTile, PathTile, Direction, Treasure): void</text><ellipse cx="77.5" cy="251.8906" fill="#84BE84" rx="3" ry="3" style="stroke: #038048; stroke-width: 1.0;"/><text fill="#000000" font-family="sans-serif" font-size="11" lengthAdjust="spacingAndGlyphs" textLength="249" x="86.5" y="256.3096">checkBlocking(PathTile, PathTile, Direction): boolean</text><ellipse cx="77.5" cy="265.7266" fill="#84BE84" rx="3" ry="3" style="stroke: #038048; stroke-width: 1.0;"/><text fill="#000000" font-family="sans-serif" font-size="11" lengthAdjust="spacingAndGlyphs" textLength="234" x="86.5" y="270.1455">tryUnlockDoor(PathTile, Door, Direction): boolean</text><ellipse cx="77.5" cy="279.5625" fill="#84BE84" rx="3" ry="3" style="stroke: #038048; stroke-width: 1.0;"/><text fill="#000000" font-family="sans-serif" font-size="11" lengthAdjust="spacingAndGlyphs" textLength="232" x="86.5" y="283.9814">tryPushCrate(PathTile, Crate, Direction): boolean</text><ellipse cx="77.5" cy="293.3984" fill="#84BE84" rx="3" ry="3" style="stroke: #038048; stroke-width: 1.0;"/><text fill="#000000" font-family="sans-serif" font-size="11" lengthAdjust="spacingAndGlyphs" textLength="119" x="86.5" y="297.8174">tileTo(Tile, Direction): Tile</text><ellipse cx="77.5" cy="307.2344" fill="#84BE84" rx="3" ry="3" style="stroke: #038048; stroke-width: 1.0;"/><text fill="#000000" font-family="sans-serif" font-size="11" lengthAdjust="spacingAndGlyphs" textLength="153" x="86.5" y="311.6533">setDoPathfinding(boolean): void</text><ellipse cx="77.5" cy="321.0703" fill="#84BE84" rx="3" ry="3" style="stroke: #038048; stroke-width: 1.0;"/><text fill="#000000" font-family="sans-serif" font-size="11" lengthAdjust="spacingAndGlyphs" textLength="87" x="86.5" y="325.4893">setupTimer(): void</text><ellipse cx="77.5" cy="334.9063" fill="#84BE84" rx="3" ry="3" style="stroke: #038048; stroke-width: 1.0;"/><text fill="#000000" font-family="sans-serif" font-size="11" lengthAdjust="spacingAndGlyphs" textLength="105" x="86.5" y="339.3252">tickPathFinding(): void</text><ellipse cx="77.5" cy="348.7422" fill="#84BE84" rx="3" ry="3" style="stroke: #038048; stroke-width: 1.0;"/><text fill="#000000" font-family="sans-serif" font-size="11" lengthAdjust="spacingAndGlyphs" textLength="172" x="86.5" y="353.1611">moveEnemy(Enemy, Direction): void</text><ellipse cx="77.5" cy="362.5781" fill="#84BE84" rx="3" ry="3" style="stroke: #038048; stroke-width: 1.0;"/><text fill="#000000" font-family="sans-serif" font-size="11" lengthAdjust="spacingAndGlyphs" textLength="64" x="86.5" y="366.9971">pause(): void</text><ellipse cx="77.5" cy="376.4141" fill="#84BE84" rx="3" ry="3" style="stroke: #038048; stroke-width: 1.0;"/><text fill="#000000" font-family="sans-serif" font-size="11" lengthAdjust="spacingAndGlyphs" textLength="70" x="86.5" y="380.833">resume(): void</text><ellipse cx="77.5" cy="390.25" fill="#84BE84" rx="3" ry="3" style="stroke: #038048; stroke-width: 1.0;"/><text fill="#000000" font-family="sans-serif" font-size="11" lengthAdjust="spacingAndGlyphs" textLength="100" x="86.5" y="394.6689">getTileAt(int, int): Tile</text><ellipse cx="77.5" cy="404.0859" fill="#84BE84" rx="3" ry="3" style="stroke: #038048; stroke-width: 1.0;"/><text fill="#000000" font-family="sans-serif" font-size="11" lengthAdjust="spacingAndGlyphs" textLength="79" x="86.5" y="408.5049">getChap(): Chap</text><ellipse cx="77.5" cy="417.9219" fill="#84BE84" rx="3" ry="3" style="stroke: #038048; stroke-width: 1.0;"/><text fill="#000000" font-family="sans-serif" font-size="11" lengthAdjust="spacingAndGlyphs" textLength="73" x="86.5" y="422.3408">getTiles(): Tile[]</text><ellipse cx="77.5" cy="431.7578" fill="#84BE84" rx="3" ry="3" style="stroke: #038048; stroke-width: 1.0;"/><text fill="#000000" font-family="sans-serif" font-size="11" lengthAdjust="spacingAndGlyphs" textLength="126" x="86.5" y="436.1768">isLevelFinished(): boolean</text><ellipse cx="77.5" cy="445.5938" fill="#84BE84" rx="3" ry="3" style="stroke: #038048; stroke-width: 1.0;"/><text fill="#000000" font-family="sans-serif" font-size="11" lengthAdjust="spacingAndGlyphs" textLength="67" x="86.5" y="450.0127">getWidth(): int</text><ellipse cx="77.5" cy="459.4297" fill="#84BE84" rx="3" ry="3" style="stroke: #038048; stroke-width: 1.0;"/><text fill="#000000" font-family="sans-serif" font-size="11" lengthAdjust="spacingAndGlyphs" textLength="70" x="86.5" y="463.8486">getHeight(): int</text><ellipse cx="77.5" cy="473.2656" fill="#84BE84" rx="3" ry="3" style="stroke: #038048; stroke-width: 1.0;"/><text fill="#000000" font-family="sans-serif" font-size="11" lengthAdjust="spacingAndGlyphs" textLength="152" x="86.5" y="477.6846">getTreasures(): List&lt;Treasure&gt;</text><ellipse cx="77.5" cy="487.1016" fill="#84BE84" rx="3" ry="3" style="stroke: #038048; stroke-width: 1.0;"/><text fill="#000000" font-family="sans-serif" font-size="11" lengthAdjust="spacingAndGlyphs" textLength="95" x="86.5" y="491.5205">numTreasures(): int</text><ellipse cx="77.5" cy="500.9375" fill="#84BE84" rx="3" ry="3" style="stroke: #038048; stroke-width: 1.0;"/><text fill="#000000" font-family="sans-serif" font-size="11" lengthAdjust="spacingAndGlyphs" textLength="98" x="86.5" y="505.3564">openExitLock(): void</text><ellipse cx="77.5" cy="514.7734" fill="#84BE84" rx="3" ry="3" style="stroke: #038048; stroke-width: 1.0;"/><text fill="#000000" font-family="sans-serif" font-size="11" lengthAdjust="spacingAndGlyphs" textLength="70" x="86.5" y="519.1924">killChap(): void</text><ellipse cx="77.5" cy="528.6094" fill="#84BE84" rx="3" ry="3" style="stroke: #038048; stroke-width: 1.0;"/><text fill="#000000" font-family="sans-serif" font-size="11" lengthAdjust="spacingAndGlyphs" textLength="126" x="86.5" y="533.0283">getMillisecondsLeft(): long</text><ellipse cx="77.5" cy="542.4453" fill="#84BE84" rx="3" ry="3" style="stroke: #038048; stroke-width: 1.0;"/><text fill="#000000" font-family="sans-serif" font-size="11" lengthAdjust="spacingAndGlyphs" textLength="146" x="86.5" y="546.8643">setMillisecondsLeft(long): void</text><ellipse cx="77.5" cy="556.2813" fill="#84BE84" rx="3" ry="3" style="stroke: #038048; stroke-width: 1.0;"/><text fill="#000000" font-family="sans-serif" font-size="11" lengthAdjust="spacingAndGlyphs" textLength="75" x="86.5" y="560.7002">getLevelID(): int</text><ellipse cx="77.5" cy="570.1172" fill="#84BE84" rx="3" ry="3" style="stroke: #038048; stroke-width: 1.0;"/><text fill="#000000" font-family="sans-serif" font-size="11" lengthAdjust="spacingAndGlyphs" textLength="95" x="86.5" y="574.5361">setLevelID(int): void</text><ellipse cx="77.5" cy="583.9531" fill="#84BE84" rx="3" ry="3" style="stroke: #038048; stroke-width: 1.0;"/><text fill="#000000" font-family="sans-serif" font-size="11" lengthAdjust="spacingAndGlyphs" textLength="152" x="86.5" y="588.3721">setMoves(List&lt;Direction&gt;): void</text><ellipse cx="77.5" cy="597.7891" fill="#84BE84" rx="3" ry="3" style="stroke: #038048; stroke-width: 1.0;"/><text fill="#000000" font-family="sans-serif" font-size="11" lengthAdjust="spacingAndGlyphs" textLength="132" x="86.5" y="602.208">getMoves(): List&lt;Direction&gt;</text><ellipse cx="77.5" cy="611.625" fill="#84BE84" rx="3" ry="3" style="stroke: #038048; stroke-width: 1.0;"/><text fill="#000000" font-family="sans-serif" font-size="11" lengthAdjust="spacingAndGlyphs" textLength="87" x="86.5" y="616.0439">setWidth(int): void</text><ellipse cx="77.5" cy="625.4609" fill="#84BE84" rx="3" ry="3" style="stroke: #038048; stroke-width: 1.0;"/><text fill="#000000" font-family="sans-serif" font-size="11" lengthAdjust="spacingAndGlyphs" textLength="90" x="86.5" y="629.8799">setHeight(int): void</text><ellipse cx="77.5" cy="639.2969" fill="#84BE84" rx="3" ry="3" style="stroke: #038048; stroke-width: 1.0;"/><text fill="#000000" font-family="sans-serif" font-size="11" lengthAdjust="spacingAndGlyphs" textLength="93" x="86.5" y="643.7158">setTiles(Tile[]): void</text><ellipse cx="77.5" cy="653.1328" fill="#84BE84" rx="3" ry="3" style="stroke: #038048; stroke-width: 1.0;"/><text fill="#000000" font-family="sans-serif" font-size="11" lengthAdjust="spacingAndGlyphs" textLength="99" x="86.5" y="657.5518">setChap(Chap): void</text><ellipse cx="77.5" cy="666.9688" fill="#84BE84" rx="3" ry="3" style="stroke: #038048; stroke-width: 1.0;"/><text fill="#000000" font-family="sans-serif" font-size="11" lengthAdjust="spacingAndGlyphs" textLength="172" x="86.5" y="671.3877">setTreasures(List&lt;Treasure&gt;): void</text><ellipse cx="77.5" cy="680.8047" fill="#84BE84" rx="3" ry="3" style="stroke: #038048; stroke-width: 1.0;"/><text fill="#000000" font-family="sans-serif" font-size="11" lengthAdjust="spacingAndGlyphs" textLength="130" x="86.5" y="685.2236">getEnemies(): List&lt;Enemy&gt;</text><ellipse cx="77.5" cy="694.6406" fill="#84BE84" rx="3" ry="3" style="stroke: #038048; stroke-width: 1.0;"/><text fill="#000000" font-family="sans-serif" font-size="11" lengthAdjust="spacingAndGlyphs" textLength="150" x="86.5" y="699.0596">setEnemies(List&lt;Enemy&gt;): void</text><ellipse cx="77.5" cy="708.4766" fill="#84BE84" rx="3" ry="3" style="stroke: #038048; stroke-width: 1.0;"/><text fill="#000000" font-family="sans-serif" font-size="11" lengthAdjust="spacingAndGlyphs" textLength="105" x="86.5" y="712.8955">getExitlock(): ExitLock</text><ellipse cx="77.5" cy="722.3125" fill="#84BE84" rx="3" ry="3" style="stroke: #038048; stroke-width: 1.0;"/><text fill="#000000" font-family="sans-serif" font-size="11" lengthAdjust="spacingAndGlyphs" textLength="125" x="86.5" y="726.7314">setExitlock(ExitLock): void</text><ellipse cx="77.5" cy="736.1484" fill="#84BE84" rx="3" ry="3" style="stroke: #038048; stroke-width: 1.0;"/><text fill="#000000" font-family="sans-serif" font-size="11" lengthAdjust="spacingAndGlyphs" textLength="153" x="86.5" y="740.5674">setLevelFinished(boolean): void</text><ellipse cx="77.5" cy="749.9844" fill="#84BE84" rx="3" ry="3" style="stroke: #038048; stroke-width: 1.0;"/><text fill="#000000" font-family="sans-serif" font-size="11" lengthAdjust="spacingAndGlyphs" textLength="136" x="86.5" y="754.4033">getPathFindingTimer(): Timer</text><ellipse cx="77.5" cy="763.8203" fill="#84BE84" rx="3" ry="3" style="stroke: #038048; stroke-width: 1.0;"/><text fill="#000000" font-family="sans-serif" font-size="11" lengthAdjust="spacingAndGlyphs" textLength="156" x="86.5" y="768.2393">setPathFindingTimer(Timer): void</text><ellipse cx="77.5" cy="777.6563" fill="#84BE84" rx="3" ry="3" style="stroke: #038048; stroke-width: 1.0;"/><text fill="#000000" font-family="sans-serif" font-size="11" lengthAdjust="spacingAndGlyphs" textLength="122" x="86.5" y="782.0752">getPathFindingDelay(): int</text><ellipse cx="77.5" cy="791.4922" fill="#84BE84" rx="3" ry="3" style="stroke: #038048; stroke-width: 1.0;"/><text fill="#000000" font-family="sans-serif" font-size="11" lengthAdjust="spacingAndGlyphs" textLength="142" x="86.5" y="795.9111">setPathFindingDelay(int): void</text><ellipse cx="77.5" cy="805.3281" fill="#84BE84" rx="3" ry="3" style="stroke: #038048; stroke-width: 1.0;"/><text fill="#000000" font-family="sans-serif" font-size="11" lengthAdjust="spacingAndGlyphs" textLength="195" x="86.5" y="809.7471">getListeners(): List&lt;MazeEventListener&gt;</text><ellipse cx="77.5" cy="819.1641" fill="#84BE84" rx="3" ry="3" style="stroke: #038048; stroke-width: 1.0;"/><text fill="#000000" font-family="sans-serif" font-size="11" lengthAdjust="spacingAndGlyphs" textLength="215" x="86.5" y="823.583">setListeners(List&lt;MazeEventListener&gt;): void</text><ellipse cx="77.5" cy="833" fill="#84BE84" rx="3" ry="3" style="stroke: #038048; stroke-width: 1.0;"/><text fill="#000000" font-family="sans-serif" font-size="11" lengthAdjust="spacingAndGlyphs" textLength="166" x="86.5" y="837.4189">getUndoRedo(): UndoRedoHandler</text><ellipse cx="77.5" cy="846.8359" fill="#84BE84" rx="3" ry="3" style="stroke: #038048; stroke-width: 1.0;"/><text fill="#000000" font-family="sans-serif" font-size="11" lengthAdjust="spacingAndGlyphs" textLength="85" x="86.5" y="851.2549">isDead(): boolean</text></a><!--MD5=[2f45e2720d32ba204c4ada42b9dfe3a6]
class nz.ac.vuw.ecs.swen225.gp20.maze.Maze.Direction--><a href="Maze.Direction.html" target="_top" title="Maze.Direction.html" xlink:actuate="onRequest" xlink:href="Maze.Direction.html" xlink:show="new" xlink:title="Maze.Direction.html" xlink:type="simple"><rect codeLine="65" fill="#FEFECE" filter="url(#f5iq0rhsa0a96)" height="40.1875" id="nz.ac.vuw.ecs.swen225.gp20.maze.Maze.Direction" style="stroke: #A80036; stroke-width: 1.5;" width="198" x="7" y="918"/><ellipse cx="22" cy="938.0938" fill="#EB937F" rx="11" ry="11" style="stroke: #A80036; stroke-width: 1.0;"/><path d="M20.8594,938.8906 L20.8594,941.3906 L25.1875,941.3906 L25.1875,940.4688 Q25.1875,939.8594 25.4219,939.5938 Q25.6719,939.3281 26.0469,939.3281 Q26.4219,939.3281 26.6563,939.5938 Q26.8906,939.8594 26.8906,940.4688 L26.8906,943.0938 L18.8906,943.0938 Q18.2656,943.0938 18,942.8594 Q17.75,942.625 17.75,942.2344 Q17.75,941.8594 18.0156,941.625 Q18.2813,941.3906 18.8906,941.3906 L19.1563,941.3906 L19.1563,934.7344 L18.8906,934.7344 Q18.2656,934.7344 18,934.5 Q17.75,934.2656 17.75,933.875 Q17.75,933.5 18,933.2656 Q18.2656,933.0313 18.8906,933.0313 L26.5156,933.0313 L26.5156,935.625 Q26.5156,936.2344 26.2813,936.5 Q26.0625,936.75 25.6719,936.75 Q25.2969,936.75 25.0625,936.5 Q24.8281,936.2344 24.8281,935.625 L24.8281,934.7344 L20.8594,934.7344 L20.8594,937.1875 L22.3438,937.1875 Q22.3438,936.5313 22.4688,936.3438 Q22.7344,935.9375 23.2031,935.9375 Q23.5781,935.9375 23.8125,936.2031 Q24.0469,936.4531 24.0469,937.0625 L24.0469,939.0313 Q24.0469,939.5781 23.9219,939.7656 Q23.6563,940.1563 23.2031,940.1563 Q22.7344,940.1563 22.4688,939.75 Q22.3438,939.5625 22.3438,938.8906 L20.8594,938.8906 Z "/><text fill="#000000" font-family="sans-serif" font-size="14" lengthAdjust="spacingAndGlyphs" textLength="93" x="72.5" y="937.5332">Maze.Direction</text><text fill="#000000" font-family="sans-serif" font-size="10" lengthAdjust="spacingAndGlyphs" textLength="166" x="36" y="950.9902">nz.ac.vuw.ecs.swen225.gp20.maze</text></a><!--MD5=[358e0eebf78768d70b78b2d1056c258a]
class nz.ac.vuw.ecs.swen225.gp20.maze.Maze.KeyColor--><a href="Maze.KeyColor.html" target="_top" title="Maze.KeyColor.html" xlink:actuate="onRequest" xlink:href="Maze.KeyColor.html" xlink:show="new" xlink:title="Maze.KeyColor.html" xlink:type="simple"><rect codeLine="66" fill="#FEFECE" filter="url(#f5iq0rhsa0a96)" height="40.1875" id="nz.ac.vuw.ecs.swen225.gp20.maze.Maze.KeyColor" style="stroke: #A80036; stroke-width: 1.5;" width="198" x="240" y="918"/><ellipse cx="255" cy="938.0938" fill="#EB937F" rx="11" ry="11" style="stroke: #A80036; stroke-width: 1.0;"/><path d="M253.8594,938.8906 L253.8594,941.3906 L258.1875,941.3906 L258.1875,940.4688 Q258.1875,939.8594 258.4219,939.5938 Q258.6719,939.3281 259.0469,939.3281 Q259.4219,939.3281 259.6563,939.5938 Q259.8906,939.8594 259.8906,940.4688 L259.8906,943.0938 L251.8906,943.0938 Q251.2656,943.0938 251,942.8594 Q250.75,942.625 250.75,942.2344 Q250.75,941.8594 251.0156,941.625 Q251.2813,941.3906 251.8906,941.3906 L252.1563,941.3906 L252.1563,934.7344 L251.8906,934.7344 Q251.2656,934.7344 251,934.5 Q250.75,934.2656 250.75,933.875 Q250.75,933.5 251,933.2656 Q251.2656,933.0313 251.8906,933.0313 L259.5156,933.0313 L259.5156,935.625 Q259.5156,936.2344 259.2813,936.5 Q259.0625,936.75 258.6719,936.75 Q258.2969,936.75 258.0625,936.5 Q257.8281,936.2344 257.8281,935.625 L257.8281,934.7344 L253.8594,934.7344 L253.8594,937.1875 L255.3438,937.1875 Q255.3438,936.5313 255.4688,936.3438 Q255.7344,935.9375 256.2031,935.9375 Q256.5781,935.9375 256.8125,936.2031 Q257.0469,936.4531 257.0469,937.0625 L257.0469,939.0313 Q257.0469,939.5781 256.9219,939.7656 Q256.6563,940.1563 256.2031,940.1563 Q255.7344,940.1563 255.4688,939.75 Q255.3438,939.5625 255.3438,938.8906 L253.8594,938.8906 Z "/><text fill="#000000" font-family="sans-serif" font-size="14" lengthAdjust="spacingAndGlyphs" textLength="95" x="304.5" y="937.5332">Maze.KeyColor</text><text fill="#000000" font-family="sans-serif" font-size="10" lengthAdjust="spacingAndGlyphs" textLength="166" x="269" y="950.9902">nz.ac.vuw.ecs.swen225.gp20.maze</text></a><!--MD5=[4663d4bceee85c311f34277d0c934304]
reverse link nz.ac.vuw.ecs.swen225.gp20.maze.Maze to nz.ac.vuw.ecs.swen225.gp20.maze.Maze.Direction--><path codeLine="68" d="M120.79,872.81 C116.52,891.34 112.97,906.74 110.42,917.81 " fill="none" id="nz.ac.vuw.ecs.swen225.gp20.maze.Maze-backto-nz.ac.vuw.ecs.swen225.gp20.maze.Maze.Direction" style="stroke: #A80036; stroke-width: 1.0;"/><ellipse cx="122.3917" cy="865.8453" fill="#FFFFFF" rx="8" ry="8" style="stroke: #A80036; stroke-width: 1.0;"/><line style="stroke: #A80036; stroke-width: 1.0;" x1="120.5934" x2="124.19" y1="873.6405" y2="858.05"/><line style="stroke: #A80036; stroke-width: 1.0;" x1="114.5964" x2="130.1869" y1="864.0469" y2="867.6436"/><!--MD5=[fcc2ba5cca827736b26ec1725de15f93]
reverse link nz.ac.vuw.ecs.swen225.gp20.maze.Maze to nz.ac.vuw.ecs.swen225.gp20.maze.Maze.KeyColor--><path codeLine="69" d="M324.08,872.81 C328.39,891.34 331.97,906.74 334.54,917.81 " fill="none" id="nz.ac.vuw.ecs.swen225.gp20.maze.Maze-backto-nz.ac.vuw.ecs.swen225.gp20.maze.Maze.KeyColor" style="stroke: #A80036; stroke-width: 1.0;"/><ellipse cx="322.4645" cy="865.8415" fill="#FFFFFF" rx="8" ry="8" style="stroke: #A80036; stroke-width: 1.0;"/><line style="stroke: #A80036; stroke-width: 1.0;" x1="324.2789" x2="320.65" y1="873.633" y2="858.05"/><line style="stroke: #A80036; stroke-width: 1.0;" x1="314.6729" x2="330.256" y1="867.656" y2="864.0271"/><text fill="#888888" font-family="sans-serif" font-size="10" lengthAdjust="spacingAndGlyphs" textLength="190" x="124.5" y="981.5684">UMLDoclet 2.0.12, PlantUML 1.2020.16</text><!--MD5=[cda8588489b31cf0cd9f3499253f3882]
@startuml
    set namespaceSeparator none
    hide empty fields
    hide empty methods

    class "<size:14>Maze\n<size:10>nz.ac.vuw.ecs.swen225.gp20.maze" as nz.ac.vuw.ecs.swen225.gp20.maze.Maze [[Maze.html]] {
        +Maze()
        +Maze(Tile[], List<Containable>)
        +setMovesByTime(Map<Long, List<Move>>): void
        +getMovesByTime(): Map<Long, List<Move>>
        +addListener(MazeEventListener): void
        +removeListener(MazeEventListener): void
        +broadcast(MazeEvent): void
        +move(Direction): void
        +preMoveChecks(): void
        +postMoveChecks(): void
        +moveChap(PathTile): void
        +checkWalked(PathTile, PathTile, Direction): void
        +checkPickup(PathTile, PathTile, Direction, Pickup): void
        +checkTreasure(PathTile, PathTile, Direction, Treasure): void
        +checkBlocking(PathTile, PathTile, Direction): boolean
        +tryUnlockDoor(PathTile, Door, Direction): boolean
        +tryPushCrate(PathTile, Crate, Direction): boolean
        +tileTo(Tile, Direction): Tile
        +setDoPathfinding(boolean): void
        +setupTimer(): void
        +tickPathFinding(): void
        +moveEnemy(Enemy, Direction): void
        +pause(): void
        +resume(): void
        +getTileAt(int, int): Tile
        +getChap(): Chap
        +getTiles(): Tile[]
        +isLevelFinished(): boolean
        +getWidth(): int
        +getHeight(): int
        +getTreasures(): List<Treasure>
        +numTreasures(): int
        +openExitLock(): void
        +killChap(): void
        +getMillisecondsLeft(): long
        +setMillisecondsLeft(long): void
        +getLevelID(): int
        +setLevelID(int): void
        +setMoves(List<Direction>): void
        +getMoves(): List<Direction>
        +setWidth(int): void
        +setHeight(int): void
        +setTiles(Tile[]): void
        +setChap(Chap): void
        +setTreasures(List<Treasure>): void
        +getEnemies(): List<Enemy>
        +setEnemies(List<Enemy>): void
        +getExitlock(): ExitLock
        +setExitlock(ExitLock): void
        +setLevelFinished(boolean): void
        +getPathFindingTimer(): Timer
        +setPathFindingTimer(Timer): void
        +getPathFindingDelay(): int
        +setPathFindingDelay(int): void
        +getListeners(): List<MazeEventListener>
        +setListeners(List<MazeEventListener>): void
        +getUndoRedo(): UndoRedoHandler
        +isDead(): boolean
    }
    enum "<size:14>Maze.Direction\n<size:10>nz.ac.vuw.ecs.swen225.gp20.maze" as nz.ac.vuw.ecs.swen225.gp20.maze.Maze.Direction [[Maze.Direction.html]]
    enum "<size:14>Maze.KeyColor\n<size:10>nz.ac.vuw.ecs.swen225.gp20.maze" as nz.ac.vuw.ecs.swen225.gp20.maze.Maze.KeyColor [[Maze.KeyColor.html]]

    nz.ac.vuw.ecs.swen225.gp20.maze.Maze +- - nz.ac.vuw.ecs.swen225.gp20.maze.Maze.Direction
    nz.ac.vuw.ecs.swen225.gp20.maze.Maze +- - nz.ac.vuw.ecs.swen225.gp20.maze.Maze.KeyColor

    center footer UMLDoclet 2.0.12, PlantUML 1.2020.16
@enduml

PlantUML version 1.2020.16(Mon Aug 24 08:20:43 NZST 2020)
(APACHE source distribution)
Java Runtime: OpenJDK Runtime Environment
JVM: OpenJDK 64-Bit Server VM
Default Encoding: Cp1252
Language: en
Country: NZ
--></g></svg>