<?xml version="1.0" encoding="UTF-8" standalone="no"?><svg xmlns="http://www.w3.org/2000/svg" xmlns:xlink="http://www.w3.org/1999/xlink" contentScriptType="application/ecmascript" contentStyleType="text/css" height="344px" preserveAspectRatio="none" style="width:258px;height:344px;" version="1.1" viewBox="0 0 258 344" width="258px" zoomAndPan="magnify"><defs><filter height="300%" id="f1cflea1vgp31" width="300%" x="-1" y="-1"><feGaussianBlur result="blurOut" stdDeviation="2.0"/><feColorMatrix in="blurOut" result="blurOut2" type="matrix" values="0 0 0 0 0 0 0 0 0 0 0 0 0 0 0 0 0 0 .4 0"/><feOffset dx="4.0" dy="4.0" in="blurOut2" result="blurOut3"/><feBlend in="SourceGraphic" in2="blurOut3" mode="normal"/></filter></defs><g><!--MD5=[8045c7d6a426776d5e4064513d30c003]
class nz.ac.vuw.ecs.swen225.gp20.maze.PathTile--><a href="PathTile.html" target="_top" title="PathTile.html" xlink:actuate="onRequest" xlink:href="PathTile.html" xlink:show="new" xlink:title="PathTile.html" xlink:type="simple"><rect codeLine="5" fill="#FEFECE" filter="url(#f1cflea1vgp31)" height="200.3828" id="nz.ac.vuw.ecs.swen225.gp20.maze.PathTile" style="stroke: #A80036; stroke-width: 1.5;" width="232" x="7" y="107"/><ellipse cx="37.3" cy="127.0938" fill="#ADD1B2" rx="11" ry="11" style="stroke: #A80036; stroke-width: 1.0;"/><path d="M40.0656,122.9688 Q40.2219,122.75 40.4094,122.6406 Q40.5969,122.5313 40.8156,122.5313 Q41.1906,122.5313 41.425,122.7969 Q41.6594,123.0469 41.6594,123.6563 L41.6594,125.1094 Q41.6594,125.7188 41.425,125.9844 Q41.1906,126.25 40.8156,126.25 Q40.4719,126.25 40.2688,126.0469 Q40.0656,125.8594 39.9563,125.3438 Q39.9094,124.9844 39.7219,124.7969 Q39.3938,124.4219 38.7844,124.2031 Q38.175,123.9844 37.55,123.9844 Q36.7844,123.9844 36.1438,124.3125 Q35.5188,124.6406 35.0188,125.3906 Q34.5344,126.1406 34.5344,127.1719 L34.5344,128.2656 Q34.5344,129.5 35.425,130.3281 Q36.3156,131.1406 37.9094,131.1406 Q38.8469,131.1406 39.5031,130.8906 Q39.8938,130.7344 40.3156,130.2969 Q40.5813,130.0313 40.7219,129.9531 Q40.8781,129.875 41.0813,129.875 Q41.4094,129.875 41.6594,130.1406 Q41.925,130.3906 41.925,130.7344 Q41.925,131.0781 41.5813,131.4844 Q41.0813,132.0625 40.2844,132.3906 Q39.2063,132.8438 37.9094,132.8438 Q36.3938,132.8438 35.1906,132.2188 Q34.2063,131.7188 33.5188,130.6563 Q32.8313,129.5781 32.8313,128.2969 L32.8313,127.1406 Q32.8313,125.8125 33.4406,124.6719 Q34.0656,123.5156 35.1594,122.9063 Q36.2531,122.2813 37.4875,122.2813 Q38.2219,122.2813 38.8625,122.4531 Q39.5188,122.6094 40.0656,122.9688 Z "/><text fill="#000000" font-family="sans-serif" font-size="14" lengthAdjust="spacingAndGlyphs" textLength="52" x="111.7" y="126.5332">PathTile</text><text fill="#000000" font-family="sans-serif" font-size="10" lengthAdjust="spacingAndGlyphs" textLength="166" x="54.7" y="139.9902">nz.ac.vuw.ecs.swen225.gp20.maze</text><line style="stroke: #A80036; stroke-width: 1.5;" x1="8" x2="238" y1="147.1875" y2="147.1875"/><ellipse cx="18" cy="158.1875" fill="#84BE84" rx="3" ry="3" style="stroke: #038048; stroke-width: 1.0;"/><text fill="#000000" font-family="sans-serif" font-size="11" lengthAdjust="spacingAndGlyphs" textLength="73" x="27" y="162.6064">PathTile(String)</text><ellipse cx="18" cy="172.0234" fill="#84BE84" rx="3" ry="3" style="stroke: #038048; stroke-width: 1.0;"/><text fill="#000000" font-family="sans-serif" font-size="11" lengthAdjust="spacingAndGlyphs" textLength="45" x="27" y="176.4424">PathTile()</text><ellipse cx="18" cy="185.8594" fill="#84BE84" rx="3" ry="3" style="stroke: #038048; stroke-width: 1.0;"/><text fill="#000000" font-family="sans-serif" font-size="11" lengthAdjust="spacingAndGlyphs" textLength="127" x="27" y="190.2783">enemyWalkable(): boolean</text><ellipse cx="18" cy="199.6953" fill="#84BE84" rx="3" ry="3" style="stroke: #038048; stroke-width: 1.0;"/><text fill="#000000" font-family="sans-serif" font-size="11" lengthAdjust="spacingAndGlyphs" textLength="116" x="27" y="204.1143">place(Containable): void</text><ellipse cx="18" cy="213.5313" fill="#84BE84" rx="3" ry="3" style="stroke: #038048; stroke-width: 1.0;"/><text fill="#000000" font-family="sans-serif" font-size="11" lengthAdjust="spacingAndGlyphs" textLength="126" x="27" y="217.9502">remove(Containable): void</text><ellipse cx="18" cy="227.3672" fill="#84BE84" rx="3" ry="3" style="stroke: #038048; stroke-width: 1.0;"/><text fill="#000000" font-family="sans-serif" font-size="11" lengthAdjust="spacingAndGlyphs" textLength="129" x="27" y="231.7861">containsBlocker(): boolean</text><ellipse cx="18" cy="241.2031" fill="#84BE84" rx="3" ry="3" style="stroke: #038048; stroke-width: 1.0;"/><text fill="#000000" font-family="sans-serif" font-size="11" lengthAdjust="spacingAndGlyphs" textLength="128" x="27" y="245.6221">moveTo(Containable): void</text><ellipse cx="18" cy="255.0391" fill="#84BE84" rx="3" ry="3" style="stroke: #038048; stroke-width: 1.0;"/><text fill="#000000" font-family="sans-serif" font-size="11" lengthAdjust="spacingAndGlyphs" textLength="86" x="27" y="259.458">getInitials(): String</text><ellipse cx="18" cy="268.875" fill="#84BE84" rx="3" ry="3" style="stroke: #038048; stroke-width: 1.0;"/><text fill="#000000" font-family="sans-serif" font-size="11" lengthAdjust="spacingAndGlyphs" textLength="161" x="27" y="273.2939">getBlocker(): BlockingContainable</text><ellipse cx="18" cy="282.7109" fill="#84BE84" rx="3" ry="3" style="stroke: #038048; stroke-width: 1.0;"/><text fill="#000000" font-family="sans-serif" font-size="11" lengthAdjust="spacingAndGlyphs" textLength="181" x="27" y="287.1299">setBlocker(BlockingContainable): void</text><ellipse cx="18" cy="296.5469" fill="#84BE84" rx="3" ry="3" style="stroke: #038048; stroke-width: 1.0;"/><text fill="#000000" font-family="sans-serif" font-size="11" lengthAdjust="spacingAndGlyphs" textLength="206" x="27" y="300.9658">getContainedEntities(): Stack&lt;Containable&gt;</text></a><!--MD5=[76c7e6ed5bb0aaabc8404e6911d01ede]
class nz.ac.vuw.ecs.swen225.gp20.maze.Tile--><a href="Tile.html" target="_top" title="Tile.html" xlink:actuate="onRequest" xlink:href="Tile.html" xlink:show="new" xlink:title="Tile.html" xlink:type="simple"><rect codeLine="19" fill="#FEFECE" filter="url(#f1cflea1vgp31)" height="40.1875" id="nz.ac.vuw.ecs.swen225.gp20.maze.Tile" style="stroke: #A80036; stroke-width: 1.5;" width="198" x="24" y="7"/><ellipse cx="39" cy="27.0938" fill="#A9DCDF" rx="11" ry="11" style="stroke: #A80036; stroke-width: 1.0;"/><path d="M41.1875,28.8594 L37.0469,28.8594 L36.625,29.8906 L37.0469,29.8906 Q37.6563,29.8906 37.9219,30.125 Q38.1875,30.3594 38.1875,30.75 Q38.1875,31.125 37.9219,31.3594 Q37.6563,31.5938 37.0469,31.5938 L34.75,31.5938 Q34.1406,31.5938 33.8906,31.3594 Q33.625,31.125 33.625,30.7344 Q33.625,30.3594 33.9063,30.125 Q34.1719,29.875 34.7969,29.8906 L37.4688,23.2344 L36.3594,23.2344 Q35.75,23.2344 35.4844,23 Q35.2188,22.7656 35.2188,22.375 Q35.2188,22 35.4844,21.7656 Q35.75,21.5313 36.3594,21.5313 L40.0313,21.5313 L43.4219,29.8906 Q44.0156,29.8906 44.2031,30.0313 Q44.5938,30.2969 44.5938,30.75 Q44.5938,31.125 44.3281,31.3594 Q44.0781,31.5938 43.4688,31.5938 L41.1719,31.5938 Q40.5625,31.5938 40.2969,31.3594 Q40.0313,31.125 40.0313,30.7344 Q40.0313,30.3594 40.2969,30.125 Q40.5625,29.8906 41.1719,29.8906 L41.5938,29.8906 L41.1875,28.8594 Z M40.4688,27.1563 L39.1094,23.7813 L37.7344,27.1563 L40.4688,27.1563 Z "/><text fill="#000000" font-family="sans-serif" font-size="14" font-style="italic" lengthAdjust="spacingAndGlyphs" textLength="23" x="124.5" y="26.5332">Tile</text><text fill="#000000" font-family="sans-serif" font-size="10" font-style="italic" lengthAdjust="spacingAndGlyphs" textLength="166" x="53" y="39.9902">nz.ac.vuw.ecs.swen225.gp20.maze</text></a><!--MD5=[787032c8d7ff12e4974bec0a8c099190]
reverse link nz.ac.vuw.ecs.swen225.gp20.maze.Tile to nz.ac.vuw.ecs.swen225.gp20.maze.PathTile--><path codeLine="21" d="M123,67.36 C123,79.22 123,92.81 123,106.74 " fill="none" id="nz.ac.vuw.ecs.swen225.gp20.maze.Tile-backto-nz.ac.vuw.ecs.swen225.gp20.maze.PathTile" style="stroke: #A80036; stroke-width: 1.0;"/><polygon fill="none" points="116,67.05,123,47.05,130,67.05,116,67.05" style="stroke: #A80036; stroke-width: 1.0;"/><text fill="#888888" font-family="sans-serif" font-size="10" lengthAdjust="spacingAndGlyphs" textLength="190" x="25" y="330.7637">UMLDoclet 2.0.12, PlantUML 1.2020.16</text><!--MD5=[8a6786d91982d584b764e904ef2f7e57]
@startuml
    set namespaceSeparator none
    hide empty fields
    hide empty methods

    class "<size:14>PathTile\n<size:10>nz.ac.vuw.ecs.swen225.gp20.maze" as nz.ac.vuw.ecs.swen225.gp20.maze.PathTile [[PathTile.html]] {
        +PathTile(String)
        +PathTile()
        +enemyWalkable(): boolean
        +place(Containable): void
        +remove(Containable): void
        +containsBlocker(): boolean
        +moveTo(Containable): void
        +getInitials(): String
        +getBlocker(): BlockingContainable
        +setBlocker(BlockingContainable): void
        +getContainedEntities(): Stack<Containable>
    }

    abstract class "<size:14>Tile\n<size:10>nz.ac.vuw.ecs.swen225.gp20.maze" as nz.ac.vuw.ecs.swen225.gp20.maze.Tile [[Tile.html]]

    nz.ac.vuw.ecs.swen225.gp20.maze.Tile <|- - nz.ac.vuw.ecs.swen225.gp20.maze.PathTile

    center footer UMLDoclet 2.0.12, PlantUML 1.2020.16
@enduml

PlantUML version 1.2020.16(Mon Aug 24 08:20:43 NZST 2020)
(APACHE source distribution)
Java Runtime: OpenJDK Runtime Environment
JVM: OpenJDK 64-Bit Server VM
Default Encoding: Cp1252
Language: en
Country: NZ
--></g></svg>