<?xml version="1.0" encoding="UTF-8" standalone="no"?><svg xmlns="http://www.w3.org/2000/svg" xmlns:xlink="http://www.w3.org/1999/xlink" contentScriptType="application/ecmascript" contentStyleType="text/css" height="261px" preserveAspectRatio="none" style="width:253px;height:261px;" version="1.1" viewBox="0 0 253 261" width="253px" zoomAndPan="magnify"><defs><filter height="300%" id="f1nvohkzzqyi6j" width="300%" x="-1" y="-1"><feGaussianBlur result="blurOut" stdDeviation="2.0"/><feColorMatrix in="blurOut" result="blurOut2" type="matrix" values="0 0 0 0 0 0 0 0 0 0 0 0 0 0 0 0 0 0 .4 0"/><feOffset dx="4.0" dy="4.0" in="blurOut2" result="blurOut3"/><feBlend in="SourceGraphic" in2="blurOut3" mode="normal"/></filter></defs><g><!--MD5=[2510966c82e76d11ff968907ce1639db]
class nz.ac.vuw.ecs.swen225.gp20.maze.UndoHandler--><rect codeLine="5" fill="#FEFECE" filter="url(#f1nvohkzzqyi6j)" height="117.3672" id="nz.ac.vuw.ecs.swen225.gp20.maze.UndoHandler" style="stroke: #A80036; stroke-width: 1.5;" width="198" x="21.5" y="107"/><ellipse cx="36.5" cy="127.0938" fill="#ADD1B2" rx="11" ry="11" style="stroke: #A80036; stroke-width: 1.0;"/><path d="M39.2656,122.9688 Q39.4219,122.75 39.6094,122.6406 Q39.7969,122.5313 40.0156,122.5313 Q40.3906,122.5313 40.625,122.7969 Q40.8594,123.0469 40.8594,123.6563 L40.8594,125.1094 Q40.8594,125.7188 40.625,125.9844 Q40.3906,126.25 40.0156,126.25 Q39.6719,126.25 39.4688,126.0469 Q39.2656,125.8594 39.1563,125.3438 Q39.1094,124.9844 38.9219,124.7969 Q38.5938,124.4219 37.9844,124.2031 Q37.375,123.9844 36.75,123.9844 Q35.9844,123.9844 35.3438,124.3125 Q34.7188,124.6406 34.2188,125.3906 Q33.7344,126.1406 33.7344,127.1719 L33.7344,128.2656 Q33.7344,129.5 34.625,130.3281 Q35.5156,131.1406 37.1094,131.1406 Q38.0469,131.1406 38.7031,130.8906 Q39.0938,130.7344 39.5156,130.2969 Q39.7813,130.0313 39.9219,129.9531 Q40.0781,129.875 40.2813,129.875 Q40.6094,129.875 40.8594,130.1406 Q41.125,130.3906 41.125,130.7344 Q41.125,131.0781 40.7813,131.4844 Q40.2813,132.0625 39.4844,132.3906 Q38.4063,132.8438 37.1094,132.8438 Q35.5938,132.8438 34.3906,132.2188 Q33.4063,131.7188 32.7188,130.6563 Q32.0313,129.5781 32.0313,128.2969 L32.0313,127.1406 Q32.0313,125.8125 32.6406,124.6719 Q33.2656,123.5156 34.3594,122.9063 Q35.4531,122.2813 36.6875,122.2813 Q37.4219,122.2813 38.0625,122.4531 Q38.7188,122.6094 39.2656,122.9688 Z "/><text fill="#000000" font-family="sans-serif" font-size="14" lengthAdjust="spacingAndGlyphs" textLength="82" x="92.5" y="126.5332">UndoHandler</text><text fill="#000000" font-family="sans-serif" font-size="10" lengthAdjust="spacingAndGlyphs" textLength="166" x="50.5" y="139.9902">nz.ac.vuw.ecs.swen225.gp20.maze</text><line style="stroke: #A80036; stroke-width: 1.5;" x1="22.5" x2="218.5" y1="147.1875" y2="147.1875"/><ellipse cx="32.5" cy="158.1875" fill="#84BE84" rx="3" ry="3" style="stroke: #038048; stroke-width: 1.0;"/><text fill="#000000" font-family="sans-serif" font-size="11" lengthAdjust="spacingAndGlyphs" textLength="140" x="41.5" y="162.6064">UndoHandler(Maze, boolean)</text><ellipse cx="32.5" cy="172.0234" fill="#84BE84" rx="3" ry="3" style="stroke: #038048; stroke-width: 1.0;"/><text fill="#000000" font-family="sans-serif" font-size="11" lengthAdjust="spacingAndGlyphs" textLength="120" x="41.5" y="176.4424">update(MazeEvent): void</text><ellipse cx="32.5" cy="185.8594" fill="#84BE84" rx="3" ry="3" style="stroke: #038048; stroke-width: 1.0;"/><text fill="#000000" font-family="sans-serif" font-size="11" lengthAdjust="spacingAndGlyphs" textLength="91" x="41.5" y="190.2783">undo(): MazeEvent</text><ellipse cx="32.5" cy="199.6953" fill="#84BE84" rx="3" ry="3" style="stroke: #038048; stroke-width: 1.0;"/><text fill="#000000" font-family="sans-serif" font-size="11" lengthAdjust="spacingAndGlyphs" textLength="56" x="41.5" y="204.1143">redo(): void</text><ellipse cx="32.5" cy="213.5313" fill="#84BE84" rx="3" ry="3" style="stroke: #038048; stroke-width: 1.0;"/><text fill="#000000" font-family="sans-serif" font-size="11" lengthAdjust="spacingAndGlyphs" textLength="110" x="41.5" y="217.9502">clearRedoStack(): void</text><!--MD5=[a332cefbfed17df6d36ecc563de89414]
class nz.ac.vuw.ecs.swen225.gp20.maze.event.MazeEventListener--><a href="event\MazeEventListener.html" target="_top" title="event\MazeEventListener.html" xlink:actuate="onRequest" xlink:href="event\MazeEventListener.html" xlink:show="new" xlink:title="event\MazeEventListener.html" xlink:type="simple"><rect codeLine="13" fill="#FEFECE" filter="url(#f1nvohkzzqyi6j)" height="40.1875" id="nz.ac.vuw.ecs.swen225.gp20.maze.event.MazeEventListener" style="stroke: #A80036; stroke-width: 1.5;" width="227" x="7" y="7"/><ellipse cx="22" cy="27.0938" fill="#ADD1B2" rx="11" ry="11" style="stroke: #A80036; stroke-width: 1.0;"/><path d="M24.7656,22.9688 Q24.9219,22.75 25.1094,22.6406 Q25.2969,22.5313 25.5156,22.5313 Q25.8906,22.5313 26.125,22.7969 Q26.3594,23.0469 26.3594,23.6563 L26.3594,25.1094 Q26.3594,25.7188 26.125,25.9844 Q25.8906,26.25 25.5156,26.25 Q25.1719,26.25 24.9688,26.0469 Q24.7656,25.8594 24.6563,25.3438 Q24.6094,24.9844 24.4219,24.7969 Q24.0938,24.4219 23.4844,24.2031 Q22.875,23.9844 22.25,23.9844 Q21.4844,23.9844 20.8438,24.3125 Q20.2188,24.6406 19.7188,25.3906 Q19.2344,26.1406 19.2344,27.1719 L19.2344,28.2656 Q19.2344,29.5 20.125,30.3281 Q21.0156,31.1406 22.6094,31.1406 Q23.5469,31.1406 24.2031,30.8906 Q24.5938,30.7344 25.0156,30.2969 Q25.2813,30.0313 25.4219,29.9531 Q25.5781,29.875 25.7813,29.875 Q26.1094,29.875 26.3594,30.1406 Q26.625,30.3906 26.625,30.7344 Q26.625,31.0781 26.2813,31.4844 Q25.7813,32.0625 24.9844,32.3906 Q23.9063,32.8438 22.6094,32.8438 Q21.0938,32.8438 19.8906,32.2188 Q18.9063,31.7188 18.2188,30.6563 Q17.5313,29.5781 17.5313,28.2969 L17.5313,27.1406 Q17.5313,25.8125 18.1406,24.6719 Q18.7656,23.5156 19.8594,22.9063 Q20.9531,22.2813 22.1875,22.2813 Q22.9219,22.2813 23.5625,22.4531 Q24.2188,22.6094 24.7656,22.9688 Z "/><text fill="#000000" font-family="sans-serif" font-size="14" lengthAdjust="spacingAndGlyphs" textLength="120" x="73.5" y="26.5332">MazeEventListener</text><text fill="#000000" font-family="sans-serif" font-size="10" lengthAdjust="spacingAndGlyphs" textLength="195" x="36" y="39.9902">nz.ac.vuw.ecs.swen225.gp20.maze.event</text></a><!--MD5=[772c9d2c845f84c1b36a4b8129acf164]
reverse link nz.ac.vuw.ecs.swen225.gp20.maze.event.MazeEventListener to nz.ac.vuw.ecs.swen225.gp20.maze.UndoHandler--><path codeLine="15" d="M120.5,67.38 C120.5,79.73 120.5,93.63 120.5,106.97 " fill="none" id="nz.ac.vuw.ecs.swen225.gp20.maze.event.MazeEventListener-backto-nz.ac.vuw.ecs.swen225.gp20.maze.UndoHandler" style="stroke: #A80036; stroke-width: 1.0;"/><polygon fill="none" points="113.5,67.27,120.5,47.27,127.5,67.27,113.5,67.27" style="stroke: #A80036; stroke-width: 1.0;"/><text fill="#888888" font-family="sans-serif" font-size="10" lengthAdjust="spacingAndGlyphs" textLength="190" x="22.5" y="247.748">UMLDoclet 2.0.12, PlantUML 1.2020.16</text><!--MD5=[977a130b0c15092d852d56fa271b6f00]
@startuml
    set namespaceSeparator none
    hide empty fields
    hide empty methods

    class "<size:14>UndoHandler\n<size:10>nz.ac.vuw.ecs.swen225.gp20.maze" as nz.ac.vuw.ecs.swen225.gp20.maze.UndoHandler {
        +UndoHandler(Maze, boolean)
        +update(MazeEvent): void
        +undo(): MazeEvent
        +redo(): void
        +clearRedoStack(): void
    }

    class "<size:14>MazeEventListener\n<size:10>nz.ac.vuw.ecs.swen225.gp20.maze.event" as nz.ac.vuw.ecs.swen225.gp20.maze.event.MazeEventListener [[event\MazeEventListener.html]]

    nz.ac.vuw.ecs.swen225.gp20.maze.event.MazeEventListener <|- - nz.ac.vuw.ecs.swen225.gp20.maze.UndoHandler

    center footer UMLDoclet 2.0.12, PlantUML 1.2020.16
@enduml

PlantUML version 1.2020.16(Mon Aug 24 08:20:43 NZST 2020)
(APACHE source distribution)
Java Runtime: OpenJDK Runtime Environment
JVM: OpenJDK 64-Bit Server VM
Default Encoding: Cp1252
Language: en
Country: NZ
--></g></svg>