<?xml version="1.0" encoding="UTF-8" standalone="no"?><svg xmlns="http://www.w3.org/2000/svg" xmlns:xlink="http://www.w3.org/1999/xlink" contentScriptType="application/ecmascript" contentStyleType="text/css" height="247px" preserveAspectRatio="none" style="width:388px;height:247px;" version="1.1" viewBox="0 0 388 247" width="388px" zoomAndPan="magnify"><defs><filter height="300%" id="f1uin8t0oaqx6j" width="300%" x="-1" y="-1"><feGaussianBlur result="blurOut" stdDeviation="2.0"/><feColorMatrix in="blurOut" result="blurOut2" type="matrix" values="0 0 0 0 0 0 0 0 0 0 0 0 0 0 0 0 0 0 .4 0"/><feOffset dx="4.0" dy="4.0" in="blurOut2" result="blurOut3"/><feBlend in="SourceGraphic" in2="blurOut3" mode="normal"/></filter></defs><g><!--MD5=[a3c49f1b3e1d98bb58840993cdc3ccf1]
class nz.ac.vuw.ecs.swen225.gp20.maze.event.MazeEventWalkedDrowned--><a href="MazeEventWalkedDrowned.html" target="_top" title="MazeEventWalkedDrowned.html" xlink:actuate="onRequest" xlink:href="MazeEventWalkedDrowned.html" xlink:show="new" xlink:title="MazeEventWalkedDrowned.html" xlink:type="simple"><rect codeLine="5" fill="#FEFECE" filter="url(#f1uin8t0oaqx6j)" height="103.5313" id="nz.ac.vuw.ecs.swen225.gp20.maze.event.MazeEventWalkedDrowned" style="stroke: #A80036; stroke-width: 1.5;" width="362" x="7" y="107"/><ellipse cx="86.25" cy="127.0938" fill="#ADD1B2" rx="11" ry="11" style="stroke: #A80036; stroke-width: 1.0;"/><path d="M89.0156,122.9688 Q89.1719,122.75 89.3594,122.6406 Q89.5469,122.5313 89.7656,122.5313 Q90.1406,122.5313 90.375,122.7969 Q90.6094,123.0469 90.6094,123.6563 L90.6094,125.1094 Q90.6094,125.7188 90.375,125.9844 Q90.1406,126.25 89.7656,126.25 Q89.4219,126.25 89.2188,126.0469 Q89.0156,125.8594 88.9063,125.3438 Q88.8594,124.9844 88.6719,124.7969 Q88.3438,124.4219 87.7344,124.2031 Q87.125,123.9844 86.5,123.9844 Q85.7344,123.9844 85.0938,124.3125 Q84.4688,124.6406 83.9688,125.3906 Q83.4844,126.1406 83.4844,127.1719 L83.4844,128.2656 Q83.4844,129.5 84.375,130.3281 Q85.2656,131.1406 86.8594,131.1406 Q87.7969,131.1406 88.4531,130.8906 Q88.8438,130.7344 89.2656,130.2969 Q89.5313,130.0313 89.6719,129.9531 Q89.8281,129.875 90.0313,129.875 Q90.3594,129.875 90.6094,130.1406 Q90.875,130.3906 90.875,130.7344 Q90.875,131.0781 90.5313,131.4844 Q90.0313,132.0625 89.2344,132.3906 Q88.1563,132.8438 86.8594,132.8438 Q85.3438,132.8438 84.1406,132.2188 Q83.1563,131.7188 82.4688,130.6563 Q81.7813,129.5781 81.7813,128.2969 L81.7813,127.1406 Q81.7813,125.8125 82.3906,124.6719 Q83.0156,123.5156 84.1094,122.9063 Q85.2031,122.2813 86.4375,122.2813 Q87.1719,122.2813 87.8125,122.4531 Q88.4688,122.6094 89.0156,122.9688 Z "/><text fill="#000000" font-family="sans-serif" font-size="14" lengthAdjust="spacingAndGlyphs" textLength="172" x="118.25" y="126.5332">MazeEventWalkedDrowned</text><text fill="#000000" font-family="sans-serif" font-size="10" lengthAdjust="spacingAndGlyphs" textLength="195" x="106.75" y="139.9902">nz.ac.vuw.ecs.swen225.gp20.maze.event</text><line style="stroke: #A80036; stroke-width: 1.5;" x1="8" x2="368" y1="147.1875" y2="147.1875"/><ellipse cx="18" cy="158.1875" fill="#84BE84" rx="3" ry="3" style="stroke: #038048; stroke-width: 1.0;"/><text fill="#000000" font-family="sans-serif" font-size="11" lengthAdjust="spacingAndGlyphs" textLength="336" x="27" y="162.6064">MazeEventWalkedDrowned(Maze, Water, PathTile, PathTile, Direction)</text><ellipse cx="18" cy="172.0234" fill="#84BE84" rx="3" ry="3" style="stroke: #038048; stroke-width: 1.0;"/><text fill="#000000" font-family="sans-serif" font-size="11" lengthAdjust="spacingAndGlyphs" textLength="87" x="27" y="176.4424">getWater(): Water</text><ellipse cx="18" cy="185.8594" fill="#84BE84" rx="3" ry="3" style="stroke: #038048; stroke-width: 1.0;"/><text fill="#000000" font-family="sans-serif" font-size="11" lengthAdjust="spacingAndGlyphs" textLength="162" x="27" y="190.2783">receive(MazeEventListener): void</text><ellipse cx="18" cy="199.6953" fill="#84BE84" rx="3" ry="3" style="stroke: #038048; stroke-width: 1.0;"/><text fill="#000000" font-family="sans-serif" font-size="11" lengthAdjust="spacingAndGlyphs" textLength="61" x="27" y="204.1143">invert(): void</text></a><!--MD5=[7faeee9bf455f002452f8adabf2713b5]
class nz.ac.vuw.ecs.swen225.gp20.maze.event.MazeEventWalked--><a href="MazeEventWalked.html" target="_top" title="MazeEventWalked.html" xlink:actuate="onRequest" xlink:href="MazeEventWalked.html" xlink:show="new" xlink:title="MazeEventWalked.html" xlink:type="simple"><rect codeLine="12" fill="#FEFECE" filter="url(#f1uin8t0oaqx6j)" height="40.1875" id="nz.ac.vuw.ecs.swen225.gp20.maze.event.MazeEventWalked" style="stroke: #A80036; stroke-width: 1.5;" width="227" x="74.5" y="7"/><ellipse cx="89.5" cy="27.0938" fill="#ADD1B2" rx="11" ry="11" style="stroke: #A80036; stroke-width: 1.0;"/><path d="M92.2656,22.9688 Q92.4219,22.75 92.6094,22.6406 Q92.7969,22.5313 93.0156,22.5313 Q93.3906,22.5313 93.625,22.7969 Q93.8594,23.0469 93.8594,23.6563 L93.8594,25.1094 Q93.8594,25.7188 93.625,25.9844 Q93.3906,26.25 93.0156,26.25 Q92.6719,26.25 92.4688,26.0469 Q92.2656,25.8594 92.1563,25.3438 Q92.1094,24.9844 91.9219,24.7969 Q91.5938,24.4219 90.9844,24.2031 Q90.375,23.9844 89.75,23.9844 Q88.9844,23.9844 88.3438,24.3125 Q87.7188,24.6406 87.2188,25.3906 Q86.7344,26.1406 86.7344,27.1719 L86.7344,28.2656 Q86.7344,29.5 87.625,30.3281 Q88.5156,31.1406 90.1094,31.1406 Q91.0469,31.1406 91.7031,30.8906 Q92.0938,30.7344 92.5156,30.2969 Q92.7813,30.0313 92.9219,29.9531 Q93.0781,29.875 93.2813,29.875 Q93.6094,29.875 93.8594,30.1406 Q94.125,30.3906 94.125,30.7344 Q94.125,31.0781 93.7813,31.4844 Q93.2813,32.0625 92.4844,32.3906 Q91.4063,32.8438 90.1094,32.8438 Q88.5938,32.8438 87.3906,32.2188 Q86.4063,31.7188 85.7188,30.6563 Q85.0313,29.5781 85.0313,28.2969 L85.0313,27.1406 Q85.0313,25.8125 85.6406,24.6719 Q86.2656,23.5156 87.3594,22.9063 Q88.4531,22.2813 89.6875,22.2813 Q90.4219,22.2813 91.0625,22.4531 Q91.7188,22.6094 92.2656,22.9688 Z "/><text fill="#000000" font-family="sans-serif" font-size="14" lengthAdjust="spacingAndGlyphs" textLength="116" x="143" y="26.5332">MazeEventWalked</text><text fill="#000000" font-family="sans-serif" font-size="10" lengthAdjust="spacingAndGlyphs" textLength="195" x="103.5" y="39.9902">nz.ac.vuw.ecs.swen225.gp20.maze.event</text></a><!--MD5=[0be1c6a46436aec20abffda5668b17d4]
reverse link nz.ac.vuw.ecs.swen225.gp20.maze.event.MazeEventWalked to nz.ac.vuw.ecs.swen225.gp20.maze.event.MazeEventWalkedDrowned--><path codeLine="14" d="M188,67.49 C188,79.93 188,93.86 188,106.99 " fill="none" id="nz.ac.vuw.ecs.swen225.gp20.maze.event.MazeEventWalked-backto-nz.ac.vuw.ecs.swen225.gp20.maze.event.MazeEventWalkedDrowned" style="stroke: #A80036; stroke-width: 1.0;"/><polygon fill="none" points="181,67.18,188,47.18,195,67.18,181,67.18" style="stroke: #A80036; stroke-width: 1.0;"/><text fill="#888888" font-family="sans-serif" font-size="10" lengthAdjust="spacingAndGlyphs" textLength="190" x="90" y="233.9121">UMLDoclet 2.0.12, PlantUML 1.2020.16</text><!--MD5=[8059265b127e2035787cf0cd88696ee3]
@startuml
    set namespaceSeparator none
    hide empty fields
    hide empty methods

    class "<size:14>MazeEventWalkedDrowned\n<size:10>nz.ac.vuw.ecs.swen225.gp20.maze.event" as nz.ac.vuw.ecs.swen225.gp20.maze.event.MazeEventWalkedDrowned [[MazeEventWalkedDrowned.html]] {
        +MazeEventWalkedDrowned(Maze, Water, PathTile, PathTile, Direction)
        +getWater(): Water
        +receive(MazeEventListener): void
        +invert(): void
    }

    class "<size:14>MazeEventWalked\n<size:10>nz.ac.vuw.ecs.swen225.gp20.maze.event" as nz.ac.vuw.ecs.swen225.gp20.maze.event.MazeEventWalked [[MazeEventWalked.html]]

    nz.ac.vuw.ecs.swen225.gp20.maze.event.MazeEventWalked <|- - nz.ac.vuw.ecs.swen225.gp20.maze.event.MazeEventWalkedDrowned

    center footer UMLDoclet 2.0.12, PlantUML 1.2020.16
@enduml

PlantUML version 1.2020.16(Mon Aug 24 08:20:43 NZST 2020)
(APACHE source distribution)
Java Runtime: OpenJDK Runtime Environment
JVM: OpenJDK 64-Bit Server VM
Default Encoding: Cp1252
Language: en
Country: NZ
--></g></svg>