<?xml version="1.0" encoding="UTF-8" standalone="no"?><svg xmlns="http://www.w3.org/2000/svg" xmlns:xlink="http://www.w3.org/1999/xlink" contentScriptType="application/ecmascript" contentStyleType="text/css" height="233px" preserveAspectRatio="none" style="width:359px;height:233px;" version="1.1" viewBox="0 0 359 233" width="359px" zoomAndPan="magnify"><defs><filter height="300%" id="f1ve7vge0wqsu6" width="300%" x="-1" y="-1"><feGaussianBlur result="blurOut" stdDeviation="2.0"/><feColorMatrix in="blurOut" result="blurOut2" type="matrix" values="0 0 0 0 0 0 0 0 0 0 0 0 0 0 0 0 0 0 .4 0"/><feOffset dx="4.0" dy="4.0" in="blurOut2" result="blurOut3"/><feBlend in="SourceGraphic" in2="blurOut3" mode="normal"/></filter></defs><g><!--MD5=[8d42bfb0e6431c402f7e46ca93c77395]
class nz.ac.vuw.ecs.swen225.gp20.maze.event.MazeEventInfoField--><a href="MazeEventInfoField.html" target="_top" title="MazeEventInfoField.html" xlink:actuate="onRequest" xlink:href="MazeEventInfoField.html" xlink:show="new" xlink:title="MazeEventInfoField.html" xlink:type="simple"><rect codeLine="5" fill="#FEFECE" filter="url(#f1ve7vge0wqsu6)" height="89.6953" id="nz.ac.vuw.ecs.swen225.gp20.maze.event.MazeEventInfoField" style="stroke: #A80036; stroke-width: 1.5;" width="333" x="7" y="107"/><ellipse cx="71.75" cy="127.0938" fill="#ADD1B2" rx="11" ry="11" style="stroke: #A80036; stroke-width: 1.0;"/><path d="M74.5156,122.9688 Q74.6719,122.75 74.8594,122.6406 Q75.0469,122.5313 75.2656,122.5313 Q75.6406,122.5313 75.875,122.7969 Q76.1094,123.0469 76.1094,123.6563 L76.1094,125.1094 Q76.1094,125.7188 75.875,125.9844 Q75.6406,126.25 75.2656,126.25 Q74.9219,126.25 74.7188,126.0469 Q74.5156,125.8594 74.4063,125.3438 Q74.3594,124.9844 74.1719,124.7969 Q73.8438,124.4219 73.2344,124.2031 Q72.625,123.9844 72,123.9844 Q71.2344,123.9844 70.5938,124.3125 Q69.9688,124.6406 69.4688,125.3906 Q68.9844,126.1406 68.9844,127.1719 L68.9844,128.2656 Q68.9844,129.5 69.875,130.3281 Q70.7656,131.1406 72.3594,131.1406 Q73.2969,131.1406 73.9531,130.8906 Q74.3438,130.7344 74.7656,130.2969 Q75.0313,130.0313 75.1719,129.9531 Q75.3281,129.875 75.5313,129.875 Q75.8594,129.875 76.1094,130.1406 Q76.375,130.3906 76.375,130.7344 Q76.375,131.0781 76.0313,131.4844 Q75.5313,132.0625 74.7344,132.3906 Q73.6563,132.8438 72.3594,132.8438 Q70.8438,132.8438 69.6406,132.2188 Q68.6563,131.7188 67.9688,130.6563 Q67.2813,129.5781 67.2813,128.2969 L67.2813,127.1406 Q67.2813,125.8125 67.8906,124.6719 Q68.5156,123.5156 69.6094,122.9063 Q70.7031,122.2813 71.9375,122.2813 Q72.6719,122.2813 73.3125,122.4531 Q73.9688,122.6094 74.5156,122.9688 Z "/><text fill="#000000" font-family="sans-serif" font-size="14" lengthAdjust="spacingAndGlyphs" textLength="123" x="128.25" y="126.5332">MazeEventInfoField</text><text fill="#000000" font-family="sans-serif" font-size="10" lengthAdjust="spacingAndGlyphs" textLength="195" x="92.25" y="139.9902">nz.ac.vuw.ecs.swen225.gp20.maze.event</text><line style="stroke: #A80036; stroke-width: 1.5;" x1="8" x2="339" y1="147.1875" y2="147.1875"/><ellipse cx="18" cy="158.1875" fill="#84BE84" rx="3" ry="3" style="stroke: #038048; stroke-width: 1.0;"/><text fill="#000000" font-family="sans-serif" font-size="11" lengthAdjust="spacingAndGlyphs" textLength="307" x="27" y="162.6064">MazeEventInfoField(Maze, PathTile, PathTile, Direction, InfoField)</text><ellipse cx="18" cy="172.0234" fill="#84BE84" rx="3" ry="3" style="stroke: #038048; stroke-width: 1.0;"/><text fill="#000000" font-family="sans-serif" font-size="11" lengthAdjust="spacingAndGlyphs" textLength="109" x="27" y="176.4424">getInfoField(): InfoField</text><ellipse cx="18" cy="185.8594" fill="#84BE84" rx="3" ry="3" style="stroke: #038048; stroke-width: 1.0;"/><text fill="#000000" font-family="sans-serif" font-size="11" lengthAdjust="spacingAndGlyphs" textLength="162" x="27" y="190.2783">receive(MazeEventListener): void</text></a><!--MD5=[7faeee9bf455f002452f8adabf2713b5]
class nz.ac.vuw.ecs.swen225.gp20.maze.event.MazeEventWalked--><a href="MazeEventWalked.html" target="_top" title="MazeEventWalked.html" xlink:actuate="onRequest" xlink:href="MazeEventWalked.html" xlink:show="new" xlink:title="MazeEventWalked.html" xlink:type="simple"><rect codeLine="11" fill="#FEFECE" filter="url(#f1ve7vge0wqsu6)" height="40.1875" id="nz.ac.vuw.ecs.swen225.gp20.maze.event.MazeEventWalked" style="stroke: #A80036; stroke-width: 1.5;" width="227" x="60" y="7"/><ellipse cx="75" cy="27.0938" fill="#ADD1B2" rx="11" ry="11" style="stroke: #A80036; stroke-width: 1.0;"/><path d="M77.7656,22.9688 Q77.9219,22.75 78.1094,22.6406 Q78.2969,22.5313 78.5156,22.5313 Q78.8906,22.5313 79.125,22.7969 Q79.3594,23.0469 79.3594,23.6563 L79.3594,25.1094 Q79.3594,25.7188 79.125,25.9844 Q78.8906,26.25 78.5156,26.25 Q78.1719,26.25 77.9688,26.0469 Q77.7656,25.8594 77.6563,25.3438 Q77.6094,24.9844 77.4219,24.7969 Q77.0938,24.4219 76.4844,24.2031 Q75.875,23.9844 75.25,23.9844 Q74.4844,23.9844 73.8438,24.3125 Q73.2188,24.6406 72.7188,25.3906 Q72.2344,26.1406 72.2344,27.1719 L72.2344,28.2656 Q72.2344,29.5 73.125,30.3281 Q74.0156,31.1406 75.6094,31.1406 Q76.5469,31.1406 77.2031,30.8906 Q77.5938,30.7344 78.0156,30.2969 Q78.2813,30.0313 78.4219,29.9531 Q78.5781,29.875 78.7813,29.875 Q79.1094,29.875 79.3594,30.1406 Q79.625,30.3906 79.625,30.7344 Q79.625,31.0781 79.2813,31.4844 Q78.7813,32.0625 77.9844,32.3906 Q76.9063,32.8438 75.6094,32.8438 Q74.0938,32.8438 72.8906,32.2188 Q71.9063,31.7188 71.2188,30.6563 Q70.5313,29.5781 70.5313,28.2969 L70.5313,27.1406 Q70.5313,25.8125 71.1406,24.6719 Q71.7656,23.5156 72.8594,22.9063 Q73.9531,22.2813 75.1875,22.2813 Q75.9219,22.2813 76.5625,22.4531 Q77.2188,22.6094 77.7656,22.9688 Z "/><text fill="#000000" font-family="sans-serif" font-size="14" lengthAdjust="spacingAndGlyphs" textLength="116" x="128.5" y="26.5332">MazeEventWalked</text><text fill="#000000" font-family="sans-serif" font-size="10" lengthAdjust="spacingAndGlyphs" textLength="195" x="89" y="39.9902">nz.ac.vuw.ecs.swen225.gp20.maze.event</text></a><!--MD5=[d386e606b19937a2d41a492caa234cd2]
reverse link nz.ac.vuw.ecs.swen225.gp20.maze.event.MazeEventWalked to nz.ac.vuw.ecs.swen225.gp20.maze.event.MazeEventInfoField--><path codeLine="13" d="M173.5,67.25 C173.5,79.89 173.5,93.98 173.5,106.94 " fill="none" id="nz.ac.vuw.ecs.swen225.gp20.maze.event.MazeEventWalked-backto-nz.ac.vuw.ecs.swen225.gp20.maze.event.MazeEventInfoField" style="stroke: #A80036; stroke-width: 1.0;"/><polygon fill="none" points="166.5,67.22,173.5,47.22,180.5,67.22,166.5,67.22" style="stroke: #A80036; stroke-width: 1.0;"/><text fill="#888888" font-family="sans-serif" font-size="10" lengthAdjust="spacingAndGlyphs" textLength="190" x="75.5" y="220.0762">UMLDoclet 2.0.12, PlantUML 1.2020.16</text><!--MD5=[cbf7357c05b58019d4fee9e05759fc05]
@startuml
    set namespaceSeparator none
    hide empty fields
    hide empty methods

    class "<size:14>MazeEventInfoField\n<size:10>nz.ac.vuw.ecs.swen225.gp20.maze.event" as nz.ac.vuw.ecs.swen225.gp20.maze.event.MazeEventInfoField [[MazeEventInfoField.html]] {
        +MazeEventInfoField(Maze, PathTile, PathTile, Direction, InfoField)
        +getInfoField(): InfoField
        +receive(MazeEventListener): void
    }

    class "<size:14>MazeEventWalked\n<size:10>nz.ac.vuw.ecs.swen225.gp20.maze.event" as nz.ac.vuw.ecs.swen225.gp20.maze.event.MazeEventWalked [[MazeEventWalked.html]]

    nz.ac.vuw.ecs.swen225.gp20.maze.event.MazeEventWalked <|- - nz.ac.vuw.ecs.swen225.gp20.maze.event.MazeEventInfoField

    center footer UMLDoclet 2.0.12, PlantUML 1.2020.16
@enduml

PlantUML version 1.2020.16(Mon Aug 24 08:20:43 NZST 2020)
(APACHE source distribution)
Java Runtime: OpenJDK Runtime Environment
JVM: OpenJDK 64-Bit Server VM
Default Encoding: Cp1252
Language: en
Country: NZ
--></g></svg>