<?xml version="1.0" encoding="UTF-8" standalone="no"?><svg xmlns="http://www.w3.org/2000/svg" xmlns:xlink="http://www.w3.org/1999/xlink" contentScriptType="application/ecmascript" contentStyleType="text/css" height="402px" preserveAspectRatio="none" style="width:310px;height:402px;" version="1.1" viewBox="0 0 310 402" width="310px" zoomAndPan="magnify"><defs><filter height="300%" id="fbwf2mivef09q" width="300%" x="-1" y="-1"><feGaussianBlur result="blurOut" stdDeviation="2.0"/><feColorMatrix in="blurOut" result="blurOut2" type="matrix" values="0 0 0 0 0 0 0 0 0 0 0 0 0 0 0 0 0 0 .4 0"/><feOffset dx="4.0" dy="4.0" in="blurOut2" result="blurOut3"/><feBlend in="SourceGraphic" in2="blurOut3" mode="normal"/></filter></defs><g><!--MD5=[7faeee9bf455f002452f8adabf2713b5]
class nz.ac.vuw.ecs.swen225.gp20.maze.event.MazeEventWalked--><a href="MazeEventWalked.html" target="_top" title="MazeEventWalked.html" xlink:actuate="onRequest" xlink:href="MazeEventWalked.html" xlink:show="new" xlink:title="MazeEventWalked.html" xlink:type="simple"><rect codeLine="5" fill="#FEFECE" filter="url(#fbwf2mivef09q)" height="222.2188" id="nz.ac.vuw.ecs.swen225.gp20.maze.event.MazeEventWalked" style="stroke: #A80036; stroke-width: 1.5;" width="282" x="9" y="143"/><ellipse cx="48.75" cy="163.0938" fill="#ADD1B2" rx="11" ry="11" style="stroke: #A80036; stroke-width: 1.0;"/><path d="M51.5156,158.9688 Q51.6719,158.75 51.8594,158.6406 Q52.0469,158.5313 52.2656,158.5313 Q52.6406,158.5313 52.875,158.7969 Q53.1094,159.0469 53.1094,159.6563 L53.1094,161.1094 Q53.1094,161.7188 52.875,161.9844 Q52.6406,162.25 52.2656,162.25 Q51.9219,162.25 51.7188,162.0469 Q51.5156,161.8594 51.4063,161.3438 Q51.3594,160.9844 51.1719,160.7969 Q50.8438,160.4219 50.2344,160.2031 Q49.625,159.9844 49,159.9844 Q48.2344,159.9844 47.5938,160.3125 Q46.9688,160.6406 46.4688,161.3906 Q45.9844,162.1406 45.9844,163.1719 L45.9844,164.2656 Q45.9844,165.5 46.875,166.3281 Q47.7656,167.1406 49.3594,167.1406 Q50.2969,167.1406 50.9531,166.8906 Q51.3438,166.7344 51.7656,166.2969 Q52.0313,166.0313 52.1719,165.9531 Q52.3281,165.875 52.5313,165.875 Q52.8594,165.875 53.1094,166.1406 Q53.375,166.3906 53.375,166.7344 Q53.375,167.0781 53.0313,167.4844 Q52.5313,168.0625 51.7344,168.3906 Q50.6563,168.8438 49.3594,168.8438 Q47.8438,168.8438 46.6406,168.2188 Q45.6563,167.7188 44.9688,166.6563 Q44.2813,165.5781 44.2813,164.2969 L44.2813,163.1406 Q44.2813,161.8125 44.8906,160.6719 Q45.5156,159.5156 46.6094,158.9063 Q47.7031,158.2813 48.9375,158.2813 Q49.6719,158.2813 50.3125,158.4531 Q50.9688,158.6094 51.5156,158.9688 Z "/><text fill="#000000" font-family="sans-serif" font-size="14" lengthAdjust="spacingAndGlyphs" textLength="116" x="107.75" y="162.5332">MazeEventWalked</text><text fill="#000000" font-family="sans-serif" font-size="10" lengthAdjust="spacingAndGlyphs" textLength="195" x="68.25" y="175.9902">nz.ac.vuw.ecs.swen225.gp20.maze.event</text><line style="stroke: #A80036; stroke-width: 1.5;" x1="10" x2="290" y1="183.1875" y2="183.1875"/><polygon fill="none" points="20,189.1875,24,193.1875,20,197.1875,16,193.1875" style="stroke: #B38D22; stroke-width: 1.0;"/><text fill="#000000" font-family="sans-serif" font-size="11" lengthAdjust="spacingAndGlyphs" textLength="69" x="29" y="198.6064">origin: PathTile</text><polygon fill="none" points="20,203.0234,24,207.0234,20,211.0234,16,207.0234" style="stroke: #B38D22; stroke-width: 1.0;"/><text fill="#000000" font-family="sans-serif" font-size="11" lengthAdjust="spacingAndGlyphs" textLength="71" x="29" y="212.4424">target: PathTile</text><polygon fill="none" points="20,216.8594,24,220.8594,20,224.8594,16,220.8594" style="stroke: #B38D22; stroke-width: 1.0;"/><text fill="#000000" font-family="sans-serif" font-size="11" lengthAdjust="spacingAndGlyphs" textLength="89" x="29" y="226.2783">direction: Direction</text><polygon fill="none" points="20,230.6953,24,234.6953,20,238.6953,16,234.6953" style="stroke: #B38D22; stroke-width: 1.0;"/><text fill="#000000" font-family="sans-serif" font-size="11" lengthAdjust="spacingAndGlyphs" textLength="58" x="29" y="240.1143">maze: Maze</text><line style="stroke: #A80036; stroke-width: 1.5;" x1="10" x2="290" y1="246.5313" y2="246.5313"/><ellipse cx="20" cy="257.5313" fill="#84BE84" rx="3" ry="3" style="stroke: #038048; stroke-width: 1.0;"/><text fill="#000000" font-family="sans-serif" font-size="11" lengthAdjust="spacingAndGlyphs" textLength="256" x="29" y="261.9502">MazeEventWalked(Maze, PathTile, PathTile, Direction)</text><ellipse cx="20" cy="271.3672" fill="#84BE84" rx="3" ry="3" style="stroke: #038048; stroke-width: 1.0;"/><text fill="#000000" font-family="sans-serif" font-size="11" lengthAdjust="spacingAndGlyphs" textLength="97" x="29" y="275.7861">getTarget(): PathTile</text><ellipse cx="20" cy="285.2031" fill="#84BE84" rx="3" ry="3" style="stroke: #038048; stroke-width: 1.0;"/><text fill="#000000" font-family="sans-serif" font-size="11" lengthAdjust="spacingAndGlyphs" textLength="119" x="29" y="289.6221">getDestination(): PathTile</text><ellipse cx="20" cy="299.0391" fill="#84BE84" rx="3" ry="3" style="stroke: #038048; stroke-width: 1.0;"/><text fill="#000000" font-family="sans-serif" font-size="11" lengthAdjust="spacingAndGlyphs" textLength="94" x="29" y="303.458">getOrigin(): PathTile</text><ellipse cx="20" cy="312.875" fill="#84BE84" rx="3" ry="3" style="stroke: #038048; stroke-width: 1.0;"/><text fill="#000000" font-family="sans-serif" font-size="11" lengthAdjust="spacingAndGlyphs" textLength="113" x="29" y="317.2939">getDirection(): Direction</text><ellipse cx="20" cy="326.7109" fill="#84BE84" rx="3" ry="3" style="stroke: #038048; stroke-width: 1.0;"/><text fill="#000000" font-family="sans-serif" font-size="11" lengthAdjust="spacingAndGlyphs" textLength="81" x="29" y="331.1299">getMaze(): Maze</text><ellipse cx="20" cy="340.5469" fill="#84BE84" rx="3" ry="3" style="stroke: #038048; stroke-width: 1.0;"/><text fill="#000000" font-family="sans-serif" font-size="11" lengthAdjust="spacingAndGlyphs" textLength="162" x="29" y="344.9658">receive(MazeEventListener): void</text><ellipse cx="20" cy="354.3828" fill="#84BE84" rx="3" ry="3" style="stroke: #038048; stroke-width: 1.0;"/><text fill="#000000" font-family="sans-serif" font-size="11" lengthAdjust="spacingAndGlyphs" textLength="61" x="29" y="358.8018">invert(): void</text></a><!--MD5=[1195a3001eb053f1a29cc6a3e3badd85]
class nz.ac.vuw.ecs.swen225.gp20.maze.event.MazeEvent--><a href="MazeEvent.html" target="_top" title="MazeEvent.html" xlink:actuate="onRequest" xlink:href="MazeEvent.html" xlink:show="new" xlink:title="MazeEvent.html" xlink:type="simple"><rect codeLine="20" fill="#FEFECE" filter="url(#fbwf2mivef09q)" height="75.8594" id="nz.ac.vuw.ecs.swen225.gp20.maze.event.MazeEvent" style="stroke: #A80036; stroke-width: 1.5;" width="227" x="36.5" y="7"/><ellipse cx="51.5" cy="27.0938" fill="#B4A7E5" rx="11" ry="11" style="stroke: #A80036; stroke-width: 1.0;"/><path d="M52.4531,23.7344 L52.4531,30.3906 L54.1719,30.3906 Q54.7813,30.3906 55.0469,30.625 Q55.3125,30.8594 55.3125,31.25 Q55.3125,31.625 55.0469,31.8594 Q54.7813,32.0938 54.1719,32.0938 L49.0313,32.0938 Q48.4219,32.0938 48.1563,31.8594 Q47.8906,31.625 47.8906,31.2344 Q47.8906,30.8594 48.1563,30.625 Q48.4219,30.3906 49.0313,30.3906 L50.75,30.3906 L50.75,23.7344 L49.0313,23.7344 Q48.4219,23.7344 48.1563,23.5 Q47.8906,23.2656 47.8906,22.875 Q47.8906,22.5 48.1563,22.2656 Q48.4219,22.0313 49.0313,22.0313 L54.1719,22.0313 Q54.7813,22.0313 55.0469,22.2656 Q55.3125,22.5 55.3125,22.875 Q55.3125,23.2656 55.0469,23.5 Q54.7813,23.7344 54.1719,23.7344 L52.4531,23.7344 Z "/><text fill="#000000" font-family="sans-serif" font-size="14" font-style="italic" lengthAdjust="spacingAndGlyphs" textLength="70" x="128" y="26.5332">MazeEvent</text><text fill="#000000" font-family="sans-serif" font-size="10" font-style="italic" lengthAdjust="spacingAndGlyphs" textLength="195" x="65.5" y="39.9902">nz.ac.vuw.ecs.swen225.gp20.maze.event</text><line style="stroke: #A80036; stroke-width: 1.5;" x1="37.5" x2="262.5" y1="47.1875" y2="47.1875"/><ellipse cx="47.5" cy="58.1875" fill="#84BE84" rx="3" ry="3" style="stroke: #038048; stroke-width: 1.0;"/><text fill="#000000" font-family="sans-serif" font-size="11" font-style="italic" lengthAdjust="spacingAndGlyphs" textLength="164" x="56.5" y="62.6064">receive(MazeEventListener): void</text><ellipse cx="47.5" cy="72.0234" fill="#84BE84" rx="3" ry="3" style="stroke: #038048; stroke-width: 1.0;"/><text fill="#000000" font-family="sans-serif" font-size="11" font-style="italic" lengthAdjust="spacingAndGlyphs" textLength="61" x="56.5" y="76.4424">invert(): void</text></a><!--MD5=[d2bb0bd2fbcdcf7fc5c6d9f1f3432bb8]
reverse link nz.ac.vuw.ecs.swen225.gp20.maze.event.MazeEvent to nz.ac.vuw.ecs.swen225.gp20.maze.event.MazeEventWalked--><path codeLine="25" d="M150,103.2 C150,115.55 150,129 150,142.62 " fill="none" id="nz.ac.vuw.ecs.swen225.gp20.maze.event.MazeEvent-backto-nz.ac.vuw.ecs.swen225.gp20.maze.event.MazeEventWalked" style="stroke: #A80036; stroke-width: 1.0; stroke-dasharray: 7.0,7.0;"/><polygon fill="none" points="143,103.01,150,83.01,157,103.01,143,103.01" style="stroke: #A80036; stroke-width: 1.0;"/><text fill="#888888" font-family="sans-serif" font-size="10" lengthAdjust="spacingAndGlyphs" textLength="190" x="51" y="388.5996">UMLDoclet 2.0.12, PlantUML 1.2020.16</text><!--MD5=[8b3d724ae5847fb2fd437b44a903909a]
@startuml
    set namespaceSeparator none
    hide empty fields
    hide empty methods

    class "<size:14>MazeEventWalked\n<size:10>nz.ac.vuw.ecs.swen225.gp20.maze.event" as nz.ac.vuw.ecs.swen225.gp20.maze.event.MazeEventWalked [[MazeEventWalked.html]] {
        #origin: PathTile
        #target: PathTile
        #direction: Direction
        #maze: Maze
        +MazeEventWalked(Maze, PathTile, PathTile, Direction)
        +getTarget(): PathTile
        +getDestination(): PathTile
        +getOrigin(): PathTile
        +getDirection(): Direction
        +getMaze(): Maze
        +receive(MazeEventListener): void
        +invert(): void
    }

    interface "<size:14>MazeEvent\n<size:10>nz.ac.vuw.ecs.swen225.gp20.maze.event" as nz.ac.vuw.ecs.swen225.gp20.maze.event.MazeEvent [[MazeEvent.html]] {
        {abstract} +receive(MazeEventListener): void
        {abstract} +invert(): void
    }

    nz.ac.vuw.ecs.swen225.gp20.maze.event.MazeEvent <|.. nz.ac.vuw.ecs.swen225.gp20.maze.event.MazeEventWalked

    center footer UMLDoclet 2.0.12, PlantUML 1.2020.16
@enduml

PlantUML version 1.2020.16(Mon Aug 24 08:20:43 NZST 2020)
(APACHE source distribution)
Java Runtime: OpenJDK Runtime Environment
JVM: OpenJDK 64-Bit Server VM
Default Encoding: Cp1252
Language: en
Country: NZ
--></g></svg>