<?xml version="1.0" encoding="UTF-8" standalone="no"?><svg xmlns="http://www.w3.org/2000/svg" xmlns:xlink="http://www.w3.org/1999/xlink" contentScriptType="application/ecmascript" contentStyleType="text/css" height="247px" preserveAspectRatio="none" style="width:419px;height:247px;" version="1.1" viewBox="0 0 419 247" width="419px" zoomAndPan="magnify"><defs><filter height="300%" id="f1hlcqq2q721dr" width="300%" x="-1" y="-1"><feGaussianBlur result="blurOut" stdDeviation="2.0"/><feColorMatrix in="blurOut" result="blurOut2" type="matrix" values="0 0 0 0 0 0 0 0 0 0 0 0 0 0 0 0 0 0 .4 0"/><feOffset dx="4.0" dy="4.0" in="blurOut2" result="blurOut3"/><feBlend in="SourceGraphic" in2="blurOut3" mode="normal"/></filter></defs><g><!--MD5=[e10849b33ae94955a0d9c51e73200f09]
class nz.ac.vuw.ecs.swen225.gp20.maze.event.MazeEventPushedWater--><a href="MazeEventPushedWater.html" target="_top" title="MazeEventPushedWater.html" xlink:actuate="onRequest" xlink:href="MazeEventPushedWater.html" xlink:show="new" xlink:title="MazeEventPushedWater.html" xlink:type="simple"><rect codeLine="5" fill="#FEFECE" filter="url(#f1hlcqq2q721dr)" height="103.5313" id="nz.ac.vuw.ecs.swen225.gp20.maze.event.MazeEventPushedWater" style="stroke: #A80036; stroke-width: 1.5;" width="393" x="7" y="107"/><ellipse cx="101.75" cy="127.0938" fill="#ADD1B2" rx="11" ry="11" style="stroke: #A80036; stroke-width: 1.0;"/><path d="M104.5156,122.9688 Q104.6719,122.75 104.8594,122.6406 Q105.0469,122.5313 105.2656,122.5313 Q105.6406,122.5313 105.875,122.7969 Q106.1094,123.0469 106.1094,123.6563 L106.1094,125.1094 Q106.1094,125.7188 105.875,125.9844 Q105.6406,126.25 105.2656,126.25 Q104.9219,126.25 104.7188,126.0469 Q104.5156,125.8594 104.4063,125.3438 Q104.3594,124.9844 104.1719,124.7969 Q103.8438,124.4219 103.2344,124.2031 Q102.625,123.9844 102,123.9844 Q101.2344,123.9844 100.5938,124.3125 Q99.9688,124.6406 99.4688,125.3906 Q98.9844,126.1406 98.9844,127.1719 L98.9844,128.2656 Q98.9844,129.5 99.875,130.3281 Q100.7656,131.1406 102.3594,131.1406 Q103.2969,131.1406 103.9531,130.8906 Q104.3438,130.7344 104.7656,130.2969 Q105.0313,130.0313 105.1719,129.9531 Q105.3281,129.875 105.5313,129.875 Q105.8594,129.875 106.1094,130.1406 Q106.375,130.3906 106.375,130.7344 Q106.375,131.0781 106.0313,131.4844 Q105.5313,132.0625 104.7344,132.3906 Q103.6563,132.8438 102.3594,132.8438 Q100.8438,132.8438 99.6406,132.2188 Q98.6563,131.7188 97.9688,130.6563 Q97.2813,129.5781 97.2813,128.2969 L97.2813,127.1406 Q97.2813,125.8125 97.8906,124.6719 Q98.5156,123.5156 99.6094,122.9063 Q100.7031,122.2813 101.9375,122.2813 Q102.6719,122.2813 103.3125,122.4531 Q103.9688,122.6094 104.5156,122.9688 Z "/><text fill="#000000" font-family="sans-serif" font-size="14" lengthAdjust="spacingAndGlyphs" textLength="155" x="142.25" y="126.5332">MazeEventPushedWater</text><text fill="#000000" font-family="sans-serif" font-size="10" lengthAdjust="spacingAndGlyphs" textLength="195" x="122.25" y="139.9902">nz.ac.vuw.ecs.swen225.gp20.maze.event</text><line style="stroke: #A80036; stroke-width: 1.5;" x1="8" x2="399" y1="147.1875" y2="147.1875"/><ellipse cx="18" cy="158.1875" fill="#84BE84" rx="3" ry="3" style="stroke: #038048; stroke-width: 1.0;"/><text fill="#000000" font-family="sans-serif" font-size="11" lengthAdjust="spacingAndGlyphs" textLength="367" x="27" y="162.6064">MazeEventPushedWater(Maze, PathTile, PathTile, Direction, Movable, Water)</text><ellipse cx="18" cy="172.0234" fill="#84BE84" rx="3" ry="3" style="stroke: #038048; stroke-width: 1.0;"/><text fill="#000000" font-family="sans-serif" font-size="11" lengthAdjust="spacingAndGlyphs" textLength="105" x="27" y="176.4424">getPushed(): Movable</text><ellipse cx="18" cy="185.8594" fill="#84BE84" rx="3" ry="3" style="stroke: #038048; stroke-width: 1.0;"/><text fill="#000000" font-family="sans-serif" font-size="11" lengthAdjust="spacingAndGlyphs" textLength="162" x="27" y="190.2783">receive(MazeEventListener): void</text><ellipse cx="18" cy="199.6953" fill="#84BE84" rx="3" ry="3" style="stroke: #038048; stroke-width: 1.0;"/><text fill="#000000" font-family="sans-serif" font-size="11" lengthAdjust="spacingAndGlyphs" textLength="61" x="27" y="204.1143">invert(): void</text></a><!--MD5=[9218a1996646d0cfe210a3be0cd58be0]
class nz.ac.vuw.ecs.swen225.gp20.maze.event.MazeEventPushed--><a href="MazeEventPushed.html" target="_top" title="MazeEventPushed.html" xlink:actuate="onRequest" xlink:href="MazeEventPushed.html" xlink:show="new" xlink:title="MazeEventPushed.html" xlink:type="simple"><rect codeLine="12" fill="#FEFECE" filter="url(#f1hlcqq2q721dr)" height="40.1875" id="nz.ac.vuw.ecs.swen225.gp20.maze.event.MazeEventPushed" style="stroke: #A80036; stroke-width: 1.5;" width="227" x="90" y="7"/><ellipse cx="105" cy="27.0938" fill="#ADD1B2" rx="11" ry="11" style="stroke: #A80036; stroke-width: 1.0;"/><path d="M107.7656,22.9688 Q107.9219,22.75 108.1094,22.6406 Q108.2969,22.5313 108.5156,22.5313 Q108.8906,22.5313 109.125,22.7969 Q109.3594,23.0469 109.3594,23.6563 L109.3594,25.1094 Q109.3594,25.7188 109.125,25.9844 Q108.8906,26.25 108.5156,26.25 Q108.1719,26.25 107.9688,26.0469 Q107.7656,25.8594 107.6563,25.3438 Q107.6094,24.9844 107.4219,24.7969 Q107.0938,24.4219 106.4844,24.2031 Q105.875,23.9844 105.25,23.9844 Q104.4844,23.9844 103.8438,24.3125 Q103.2188,24.6406 102.7188,25.3906 Q102.2344,26.1406 102.2344,27.1719 L102.2344,28.2656 Q102.2344,29.5 103.125,30.3281 Q104.0156,31.1406 105.6094,31.1406 Q106.5469,31.1406 107.2031,30.8906 Q107.5938,30.7344 108.0156,30.2969 Q108.2813,30.0313 108.4219,29.9531 Q108.5781,29.875 108.7813,29.875 Q109.1094,29.875 109.3594,30.1406 Q109.625,30.3906 109.625,30.7344 Q109.625,31.0781 109.2813,31.4844 Q108.7813,32.0625 107.9844,32.3906 Q106.9063,32.8438 105.6094,32.8438 Q104.0938,32.8438 102.8906,32.2188 Q101.9063,31.7188 101.2188,30.6563 Q100.5313,29.5781 100.5313,28.2969 L100.5313,27.1406 Q100.5313,25.8125 101.1406,24.6719 Q101.7656,23.5156 102.8594,22.9063 Q103.9531,22.2813 105.1875,22.2813 Q105.9219,22.2813 106.5625,22.4531 Q107.2188,22.6094 107.7656,22.9688 Z "/><text fill="#000000" font-family="sans-serif" font-size="14" lengthAdjust="spacingAndGlyphs" textLength="117" x="158" y="26.5332">MazeEventPushed</text><text fill="#000000" font-family="sans-serif" font-size="10" lengthAdjust="spacingAndGlyphs" textLength="195" x="119" y="39.9902">nz.ac.vuw.ecs.swen225.gp20.maze.event</text></a><!--MD5=[1aa888223f12256d7267fb0c75ace66a]
reverse link nz.ac.vuw.ecs.swen225.gp20.maze.event.MazeEventPushed to nz.ac.vuw.ecs.swen225.gp20.maze.event.MazeEventPushedWater--><path codeLine="14" d="M203.5,67.49 C203.5,79.93 203.5,93.86 203.5,106.99 " fill="none" id="nz.ac.vuw.ecs.swen225.gp20.maze.event.MazeEventPushed-backto-nz.ac.vuw.ecs.swen225.gp20.maze.event.MazeEventPushedWater" style="stroke: #A80036; stroke-width: 1.0;"/><polygon fill="none" points="196.5,67.18,203.5,47.18,210.5,67.18,196.5,67.18" style="stroke: #A80036; stroke-width: 1.0;"/><text fill="#888888" font-family="sans-serif" font-size="10" lengthAdjust="spacingAndGlyphs" textLength="190" x="105.5" y="233.9121">UMLDoclet 2.0.12, PlantUML 1.2020.16</text><!--MD5=[6d07ebf4564ebdb6aaa54660663b1a19]
@startuml
    set namespaceSeparator none
    hide empty fields
    hide empty methods

    class "<size:14>MazeEventPushedWater\n<size:10>nz.ac.vuw.ecs.swen225.gp20.maze.event" as nz.ac.vuw.ecs.swen225.gp20.maze.event.MazeEventPushedWater [[MazeEventPushedWater.html]] {
        +MazeEventPushedWater(Maze, PathTile, PathTile, Direction, Movable, Water)
        +getPushed(): Movable
        +receive(MazeEventListener): void
        +invert(): void
    }

    class "<size:14>MazeEventPushed\n<size:10>nz.ac.vuw.ecs.swen225.gp20.maze.event" as nz.ac.vuw.ecs.swen225.gp20.maze.event.MazeEventPushed [[MazeEventPushed.html]]

    nz.ac.vuw.ecs.swen225.gp20.maze.event.MazeEventPushed <|- - nz.ac.vuw.ecs.swen225.gp20.maze.event.MazeEventPushedWater

    center footer UMLDoclet 2.0.12, PlantUML 1.2020.16
@enduml

PlantUML version 1.2020.16(Mon Aug 24 08:20:43 NZST 2020)
(APACHE source distribution)
Java Runtime: OpenJDK Runtime Environment
JVM: OpenJDK 64-Bit Server VM
Default Encoding: Cp1252
Language: en
Country: NZ
--></g></svg>