<?xml version="1.0" encoding="UTF-8" standalone="no"?><svg xmlns="http://www.w3.org/2000/svg" xmlns:xlink="http://www.w3.org/1999/xlink" contentScriptType="application/ecmascript" contentStyleType="text/css" height="279px" preserveAspectRatio="none" style="width:264px;height:279px;" version="1.1" viewBox="0 0 264 279" width="264px" zoomAndPan="magnify"><defs><filter height="300%" id="f1jqulrt6wge82" width="300%" x="-1" y="-1"><feGaussianBlur result="blurOut" stdDeviation="2.0"/><feColorMatrix in="blurOut" result="blurOut2" type="matrix" values="0 0 0 0 0 0 0 0 0 0 0 0 0 0 0 0 0 0 .4 0"/><feOffset dx="4.0" dy="4.0" in="blurOut2" result="blurOut3"/><feBlend in="SourceGraphic" in2="blurOut3" mode="normal"/></filter></defs><g><!--MD5=[a332cefbfed17df6d36ecc563de89414]
class nz.ac.vuw.ecs.swen225.gp20.maze.event.MazeEventListener--><a href="MazeEventListener.html" target="_top" title="MazeEventListener.html" xlink:actuate="onRequest" xlink:href="MazeEventListener.html" xlink:show="new" xlink:title="MazeEventListener.html" xlink:type="simple"><rect codeLine="5" fill="#FEFECE" filter="url(#f1jqulrt6wge82)" height="241.8906" id="nz.ac.vuw.ecs.swen225.gp20.maze.event.MazeEventListener" style="stroke: #A80036; stroke-width: 1.5;" width="238" x="7" y="7"/><ellipse cx="26.95" cy="27.0938" fill="#ADD1B2" rx="11" ry="11" style="stroke: #A80036; stroke-width: 1.0;"/><path d="M29.7156,22.9688 Q29.8719,22.75 30.0594,22.6406 Q30.2469,22.5313 30.4656,22.5313 Q30.8406,22.5313 31.075,22.7969 Q31.3094,23.0469 31.3094,23.6563 L31.3094,25.1094 Q31.3094,25.7188 31.075,25.9844 Q30.8406,26.25 30.4656,26.25 Q30.1219,26.25 29.9188,26.0469 Q29.7156,25.8594 29.6063,25.3438 Q29.5594,24.9844 29.3719,24.7969 Q29.0438,24.4219 28.4344,24.2031 Q27.825,23.9844 27.2,23.9844 Q26.4344,23.9844 25.7938,24.3125 Q25.1688,24.6406 24.6688,25.3906 Q24.1844,26.1406 24.1844,27.1719 L24.1844,28.2656 Q24.1844,29.5 25.075,30.3281 Q25.9656,31.1406 27.5594,31.1406 Q28.4969,31.1406 29.1531,30.8906 Q29.5438,30.7344 29.9656,30.2969 Q30.2313,30.0313 30.3719,29.9531 Q30.5281,29.875 30.7313,29.875 Q31.0594,29.875 31.3094,30.1406 Q31.575,30.3906 31.575,30.7344 Q31.575,31.0781 31.2313,31.4844 Q30.7313,32.0625 29.9344,32.3906 Q28.8563,32.8438 27.5594,32.8438 Q26.0438,32.8438 24.8406,32.2188 Q23.8563,31.7188 23.1688,30.6563 Q22.4813,29.5781 22.4813,28.2969 L22.4813,27.1406 Q22.4813,25.8125 23.0906,24.6719 Q23.7156,23.5156 24.8094,22.9063 Q25.9031,22.2813 27.1375,22.2813 Q27.8719,22.2813 28.5125,22.4531 Q29.1688,22.6094 29.7156,22.9688 Z "/><text fill="#000000" font-family="sans-serif" font-size="14" lengthAdjust="spacingAndGlyphs" textLength="120" x="79.55" y="26.5332">MazeEventListener</text><text fill="#000000" font-family="sans-serif" font-size="10" lengthAdjust="spacingAndGlyphs" textLength="195" x="42.05" y="39.9902">nz.ac.vuw.ecs.swen225.gp20.maze.event</text><line style="stroke: #A80036; stroke-width: 1.5;" x1="8" x2="244" y1="47.1875" y2="47.1875"/><ellipse cx="18" cy="58.1875" fill="#84BE84" rx="3" ry="3" style="stroke: #038048; stroke-width: 1.0;"/><text fill="#000000" font-family="sans-serif" font-size="11" lengthAdjust="spacingAndGlyphs" textLength="160" x="27" y="62.6064">update(MazeEventInfoField): void</text><ellipse cx="18" cy="72.0234" fill="#84BE84" rx="3" ry="3" style="stroke: #038048; stroke-width: 1.0;"/><text fill="#000000" font-family="sans-serif" font-size="11" lengthAdjust="spacingAndGlyphs" textLength="151" x="27" y="76.4424">update(MazeEventPickup): void</text><ellipse cx="18" cy="85.8594" fill="#84BE84" rx="3" ry="3" style="stroke: #038048; stroke-width: 1.0;"/><text fill="#000000" font-family="sans-serif" font-size="11" lengthAdjust="spacingAndGlyphs" textLength="156" x="27" y="90.2783">update(MazeEventPushed): void</text><ellipse cx="18" cy="99.6953" fill="#84BE84" rx="3" ry="3" style="stroke: #038048; stroke-width: 1.0;"/><text fill="#000000" font-family="sans-serif" font-size="11" lengthAdjust="spacingAndGlyphs" textLength="164" x="27" y="104.1143">update(MazeEventUnlocked): void</text><ellipse cx="18" cy="113.5313" fill="#84BE84" rx="3" ry="3" style="stroke: #038048; stroke-width: 1.0;"/><text fill="#000000" font-family="sans-serif" font-size="11" lengthAdjust="spacingAndGlyphs" textLength="155" x="27" y="117.9502">update(MazeEventWalked): void</text><ellipse cx="18" cy="127.3672" fill="#84BE84" rx="3" ry="3" style="stroke: #038048; stroke-width: 1.0;"/><text fill="#000000" font-family="sans-serif" font-size="11" lengthAdjust="spacingAndGlyphs" textLength="142" x="27" y="131.7861">update(MazeEventWon): void</text><ellipse cx="18" cy="141.2031" fill="#84BE84" rx="3" ry="3" style="stroke: #038048; stroke-width: 1.0;"/><text fill="#000000" font-family="sans-serif" font-size="11" lengthAdjust="spacingAndGlyphs" textLength="185" x="27" y="145.6221">update(MazeEventPushedWater): void</text><ellipse cx="18" cy="155.0391" fill="#84BE84" rx="3" ry="3" style="stroke: #038048; stroke-width: 1.0;"/><text fill="#000000" font-family="sans-serif" font-size="11" lengthAdjust="spacingAndGlyphs" textLength="181" x="27" y="159.458">update(MazeEventExitUnlocked): void</text><ellipse cx="18" cy="168.875" fill="#84BE84" rx="3" ry="3" style="stroke: #038048; stroke-width: 1.0;"/><text fill="#000000" font-family="sans-serif" font-size="11" lengthAdjust="spacingAndGlyphs" textLength="187" x="27" y="173.2939">update(MazeEventEnemyWalked): void</text><ellipse cx="18" cy="182.7109" fill="#84BE84" rx="3" ry="3" style="stroke: #038048; stroke-width: 1.0;"/><text fill="#000000" font-family="sans-serif" font-size="11" lengthAdjust="spacingAndGlyphs" textLength="171" x="27" y="187.1299">update(MazeEventTeleported): void</text><ellipse cx="18" cy="196.5469" fill="#84BE84" rx="3" ry="3" style="stroke: #038048; stroke-width: 1.0;"/><text fill="#000000" font-family="sans-serif" font-size="11" lengthAdjust="spacingAndGlyphs" textLength="180" x="27" y="200.9658">update(MazeEventWalkedKilled): void</text><ellipse cx="18" cy="210.3828" fill="#84BE84" rx="3" ry="3" style="stroke: #038048; stroke-width: 1.0;"/><text fill="#000000" font-family="sans-serif" font-size="11" lengthAdjust="spacingAndGlyphs" textLength="212" x="27" y="214.8018">update(MazeEventEnemyWalkedKilled): void</text><ellipse cx="18" cy="224.2188" fill="#84BE84" rx="3" ry="3" style="stroke: #038048; stroke-width: 1.0;"/><text fill="#000000" font-family="sans-serif" font-size="11" lengthAdjust="spacingAndGlyphs" textLength="200" x="27" y="228.6377">update(MazeEventWalkedDrowned): void</text><ellipse cx="18" cy="238.0547" fill="#84BE84" rx="3" ry="3" style="stroke: #038048; stroke-width: 1.0;"/><text fill="#000000" font-family="sans-serif" font-size="11" lengthAdjust="spacingAndGlyphs" textLength="120" x="27" y="242.4736">update(MazeEvent): void</text></a><text fill="#888888" font-family="sans-serif" font-size="10" lengthAdjust="spacingAndGlyphs" textLength="190" x="31" y="266.2715">UMLDoclet 2.0.12, PlantUML 1.2020.16</text><!--MD5=[1de9fc3c0f828f28f1d58eea8db79a86]
@startuml
    set namespaceSeparator none
    hide empty fields
    hide empty methods

    class "<size:14>MazeEventListener\n<size:10>nz.ac.vuw.ecs.swen225.gp20.maze.event" as nz.ac.vuw.ecs.swen225.gp20.maze.event.MazeEventListener [[MazeEventListener.html]] {
        +update(MazeEventInfoField): void
        +update(MazeEventPickup): void
        +update(MazeEventPushed): void
        +update(MazeEventUnlocked): void
        +update(MazeEventWalked): void
        +update(MazeEventWon): void
        +update(MazeEventPushedWater): void
        +update(MazeEventExitUnlocked): void
        +update(MazeEventEnemyWalked): void
        +update(MazeEventTeleported): void
        +update(MazeEventWalkedKilled): void
        +update(MazeEventEnemyWalkedKilled): void
        +update(MazeEventWalkedDrowned): void
        +update(MazeEvent): void
    }

    center footer UMLDoclet 2.0.12, PlantUML 1.2020.16
@enduml

PlantUML version 1.2020.16(Mon Aug 24 08:20:43 NZST 2020)
(APACHE source distribution)
Java Runtime: OpenJDK Runtime Environment
JVM: OpenJDK 64-Bit Server VM
Default Encoding: Cp1252
Language: en
Country: NZ
--></g></svg>