<?xml version="1.0" encoding="UTF-8" standalone="no"?><svg xmlns="http://www.w3.org/2000/svg" xmlns:xlink="http://www.w3.org/1999/xlink" contentScriptType="application/ecmascript" contentStyleType="text/css" height="269px" preserveAspectRatio="none" style="width:343px;height:269px;" version="1.1" viewBox="0 0 343 269" width="343px" zoomAndPan="magnify"><defs><filter height="300%" id="f1e6g2byi80fpx" width="300%" x="-1" y="-1"><feGaussianBlur result="blurOut" stdDeviation="2.0"/><feColorMatrix in="blurOut" result="blurOut2" type="matrix" values="0 0 0 0 0 0 0 0 0 0 0 0 0 0 0 0 0 0 .4 0"/><feOffset dx="4.0" dy="4.0" in="blurOut2" result="blurOut3"/><feBlend in="SourceGraphic" in2="blurOut3" mode="normal"/></filter></defs><g><!--MD5=[9d3ea331540c0aaf62efd262153277ca]
class nz.ac.vuw.ecs.swen225.gp20.maze.event.MazeEventPickup--><a href="MazeEventPickup.html" target="_top" title="MazeEventPickup.html" xlink:actuate="onRequest" xlink:href="MazeEventPickup.html" xlink:show="new" xlink:title="MazeEventPickup.html" xlink:type="simple"><rect codeLine="5" fill="#FEFECE" filter="url(#f1e6g2byi80fpx)" height="125.3672" id="nz.ac.vuw.ecs.swen225.gp20.maze.event.MazeEventPickup" style="stroke: #A80036; stroke-width: 1.5;" width="315" x="9" y="107"/><ellipse cx="64.75" cy="127.0938" fill="#ADD1B2" rx="11" ry="11" style="stroke: #A80036; stroke-width: 1.0;"/><path d="M67.5156,122.9688 Q67.6719,122.75 67.8594,122.6406 Q68.0469,122.5313 68.2656,122.5313 Q68.6406,122.5313 68.875,122.7969 Q69.1094,123.0469 69.1094,123.6563 L69.1094,125.1094 Q69.1094,125.7188 68.875,125.9844 Q68.6406,126.25 68.2656,126.25 Q67.9219,126.25 67.7188,126.0469 Q67.5156,125.8594 67.4063,125.3438 Q67.3594,124.9844 67.1719,124.7969 Q66.8438,124.4219 66.2344,124.2031 Q65.625,123.9844 65,123.9844 Q64.2344,123.9844 63.5938,124.3125 Q62.9688,124.6406 62.4688,125.3906 Q61.9844,126.1406 61.9844,127.1719 L61.9844,128.2656 Q61.9844,129.5 62.875,130.3281 Q63.7656,131.1406 65.3594,131.1406 Q66.2969,131.1406 66.9531,130.8906 Q67.3438,130.7344 67.7656,130.2969 Q68.0313,130.0313 68.1719,129.9531 Q68.3281,129.875 68.5313,129.875 Q68.8594,129.875 69.1094,130.1406 Q69.375,130.3906 69.375,130.7344 Q69.375,131.0781 69.0313,131.4844 Q68.5313,132.0625 67.7344,132.3906 Q66.6563,132.8438 65.3594,132.8438 Q63.8438,132.8438 62.6406,132.2188 Q61.6563,131.7188 60.9688,130.6563 Q60.2813,129.5781 60.2813,128.2969 L60.2813,127.1406 Q60.2813,125.8125 60.8906,124.6719 Q61.5156,123.5156 62.6094,122.9063 Q63.7031,122.2813 64.9375,122.2813 Q65.6719,122.2813 66.3125,122.4531 Q66.9688,122.6094 67.5156,122.9688 Z "/><text fill="#000000" font-family="sans-serif" font-size="14" lengthAdjust="spacingAndGlyphs" textLength="111" x="127.25" y="126.5332">MazeEventPickup</text><text fill="#000000" font-family="sans-serif" font-size="10" lengthAdjust="spacingAndGlyphs" textLength="195" x="85.25" y="139.9902">nz.ac.vuw.ecs.swen225.gp20.maze.event</text><line style="stroke: #A80036; stroke-width: 1.5;" x1="10" x2="323" y1="147.1875" y2="147.1875"/><polygon fill="none" points="20,153.1875,24,157.1875,20,161.1875,16,157.1875" style="stroke: #B38D22; stroke-width: 1.0;"/><text fill="#000000" font-family="sans-serif" font-size="11" lengthAdjust="spacingAndGlyphs" textLength="68" x="29" y="162.6064">picked: Pickup</text><line style="stroke: #A80036; stroke-width: 1.5;" x1="10" x2="323" y1="169.0234" y2="169.0234"/><ellipse cx="20" cy="180.0234" fill="#84BE84" rx="3" ry="3" style="stroke: #038048; stroke-width: 1.0;"/><text fill="#000000" font-family="sans-serif" font-size="11" lengthAdjust="spacingAndGlyphs" textLength="289" x="29" y="184.4424">MazeEventPickup(Maze, PathTile, PathTile, Direction, Pickup)</text><ellipse cx="20" cy="193.8594" fill="#84BE84" rx="3" ry="3" style="stroke: #038048; stroke-width: 1.0;"/><text fill="#000000" font-family="sans-serif" font-size="11" lengthAdjust="spacingAndGlyphs" textLength="91" x="29" y="198.2783">getPicked(): Pickup</text><ellipse cx="20" cy="207.6953" fill="#84BE84" rx="3" ry="3" style="stroke: #038048; stroke-width: 1.0;"/><text fill="#000000" font-family="sans-serif" font-size="11" lengthAdjust="spacingAndGlyphs" textLength="162" x="29" y="212.1143">receive(MazeEventListener): void</text><ellipse cx="20" cy="221.5313" fill="#84BE84" rx="3" ry="3" style="stroke: #038048; stroke-width: 1.0;"/><text fill="#000000" font-family="sans-serif" font-size="11" lengthAdjust="spacingAndGlyphs" textLength="61" x="29" y="225.9502">invert(): void</text></a><!--MD5=[7faeee9bf455f002452f8adabf2713b5]
class nz.ac.vuw.ecs.swen225.gp20.maze.event.MazeEventWalked--><a href="MazeEventWalked.html" target="_top" title="MazeEventWalked.html" xlink:actuate="onRequest" xlink:href="MazeEventWalked.html" xlink:show="new" xlink:title="MazeEventWalked.html" xlink:type="simple"><rect codeLine="13" fill="#FEFECE" filter="url(#f1e6g2byi80fpx)" height="40.1875" id="nz.ac.vuw.ecs.swen225.gp20.maze.event.MazeEventWalked" style="stroke: #A80036; stroke-width: 1.5;" width="227" x="53" y="7"/><ellipse cx="68" cy="27.0938" fill="#ADD1B2" rx="11" ry="11" style="stroke: #A80036; stroke-width: 1.0;"/><path d="M70.7656,22.9688 Q70.9219,22.75 71.1094,22.6406 Q71.2969,22.5313 71.5156,22.5313 Q71.8906,22.5313 72.125,22.7969 Q72.3594,23.0469 72.3594,23.6563 L72.3594,25.1094 Q72.3594,25.7188 72.125,25.9844 Q71.8906,26.25 71.5156,26.25 Q71.1719,26.25 70.9688,26.0469 Q70.7656,25.8594 70.6563,25.3438 Q70.6094,24.9844 70.4219,24.7969 Q70.0938,24.4219 69.4844,24.2031 Q68.875,23.9844 68.25,23.9844 Q67.4844,23.9844 66.8438,24.3125 Q66.2188,24.6406 65.7188,25.3906 Q65.2344,26.1406 65.2344,27.1719 L65.2344,28.2656 Q65.2344,29.5 66.125,30.3281 Q67.0156,31.1406 68.6094,31.1406 Q69.5469,31.1406 70.2031,30.8906 Q70.5938,30.7344 71.0156,30.2969 Q71.2813,30.0313 71.4219,29.9531 Q71.5781,29.875 71.7813,29.875 Q72.1094,29.875 72.3594,30.1406 Q72.625,30.3906 72.625,30.7344 Q72.625,31.0781 72.2813,31.4844 Q71.7813,32.0625 70.9844,32.3906 Q69.9063,32.8438 68.6094,32.8438 Q67.0938,32.8438 65.8906,32.2188 Q64.9063,31.7188 64.2188,30.6563 Q63.5313,29.5781 63.5313,28.2969 L63.5313,27.1406 Q63.5313,25.8125 64.1406,24.6719 Q64.7656,23.5156 65.8594,22.9063 Q66.9531,22.2813 68.1875,22.2813 Q68.9219,22.2813 69.5625,22.4531 Q70.2188,22.6094 70.7656,22.9688 Z "/><text fill="#000000" font-family="sans-serif" font-size="14" lengthAdjust="spacingAndGlyphs" textLength="116" x="121.5" y="26.5332">MazeEventWalked</text><text fill="#000000" font-family="sans-serif" font-size="10" lengthAdjust="spacingAndGlyphs" textLength="195" x="82" y="39.9902">nz.ac.vuw.ecs.swen225.gp20.maze.event</text></a><!--MD5=[9628fd29f0ec3d36f8c714fc8fe40aa3]
reverse link nz.ac.vuw.ecs.swen225.gp20.maze.event.MazeEventWalked to nz.ac.vuw.ecs.swen225.gp20.maze.event.MazeEventPickup--><path codeLine="15" d="M166.5,67.25 C166.5,79.56 166.5,93.46 166.5,106.92 " fill="none" id="nz.ac.vuw.ecs.swen225.gp20.maze.event.MazeEventWalked-backto-nz.ac.vuw.ecs.swen225.gp20.maze.event.MazeEventPickup" style="stroke: #A80036; stroke-width: 1.0;"/><polygon fill="none" points="159.5,67.24,166.5,47.24,173.5,67.24,159.5,67.24" style="stroke: #A80036; stroke-width: 1.0;"/><text fill="#888888" font-family="sans-serif" font-size="10" lengthAdjust="spacingAndGlyphs" textLength="190" x="67.5" y="255.748">UMLDoclet 2.0.12, PlantUML 1.2020.16</text><!--MD5=[a3bda99f3a1ce83cd3b9465a0ce7cb5d]
@startuml
    set namespaceSeparator none
    hide empty fields
    hide empty methods

    class "<size:14>MazeEventPickup\n<size:10>nz.ac.vuw.ecs.swen225.gp20.maze.event" as nz.ac.vuw.ecs.swen225.gp20.maze.event.MazeEventPickup [[MazeEventPickup.html]] {
        #picked: Pickup
        +MazeEventPickup(Maze, PathTile, PathTile, Direction, Pickup)
        +getPicked(): Pickup
        +receive(MazeEventListener): void
        +invert(): void
    }

    class "<size:14>MazeEventWalked\n<size:10>nz.ac.vuw.ecs.swen225.gp20.maze.event" as nz.ac.vuw.ecs.swen225.gp20.maze.event.MazeEventWalked [[MazeEventWalked.html]]

    nz.ac.vuw.ecs.swen225.gp20.maze.event.MazeEventWalked <|- - nz.ac.vuw.ecs.swen225.gp20.maze.event.MazeEventPickup

    center footer UMLDoclet 2.0.12, PlantUML 1.2020.16
@enduml

PlantUML version 1.2020.16(Mon Aug 24 08:20:43 NZST 2020)
(APACHE source distribution)
Java Runtime: OpenJDK Runtime Environment
JVM: OpenJDK 64-Bit Server VM
Default Encoding: Cp1252
Language: en
Country: NZ
--></g></svg>