<?xml version="1.0" encoding="UTF-8" standalone="no"?><svg xmlns="http://www.w3.org/2000/svg" xmlns:xlink="http://www.w3.org/1999/xlink" contentScriptType="application/ecmascript" contentStyleType="text/css" height="269px" preserveAspectRatio="none" style="width:462px;height:269px;" version="1.1" viewBox="0 0 462 269" width="462px" zoomAndPan="magnify"><defs><filter height="300%" id="fctqiyxv61xye" width="300%" x="-1" y="-1"><feGaussianBlur result="blurOut" stdDeviation="2.0"/><feColorMatrix in="blurOut" result="blurOut2" type="matrix" values="0 0 0 0 0 0 0 0 0 0 0 0 0 0 0 0 0 0 .4 0"/><feOffset dx="4.0" dy="4.0" in="blurOut2" result="blurOut3"/><feBlend in="SourceGraphic" in2="blurOut3" mode="normal"/></filter></defs><g><!--MD5=[41970853f947928a0cc58b1119ebef64]
class nz.ac.vuw.ecs.swen225.gp20.maze.event.MazeEventExitUnlocked--><a href="MazeEventExitUnlocked.html" target="_top" title="MazeEventExitUnlocked.html" xlink:actuate="onRequest" xlink:href="MazeEventExitUnlocked.html" xlink:show="new" xlink:title="MazeEventExitUnlocked.html" xlink:type="simple"><rect codeLine="5" fill="#FEFECE" filter="url(#fctqiyxv61xye)" height="125.3672" id="nz.ac.vuw.ecs.swen225.gp20.maze.event.MazeEventExitUnlocked" style="stroke: #A80036; stroke-width: 1.5;" width="434" x="9" y="107"/><ellipse cx="124.25" cy="127.0938" fill="#ADD1B2" rx="11" ry="11" style="stroke: #A80036; stroke-width: 1.0;"/><path d="M127.0156,122.9688 Q127.1719,122.75 127.3594,122.6406 Q127.5469,122.5313 127.7656,122.5313 Q128.1406,122.5313 128.375,122.7969 Q128.6094,123.0469 128.6094,123.6563 L128.6094,125.1094 Q128.6094,125.7188 128.375,125.9844 Q128.1406,126.25 127.7656,126.25 Q127.4219,126.25 127.2188,126.0469 Q127.0156,125.8594 126.9063,125.3438 Q126.8594,124.9844 126.6719,124.7969 Q126.3438,124.4219 125.7344,124.2031 Q125.125,123.9844 124.5,123.9844 Q123.7344,123.9844 123.0938,124.3125 Q122.4688,124.6406 121.9688,125.3906 Q121.4844,126.1406 121.4844,127.1719 L121.4844,128.2656 Q121.4844,129.5 122.375,130.3281 Q123.2656,131.1406 124.8594,131.1406 Q125.7969,131.1406 126.4531,130.8906 Q126.8438,130.7344 127.2656,130.2969 Q127.5313,130.0313 127.6719,129.9531 Q127.8281,129.875 128.0313,129.875 Q128.3594,129.875 128.6094,130.1406 Q128.875,130.3906 128.875,130.7344 Q128.875,131.0781 128.5313,131.4844 Q128.0313,132.0625 127.2344,132.3906 Q126.1563,132.8438 124.8594,132.8438 Q123.3438,132.8438 122.1406,132.2188 Q121.1563,131.7188 120.4688,130.6563 Q119.7813,129.5781 119.7813,128.2969 L119.7813,127.1406 Q119.7813,125.8125 120.3906,124.6719 Q121.0156,123.5156 122.1094,122.9063 Q123.2031,122.2813 124.4375,122.2813 Q125.1719,122.2813 125.8125,122.4531 Q126.4688,122.6094 127.0156,122.9688 Z "/><text fill="#000000" font-family="sans-serif" font-size="14" lengthAdjust="spacingAndGlyphs" textLength="149" x="167.75" y="126.5332">MazeEventExitUnlocked</text><text fill="#000000" font-family="sans-serif" font-size="10" lengthAdjust="spacingAndGlyphs" textLength="195" x="144.75" y="139.9902">nz.ac.vuw.ecs.swen225.gp20.maze.event</text><line style="stroke: #A80036; stroke-width: 1.5;" x1="10" x2="442" y1="147.1875" y2="147.1875"/><polygon fill="none" points="20,153.1875,24,157.1875,20,161.1875,16,157.1875" style="stroke: #B38D22; stroke-width: 1.0;"/><text fill="#000000" font-family="sans-serif" font-size="11" lengthAdjust="spacingAndGlyphs" textLength="82" x="29" y="162.6064">exitlock: ExitLock</text><line style="stroke: #A80036; stroke-width: 1.5;" x1="10" x2="442" y1="169.0234" y2="169.0234"/><ellipse cx="20" cy="180.0234" fill="#84BE84" rx="3" ry="3" style="stroke: #038048; stroke-width: 1.0;"/><text fill="#000000" font-family="sans-serif" font-size="11" lengthAdjust="spacingAndGlyphs" textLength="408" x="29" y="184.4424">MazeEventExitUnlocked(Maze, PathTile, PathTile, Direction, Pickup, ExitLock, PathTile)</text><ellipse cx="20" cy="193.8594" fill="#84BE84" rx="3" ry="3" style="stroke: #038048; stroke-width: 1.0;"/><text fill="#000000" font-family="sans-serif" font-size="11" lengthAdjust="spacingAndGlyphs" textLength="162" x="29" y="198.2783">receive(MazeEventListener): void</text><ellipse cx="20" cy="207.6953" fill="#84BE84" rx="3" ry="3" style="stroke: #038048; stroke-width: 1.0;"/><text fill="#000000" font-family="sans-serif" font-size="11" lengthAdjust="spacingAndGlyphs" textLength="105" x="29" y="212.1143">getExitlock(): ExitLock</text><ellipse cx="20" cy="221.5313" fill="#84BE84" rx="3" ry="3" style="stroke: #038048; stroke-width: 1.0;"/><text fill="#000000" font-family="sans-serif" font-size="11" lengthAdjust="spacingAndGlyphs" textLength="61" x="29" y="225.9502">invert(): void</text></a><!--MD5=[9d3ea331540c0aaf62efd262153277ca]
class nz.ac.vuw.ecs.swen225.gp20.maze.event.MazeEventPickup--><a href="MazeEventPickup.html" target="_top" title="MazeEventPickup.html" xlink:actuate="onRequest" xlink:href="MazeEventPickup.html" xlink:show="new" xlink:title="MazeEventPickup.html" xlink:type="simple"><rect codeLine="13" fill="#FEFECE" filter="url(#fctqiyxv61xye)" height="40.1875" id="nz.ac.vuw.ecs.swen225.gp20.maze.event.MazeEventPickup" style="stroke: #A80036; stroke-width: 1.5;" width="227" x="112.5" y="7"/><ellipse cx="127.5" cy="27.0938" fill="#ADD1B2" rx="11" ry="11" style="stroke: #A80036; stroke-width: 1.0;"/><path d="M130.2656,22.9688 Q130.4219,22.75 130.6094,22.6406 Q130.7969,22.5313 131.0156,22.5313 Q131.3906,22.5313 131.625,22.7969 Q131.8594,23.0469 131.8594,23.6563 L131.8594,25.1094 Q131.8594,25.7188 131.625,25.9844 Q131.3906,26.25 131.0156,26.25 Q130.6719,26.25 130.4688,26.0469 Q130.2656,25.8594 130.1563,25.3438 Q130.1094,24.9844 129.9219,24.7969 Q129.5938,24.4219 128.9844,24.2031 Q128.375,23.9844 127.75,23.9844 Q126.9844,23.9844 126.3438,24.3125 Q125.7188,24.6406 125.2188,25.3906 Q124.7344,26.1406 124.7344,27.1719 L124.7344,28.2656 Q124.7344,29.5 125.625,30.3281 Q126.5156,31.1406 128.1094,31.1406 Q129.0469,31.1406 129.7031,30.8906 Q130.0938,30.7344 130.5156,30.2969 Q130.7813,30.0313 130.9219,29.9531 Q131.0781,29.875 131.2813,29.875 Q131.6094,29.875 131.8594,30.1406 Q132.125,30.3906 132.125,30.7344 Q132.125,31.0781 131.7813,31.4844 Q131.2813,32.0625 130.4844,32.3906 Q129.4063,32.8438 128.1094,32.8438 Q126.5938,32.8438 125.3906,32.2188 Q124.4063,31.7188 123.7188,30.6563 Q123.0313,29.5781 123.0313,28.2969 L123.0313,27.1406 Q123.0313,25.8125 123.6406,24.6719 Q124.2656,23.5156 125.3594,22.9063 Q126.4531,22.2813 127.6875,22.2813 Q128.4219,22.2813 129.0625,22.4531 Q129.7188,22.6094 130.2656,22.9688 Z "/><text fill="#000000" font-family="sans-serif" font-size="14" lengthAdjust="spacingAndGlyphs" textLength="111" x="183.5" y="26.5332">MazeEventPickup</text><text fill="#000000" font-family="sans-serif" font-size="10" lengthAdjust="spacingAndGlyphs" textLength="195" x="141.5" y="39.9902">nz.ac.vuw.ecs.swen225.gp20.maze.event</text></a><!--MD5=[cb65c49311d0413f57f448423d656ca9]
reverse link nz.ac.vuw.ecs.swen225.gp20.maze.event.MazeEventPickup to nz.ac.vuw.ecs.swen225.gp20.maze.event.MazeEventExitUnlocked--><path codeLine="15" d="M226,67.25 C226,79.56 226,93.46 226,106.92 " fill="none" id="nz.ac.vuw.ecs.swen225.gp20.maze.event.MazeEventPickup-backto-nz.ac.vuw.ecs.swen225.gp20.maze.event.MazeEventExitUnlocked" style="stroke: #A80036; stroke-width: 1.0;"/><polygon fill="none" points="219,67.24,226,47.24,233,67.24,219,67.24" style="stroke: #A80036; stroke-width: 1.0;"/><text fill="#888888" font-family="sans-serif" font-size="10" lengthAdjust="spacingAndGlyphs" textLength="190" x="127" y="255.748">UMLDoclet 2.0.12, PlantUML 1.2020.16</text><!--MD5=[0bd46afb273fa3167d60ad98256f04d3]
@startuml
    set namespaceSeparator none
    hide empty fields
    hide empty methods

    class "<size:14>MazeEventExitUnlocked\n<size:10>nz.ac.vuw.ecs.swen225.gp20.maze.event" as nz.ac.vuw.ecs.swen225.gp20.maze.event.MazeEventExitUnlocked [[MazeEventExitUnlocked.html]] {
        #exitlock: ExitLock
        +MazeEventExitUnlocked(Maze, PathTile, PathTile, Direction, Pickup, ExitLock, PathTile)
        +receive(MazeEventListener): void
        +getExitlock(): ExitLock
        +invert(): void
    }

    class "<size:14>MazeEventPickup\n<size:10>nz.ac.vuw.ecs.swen225.gp20.maze.event" as nz.ac.vuw.ecs.swen225.gp20.maze.event.MazeEventPickup [[MazeEventPickup.html]]

    nz.ac.vuw.ecs.swen225.gp20.maze.event.MazeEventPickup <|- - nz.ac.vuw.ecs.swen225.gp20.maze.event.MazeEventExitUnlocked

    center footer UMLDoclet 2.0.12, PlantUML 1.2020.16
@enduml

PlantUML version 1.2020.16(Mon Aug 24 08:20:43 NZST 2020)
(APACHE source distribution)
Java Runtime: OpenJDK Runtime Environment
JVM: OpenJDK 64-Bit Server VM
Default Encoding: Cp1252
Language: en
Country: NZ
--></g></svg>