<?xml version="1.0" encoding="UTF-8" standalone="no"?><svg xmlns="http://www.w3.org/2000/svg" xmlns:xlink="http://www.w3.org/1999/xlink" contentScriptType="application/ecmascript" contentStyleType="text/css" height="415px" preserveAspectRatio="none" style="width:380px;height:415px;" version="1.1" viewBox="0 0 380 415" width="380px" zoomAndPan="magnify"><defs><filter height="300%" id="f1lb6yverkan89" width="300%" x="-1" y="-1"><feGaussianBlur result="blurOut" stdDeviation="2.0"/><feColorMatrix in="blurOut" result="blurOut2" type="matrix" values="0 0 0 0 0 0 0 0 0 0 0 0 0 0 0 0 0 0 .4 0"/><feOffset dx="4.0" dy="4.0" in="blurOut2" result="blurOut3"/><feBlend in="SourceGraphic" in2="blurOut3" mode="normal"/></filter></defs><g><!--MD5=[06f3defa8d3e7aa62a7d17459c648fe5]
class nz.ac.vuw.ecs.swen225.gp20.maze.event.MazeEventEnemyWalked--><a href="MazeEventEnemyWalked.html" target="_top" title="MazeEventEnemyWalked.html" xlink:actuate="onRequest" xlink:href="MazeEventEnemyWalked.html" xlink:show="new" xlink:title="MazeEventEnemyWalked.html" xlink:type="simple"><rect codeLine="5" fill="#FEFECE" filter="url(#f1lb6yverkan89)" height="236.0547" id="nz.ac.vuw.ecs.swen225.gp20.maze.event.MazeEventEnemyWalked" style="stroke: #A80036; stroke-width: 1.5;" width="352" x="9" y="143"/><ellipse cx="83.25" cy="163.0938" fill="#ADD1B2" rx="11" ry="11" style="stroke: #A80036; stroke-width: 1.0;"/><path d="M86.0156,158.9688 Q86.1719,158.75 86.3594,158.6406 Q86.5469,158.5313 86.7656,158.5313 Q87.1406,158.5313 87.375,158.7969 Q87.6094,159.0469 87.6094,159.6563 L87.6094,161.1094 Q87.6094,161.7188 87.375,161.9844 Q87.1406,162.25 86.7656,162.25 Q86.4219,162.25 86.2188,162.0469 Q86.0156,161.8594 85.9063,161.3438 Q85.8594,160.9844 85.6719,160.7969 Q85.3438,160.4219 84.7344,160.2031 Q84.125,159.9844 83.5,159.9844 Q82.7344,159.9844 82.0938,160.3125 Q81.4688,160.6406 80.9688,161.3906 Q80.4844,162.1406 80.4844,163.1719 L80.4844,164.2656 Q80.4844,165.5 81.375,166.3281 Q82.2656,167.1406 83.8594,167.1406 Q84.7969,167.1406 85.4531,166.8906 Q85.8438,166.7344 86.2656,166.2969 Q86.5313,166.0313 86.6719,165.9531 Q86.8281,165.875 87.0313,165.875 Q87.3594,165.875 87.6094,166.1406 Q87.875,166.3906 87.875,166.7344 Q87.875,167.0781 87.5313,167.4844 Q87.0313,168.0625 86.2344,168.3906 Q85.1563,168.8438 83.8594,168.8438 Q82.3438,168.8438 81.1406,168.2188 Q80.1563,167.7188 79.4688,166.6563 Q78.7813,165.5781 78.7813,164.2969 L78.7813,163.1406 Q78.7813,161.8125 79.3906,160.6719 Q80.0156,159.5156 81.1094,158.9063 Q82.2031,158.2813 83.4375,158.2813 Q84.1719,158.2813 84.8125,158.4531 Q85.4688,158.6094 86.0156,158.9688 Z "/><text fill="#000000" font-family="sans-serif" font-size="14" lengthAdjust="spacingAndGlyphs" textLength="159" x="121.75" y="162.5332">MazeEventEnemyWalked</text><text fill="#000000" font-family="sans-serif" font-size="10" lengthAdjust="spacingAndGlyphs" textLength="195" x="103.75" y="175.9902">nz.ac.vuw.ecs.swen225.gp20.maze.event</text><line style="stroke: #A80036; stroke-width: 1.5;" x1="10" x2="360" y1="183.1875" y2="183.1875"/><polygon fill="none" points="20,189.1875,24,193.1875,20,197.1875,16,193.1875" style="stroke: #B38D22; stroke-width: 1.0;"/><text fill="#000000" font-family="sans-serif" font-size="11" lengthAdjust="spacingAndGlyphs" textLength="69" x="29" y="198.6064">origin: PathTile</text><polygon fill="none" points="20,203.0234,24,207.0234,20,211.0234,16,207.0234" style="stroke: #B38D22; stroke-width: 1.0;"/><text fill="#000000" font-family="sans-serif" font-size="11" lengthAdjust="spacingAndGlyphs" textLength="71" x="29" y="212.4424">target: PathTile</text><polygon fill="none" points="20,216.8594,24,220.8594,20,224.8594,16,220.8594" style="stroke: #B38D22; stroke-width: 1.0;"/><text fill="#000000" font-family="sans-serif" font-size="11" lengthAdjust="spacingAndGlyphs" textLength="89" x="29" y="226.2783">direction: Direction</text><polygon fill="none" points="20,230.6953,24,234.6953,20,238.6953,16,234.6953" style="stroke: #B38D22; stroke-width: 1.0;"/><text fill="#000000" font-family="sans-serif" font-size="11" lengthAdjust="spacingAndGlyphs" textLength="58" x="29" y="240.1143">maze: Maze</text><polygon fill="none" points="20,244.5313,24,248.5313,20,252.5313,16,248.5313" style="stroke: #B38D22; stroke-width: 1.0;"/><text fill="#000000" font-family="sans-serif" font-size="11" lengthAdjust="spacingAndGlyphs" textLength="70" x="29" y="253.9502">enemy: Enemy</text><line style="stroke: #A80036; stroke-width: 1.5;" x1="10" x2="360" y1="260.3672" y2="260.3672"/><ellipse cx="20" cy="271.3672" fill="#84BE84" rx="3" ry="3" style="stroke: #038048; stroke-width: 1.0;"/><text fill="#000000" font-family="sans-serif" font-size="11" lengthAdjust="spacingAndGlyphs" textLength="326" x="29" y="275.7861">MazeEventEnemyWalked(Maze, Enemy, PathTile, PathTile, Direction)</text><ellipse cx="20" cy="285.2031" fill="#84BE84" rx="3" ry="3" style="stroke: #038048; stroke-width: 1.0;"/><text fill="#000000" font-family="sans-serif" font-size="11" lengthAdjust="spacingAndGlyphs" textLength="129" x="29" y="289.6221">getEnemyTarget(): PathTile</text><ellipse cx="20" cy="299.0391" fill="#84BE84" rx="3" ry="3" style="stroke: #038048; stroke-width: 1.0;"/><text fill="#000000" font-family="sans-serif" font-size="11" lengthAdjust="spacingAndGlyphs" textLength="126" x="29" y="303.458">getEnemyOrigin(): PathTile</text><ellipse cx="20" cy="312.875" fill="#84BE84" rx="3" ry="3" style="stroke: #038048; stroke-width: 1.0;"/><text fill="#000000" font-family="sans-serif" font-size="11" lengthAdjust="spacingAndGlyphs" textLength="145" x="29" y="317.2939">getEnemyDirection(): Direction</text><ellipse cx="20" cy="326.7109" fill="#84BE84" rx="3" ry="3" style="stroke: #038048; stroke-width: 1.0;"/><text fill="#000000" font-family="sans-serif" font-size="11" lengthAdjust="spacingAndGlyphs" textLength="81" x="29" y="331.1299">getMaze(): Maze</text><ellipse cx="20" cy="340.5469" fill="#84BE84" rx="3" ry="3" style="stroke: #038048; stroke-width: 1.0;"/><text fill="#000000" font-family="sans-serif" font-size="11" lengthAdjust="spacingAndGlyphs" textLength="93" x="29" y="344.9658">getEnemy(): Enemy</text><ellipse cx="20" cy="354.3828" fill="#84BE84" rx="3" ry="3" style="stroke: #038048; stroke-width: 1.0;"/><text fill="#000000" font-family="sans-serif" font-size="11" lengthAdjust="spacingAndGlyphs" textLength="162" x="29" y="358.8018">receive(MazeEventListener): void</text><ellipse cx="20" cy="368.2188" fill="#84BE84" rx="3" ry="3" style="stroke: #038048; stroke-width: 1.0;"/><text fill="#000000" font-family="sans-serif" font-size="11" lengthAdjust="spacingAndGlyphs" textLength="61" x="29" y="372.6377">invert(): void</text></a><!--MD5=[1195a3001eb053f1a29cc6a3e3badd85]
class nz.ac.vuw.ecs.swen225.gp20.maze.event.MazeEvent--><a href="MazeEvent.html" target="_top" title="MazeEvent.html" xlink:actuate="onRequest" xlink:href="MazeEvent.html" xlink:show="new" xlink:title="MazeEvent.html" xlink:type="simple"><rect codeLine="21" fill="#FEFECE" filter="url(#f1lb6yverkan89)" height="75.8594" id="nz.ac.vuw.ecs.swen225.gp20.maze.event.MazeEvent" style="stroke: #A80036; stroke-width: 1.5;" width="227" x="71.5" y="7"/><ellipse cx="86.5" cy="27.0938" fill="#B4A7E5" rx="11" ry="11" style="stroke: #A80036; stroke-width: 1.0;"/><path d="M87.4531,23.7344 L87.4531,30.3906 L89.1719,30.3906 Q89.7813,30.3906 90.0469,30.625 Q90.3125,30.8594 90.3125,31.25 Q90.3125,31.625 90.0469,31.8594 Q89.7813,32.0938 89.1719,32.0938 L84.0313,32.0938 Q83.4219,32.0938 83.1563,31.8594 Q82.8906,31.625 82.8906,31.2344 Q82.8906,30.8594 83.1563,30.625 Q83.4219,30.3906 84.0313,30.3906 L85.75,30.3906 L85.75,23.7344 L84.0313,23.7344 Q83.4219,23.7344 83.1563,23.5 Q82.8906,23.2656 82.8906,22.875 Q82.8906,22.5 83.1563,22.2656 Q83.4219,22.0313 84.0313,22.0313 L89.1719,22.0313 Q89.7813,22.0313 90.0469,22.2656 Q90.3125,22.5 90.3125,22.875 Q90.3125,23.2656 90.0469,23.5 Q89.7813,23.7344 89.1719,23.7344 L87.4531,23.7344 Z "/><text fill="#000000" font-family="sans-serif" font-size="14" font-style="italic" lengthAdjust="spacingAndGlyphs" textLength="70" x="163" y="26.5332">MazeEvent</text><text fill="#000000" font-family="sans-serif" font-size="10" font-style="italic" lengthAdjust="spacingAndGlyphs" textLength="195" x="100.5" y="39.9902">nz.ac.vuw.ecs.swen225.gp20.maze.event</text><line style="stroke: #A80036; stroke-width: 1.5;" x1="72.5" x2="297.5" y1="47.1875" y2="47.1875"/><ellipse cx="82.5" cy="58.1875" fill="#84BE84" rx="3" ry="3" style="stroke: #038048; stroke-width: 1.0;"/><text fill="#000000" font-family="sans-serif" font-size="11" font-style="italic" lengthAdjust="spacingAndGlyphs" textLength="164" x="91.5" y="62.6064">receive(MazeEventListener): void</text><ellipse cx="82.5" cy="72.0234" fill="#84BE84" rx="3" ry="3" style="stroke: #038048; stroke-width: 1.0;"/><text fill="#000000" font-family="sans-serif" font-size="11" font-style="italic" lengthAdjust="spacingAndGlyphs" textLength="61" x="91.5" y="76.4424">invert(): void</text></a><!--MD5=[2333f1635fead4bdb1def0783a9cf9a7]
reverse link nz.ac.vuw.ecs.swen225.gp20.maze.event.MazeEvent to nz.ac.vuw.ecs.swen225.gp20.maze.event.MazeEventEnemyWalked--><path codeLine="26" d="M185,103.36 C185,115.65 185,129.06 185,142.7 " fill="none" id="nz.ac.vuw.ecs.swen225.gp20.maze.event.MazeEvent-backto-nz.ac.vuw.ecs.swen225.gp20.maze.event.MazeEventEnemyWalked" style="stroke: #A80036; stroke-width: 1.0; stroke-dasharray: 7.0,7.0;"/><polygon fill="none" points="178,103.28,185,83.28,192,103.28,178,103.28" style="stroke: #A80036; stroke-width: 1.0;"/><text fill="#888888" font-family="sans-serif" font-size="10" lengthAdjust="spacingAndGlyphs" textLength="190" x="86" y="402.4355">UMLDoclet 2.0.12, PlantUML 1.2020.16</text><!--MD5=[dbf8dacb1d80aff526f294b1fe895cd9]
@startuml
    set namespaceSeparator none
    hide empty fields
    hide empty methods

    class "<size:14>MazeEventEnemyWalked\n<size:10>nz.ac.vuw.ecs.swen225.gp20.maze.event" as nz.ac.vuw.ecs.swen225.gp20.maze.event.MazeEventEnemyWalked [[MazeEventEnemyWalked.html]] {
        #origin: PathTile
        #target: PathTile
        #direction: Direction
        #maze: Maze
        #enemy: Enemy
        +MazeEventEnemyWalked(Maze, Enemy, PathTile, PathTile, Direction)
        +getEnemyTarget(): PathTile
        +getEnemyOrigin(): PathTile
        +getEnemyDirection(): Direction
        +getMaze(): Maze
        +getEnemy(): Enemy
        +receive(MazeEventListener): void
        +invert(): void
    }

    interface "<size:14>MazeEvent\n<size:10>nz.ac.vuw.ecs.swen225.gp20.maze.event" as nz.ac.vuw.ecs.swen225.gp20.maze.event.MazeEvent [[MazeEvent.html]] {
        {abstract} +receive(MazeEventListener): void
        {abstract} +invert(): void
    }

    nz.ac.vuw.ecs.swen225.gp20.maze.event.MazeEvent <|.. nz.ac.vuw.ecs.swen225.gp20.maze.event.MazeEventEnemyWalked

    center footer UMLDoclet 2.0.12, PlantUML 1.2020.16
@enduml

PlantUML version 1.2020.16(Mon Aug 24 08:20:43 NZST 2020)
(APACHE source distribution)
Java Runtime: OpenJDK Runtime Environment
JVM: OpenJDK 64-Bit Server VM
Default Encoding: Cp1252
Language: en
Country: NZ
--></g></svg>