<?xml version="1.0" encoding="UTF-8" standalone="no"?><svg xmlns="http://www.w3.org/2000/svg" xmlns:xlink="http://www.w3.org/1999/xlink" contentScriptType="application/ecmascript" contentStyleType="text/css" height="261px" preserveAspectRatio="none" style="width:379px;height:261px;" version="1.1" viewBox="0 0 379 261" width="379px" zoomAndPan="magnify"><defs><filter height="300%" id="f1cdvo1ue5bblt" width="300%" x="-1" y="-1"><feGaussianBlur result="blurOut" stdDeviation="2.0"/><feColorMatrix in="blurOut" result="blurOut2" type="matrix" values="0 0 0 0 0 0 0 0 0 0 0 0 0 0 0 0 0 0 .4 0"/><feOffset dx="4.0" dy="4.0" in="blurOut2" result="blurOut3"/><feBlend in="SourceGraphic" in2="blurOut3" mode="normal"/></filter></defs><g><!--MD5=[2555c3619e79acbb84b692cd726dc7d6]
class nz.ac.vuw.ecs.swen225.gp20.maze.event.MazeEventTeleported--><a href="MazeEventTeleported.html" target="_top" title="MazeEventTeleported.html" xlink:actuate="onRequest" xlink:href="MazeEventTeleported.html" xlink:show="new" xlink:title="MazeEventTeleported.html" xlink:type="simple"><rect codeLine="5" fill="#FEFECE" filter="url(#f1cdvo1ue5bblt)" height="117.3672" id="nz.ac.vuw.ecs.swen225.gp20.maze.event.MazeEventTeleported" style="stroke: #A80036; stroke-width: 1.5;" width="353" x="7" y="107"/><ellipse cx="81.75" cy="127.0938" fill="#ADD1B2" rx="11" ry="11" style="stroke: #A80036; stroke-width: 1.0;"/><path d="M84.5156,122.9688 Q84.6719,122.75 84.8594,122.6406 Q85.0469,122.5313 85.2656,122.5313 Q85.6406,122.5313 85.875,122.7969 Q86.1094,123.0469 86.1094,123.6563 L86.1094,125.1094 Q86.1094,125.7188 85.875,125.9844 Q85.6406,126.25 85.2656,126.25 Q84.9219,126.25 84.7188,126.0469 Q84.5156,125.8594 84.4063,125.3438 Q84.3594,124.9844 84.1719,124.7969 Q83.8438,124.4219 83.2344,124.2031 Q82.625,123.9844 82,123.9844 Q81.2344,123.9844 80.5938,124.3125 Q79.9688,124.6406 79.4688,125.3906 Q78.9844,126.1406 78.9844,127.1719 L78.9844,128.2656 Q78.9844,129.5 79.875,130.3281 Q80.7656,131.1406 82.3594,131.1406 Q83.2969,131.1406 83.9531,130.8906 Q84.3438,130.7344 84.7656,130.2969 Q85.0313,130.0313 85.1719,129.9531 Q85.3281,129.875 85.5313,129.875 Q85.8594,129.875 86.1094,130.1406 Q86.375,130.3906 86.375,130.7344 Q86.375,131.0781 86.0313,131.4844 Q85.5313,132.0625 84.7344,132.3906 Q83.6563,132.8438 82.3594,132.8438 Q80.8438,132.8438 79.6406,132.2188 Q78.6563,131.7188 77.9688,130.6563 Q77.2813,129.5781 77.2813,128.2969 L77.2813,127.1406 Q77.2813,125.8125 77.8906,124.6719 Q78.5156,123.5156 79.6094,122.9063 Q80.7031,122.2813 81.9375,122.2813 Q82.6719,122.2813 83.3125,122.4531 Q83.9688,122.6094 84.5156,122.9688 Z "/><text fill="#000000" font-family="sans-serif" font-size="14" lengthAdjust="spacingAndGlyphs" textLength="138" x="130.75" y="126.5332">MazeEventTeleported</text><text fill="#000000" font-family="sans-serif" font-size="10" lengthAdjust="spacingAndGlyphs" textLength="195" x="102.25" y="139.9902">nz.ac.vuw.ecs.swen225.gp20.maze.event</text><line style="stroke: #A80036; stroke-width: 1.5;" x1="8" x2="359" y1="147.1875" y2="147.1875"/><ellipse cx="18" cy="158.1875" fill="#84BE84" rx="3" ry="3" style="stroke: #038048; stroke-width: 1.0;"/><text fill="#000000" font-family="sans-serif" font-size="11" lengthAdjust="spacingAndGlyphs" textLength="327" x="27" y="162.6064">MazeEventTeleported(Maze, PathTile, PathTile, Direction, Teleporter)</text><ellipse cx="18" cy="172.0234" fill="#84BE84" rx="3" ry="3" style="stroke: #038048; stroke-width: 1.0;"/><text fill="#000000" font-family="sans-serif" font-size="11" lengthAdjust="spacingAndGlyphs" textLength="127" x="27" y="176.4424">getTeleporter(): Teleporter</text><ellipse cx="18" cy="185.8594" fill="#84BE84" rx="3" ry="3" style="stroke: #038048; stroke-width: 1.0;"/><text fill="#000000" font-family="sans-serif" font-size="11" lengthAdjust="spacingAndGlyphs" textLength="162" x="27" y="190.2783">receive(MazeEventListener): void</text><ellipse cx="18" cy="199.6953" fill="#84BE84" rx="3" ry="3" style="stroke: #038048; stroke-width: 1.0;"/><text fill="#000000" font-family="sans-serif" font-size="11" lengthAdjust="spacingAndGlyphs" textLength="119" x="27" y="204.1143">getDestination(): PathTile</text><ellipse cx="18" cy="213.5313" fill="#84BE84" rx="3" ry="3" style="stroke: #038048; stroke-width: 1.0;"/><text fill="#000000" font-family="sans-serif" font-size="11" lengthAdjust="spacingAndGlyphs" textLength="61" x="27" y="217.9502">invert(): void</text></a><!--MD5=[7faeee9bf455f002452f8adabf2713b5]
class nz.ac.vuw.ecs.swen225.gp20.maze.event.MazeEventWalked--><a href="MazeEventWalked.html" target="_top" title="MazeEventWalked.html" xlink:actuate="onRequest" xlink:href="MazeEventWalked.html" xlink:show="new" xlink:title="MazeEventWalked.html" xlink:type="simple"><rect codeLine="13" fill="#FEFECE" filter="url(#f1cdvo1ue5bblt)" height="40.1875" id="nz.ac.vuw.ecs.swen225.gp20.maze.event.MazeEventWalked" style="stroke: #A80036; stroke-width: 1.5;" width="227" x="70" y="7"/><ellipse cx="85" cy="27.0938" fill="#ADD1B2" rx="11" ry="11" style="stroke: #A80036; stroke-width: 1.0;"/><path d="M87.7656,22.9688 Q87.9219,22.75 88.1094,22.6406 Q88.2969,22.5313 88.5156,22.5313 Q88.8906,22.5313 89.125,22.7969 Q89.3594,23.0469 89.3594,23.6563 L89.3594,25.1094 Q89.3594,25.7188 89.125,25.9844 Q88.8906,26.25 88.5156,26.25 Q88.1719,26.25 87.9688,26.0469 Q87.7656,25.8594 87.6563,25.3438 Q87.6094,24.9844 87.4219,24.7969 Q87.0938,24.4219 86.4844,24.2031 Q85.875,23.9844 85.25,23.9844 Q84.4844,23.9844 83.8438,24.3125 Q83.2188,24.6406 82.7188,25.3906 Q82.2344,26.1406 82.2344,27.1719 L82.2344,28.2656 Q82.2344,29.5 83.125,30.3281 Q84.0156,31.1406 85.6094,31.1406 Q86.5469,31.1406 87.2031,30.8906 Q87.5938,30.7344 88.0156,30.2969 Q88.2813,30.0313 88.4219,29.9531 Q88.5781,29.875 88.7813,29.875 Q89.1094,29.875 89.3594,30.1406 Q89.625,30.3906 89.625,30.7344 Q89.625,31.0781 89.2813,31.4844 Q88.7813,32.0625 87.9844,32.3906 Q86.9063,32.8438 85.6094,32.8438 Q84.0938,32.8438 82.8906,32.2188 Q81.9063,31.7188 81.2188,30.6563 Q80.5313,29.5781 80.5313,28.2969 L80.5313,27.1406 Q80.5313,25.8125 81.1406,24.6719 Q81.7656,23.5156 82.8594,22.9063 Q83.9531,22.2813 85.1875,22.2813 Q85.9219,22.2813 86.5625,22.4531 Q87.2188,22.6094 87.7656,22.9688 Z "/><text fill="#000000" font-family="sans-serif" font-size="14" lengthAdjust="spacingAndGlyphs" textLength="116" x="138.5" y="26.5332">MazeEventWalked</text><text fill="#000000" font-family="sans-serif" font-size="10" lengthAdjust="spacingAndGlyphs" textLength="195" x="99" y="39.9902">nz.ac.vuw.ecs.swen225.gp20.maze.event</text></a><!--MD5=[861c22ef0523afa266706e227344d5f2]
reverse link nz.ac.vuw.ecs.swen225.gp20.maze.event.MazeEventWalked to nz.ac.vuw.ecs.swen225.gp20.maze.event.MazeEventTeleported--><path codeLine="15" d="M183.5,67.38 C183.5,79.73 183.5,93.63 183.5,106.97 " fill="none" id="nz.ac.vuw.ecs.swen225.gp20.maze.event.MazeEventWalked-backto-nz.ac.vuw.ecs.swen225.gp20.maze.event.MazeEventTeleported" style="stroke: #A80036; stroke-width: 1.0;"/><polygon fill="none" points="176.5,67.27,183.5,47.27,190.5,67.27,176.5,67.27" style="stroke: #A80036; stroke-width: 1.0;"/><text fill="#888888" font-family="sans-serif" font-size="10" lengthAdjust="spacingAndGlyphs" textLength="190" x="85.5" y="247.748">UMLDoclet 2.0.12, PlantUML 1.2020.16</text><!--MD5=[edf9450df6f4a77ec6eaa84d4ef0a552]
@startuml
    set namespaceSeparator none
    hide empty fields
    hide empty methods

    class "<size:14>MazeEventTeleported\n<size:10>nz.ac.vuw.ecs.swen225.gp20.maze.event" as nz.ac.vuw.ecs.swen225.gp20.maze.event.MazeEventTeleported [[MazeEventTeleported.html]] {
        +MazeEventTeleported(Maze, PathTile, PathTile, Direction, Teleporter)
        +getTeleporter(): Teleporter
        +receive(MazeEventListener): void
        +getDestination(): PathTile
        +invert(): void
    }

    class "<size:14>MazeEventWalked\n<size:10>nz.ac.vuw.ecs.swen225.gp20.maze.event" as nz.ac.vuw.ecs.swen225.gp20.maze.event.MazeEventWalked [[MazeEventWalked.html]]

    nz.ac.vuw.ecs.swen225.gp20.maze.event.MazeEventWalked <|- - nz.ac.vuw.ecs.swen225.gp20.maze.event.MazeEventTeleported

    center footer UMLDoclet 2.0.12, PlantUML 1.2020.16
@enduml

PlantUML version 1.2020.16(Mon Aug 24 08:20:43 NZST 2020)
(APACHE source distribution)
Java Runtime: OpenJDK Runtime Environment
JVM: OpenJDK 64-Bit Server VM
Default Encoding: Cp1252
Language: en
Country: NZ
--></g></svg>