<?xml version="1.0" encoding="UTF-8" standalone="no"?><svg xmlns="http://www.w3.org/2000/svg" xmlns:xlink="http://www.w3.org/1999/xlink" contentScriptType="application/ecmascript" contentStyleType="text/css" height="233px" preserveAspectRatio="none" style="width:403px;height:233px;" version="1.1" viewBox="0 0 403 233" width="403px" zoomAndPan="magnify"><defs><filter height="300%" id="f1qbiwsik63mjp" width="300%" x="-1" y="-1"><feGaussianBlur result="blurOut" stdDeviation="2.0"/><feColorMatrix in="blurOut" result="blurOut2" type="matrix" values="0 0 0 0 0 0 0 0 0 0 0 0 0 0 0 0 0 0 .4 0"/><feOffset dx="4.0" dy="4.0" in="blurOut2" result="blurOut3"/><feBlend in="SourceGraphic" in2="blurOut3" mode="normal"/></filter></defs><g><!--MD5=[1a3be90cb4a4aa912e933510332e931b]
class nz.ac.vuw.ecs.swen225.gp20.maze.event.MazeEventEnemyWalkedKilled--><a href="MazeEventEnemyWalkedKilled.html" target="_top" title="MazeEventEnemyWalkedKilled.html" xlink:actuate="onRequest" xlink:href="MazeEventEnemyWalkedKilled.html" xlink:show="new" xlink:title="MazeEventEnemyWalkedKilled.html" xlink:type="simple"><rect codeLine="5" fill="#FEFECE" filter="url(#f1qbiwsik63mjp)" height="89.6953" id="nz.ac.vuw.ecs.swen225.gp20.maze.event.MazeEventEnemyWalkedKilled" style="stroke: #A80036; stroke-width: 1.5;" width="377" x="7" y="107"/><ellipse cx="93.75" cy="127.0938" fill="#ADD1B2" rx="11" ry="11" style="stroke: #A80036; stroke-width: 1.0;"/><path d="M96.5156,122.9688 Q96.6719,122.75 96.8594,122.6406 Q97.0469,122.5313 97.2656,122.5313 Q97.6406,122.5313 97.875,122.7969 Q98.1094,123.0469 98.1094,123.6563 L98.1094,125.1094 Q98.1094,125.7188 97.875,125.9844 Q97.6406,126.25 97.2656,126.25 Q96.9219,126.25 96.7188,126.0469 Q96.5156,125.8594 96.4063,125.3438 Q96.3594,124.9844 96.1719,124.7969 Q95.8438,124.4219 95.2344,124.2031 Q94.625,123.9844 94,123.9844 Q93.2344,123.9844 92.5938,124.3125 Q91.9688,124.6406 91.4688,125.3906 Q90.9844,126.1406 90.9844,127.1719 L90.9844,128.2656 Q90.9844,129.5 91.875,130.3281 Q92.7656,131.1406 94.3594,131.1406 Q95.2969,131.1406 95.9531,130.8906 Q96.3438,130.7344 96.7656,130.2969 Q97.0313,130.0313 97.1719,129.9531 Q97.3281,129.875 97.5313,129.875 Q97.8594,129.875 98.1094,130.1406 Q98.375,130.3906 98.375,130.7344 Q98.375,131.0781 98.0313,131.4844 Q97.5313,132.0625 96.7344,132.3906 Q95.6563,132.8438 94.3594,132.8438 Q92.8438,132.8438 91.6406,132.2188 Q90.6563,131.7188 89.9688,130.6563 Q89.2813,129.5781 89.2813,128.2969 L89.2813,127.1406 Q89.2813,125.8125 89.8906,124.6719 Q90.5156,123.5156 91.6094,122.9063 Q92.7031,122.2813 93.9375,122.2813 Q94.6719,122.2813 95.3125,122.4531 Q95.9688,122.6094 96.5156,122.9688 Z "/><text fill="#000000" font-family="sans-serif" font-size="14" lengthAdjust="spacingAndGlyphs" textLength="193" x="115.25" y="126.5332">MazeEventEnemyWalkedKilled</text><text fill="#000000" font-family="sans-serif" font-size="10" lengthAdjust="spacingAndGlyphs" textLength="195" x="114.25" y="139.9902">nz.ac.vuw.ecs.swen225.gp20.maze.event</text><line style="stroke: #A80036; stroke-width: 1.5;" x1="8" x2="383" y1="147.1875" y2="147.1875"/><ellipse cx="18" cy="158.1875" fill="#84BE84" rx="3" ry="3" style="stroke: #038048; stroke-width: 1.0;"/><text fill="#000000" font-family="sans-serif" font-size="11" lengthAdjust="spacingAndGlyphs" textLength="351" x="27" y="162.6064">MazeEventEnemyWalkedKilled(Maze, Enemy, PathTile, PathTile, Direction)</text><ellipse cx="18" cy="172.0234" fill="#84BE84" rx="3" ry="3" style="stroke: #038048; stroke-width: 1.0;"/><text fill="#000000" font-family="sans-serif" font-size="11" lengthAdjust="spacingAndGlyphs" textLength="162" x="27" y="176.4424">receive(MazeEventListener): void</text><ellipse cx="18" cy="185.8594" fill="#84BE84" rx="3" ry="3" style="stroke: #038048; stroke-width: 1.0;"/><text fill="#000000" font-family="sans-serif" font-size="11" lengthAdjust="spacingAndGlyphs" textLength="61" x="27" y="190.2783">invert(): void</text></a><!--MD5=[06f3defa8d3e7aa62a7d17459c648fe5]
class nz.ac.vuw.ecs.swen225.gp20.maze.event.MazeEventEnemyWalked--><a href="MazeEventEnemyWalked.html" target="_top" title="MazeEventEnemyWalked.html" xlink:actuate="onRequest" xlink:href="MazeEventEnemyWalked.html" xlink:show="new" xlink:title="MazeEventEnemyWalked.html" xlink:type="simple"><rect codeLine="11" fill="#FEFECE" filter="url(#f1qbiwsik63mjp)" height="40.1875" id="nz.ac.vuw.ecs.swen225.gp20.maze.event.MazeEventEnemyWalked" style="stroke: #A80036; stroke-width: 1.5;" width="227" x="82" y="7"/><ellipse cx="97" cy="27.0938" fill="#ADD1B2" rx="11" ry="11" style="stroke: #A80036; stroke-width: 1.0;"/><path d="M99.7656,22.9688 Q99.9219,22.75 100.1094,22.6406 Q100.2969,22.5313 100.5156,22.5313 Q100.8906,22.5313 101.125,22.7969 Q101.3594,23.0469 101.3594,23.6563 L101.3594,25.1094 Q101.3594,25.7188 101.125,25.9844 Q100.8906,26.25 100.5156,26.25 Q100.1719,26.25 99.9688,26.0469 Q99.7656,25.8594 99.6563,25.3438 Q99.6094,24.9844 99.4219,24.7969 Q99.0938,24.4219 98.4844,24.2031 Q97.875,23.9844 97.25,23.9844 Q96.4844,23.9844 95.8438,24.3125 Q95.2188,24.6406 94.7188,25.3906 Q94.2344,26.1406 94.2344,27.1719 L94.2344,28.2656 Q94.2344,29.5 95.125,30.3281 Q96.0156,31.1406 97.6094,31.1406 Q98.5469,31.1406 99.2031,30.8906 Q99.5938,30.7344 100.0156,30.2969 Q100.2813,30.0313 100.4219,29.9531 Q100.5781,29.875 100.7813,29.875 Q101.1094,29.875 101.3594,30.1406 Q101.625,30.3906 101.625,30.7344 Q101.625,31.0781 101.2813,31.4844 Q100.7813,32.0625 99.9844,32.3906 Q98.9063,32.8438 97.6094,32.8438 Q96.0938,32.8438 94.8906,32.2188 Q93.9063,31.7188 93.2188,30.6563 Q92.5313,29.5781 92.5313,28.2969 L92.5313,27.1406 Q92.5313,25.8125 93.1406,24.6719 Q93.7656,23.5156 94.8594,22.9063 Q95.9531,22.2813 97.1875,22.2813 Q97.9219,22.2813 98.5625,22.4531 Q99.2188,22.6094 99.7656,22.9688 Z "/><text fill="#000000" font-family="sans-serif" font-size="14" lengthAdjust="spacingAndGlyphs" textLength="159" x="129" y="26.5332">MazeEventEnemyWalked</text><text fill="#000000" font-family="sans-serif" font-size="10" lengthAdjust="spacingAndGlyphs" textLength="195" x="111" y="39.9902">nz.ac.vuw.ecs.swen225.gp20.maze.event</text></a><!--MD5=[02d15a7a91cf6a0d10b23c1c10f4e45b]
reverse link nz.ac.vuw.ecs.swen225.gp20.maze.event.MazeEventEnemyWalked to nz.ac.vuw.ecs.swen225.gp20.maze.event.MazeEventEnemyWalkedKilled--><path codeLine="13" d="M195.5,67.25 C195.5,79.89 195.5,93.98 195.5,106.94 " fill="none" id="nz.ac.vuw.ecs.swen225.gp20.maze.event.MazeEventEnemyWalked-backto-nz.ac.vuw.ecs.swen225.gp20.maze.event.MazeEventEnemyWalkedKilled" style="stroke: #A80036; stroke-width: 1.0;"/><polygon fill="none" points="188.5,67.22,195.5,47.22,202.5,67.22,188.5,67.22" style="stroke: #A80036; stroke-width: 1.0;"/><text fill="#888888" font-family="sans-serif" font-size="10" lengthAdjust="spacingAndGlyphs" textLength="190" x="97.5" y="220.0762">UMLDoclet 2.0.12, PlantUML 1.2020.16</text><!--MD5=[53a7d8b5bff3c6d338a29c0adc7fad95]
@startuml
    set namespaceSeparator none
    hide empty fields
    hide empty methods

    class "<size:14>MazeEventEnemyWalkedKilled\n<size:10>nz.ac.vuw.ecs.swen225.gp20.maze.event" as nz.ac.vuw.ecs.swen225.gp20.maze.event.MazeEventEnemyWalkedKilled [[MazeEventEnemyWalkedKilled.html]] {
        +MazeEventEnemyWalkedKilled(Maze, Enemy, PathTile, PathTile, Direction)
        +receive(MazeEventListener): void
        +invert(): void
    }

    class "<size:14>MazeEventEnemyWalked\n<size:10>nz.ac.vuw.ecs.swen225.gp20.maze.event" as nz.ac.vuw.ecs.swen225.gp20.maze.event.MazeEventEnemyWalked [[MazeEventEnemyWalked.html]]

    nz.ac.vuw.ecs.swen225.gp20.maze.event.MazeEventEnemyWalked <|- - nz.ac.vuw.ecs.swen225.gp20.maze.event.MazeEventEnemyWalkedKilled

    center footer UMLDoclet 2.0.12, PlantUML 1.2020.16
@enduml

PlantUML version 1.2020.16(Mon Aug 24 08:20:43 NZST 2020)
(APACHE source distribution)
Java Runtime: OpenJDK Runtime Environment
JVM: OpenJDK 64-Bit Server VM
Default Encoding: Cp1252
Language: en
Country: NZ
--></g></svg>