<?xml version="1.0" encoding="UTF-8" standalone="no"?><svg xmlns="http://www.w3.org/2000/svg" xmlns:xlink="http://www.w3.org/1999/xlink" contentScriptType="application/ecmascript" contentStyleType="text/css" height="247px" preserveAspectRatio="none" style="width:371px;height:247px;" version="1.1" viewBox="0 0 371 247" width="371px" zoomAndPan="magnify"><defs><filter height="300%" id="f1u4ubyqqmmn5s" width="300%" x="-1" y="-1"><feGaussianBlur result="blurOut" stdDeviation="2.0"/><feColorMatrix in="blurOut" result="blurOut2" type="matrix" values="0 0 0 0 0 0 0 0 0 0 0 0 0 0 0 0 0 0 .4 0"/><feOffset dx="4.0" dy="4.0" in="blurOut2" result="blurOut3"/><feBlend in="SourceGraphic" in2="blurOut3" mode="normal"/></filter></defs><g><!--MD5=[db63137dc4bcf507273ffd3a637e267e]
class nz.ac.vuw.ecs.swen225.gp20.maze.event.MazeEventWalkedKilled--><a href="MazeEventWalkedKilled.html" target="_top" title="MazeEventWalkedKilled.html" xlink:actuate="onRequest" xlink:href="MazeEventWalkedKilled.html" xlink:show="new" xlink:title="MazeEventWalkedKilled.html" xlink:type="simple"><rect codeLine="5" fill="#FEFECE" filter="url(#f1u4ubyqqmmn5s)" height="103.5313" id="nz.ac.vuw.ecs.swen225.gp20.maze.event.MazeEventWalkedKilled" style="stroke: #A80036; stroke-width: 1.5;" width="345" x="7" y="107"/><ellipse cx="77.75" cy="127.0938" fill="#ADD1B2" rx="11" ry="11" style="stroke: #A80036; stroke-width: 1.0;"/><path d="M80.5156,122.9688 Q80.6719,122.75 80.8594,122.6406 Q81.0469,122.5313 81.2656,122.5313 Q81.6406,122.5313 81.875,122.7969 Q82.1094,123.0469 82.1094,123.6563 L82.1094,125.1094 Q82.1094,125.7188 81.875,125.9844 Q81.6406,126.25 81.2656,126.25 Q80.9219,126.25 80.7188,126.0469 Q80.5156,125.8594 80.4063,125.3438 Q80.3594,124.9844 80.1719,124.7969 Q79.8438,124.4219 79.2344,124.2031 Q78.625,123.9844 78,123.9844 Q77.2344,123.9844 76.5938,124.3125 Q75.9688,124.6406 75.4688,125.3906 Q74.9844,126.1406 74.9844,127.1719 L74.9844,128.2656 Q74.9844,129.5 75.875,130.3281 Q76.7656,131.1406 78.3594,131.1406 Q79.2969,131.1406 79.9531,130.8906 Q80.3438,130.7344 80.7656,130.2969 Q81.0313,130.0313 81.1719,129.9531 Q81.3281,129.875 81.5313,129.875 Q81.8594,129.875 82.1094,130.1406 Q82.375,130.3906 82.375,130.7344 Q82.375,131.0781 82.0313,131.4844 Q81.5313,132.0625 80.7344,132.3906 Q79.6563,132.8438 78.3594,132.8438 Q76.8438,132.8438 75.6406,132.2188 Q74.6563,131.7188 73.9688,130.6563 Q73.2813,129.5781 73.2813,128.2969 L73.2813,127.1406 Q73.2813,125.8125 73.8906,124.6719 Q74.5156,123.5156 75.6094,122.9063 Q76.7031,122.2813 77.9375,122.2813 Q78.6719,122.2813 79.3125,122.4531 Q79.9688,122.6094 80.5156,122.9688 Z "/><text fill="#000000" font-family="sans-serif" font-size="14" lengthAdjust="spacingAndGlyphs" textLength="150" x="120.75" y="126.5332">MazeEventWalkedKilled</text><text fill="#000000" font-family="sans-serif" font-size="10" lengthAdjust="spacingAndGlyphs" textLength="195" x="98.25" y="139.9902">nz.ac.vuw.ecs.swen225.gp20.maze.event</text><line style="stroke: #A80036; stroke-width: 1.5;" x1="8" x2="351" y1="147.1875" y2="147.1875"/><ellipse cx="18" cy="158.1875" fill="#84BE84" rx="3" ry="3" style="stroke: #038048; stroke-width: 1.0;"/><text fill="#000000" font-family="sans-serif" font-size="11" lengthAdjust="spacingAndGlyphs" textLength="319" x="27" y="162.6064">MazeEventWalkedKilled(Maze, Enemy, PathTile, PathTile, Direction)</text><ellipse cx="18" cy="172.0234" fill="#84BE84" rx="3" ry="3" style="stroke: #038048; stroke-width: 1.0;"/><text fill="#000000" font-family="sans-serif" font-size="11" lengthAdjust="spacingAndGlyphs" textLength="93" x="27" y="176.4424">getEnemy(): Enemy</text><ellipse cx="18" cy="185.8594" fill="#84BE84" rx="3" ry="3" style="stroke: #038048; stroke-width: 1.0;"/><text fill="#000000" font-family="sans-serif" font-size="11" lengthAdjust="spacingAndGlyphs" textLength="162" x="27" y="190.2783">receive(MazeEventListener): void</text><ellipse cx="18" cy="199.6953" fill="#84BE84" rx="3" ry="3" style="stroke: #038048; stroke-width: 1.0;"/><text fill="#000000" font-family="sans-serif" font-size="11" lengthAdjust="spacingAndGlyphs" textLength="61" x="27" y="204.1143">invert(): void</text></a><!--MD5=[7faeee9bf455f002452f8adabf2713b5]
class nz.ac.vuw.ecs.swen225.gp20.maze.event.MazeEventWalked--><a href="MazeEventWalked.html" target="_top" title="MazeEventWalked.html" xlink:actuate="onRequest" xlink:href="MazeEventWalked.html" xlink:show="new" xlink:title="MazeEventWalked.html" xlink:type="simple"><rect codeLine="12" fill="#FEFECE" filter="url(#f1u4ubyqqmmn5s)" height="40.1875" id="nz.ac.vuw.ecs.swen225.gp20.maze.event.MazeEventWalked" style="stroke: #A80036; stroke-width: 1.5;" width="227" x="66" y="7"/><ellipse cx="81" cy="27.0938" fill="#ADD1B2" rx="11" ry="11" style="stroke: #A80036; stroke-width: 1.0;"/><path d="M83.7656,22.9688 Q83.9219,22.75 84.1094,22.6406 Q84.2969,22.5313 84.5156,22.5313 Q84.8906,22.5313 85.125,22.7969 Q85.3594,23.0469 85.3594,23.6563 L85.3594,25.1094 Q85.3594,25.7188 85.125,25.9844 Q84.8906,26.25 84.5156,26.25 Q84.1719,26.25 83.9688,26.0469 Q83.7656,25.8594 83.6563,25.3438 Q83.6094,24.9844 83.4219,24.7969 Q83.0938,24.4219 82.4844,24.2031 Q81.875,23.9844 81.25,23.9844 Q80.4844,23.9844 79.8438,24.3125 Q79.2188,24.6406 78.7188,25.3906 Q78.2344,26.1406 78.2344,27.1719 L78.2344,28.2656 Q78.2344,29.5 79.125,30.3281 Q80.0156,31.1406 81.6094,31.1406 Q82.5469,31.1406 83.2031,30.8906 Q83.5938,30.7344 84.0156,30.2969 Q84.2813,30.0313 84.4219,29.9531 Q84.5781,29.875 84.7813,29.875 Q85.1094,29.875 85.3594,30.1406 Q85.625,30.3906 85.625,30.7344 Q85.625,31.0781 85.2813,31.4844 Q84.7813,32.0625 83.9844,32.3906 Q82.9063,32.8438 81.6094,32.8438 Q80.0938,32.8438 78.8906,32.2188 Q77.9063,31.7188 77.2188,30.6563 Q76.5313,29.5781 76.5313,28.2969 L76.5313,27.1406 Q76.5313,25.8125 77.1406,24.6719 Q77.7656,23.5156 78.8594,22.9063 Q79.9531,22.2813 81.1875,22.2813 Q81.9219,22.2813 82.5625,22.4531 Q83.2188,22.6094 83.7656,22.9688 Z "/><text fill="#000000" font-family="sans-serif" font-size="14" lengthAdjust="spacingAndGlyphs" textLength="116" x="134.5" y="26.5332">MazeEventWalked</text><text fill="#000000" font-family="sans-serif" font-size="10" lengthAdjust="spacingAndGlyphs" textLength="195" x="95" y="39.9902">nz.ac.vuw.ecs.swen225.gp20.maze.event</text></a><!--MD5=[514c5ded2f8b23c7296ae701d3b9c488]
reverse link nz.ac.vuw.ecs.swen225.gp20.maze.event.MazeEventWalked to nz.ac.vuw.ecs.swen225.gp20.maze.event.MazeEventWalkedKilled--><path codeLine="14" d="M179.5,67.49 C179.5,79.93 179.5,93.86 179.5,106.99 " fill="none" id="nz.ac.vuw.ecs.swen225.gp20.maze.event.MazeEventWalked-backto-nz.ac.vuw.ecs.swen225.gp20.maze.event.MazeEventWalkedKilled" style="stroke: #A80036; stroke-width: 1.0;"/><polygon fill="none" points="172.5,67.18,179.5,47.18,186.5,67.18,172.5,67.18" style="stroke: #A80036; stroke-width: 1.0;"/><text fill="#888888" font-family="sans-serif" font-size="10" lengthAdjust="spacingAndGlyphs" textLength="190" x="81.5" y="233.9121">UMLDoclet 2.0.12, PlantUML 1.2020.16</text><!--MD5=[677263c11931cde1d61f94e2f193a5b3]
@startuml
    set namespaceSeparator none
    hide empty fields
    hide empty methods

    class "<size:14>MazeEventWalkedKilled\n<size:10>nz.ac.vuw.ecs.swen225.gp20.maze.event" as nz.ac.vuw.ecs.swen225.gp20.maze.event.MazeEventWalkedKilled [[MazeEventWalkedKilled.html]] {
        +MazeEventWalkedKilled(Maze, Enemy, PathTile, PathTile, Direction)
        +getEnemy(): Enemy
        +receive(MazeEventListener): void
        +invert(): void
    }

    class "<size:14>MazeEventWalked\n<size:10>nz.ac.vuw.ecs.swen225.gp20.maze.event" as nz.ac.vuw.ecs.swen225.gp20.maze.event.MazeEventWalked [[MazeEventWalked.html]]

    nz.ac.vuw.ecs.swen225.gp20.maze.event.MazeEventWalked <|- - nz.ac.vuw.ecs.swen225.gp20.maze.event.MazeEventWalkedKilled

    center footer UMLDoclet 2.0.12, PlantUML 1.2020.16
@enduml

PlantUML version 1.2020.16(Mon Aug 24 08:20:43 NZST 2020)
(APACHE source distribution)
Java Runtime: OpenJDK Runtime Environment
JVM: OpenJDK 64-Bit Server VM
Default Encoding: Cp1252
Language: en
Country: NZ
--></g></svg>