<?xml version="1.0" encoding="UTF-8" standalone="no"?><svg xmlns="http://www.w3.org/2000/svg" xmlns:xlink="http://www.w3.org/1999/xlink" contentScriptType="application/ecmascript" contentStyleType="text/css" height="247px" preserveAspectRatio="none" style="width:355px;height:247px;" version="1.1" viewBox="0 0 355 247" width="355px" zoomAndPan="magnify"><defs><filter height="300%" id="f27kj4r0df4yv" width="300%" x="-1" y="-1"><feGaussianBlur result="blurOut" stdDeviation="2.0"/><feColorMatrix in="blurOut" result="blurOut2" type="matrix" values="0 0 0 0 0 0 0 0 0 0 0 0 0 0 0 0 0 0 .4 0"/><feOffset dx="4.0" dy="4.0" in="blurOut2" result="blurOut3"/><feBlend in="SourceGraphic" in2="blurOut3" mode="normal"/></filter></defs><g><!--MD5=[9218a1996646d0cfe210a3be0cd58be0]
class nz.ac.vuw.ecs.swen225.gp20.maze.event.MazeEventPushed--><a href="MazeEventPushed.html" target="_top" title="MazeEventPushed.html" xlink:actuate="onRequest" xlink:href="MazeEventPushed.html" xlink:show="new" xlink:title="MazeEventPushed.html" xlink:type="simple"><rect codeLine="5" fill="#FEFECE" filter="url(#f27kj4r0df4yv)" height="103.5313" id="nz.ac.vuw.ecs.swen225.gp20.maze.event.MazeEventPushed" style="stroke: #A80036; stroke-width: 1.5;" width="329" x="7" y="107"/><ellipse cx="69.75" cy="127.0938" fill="#ADD1B2" rx="11" ry="11" style="stroke: #A80036; stroke-width: 1.0;"/><path d="M72.5156,122.9688 Q72.6719,122.75 72.8594,122.6406 Q73.0469,122.5313 73.2656,122.5313 Q73.6406,122.5313 73.875,122.7969 Q74.1094,123.0469 74.1094,123.6563 L74.1094,125.1094 Q74.1094,125.7188 73.875,125.9844 Q73.6406,126.25 73.2656,126.25 Q72.9219,126.25 72.7188,126.0469 Q72.5156,125.8594 72.4063,125.3438 Q72.3594,124.9844 72.1719,124.7969 Q71.8438,124.4219 71.2344,124.2031 Q70.625,123.9844 70,123.9844 Q69.2344,123.9844 68.5938,124.3125 Q67.9688,124.6406 67.4688,125.3906 Q66.9844,126.1406 66.9844,127.1719 L66.9844,128.2656 Q66.9844,129.5 67.875,130.3281 Q68.7656,131.1406 70.3594,131.1406 Q71.2969,131.1406 71.9531,130.8906 Q72.3438,130.7344 72.7656,130.2969 Q73.0313,130.0313 73.1719,129.9531 Q73.3281,129.875 73.5313,129.875 Q73.8594,129.875 74.1094,130.1406 Q74.375,130.3906 74.375,130.7344 Q74.375,131.0781 74.0313,131.4844 Q73.5313,132.0625 72.7344,132.3906 Q71.6563,132.8438 70.3594,132.8438 Q68.8438,132.8438 67.6406,132.2188 Q66.6563,131.7188 65.9688,130.6563 Q65.2813,129.5781 65.2813,128.2969 L65.2813,127.1406 Q65.2813,125.8125 65.8906,124.6719 Q66.5156,123.5156 67.6094,122.9063 Q68.7031,122.2813 69.9375,122.2813 Q70.6719,122.2813 71.3125,122.4531 Q71.9688,122.6094 72.5156,122.9688 Z "/><text fill="#000000" font-family="sans-serif" font-size="14" lengthAdjust="spacingAndGlyphs" textLength="117" x="129.25" y="126.5332">MazeEventPushed</text><text fill="#000000" font-family="sans-serif" font-size="10" lengthAdjust="spacingAndGlyphs" textLength="195" x="90.25" y="139.9902">nz.ac.vuw.ecs.swen225.gp20.maze.event</text><line style="stroke: #A80036; stroke-width: 1.5;" x1="8" x2="335" y1="147.1875" y2="147.1875"/><ellipse cx="18" cy="158.1875" fill="#84BE84" rx="3" ry="3" style="stroke: #038048; stroke-width: 1.0;"/><text fill="#000000" font-family="sans-serif" font-size="11" lengthAdjust="spacingAndGlyphs" textLength="303" x="27" y="162.6064">MazeEventPushed(Maze, PathTile, PathTile, Direction, Movable)</text><ellipse cx="18" cy="172.0234" fill="#84BE84" rx="3" ry="3" style="stroke: #038048; stroke-width: 1.0;"/><text fill="#000000" font-family="sans-serif" font-size="11" lengthAdjust="spacingAndGlyphs" textLength="105" x="27" y="176.4424">getPushed(): Movable</text><ellipse cx="18" cy="185.8594" fill="#84BE84" rx="3" ry="3" style="stroke: #038048; stroke-width: 1.0;"/><text fill="#000000" font-family="sans-serif" font-size="11" lengthAdjust="spacingAndGlyphs" textLength="162" x="27" y="190.2783">receive(MazeEventListener): void</text><ellipse cx="18" cy="199.6953" fill="#84BE84" rx="3" ry="3" style="stroke: #038048; stroke-width: 1.0;"/><text fill="#000000" font-family="sans-serif" font-size="11" lengthAdjust="spacingAndGlyphs" textLength="61" x="27" y="204.1143">invert(): void</text></a><!--MD5=[7faeee9bf455f002452f8adabf2713b5]
class nz.ac.vuw.ecs.swen225.gp20.maze.event.MazeEventWalked--><a href="MazeEventWalked.html" target="_top" title="MazeEventWalked.html" xlink:actuate="onRequest" xlink:href="MazeEventWalked.html" xlink:show="new" xlink:title="MazeEventWalked.html" xlink:type="simple"><rect codeLine="12" fill="#FEFECE" filter="url(#f27kj4r0df4yv)" height="40.1875" id="nz.ac.vuw.ecs.swen225.gp20.maze.event.MazeEventWalked" style="stroke: #A80036; stroke-width: 1.5;" width="227" x="58" y="7"/><ellipse cx="73" cy="27.0938" fill="#ADD1B2" rx="11" ry="11" style="stroke: #A80036; stroke-width: 1.0;"/><path d="M75.7656,22.9688 Q75.9219,22.75 76.1094,22.6406 Q76.2969,22.5313 76.5156,22.5313 Q76.8906,22.5313 77.125,22.7969 Q77.3594,23.0469 77.3594,23.6563 L77.3594,25.1094 Q77.3594,25.7188 77.125,25.9844 Q76.8906,26.25 76.5156,26.25 Q76.1719,26.25 75.9688,26.0469 Q75.7656,25.8594 75.6563,25.3438 Q75.6094,24.9844 75.4219,24.7969 Q75.0938,24.4219 74.4844,24.2031 Q73.875,23.9844 73.25,23.9844 Q72.4844,23.9844 71.8438,24.3125 Q71.2188,24.6406 70.7188,25.3906 Q70.2344,26.1406 70.2344,27.1719 L70.2344,28.2656 Q70.2344,29.5 71.125,30.3281 Q72.0156,31.1406 73.6094,31.1406 Q74.5469,31.1406 75.2031,30.8906 Q75.5938,30.7344 76.0156,30.2969 Q76.2813,30.0313 76.4219,29.9531 Q76.5781,29.875 76.7813,29.875 Q77.1094,29.875 77.3594,30.1406 Q77.625,30.3906 77.625,30.7344 Q77.625,31.0781 77.2813,31.4844 Q76.7813,32.0625 75.9844,32.3906 Q74.9063,32.8438 73.6094,32.8438 Q72.0938,32.8438 70.8906,32.2188 Q69.9063,31.7188 69.2188,30.6563 Q68.5313,29.5781 68.5313,28.2969 L68.5313,27.1406 Q68.5313,25.8125 69.1406,24.6719 Q69.7656,23.5156 70.8594,22.9063 Q71.9531,22.2813 73.1875,22.2813 Q73.9219,22.2813 74.5625,22.4531 Q75.2188,22.6094 75.7656,22.9688 Z "/><text fill="#000000" font-family="sans-serif" font-size="14" lengthAdjust="spacingAndGlyphs" textLength="116" x="126.5" y="26.5332">MazeEventWalked</text><text fill="#000000" font-family="sans-serif" font-size="10" lengthAdjust="spacingAndGlyphs" textLength="195" x="87" y="39.9902">nz.ac.vuw.ecs.swen225.gp20.maze.event</text></a><!--MD5=[ef13044ea2a0e1d21811435559044776]
reverse link nz.ac.vuw.ecs.swen225.gp20.maze.event.MazeEventWalked to nz.ac.vuw.ecs.swen225.gp20.maze.event.MazeEventPushed--><path codeLine="14" d="M171.5,67.49 C171.5,79.93 171.5,93.86 171.5,106.99 " fill="none" id="nz.ac.vuw.ecs.swen225.gp20.maze.event.MazeEventWalked-backto-nz.ac.vuw.ecs.swen225.gp20.maze.event.MazeEventPushed" style="stroke: #A80036; stroke-width: 1.0;"/><polygon fill="none" points="164.5,67.18,171.5,47.18,178.5,67.18,164.5,67.18" style="stroke: #A80036; stroke-width: 1.0;"/><text fill="#888888" font-family="sans-serif" font-size="10" lengthAdjust="spacingAndGlyphs" textLength="190" x="73.5" y="233.9121">UMLDoclet 2.0.12, PlantUML 1.2020.16</text><!--MD5=[1930d74a15937d9efab7a4dffcb02410]
@startuml
    set namespaceSeparator none
    hide empty fields
    hide empty methods

    class "<size:14>MazeEventPushed\n<size:10>nz.ac.vuw.ecs.swen225.gp20.maze.event" as nz.ac.vuw.ecs.swen225.gp20.maze.event.MazeEventPushed [[MazeEventPushed.html]] {
        +MazeEventPushed(Maze, PathTile, PathTile, Direction, Movable)
        +getPushed(): Movable
        +receive(MazeEventListener): void
        +invert(): void
    }

    class "<size:14>MazeEventWalked\n<size:10>nz.ac.vuw.ecs.swen225.gp20.maze.event" as nz.ac.vuw.ecs.swen225.gp20.maze.event.MazeEventWalked [[MazeEventWalked.html]]

    nz.ac.vuw.ecs.swen225.gp20.maze.event.MazeEventWalked <|- - nz.ac.vuw.ecs.swen225.gp20.maze.event.MazeEventPushed

    center footer UMLDoclet 2.0.12, PlantUML 1.2020.16
@enduml

PlantUML version 1.2020.16(Mon Aug 24 08:20:43 NZST 2020)
(APACHE source distribution)
Java Runtime: OpenJDK Runtime Environment
JVM: OpenJDK 64-Bit Server VM
Default Encoding: Cp1252
Language: en
Country: NZ
--></g></svg>