<?xml version="1.0" encoding="UTF-8" standalone="no"?><svg xmlns="http://www.w3.org/2000/svg" xmlns:xlink="http://www.w3.org/1999/xlink" contentScriptType="application/ecmascript" contentStyleType="text/css" height="296px" preserveAspectRatio="none" style="width:373px;height:296px;" version="1.1" viewBox="0 0 373 296" width="373px" zoomAndPan="magnify"><defs><filter height="300%" id="f4hba56qhojtm" width="300%" x="-1" y="-1"><feGaussianBlur result="blurOut" stdDeviation="2.0"/><feColorMatrix in="blurOut" result="blurOut2" type="matrix" values="0 0 0 0 0 0 0 0 0 0 0 0 0 0 0 0 0 0 .4 0"/><feOffset dx="4.0" dy="4.0" in="blurOut2" result="blurOut3"/><feBlend in="SourceGraphic" in2="blurOut3" mode="normal"/></filter></defs><g><!--MD5=[cc5882e467b708417435a107584d371b]
class nz.ac.vuw.ecs.swen225.gp20.maze.event.MazeEventUnlocked--><a href="MazeEventUnlocked.html" target="_top" title="MazeEventUnlocked.html" xlink:actuate="onRequest" xlink:href="MazeEventUnlocked.html" xlink:show="new" xlink:title="MazeEventUnlocked.html" xlink:type="simple"><rect codeLine="5" fill="#FEFECE" filter="url(#f4hba56qhojtm)" height="153.0391" id="nz.ac.vuw.ecs.swen225.gp20.maze.event.MazeEventUnlocked" style="stroke: #A80036; stroke-width: 1.5;" width="345" x="9" y="107"/><ellipse cx="79.75" cy="127.0938" fill="#ADD1B2" rx="11" ry="11" style="stroke: #A80036; stroke-width: 1.0;"/><path d="M82.5156,122.9688 Q82.6719,122.75 82.8594,122.6406 Q83.0469,122.5313 83.2656,122.5313 Q83.6406,122.5313 83.875,122.7969 Q84.1094,123.0469 84.1094,123.6563 L84.1094,125.1094 Q84.1094,125.7188 83.875,125.9844 Q83.6406,126.25 83.2656,126.25 Q82.9219,126.25 82.7188,126.0469 Q82.5156,125.8594 82.4063,125.3438 Q82.3594,124.9844 82.1719,124.7969 Q81.8438,124.4219 81.2344,124.2031 Q80.625,123.9844 80,123.9844 Q79.2344,123.9844 78.5938,124.3125 Q77.9688,124.6406 77.4688,125.3906 Q76.9844,126.1406 76.9844,127.1719 L76.9844,128.2656 Q76.9844,129.5 77.875,130.3281 Q78.7656,131.1406 80.3594,131.1406 Q81.2969,131.1406 81.9531,130.8906 Q82.3438,130.7344 82.7656,130.2969 Q83.0313,130.0313 83.1719,129.9531 Q83.3281,129.875 83.5313,129.875 Q83.8594,129.875 84.1094,130.1406 Q84.375,130.3906 84.375,130.7344 Q84.375,131.0781 84.0313,131.4844 Q83.5313,132.0625 82.7344,132.3906 Q81.6563,132.8438 80.3594,132.8438 Q78.8438,132.8438 77.6406,132.2188 Q76.6563,131.7188 75.9688,130.6563 Q75.2813,129.5781 75.2813,128.2969 L75.2813,127.1406 Q75.2813,125.8125 75.8906,124.6719 Q76.5156,123.5156 77.6094,122.9063 Q78.7031,122.2813 79.9375,122.2813 Q80.6719,122.2813 81.3125,122.4531 Q81.9688,122.6094 82.5156,122.9688 Z "/><text fill="#000000" font-family="sans-serif" font-size="14" lengthAdjust="spacingAndGlyphs" textLength="127" x="134.25" y="126.5332">MazeEventUnlocked</text><text fill="#000000" font-family="sans-serif" font-size="10" lengthAdjust="spacingAndGlyphs" textLength="195" x="100.25" y="139.9902">nz.ac.vuw.ecs.swen225.gp20.maze.event</text><line style="stroke: #A80036; stroke-width: 1.5;" x1="10" x2="353" y1="147.1875" y2="147.1875"/><polygon fill="none" points="20,153.1875,24,157.1875,20,161.1875,16,157.1875" style="stroke: #B38D22; stroke-width: 1.0;"/><text fill="#000000" font-family="sans-serif" font-size="11" lengthAdjust="spacingAndGlyphs" textLength="51" x="29" y="162.6064">door: Door</text><polygon fill="none" points="20,167.0234,24,171.0234,20,175.0234,16,171.0234" style="stroke: #B38D22; stroke-width: 1.0;"/><text fill="#000000" font-family="sans-serif" font-size="11" lengthAdjust="spacingAndGlyphs" textLength="42" x="29" y="176.4424">key: Key</text><line style="stroke: #A80036; stroke-width: 1.5;" x1="10" x2="353" y1="182.8594" y2="182.8594"/><ellipse cx="20" cy="193.8594" fill="#84BE84" rx="3" ry="3" style="stroke: #038048; stroke-width: 1.0;"/><text fill="#000000" font-family="sans-serif" font-size="11" lengthAdjust="spacingAndGlyphs" textLength="319" x="29" y="198.2783">MazeEventUnlocked(Maze, PathTile, PathTile, Direction, Door, Key)</text><ellipse cx="20" cy="207.6953" fill="#84BE84" rx="3" ry="3" style="stroke: #038048; stroke-width: 1.0;"/><text fill="#000000" font-family="sans-serif" font-size="11" lengthAdjust="spacingAndGlyphs" textLength="75" x="29" y="212.1143">getDoor(): Door</text><ellipse cx="20" cy="221.5313" fill="#84BE84" rx="3" ry="3" style="stroke: #038048; stroke-width: 1.0;"/><text fill="#000000" font-family="sans-serif" font-size="11" lengthAdjust="spacingAndGlyphs" textLength="67" x="29" y="225.9502">getKey(): Key</text><ellipse cx="20" cy="235.3672" fill="#84BE84" rx="3" ry="3" style="stroke: #038048; stroke-width: 1.0;"/><text fill="#000000" font-family="sans-serif" font-size="11" lengthAdjust="spacingAndGlyphs" textLength="162" x="29" y="239.7861">receive(MazeEventListener): void</text><ellipse cx="20" cy="249.2031" fill="#84BE84" rx="3" ry="3" style="stroke: #038048; stroke-width: 1.0;"/><text fill="#000000" font-family="sans-serif" font-size="11" lengthAdjust="spacingAndGlyphs" textLength="61" x="29" y="253.6221">invert(): void</text></a><!--MD5=[7faeee9bf455f002452f8adabf2713b5]
class nz.ac.vuw.ecs.swen225.gp20.maze.event.MazeEventWalked--><a href="MazeEventWalked.html" target="_top" title="MazeEventWalked.html" xlink:actuate="onRequest" xlink:href="MazeEventWalked.html" xlink:show="new" xlink:title="MazeEventWalked.html" xlink:type="simple"><rect codeLine="15" fill="#FEFECE" filter="url(#f4hba56qhojtm)" height="40.1875" id="nz.ac.vuw.ecs.swen225.gp20.maze.event.MazeEventWalked" style="stroke: #A80036; stroke-width: 1.5;" width="227" x="68" y="7"/><ellipse cx="83" cy="27.0938" fill="#ADD1B2" rx="11" ry="11" style="stroke: #A80036; stroke-width: 1.0;"/><path d="M85.7656,22.9688 Q85.9219,22.75 86.1094,22.6406 Q86.2969,22.5313 86.5156,22.5313 Q86.8906,22.5313 87.125,22.7969 Q87.3594,23.0469 87.3594,23.6563 L87.3594,25.1094 Q87.3594,25.7188 87.125,25.9844 Q86.8906,26.25 86.5156,26.25 Q86.1719,26.25 85.9688,26.0469 Q85.7656,25.8594 85.6563,25.3438 Q85.6094,24.9844 85.4219,24.7969 Q85.0938,24.4219 84.4844,24.2031 Q83.875,23.9844 83.25,23.9844 Q82.4844,23.9844 81.8438,24.3125 Q81.2188,24.6406 80.7188,25.3906 Q80.2344,26.1406 80.2344,27.1719 L80.2344,28.2656 Q80.2344,29.5 81.125,30.3281 Q82.0156,31.1406 83.6094,31.1406 Q84.5469,31.1406 85.2031,30.8906 Q85.5938,30.7344 86.0156,30.2969 Q86.2813,30.0313 86.4219,29.9531 Q86.5781,29.875 86.7813,29.875 Q87.1094,29.875 87.3594,30.1406 Q87.625,30.3906 87.625,30.7344 Q87.625,31.0781 87.2813,31.4844 Q86.7813,32.0625 85.9844,32.3906 Q84.9063,32.8438 83.6094,32.8438 Q82.0938,32.8438 80.8906,32.2188 Q79.9063,31.7188 79.2188,30.6563 Q78.5313,29.5781 78.5313,28.2969 L78.5313,27.1406 Q78.5313,25.8125 79.1406,24.6719 Q79.7656,23.5156 80.8594,22.9063 Q81.9531,22.2813 83.1875,22.2813 Q83.9219,22.2813 84.5625,22.4531 Q85.2188,22.6094 85.7656,22.9688 Z "/><text fill="#000000" font-family="sans-serif" font-size="14" lengthAdjust="spacingAndGlyphs" textLength="116" x="136.5" y="26.5332">MazeEventWalked</text><text fill="#000000" font-family="sans-serif" font-size="10" lengthAdjust="spacingAndGlyphs" textLength="195" x="97" y="39.9902">nz.ac.vuw.ecs.swen225.gp20.maze.event</text></a><!--MD5=[0db67411395696376b37b510bbd3766e]
reverse link nz.ac.vuw.ecs.swen225.gp20.maze.event.MazeEventWalked to nz.ac.vuw.ecs.swen225.gp20.maze.event.MazeEventUnlocked--><path codeLine="17" d="M181.5,67.42 C181.5,79.49 181.5,93.2 181.5,106.84 " fill="none" id="nz.ac.vuw.ecs.swen225.gp20.maze.event.MazeEventWalked-backto-nz.ac.vuw.ecs.swen225.gp20.maze.event.MazeEventUnlocked" style="stroke: #A80036; stroke-width: 1.0;"/><polygon fill="none" points="174.5,67.26,181.5,47.26,188.5,67.26,174.5,67.26" style="stroke: #A80036; stroke-width: 1.0;"/><text fill="#888888" font-family="sans-serif" font-size="10" lengthAdjust="spacingAndGlyphs" textLength="190" x="82.5" y="283.4199">UMLDoclet 2.0.12, PlantUML 1.2020.16</text><!--MD5=[4841ebe602b75e3f4fb5d399a23d1d9e]
@startuml
    set namespaceSeparator none
    hide empty fields
    hide empty methods

    class "<size:14>MazeEventUnlocked\n<size:10>nz.ac.vuw.ecs.swen225.gp20.maze.event" as nz.ac.vuw.ecs.swen225.gp20.maze.event.MazeEventUnlocked [[MazeEventUnlocked.html]] {
        #door: Door
        #key: Key
        +MazeEventUnlocked(Maze, PathTile, PathTile, Direction, Door, Key)
        +getDoor(): Door
        +getKey(): Key
        +receive(MazeEventListener): void
        +invert(): void
    }

    class "<size:14>MazeEventWalked\n<size:10>nz.ac.vuw.ecs.swen225.gp20.maze.event" as nz.ac.vuw.ecs.swen225.gp20.maze.event.MazeEventWalked [[MazeEventWalked.html]]

    nz.ac.vuw.ecs.swen225.gp20.maze.event.MazeEventWalked <|- - nz.ac.vuw.ecs.swen225.gp20.maze.event.MazeEventUnlocked

    center footer UMLDoclet 2.0.12, PlantUML 1.2020.16
@enduml

PlantUML version 1.2020.16(Mon Aug 24 08:20:43 NZST 2020)
(APACHE source distribution)
Java Runtime: OpenJDK Runtime Environment
JVM: OpenJDK 64-Bit Server VM
Default Encoding: Cp1252
Language: en
Country: NZ
--></g></svg>