<?xml version="1.0" encoding="UTF-8" standalone="no"?><svg xmlns="http://www.w3.org/2000/svg" xmlns:xlink="http://www.w3.org/1999/xlink" contentScriptType="application/ecmascript" contentStyleType="text/css" height="233px" preserveAspectRatio="none" style="width:295px;height:233px;" version="1.1" viewBox="0 0 295 233" width="295px" zoomAndPan="magnify"><defs><filter height="300%" id="fmpl2wenfruo4" width="300%" x="-1" y="-1"><feGaussianBlur result="blurOut" stdDeviation="2.0"/><feColorMatrix in="blurOut" result="blurOut2" type="matrix" values="0 0 0 0 0 0 0 0 0 0 0 0 0 0 0 0 0 0 .4 0"/><feOffset dx="4.0" dy="4.0" in="blurOut2" result="blurOut3"/><feBlend in="SourceGraphic" in2="blurOut3" mode="normal"/></filter></defs><g><!--MD5=[3bcefd5e731841f71cccca0cc9ace5c2]
class nz.ac.vuw.ecs.swen225.gp20.maze.event.MazeEventWon--><a href="MazeEventWon.html" target="_top" title="MazeEventWon.html" xlink:actuate="onRequest" xlink:href="MazeEventWon.html" xlink:show="new" xlink:title="MazeEventWon.html" xlink:type="simple"><rect codeLine="5" fill="#FEFECE" filter="url(#fmpl2wenfruo4)" height="89.6953" id="nz.ac.vuw.ecs.swen225.gp20.maze.event.MazeEventWon" style="stroke: #A80036; stroke-width: 1.5;" width="269" x="7" y="107"/><ellipse cx="40.9" cy="127.0938" fill="#ADD1B2" rx="11" ry="11" style="stroke: #A80036; stroke-width: 1.0;"/><path d="M43.6656,122.9688 Q43.8219,122.75 44.0094,122.6406 Q44.1969,122.5313 44.4156,122.5313 Q44.7906,122.5313 45.025,122.7969 Q45.2594,123.0469 45.2594,123.6563 L45.2594,125.1094 Q45.2594,125.7188 45.025,125.9844 Q44.7906,126.25 44.4156,126.25 Q44.0719,126.25 43.8688,126.0469 Q43.6656,125.8594 43.5563,125.3438 Q43.5094,124.9844 43.3219,124.7969 Q42.9938,124.4219 42.3844,124.2031 Q41.775,123.9844 41.15,123.9844 Q40.3844,123.9844 39.7438,124.3125 Q39.1188,124.6406 38.6188,125.3906 Q38.1344,126.1406 38.1344,127.1719 L38.1344,128.2656 Q38.1344,129.5 39.025,130.3281 Q39.9156,131.1406 41.5094,131.1406 Q42.4469,131.1406 43.1031,130.8906 Q43.4938,130.7344 43.9156,130.2969 Q44.1813,130.0313 44.3219,129.9531 Q44.4781,129.875 44.6813,129.875 Q45.0094,129.875 45.2594,130.1406 Q45.525,130.3906 45.525,130.7344 Q45.525,131.0781 45.1813,131.4844 Q44.6813,132.0625 43.8844,132.3906 Q42.8063,132.8438 41.5094,132.8438 Q39.9938,132.8438 38.7906,132.2188 Q37.8063,131.7188 37.1188,130.6563 Q36.4313,129.5781 36.4313,128.2969 L36.4313,127.1406 Q36.4313,125.8125 37.0406,124.6719 Q37.6656,123.5156 38.7594,122.9063 Q39.8531,122.2813 41.0875,122.2813 Q41.8219,122.2813 42.4625,122.4531 Q43.1188,122.6094 43.6656,122.9688 Z "/><text fill="#000000" font-family="sans-serif" font-size="14" lengthAdjust="spacingAndGlyphs" textLength="98" x="107.6" y="126.5332">MazeEventWon</text><text fill="#000000" font-family="sans-serif" font-size="10" lengthAdjust="spacingAndGlyphs" textLength="195" x="59.1" y="139.9902">nz.ac.vuw.ecs.swen225.gp20.maze.event</text><line style="stroke: #A80036; stroke-width: 1.5;" x1="8" x2="275" y1="147.1875" y2="147.1875"/><ellipse cx="18" cy="158.1875" fill="#84BE84" rx="3" ry="3" style="stroke: #038048; stroke-width: 1.0;"/><text fill="#000000" font-family="sans-serif" font-size="11" lengthAdjust="spacingAndGlyphs" textLength="243" x="27" y="162.6064">MazeEventWon(Maze, PathTile, PathTile, Direction)</text><ellipse cx="18" cy="172.0234" fill="#84BE84" rx="3" ry="3" style="stroke: #038048; stroke-width: 1.0;"/><text fill="#000000" font-family="sans-serif" font-size="11" lengthAdjust="spacingAndGlyphs" textLength="162" x="27" y="176.4424">receive(MazeEventListener): void</text><ellipse cx="18" cy="185.8594" fill="#84BE84" rx="3" ry="3" style="stroke: #038048; stroke-width: 1.0;"/><text fill="#000000" font-family="sans-serif" font-size="11" lengthAdjust="spacingAndGlyphs" textLength="61" x="27" y="190.2783">invert(): void</text></a><!--MD5=[7faeee9bf455f002452f8adabf2713b5]
class nz.ac.vuw.ecs.swen225.gp20.maze.event.MazeEventWalked--><a href="MazeEventWalked.html" target="_top" title="MazeEventWalked.html" xlink:actuate="onRequest" xlink:href="MazeEventWalked.html" xlink:show="new" xlink:title="MazeEventWalked.html" xlink:type="simple"><rect codeLine="11" fill="#FEFECE" filter="url(#fmpl2wenfruo4)" height="40.1875" id="nz.ac.vuw.ecs.swen225.gp20.maze.event.MazeEventWalked" style="stroke: #A80036; stroke-width: 1.5;" width="227" x="28" y="7"/><ellipse cx="43" cy="27.0938" fill="#ADD1B2" rx="11" ry="11" style="stroke: #A80036; stroke-width: 1.0;"/><path d="M45.7656,22.9688 Q45.9219,22.75 46.1094,22.6406 Q46.2969,22.5313 46.5156,22.5313 Q46.8906,22.5313 47.125,22.7969 Q47.3594,23.0469 47.3594,23.6563 L47.3594,25.1094 Q47.3594,25.7188 47.125,25.9844 Q46.8906,26.25 46.5156,26.25 Q46.1719,26.25 45.9688,26.0469 Q45.7656,25.8594 45.6563,25.3438 Q45.6094,24.9844 45.4219,24.7969 Q45.0938,24.4219 44.4844,24.2031 Q43.875,23.9844 43.25,23.9844 Q42.4844,23.9844 41.8438,24.3125 Q41.2188,24.6406 40.7188,25.3906 Q40.2344,26.1406 40.2344,27.1719 L40.2344,28.2656 Q40.2344,29.5 41.125,30.3281 Q42.0156,31.1406 43.6094,31.1406 Q44.5469,31.1406 45.2031,30.8906 Q45.5938,30.7344 46.0156,30.2969 Q46.2813,30.0313 46.4219,29.9531 Q46.5781,29.875 46.7813,29.875 Q47.1094,29.875 47.3594,30.1406 Q47.625,30.3906 47.625,30.7344 Q47.625,31.0781 47.2813,31.4844 Q46.7813,32.0625 45.9844,32.3906 Q44.9063,32.8438 43.6094,32.8438 Q42.0938,32.8438 40.8906,32.2188 Q39.9063,31.7188 39.2188,30.6563 Q38.5313,29.5781 38.5313,28.2969 L38.5313,27.1406 Q38.5313,25.8125 39.1406,24.6719 Q39.7656,23.5156 40.8594,22.9063 Q41.9531,22.2813 43.1875,22.2813 Q43.9219,22.2813 44.5625,22.4531 Q45.2188,22.6094 45.7656,22.9688 Z "/><text fill="#000000" font-family="sans-serif" font-size="14" lengthAdjust="spacingAndGlyphs" textLength="116" x="96.5" y="26.5332">MazeEventWalked</text><text fill="#000000" font-family="sans-serif" font-size="10" lengthAdjust="spacingAndGlyphs" textLength="195" x="57" y="39.9902">nz.ac.vuw.ecs.swen225.gp20.maze.event</text></a><!--MD5=[dcba008bb0320adad88b4324beeb0012]
reverse link nz.ac.vuw.ecs.swen225.gp20.maze.event.MazeEventWalked to nz.ac.vuw.ecs.swen225.gp20.maze.event.MazeEventWon--><path codeLine="13" d="M141.5,67.25 C141.5,79.89 141.5,93.98 141.5,106.94 " fill="none" id="nz.ac.vuw.ecs.swen225.gp20.maze.event.MazeEventWalked-backto-nz.ac.vuw.ecs.swen225.gp20.maze.event.MazeEventWon" style="stroke: #A80036; stroke-width: 1.0;"/><polygon fill="none" points="134.5,67.22,141.5,47.22,148.5,67.22,134.5,67.22" style="stroke: #A80036; stroke-width: 1.0;"/><text fill="#888888" font-family="sans-serif" font-size="10" lengthAdjust="spacingAndGlyphs" textLength="190" x="43.5" y="220.0762">UMLDoclet 2.0.12, PlantUML 1.2020.16</text><!--MD5=[fe2e6af4712a104f64320c3b8f79e327]
@startuml
    set namespaceSeparator none
    hide empty fields
    hide empty methods

    class "<size:14>MazeEventWon\n<size:10>nz.ac.vuw.ecs.swen225.gp20.maze.event" as nz.ac.vuw.ecs.swen225.gp20.maze.event.MazeEventWon [[MazeEventWon.html]] {
        +MazeEventWon(Maze, PathTile, PathTile, Direction)
        +receive(MazeEventListener): void
        +invert(): void
    }

    class "<size:14>MazeEventWalked\n<size:10>nz.ac.vuw.ecs.swen225.gp20.maze.event" as nz.ac.vuw.ecs.swen225.gp20.maze.event.MazeEventWalked [[MazeEventWalked.html]]

    nz.ac.vuw.ecs.swen225.gp20.maze.event.MazeEventWalked <|- - nz.ac.vuw.ecs.swen225.gp20.maze.event.MazeEventWon

    center footer UMLDoclet 2.0.12, PlantUML 1.2020.16
@enduml

PlantUML version 1.2020.16(Mon Aug 24 08:20:43 NZST 2020)
(APACHE source distribution)
Java Runtime: OpenJDK Runtime Environment
JVM: OpenJDK 64-Bit Server VM
Default Encoding: Cp1252
Language: en
Country: NZ
--></g></svg>