<?xml version="1.0" encoding="UTF-8" standalone="no"?><svg xmlns="http://www.w3.org/2000/svg" xmlns:xlink="http://www.w3.org/1999/xlink" contentScriptType="application/ecmascript" contentStyleType="text/css" height="204px" preserveAspectRatio="none" style="width:343px;height:204px;" version="1.1" viewBox="0 0 343 204" width="343px" zoomAndPan="magnify"><defs><filter height="300%" id="f1m0twqr74wfjn" width="300%" x="-1" y="-1"><feGaussianBlur result="blurOut" stdDeviation="2.0"/><feColorMatrix in="blurOut" result="blurOut2" type="matrix" values="0 0 0 0 0 0 0 0 0 0 0 0 0 0 0 0 0 0 .4 0"/><feOffset dx="4.0" dy="4.0" in="blurOut2" result="blurOut3"/><feBlend in="SourceGraphic" in2="blurOut3" mode="normal"/></filter></defs><g><!--MD5=[d423da23da1fc8f952d900322317c2ef]
cluster nz.ac.vuw.ecs.swen225.gp20.persistence--><polygon fill="#FFFFFF" filter="url(#f1m0twqr74wfjn)" points="16,6,311,6,318,29.6094,321,29.6094,321,175,16,175,16,6" style="stroke: #000000; stroke-width: 1.5;"/><line style="stroke: #000000; stroke-width: 1.5;" x1="16" x2="318" y1="29.6094" y2="29.6094"/><text fill="#000000" font-family="sans-serif" font-size="14" font-weight="bold" lengthAdjust="spacingAndGlyphs" textLength="289" x="20" y="22.5332">nz.ac.vuw.ecs.swen225.gp20.persistence</text><!--MD5=[39c356492b3453a8feb25e279768bd94]
class nz.ac.vuw.ecs.swen225.gp20.persistence.Persistence--><a href="Persistence.html" target="_top" title="Persistence.html" xlink:actuate="onRequest" xlink:href="Persistence.html" xlink:show="new" xlink:title="Persistence.html" xlink:type="simple"><rect codeLine="3" fill="#FEFECE" filter="url(#f1m0twqr74wfjn)" height="117.1797" id="nz.ac.vuw.ecs.swen225.gp20.persistence.Persistence" style="stroke: #A80036; stroke-width: 1.5;" width="176" x="80" y="42"/><ellipse cx="130.75" cy="58" fill="#ADD1B2" rx="11" ry="11" style="stroke: #A80036; stroke-width: 1.0;"/><path d="M133.5156,53.875 Q133.6719,53.6563 133.8594,53.5469 Q134.0469,53.4375 134.2656,53.4375 Q134.6406,53.4375 134.875,53.7031 Q135.1094,53.9531 135.1094,54.5625 L135.1094,56.0156 Q135.1094,56.625 134.875,56.8906 Q134.6406,57.1563 134.2656,57.1563 Q133.9219,57.1563 133.7188,56.9531 Q133.5156,56.7656 133.4063,56.25 Q133.3594,55.8906 133.1719,55.7031 Q132.8438,55.3281 132.2344,55.1094 Q131.625,54.8906 131,54.8906 Q130.2344,54.8906 129.5938,55.2188 Q128.9688,55.5469 128.4688,56.2969 Q127.9844,57.0469 127.9844,58.0781 L127.9844,59.1719 Q127.9844,60.4063 128.875,61.2344 Q129.7656,62.0469 131.3594,62.0469 Q132.2969,62.0469 132.9531,61.7969 Q133.3438,61.6406 133.7656,61.2031 Q134.0313,60.9375 134.1719,60.8594 Q134.3281,60.7813 134.5313,60.7813 Q134.8594,60.7813 135.1094,61.0469 Q135.375,61.2969 135.375,61.6406 Q135.375,61.9844 135.0313,62.3906 Q134.5313,62.9688 133.7344,63.2969 Q132.6563,63.75 131.3594,63.75 Q129.8438,63.75 128.6406,63.125 Q127.6563,62.625 126.9688,61.5625 Q126.2813,60.4844 126.2813,59.2031 L126.2813,58.0469 Q126.2813,56.7188 126.8906,55.5781 Q127.5156,54.4219 128.6094,53.8125 Q129.7031,53.1875 130.9375,53.1875 Q131.6719,53.1875 132.3125,53.3594 Q132.9688,53.5156 133.5156,53.875 Z "/><text fill="#000000" font-family="sans-serif" font-size="12" lengthAdjust="spacingAndGlyphs" textLength="66" x="151.25" y="62.9102">Persistence</text><line style="stroke: #A80036; stroke-width: 1.5;" x1="81" x2="255" y1="74" y2="74"/><ellipse cx="91" cy="85" fill="none" rx="3" ry="3" style="stroke: #038048; stroke-width: 1.0;"/><text fill="#000000" font-family="sans-serif" font-size="11" lengthAdjust="spacingAndGlyphs" text-decoration="underline" textLength="109" x="100" y="89.4189">mapper: ObjectMapper</text><line style="stroke: #A80036; stroke-width: 1.5;" x1="81" x2="255" y1="95.8359" y2="95.8359"/><ellipse cx="91" cy="106.8359" fill="#84BE84" rx="3" ry="3" style="stroke: #038048; stroke-width: 1.0;"/><text fill="#000000" font-family="sans-serif" font-size="11" lengthAdjust="spacingAndGlyphs" text-decoration="underline" textLength="102" x="100" y="111.2549">loadMaze(File): Maze</text><ellipse cx="91" cy="120.6719" fill="#84BE84" rx="3" ry="3" style="stroke: #038048; stroke-width: 1.0;"/><text fill="#000000" font-family="sans-serif" font-size="11" lengthAdjust="spacingAndGlyphs" text-decoration="underline" textLength="150" x="100" y="125.0908">saveMaze(Maze, File): boolean</text><ellipse cx="91" cy="134.5078" fill="#84BE84" rx="3" ry="3" style="stroke: #038048; stroke-width: 1.0;"/><text fill="#000000" font-family="sans-serif" font-size="11" lengthAdjust="spacingAndGlyphs" text-decoration="underline" textLength="128" x="100" y="138.9268">quickSave(Maze): boolean</text><ellipse cx="91" cy="148.3438" fill="#84BE84" rx="3" ry="3" style="stroke: #038048; stroke-width: 1.0;"/><text fill="#000000" font-family="sans-serif" font-size="11" lengthAdjust="spacingAndGlyphs" text-decoration="underline" textLength="89" x="100" y="152.7627">quickLoad(): Maze</text></a><text fill="#888888" font-family="sans-serif" font-size="10" lengthAdjust="spacingAndGlyphs" textLength="190" x="67.5" y="191.3809">UMLDoclet 2.0.12, PlantUML 1.2020.16</text><!--MD5=[3dbb09f28f175c59d13693a7e4287a23]
@startuml
    namespace nz.ac.vuw.ecs.swen225.gp20.persistence {

        class Persistence [[Persistence.html]] {
            {static} +mapper: ObjectMapper
            {static} +loadMaze(File): Maze
            {static} +saveMaze(Maze, File): boolean
            {static} +quickSave(Maze): boolean
            {static} +quickLoad(): Maze
        }

    }

    center footer UMLDoclet 2.0.12, PlantUML 1.2020.16
@enduml

PlantUML version 1.2020.16(Mon Aug 24 08:20:43 NZST 2020)
(APACHE source distribution)
Java Runtime: OpenJDK Runtime Environment
JVM: OpenJDK 64-Bit Server VM
Default Encoding: Cp1252
Language: en
Country: NZ
--></g></svg>