<?xml version="1.0" encoding="UTF-8" standalone="no"?><svg xmlns="http://www.w3.org/2000/svg" xmlns:xlink="http://www.w3.org/1999/xlink" contentScriptType="application/ecmascript" contentStyleType="text/css" height="324px" preserveAspectRatio="none" style="width:266px;height:324px;" version="1.1" viewBox="0 0 266 324" width="266px" zoomAndPan="magnify"><defs><filter height="300%" id="f1i69au748uugs" width="300%" x="-1" y="-1"><feGaussianBlur result="blurOut" stdDeviation="2.0"/><feColorMatrix in="blurOut" result="blurOut2" type="matrix" values="0 0 0 0 0 0 0 0 0 0 0 0 0 0 0 0 0 0 .4 0"/><feOffset dx="4.0" dy="4.0" in="blurOut2" result="blurOut3"/><feBlend in="SourceGraphic" in2="blurOut3" mode="normal"/></filter></defs><g><!--MD5=[38401d3046419493790a6f54eb33f2be]
class nz.ac.vuw.ecs.swen225.gp20.rendering.AnimationHandler--><a href="AnimationHandler.html" target="_top" title="AnimationHandler.html" xlink:actuate="onRequest" xlink:href="AnimationHandler.html" xlink:show="new" xlink:title="AnimationHandler.html" xlink:type="simple"><rect codeLine="5" fill="#FEFECE" filter="url(#f1i69au748uugs)" height="180.7109" id="nz.ac.vuw.ecs.swen225.gp20.rendering.AnimationHandler" style="stroke: #A80036; stroke-width: 1.5;" width="238" x="9" y="107"/><ellipse cx="33.45" cy="127.0938" fill="#ADD1B2" rx="11" ry="11" style="stroke: #A80036; stroke-width: 1.0;"/><path d="M36.2156,122.9688 Q36.3719,122.75 36.5594,122.6406 Q36.7469,122.5313 36.9656,122.5313 Q37.3406,122.5313 37.575,122.7969 Q37.8094,123.0469 37.8094,123.6563 L37.8094,125.1094 Q37.8094,125.7188 37.575,125.9844 Q37.3406,126.25 36.9656,126.25 Q36.6219,126.25 36.4188,126.0469 Q36.2156,125.8594 36.1063,125.3438 Q36.0594,124.9844 35.8719,124.7969 Q35.5438,124.4219 34.9344,124.2031 Q34.325,123.9844 33.7,123.9844 Q32.9344,123.9844 32.2938,124.3125 Q31.6688,124.6406 31.1688,125.3906 Q30.6844,126.1406 30.6844,127.1719 L30.6844,128.2656 Q30.6844,129.5 31.575,130.3281 Q32.4656,131.1406 34.0594,131.1406 Q34.9969,131.1406 35.6531,130.8906 Q36.0438,130.7344 36.4656,130.2969 Q36.7313,130.0313 36.8719,129.9531 Q37.0281,129.875 37.2313,129.875 Q37.5594,129.875 37.8094,130.1406 Q38.075,130.3906 38.075,130.7344 Q38.075,131.0781 37.7313,131.4844 Q37.2313,132.0625 36.4344,132.3906 Q35.3563,132.8438 34.0594,132.8438 Q32.5438,132.8438 31.3406,132.2188 Q30.3563,131.7188 29.6688,130.6563 Q28.9813,129.5781 28.9813,128.2969 L28.9813,127.1406 Q28.9813,125.8125 29.5906,124.6719 Q30.2156,123.5156 31.3094,122.9063 Q32.4031,122.2813 33.6375,122.2813 Q34.3719,122.2813 35.0125,122.4531 Q35.6688,122.6094 36.2156,122.9688 Z "/><text fill="#000000" font-family="sans-serif" font-size="14" lengthAdjust="spacingAndGlyphs" textLength="111" x="86.55" y="126.5332">AnimationHandler</text><text fill="#000000" font-family="sans-serif" font-size="10" lengthAdjust="spacingAndGlyphs" textLength="185" x="49.55" y="139.9902">nz.ac.vuw.ecs.swen225.gp20.rendering</text><line style="stroke: #A80036; stroke-width: 1.5;" x1="10" x2="246" y1="147.1875" y2="147.1875"/><polygon fill="none" points="20,153.1875,24,157.1875,20,161.1875,16,157.1875" style="stroke: #B38D22; stroke-width: 1.0;"/><text fill="#000000" font-family="sans-serif" font-size="11" lengthAdjust="spacingAndGlyphs" textLength="63" x="29" y="162.6064">toolkit: Toolkit</text><line style="stroke: #A80036; stroke-width: 1.5;" x1="10" x2="246" y1="169.0234" y2="169.0234"/><ellipse cx="20" cy="180.0234" fill="#84BE84" rx="3" ry="3" style="stroke: #038048; stroke-width: 1.0;"/><text fill="#000000" font-family="sans-serif" font-size="11" lengthAdjust="spacingAndGlyphs" textLength="179" x="29" y="184.4424">AnimationHandler(Maze, BoardView)</text><ellipse cx="20" cy="193.8594" fill="#84BE84" rx="3" ry="3" style="stroke: #038048; stroke-width: 1.0;"/><text fill="#000000" font-family="sans-serif" font-size="11" lengthAdjust="spacingAndGlyphs" textLength="120" x="29" y="198.2783">update(MazeEvent): void</text><ellipse cx="20" cy="207.6953" fill="#84BE84" rx="3" ry="3" style="stroke: #038048; stroke-width: 1.0;"/><text fill="#000000" font-family="sans-serif" font-size="11" lengthAdjust="spacingAndGlyphs" textLength="156" x="29" y="212.1143">update(MazeEventPushed): void</text><ellipse cx="20" cy="221.5313" fill="#84BE84" rx="3" ry="3" style="stroke: #038048; stroke-width: 1.0;"/><text fill="#000000" font-family="sans-serif" font-size="11" lengthAdjust="spacingAndGlyphs" textLength="185" x="29" y="225.9502">update(MazeEventPushedWater): void</text><ellipse cx="20" cy="235.3672" fill="#84BE84" rx="3" ry="3" style="stroke: #038048; stroke-width: 1.0;"/><text fill="#000000" font-family="sans-serif" font-size="11" lengthAdjust="spacingAndGlyphs" textLength="187" x="29" y="239.7861">update(MazeEventEnemyWalked): void</text><ellipse cx="20" cy="249.2031" fill="#84BE84" rx="3" ry="3" style="stroke: #038048; stroke-width: 1.0;"/><text fill="#000000" font-family="sans-serif" font-size="11" lengthAdjust="spacingAndGlyphs" textLength="180" x="29" y="253.6221">update(MazeEventWalkedKilled): void</text><ellipse cx="20" cy="263.0391" fill="#84BE84" rx="3" ry="3" style="stroke: #038048; stroke-width: 1.0;"/><text fill="#000000" font-family="sans-serif" font-size="11" lengthAdjust="spacingAndGlyphs" textLength="212" x="29" y="267.458">update(MazeEventEnemyWalkedKilled): void</text><ellipse cx="20" cy="276.875" fill="#84BE84" rx="3" ry="3" style="stroke: #038048; stroke-width: 1.0;"/><text fill="#000000" font-family="sans-serif" font-size="11" lengthAdjust="spacingAndGlyphs" textLength="200" x="29" y="281.2939">update(MazeEventWalkedDrowned): void</text></a><!--MD5=[a332cefbfed17df6d36ecc563de89414]
class nz.ac.vuw.ecs.swen225.gp20.maze.event.MazeEventListener--><a href="..\maze\event\MazeEventListener.html" target="_top" title="..\maze\event\MazeEventListener.html" xlink:actuate="onRequest" xlink:href="..\maze\event\MazeEventListener.html" xlink:show="new" xlink:title="..\maze\event\MazeEventListener.html" xlink:type="simple"><rect codeLine="17" fill="#FEFECE" filter="url(#f1i69au748uugs)" height="40.1875" id="nz.ac.vuw.ecs.swen225.gp20.maze.event.MazeEventListener" style="stroke: #A80036; stroke-width: 1.5;" width="227" x="14.5" y="7"/><ellipse cx="29.5" cy="27.0938" fill="#ADD1B2" rx="11" ry="11" style="stroke: #A80036; stroke-width: 1.0;"/><path d="M32.2656,22.9688 Q32.4219,22.75 32.6094,22.6406 Q32.7969,22.5313 33.0156,22.5313 Q33.3906,22.5313 33.625,22.7969 Q33.8594,23.0469 33.8594,23.6563 L33.8594,25.1094 Q33.8594,25.7188 33.625,25.9844 Q33.3906,26.25 33.0156,26.25 Q32.6719,26.25 32.4688,26.0469 Q32.2656,25.8594 32.1563,25.3438 Q32.1094,24.9844 31.9219,24.7969 Q31.5938,24.4219 30.9844,24.2031 Q30.375,23.9844 29.75,23.9844 Q28.9844,23.9844 28.3438,24.3125 Q27.7188,24.6406 27.2188,25.3906 Q26.7344,26.1406 26.7344,27.1719 L26.7344,28.2656 Q26.7344,29.5 27.625,30.3281 Q28.5156,31.1406 30.1094,31.1406 Q31.0469,31.1406 31.7031,30.8906 Q32.0938,30.7344 32.5156,30.2969 Q32.7813,30.0313 32.9219,29.9531 Q33.0781,29.875 33.2813,29.875 Q33.6094,29.875 33.8594,30.1406 Q34.125,30.3906 34.125,30.7344 Q34.125,31.0781 33.7813,31.4844 Q33.2813,32.0625 32.4844,32.3906 Q31.4063,32.8438 30.1094,32.8438 Q28.5938,32.8438 27.3906,32.2188 Q26.4063,31.7188 25.7188,30.6563 Q25.0313,29.5781 25.0313,28.2969 L25.0313,27.1406 Q25.0313,25.8125 25.6406,24.6719 Q26.2656,23.5156 27.3594,22.9063 Q28.4531,22.2813 29.6875,22.2813 Q30.4219,22.2813 31.0625,22.4531 Q31.7188,22.6094 32.2656,22.9688 Z "/><text fill="#000000" font-family="sans-serif" font-size="14" lengthAdjust="spacingAndGlyphs" textLength="120" x="81" y="26.5332">MazeEventListener</text><text fill="#000000" font-family="sans-serif" font-size="10" lengthAdjust="spacingAndGlyphs" textLength="195" x="43.5" y="39.9902">nz.ac.vuw.ecs.swen225.gp20.maze.event</text></a><!--MD5=[214490cb79609e48951f438089d736f8]
reverse link nz.ac.vuw.ecs.swen225.gp20.maze.event.MazeEventListener to nz.ac.vuw.ecs.swen225.gp20.rendering.AnimationHandler--><path codeLine="19" d="M128,67.41 C128,79.3 128,92.87 128,106.64 " fill="none" id="nz.ac.vuw.ecs.swen225.gp20.maze.event.MazeEventListener-backto-nz.ac.vuw.ecs.swen225.gp20.rendering.AnimationHandler" style="stroke: #A80036; stroke-width: 1.0;"/><polygon fill="none" points="121,67,128,47,135,67,121,67" style="stroke: #A80036; stroke-width: 1.0;"/><text fill="#888888" font-family="sans-serif" font-size="10" lengthAdjust="spacingAndGlyphs" textLength="190" x="29" y="311.0918">UMLDoclet 2.0.12, PlantUML 1.2020.16</text><!--MD5=[a27abb1badca969d36ee97c27859c67d]
@startuml
    set namespaceSeparator none
    hide empty fields
    hide empty methods

    class "<size:14>AnimationHandler\n<size:10>nz.ac.vuw.ecs.swen225.gp20.rendering" as nz.ac.vuw.ecs.swen225.gp20.rendering.AnimationHandler [[AnimationHandler.html]] {
        #toolkit: Toolkit
        +AnimationHandler(Maze, BoardView)
        +update(MazeEvent): void
        +update(MazeEventPushed): void
        +update(MazeEventPushedWater): void
        +update(MazeEventEnemyWalked): void
        +update(MazeEventWalkedKilled): void
        +update(MazeEventEnemyWalkedKilled): void
        +update(MazeEventWalkedDrowned): void
    }

    class "<size:14>MazeEventListener\n<size:10>nz.ac.vuw.ecs.swen225.gp20.maze.event" as nz.ac.vuw.ecs.swen225.gp20.maze.event.MazeEventListener [[..\maze\event\MazeEventListener.html]]

    nz.ac.vuw.ecs.swen225.gp20.maze.event.MazeEventListener <|- - nz.ac.vuw.ecs.swen225.gp20.rendering.AnimationHandler

    center footer UMLDoclet 2.0.12, PlantUML 1.2020.16
@enduml

PlantUML version 1.2020.16(Mon Aug 24 08:20:43 NZST 2020)
(APACHE source distribution)
Java Runtime: OpenJDK Runtime Environment
JVM: OpenJDK 64-Bit Server VM
Default Encoding: Cp1252
Language: en
Country: NZ
--></g></svg>