<?xml version="1.0" encoding="UTF-8" standalone="no"?><svg xmlns="http://www.w3.org/2000/svg" xmlns:xlink="http://www.w3.org/1999/xlink" contentScriptType="application/ecmascript" contentStyleType="text/css" height="401px" preserveAspectRatio="none" style="width:372px;height:401px;" version="1.1" viewBox="0 0 372 401" width="372px" zoomAndPan="magnify"><defs><filter height="300%" id="fpev5ryv7nf6u" width="300%" x="-1" y="-1"><feGaussianBlur result="blurOut" stdDeviation="2.0"/><feColorMatrix in="blurOut" result="blurOut2" type="matrix" values="0 0 0 0 0 0 0 0 0 0 0 0 0 0 0 0 0 0 .4 0"/><feOffset dx="4.0" dy="4.0" in="blurOut2" result="blurOut3"/><feBlend in="SourceGraphic" in2="blurOut3" mode="normal"/></filter></defs><g><!--MD5=[cce5c5df116daf6399e47722091cf7aa]
class nz.ac.vuw.ecs.swen225.gp20.rendering.BoardView--><a href="BoardView.html" target="_top" title="BoardView.html" xlink:actuate="onRequest" xlink:href="BoardView.html" xlink:show="new" xlink:title="BoardView.html" xlink:type="simple"><rect codeLine="5" fill="#FEFECE" filter="url(#fpev5ryv7nf6u)" height="236.0547" id="nz.ac.vuw.ecs.swen225.gp20.rendering.BoardView" style="stroke: #A80036; stroke-width: 1.5;" width="274" x="21" y="129"/><ellipse cx="61.65" cy="149.0938" fill="#ADD1B2" rx="11" ry="11" style="stroke: #A80036; stroke-width: 1.0;"/><path d="M64.4156,144.9688 Q64.5719,144.75 64.7594,144.6406 Q64.9469,144.5313 65.1656,144.5313 Q65.5406,144.5313 65.775,144.7969 Q66.0094,145.0469 66.0094,145.6563 L66.0094,147.1094 Q66.0094,147.7188 65.775,147.9844 Q65.5406,148.25 65.1656,148.25 Q64.8219,148.25 64.6188,148.0469 Q64.4156,147.8594 64.3063,147.3438 Q64.2594,146.9844 64.0719,146.7969 Q63.7438,146.4219 63.1344,146.2031 Q62.525,145.9844 61.9,145.9844 Q61.1344,145.9844 60.4938,146.3125 Q59.8688,146.6406 59.3688,147.3906 Q58.8844,148.1406 58.8844,149.1719 L58.8844,150.2656 Q58.8844,151.5 59.775,152.3281 Q60.6656,153.1406 62.2594,153.1406 Q63.1969,153.1406 63.8531,152.8906 Q64.2438,152.7344 64.6656,152.2969 Q64.9313,152.0313 65.0719,151.9531 Q65.2281,151.875 65.4313,151.875 Q65.7594,151.875 66.0094,152.1406 Q66.275,152.3906 66.275,152.7344 Q66.275,153.0781 65.9313,153.4844 Q65.4313,154.0625 64.6344,154.3906 Q63.5563,154.8438 62.2594,154.8438 Q60.7438,154.8438 59.5406,154.2188 Q58.5563,153.7188 57.8688,152.6563 Q57.1813,151.5781 57.1813,150.2969 L57.1813,149.1406 Q57.1813,147.8125 57.7906,146.6719 Q58.4156,145.5156 59.5094,144.9063 Q60.6031,144.2813 61.8375,144.2813 Q62.5719,144.2813 63.2125,144.4531 Q63.8688,144.6094 64.4156,144.9688 Z "/><text fill="#000000" font-family="sans-serif" font-size="14" lengthAdjust="spacingAndGlyphs" textLength="67" x="140.35" y="148.5332">BoardView</text><text fill="#000000" font-family="sans-serif" font-size="10" lengthAdjust="spacingAndGlyphs" textLength="185" x="81.35" y="161.9902">nz.ac.vuw.ecs.swen225.gp20.rendering</text><line style="stroke: #A80036; stroke-width: 1.5;" x1="22" x2="294" y1="169.1875" y2="169.1875"/><ellipse cx="32" cy="180.1875" fill="none" rx="3" ry="3" style="stroke: #038048; stroke-width: 1.0;"/><text fill="#000000" font-family="sans-serif" font-size="11" lengthAdjust="spacingAndGlyphs" textLength="99" x="41" y="184.6064">isAnimating: boolean</text><line style="stroke: #A80036; stroke-width: 1.5;" x1="22" x2="294" y1="191.0234" y2="191.0234"/><ellipse cx="32" cy="202.0234" fill="#84BE84" rx="3" ry="3" style="stroke: #038048; stroke-width: 1.0;"/><text fill="#000000" font-family="sans-serif" font-size="11" lengthAdjust="spacingAndGlyphs" textLength="89" x="41" y="206.4424">BoardView(Maze)</text><polygon fill="#FFFF44" points="32,210.8594,36,214.8594,32,218.8594,28,214.8594" style="stroke: #B38D22; stroke-width: 1.0;"/><text fill="#000000" font-family="sans-serif" font-size="11" lengthAdjust="spacingAndGlyphs" textLength="155" x="41" y="220.2783">paintComponent(Graphics): void</text><ellipse cx="32" cy="229.6953" fill="#84BE84" rx="3" ry="3" style="stroke: #038048; stroke-width: 1.0;"/><text fill="#000000" font-family="sans-serif" font-size="11" lengthAdjust="spacingAndGlyphs" textLength="163" x="41" y="234.1143">drawWholeBoard(Graphics): void</text><ellipse cx="32" cy="243.5313" fill="#84BE84" rx="3" ry="3" style="stroke: #038048; stroke-width: 1.0;"/><text fill="#000000" font-family="sans-serif" font-size="11" lengthAdjust="spacingAndGlyphs" textLength="185" x="41" y="247.9502">drawWindowedBoard(Graphics): void</text><ellipse cx="32" cy="257.3672" fill="#84BE84" rx="3" ry="3" style="stroke: #038048; stroke-width: 1.0;"/><text fill="#000000" font-family="sans-serif" font-size="11" lengthAdjust="spacingAndGlyphs" textLength="115" x="41" y="261.7861">animate(Graphics): void</text><ellipse cx="32" cy="271.2031" fill="#84BE84" rx="3" ry="3" style="stroke: #038048; stroke-width: 1.0;"/><text fill="#000000" font-family="sans-serif" font-size="11" lengthAdjust="spacingAndGlyphs" textLength="248" x="41" y="275.6221">initaliseAnimation(Movable, Tile, Tile, Direction): void</text><ellipse cx="32" cy="285.0391" fill="#84BE84" rx="3" ry="3" style="stroke: #038048; stroke-width: 1.0;"/><text fill="#000000" font-family="sans-serif" font-size="11" lengthAdjust="spacingAndGlyphs" textLength="134" x="41" y="289.458">setAnimating(boolean): void</text><ellipse cx="32" cy="298.875" fill="#84BE84" rx="3" ry="3" style="stroke: #038048; stroke-width: 1.0;"/><text fill="#000000" font-family="sans-serif" font-size="11" lengthAdjust="spacingAndGlyphs" textLength="110" x="41" y="303.2939">checkAnimation(): void</text><ellipse cx="32" cy="312.7109" fill="#84BE84" rx="3" ry="3" style="stroke: #038048; stroke-width: 1.0;"/><text fill="#000000" font-family="sans-serif" font-size="11" lengthAdjust="spacingAndGlyphs" textLength="171" x="41" y="317.1299">actionPerformed(ActionEvent): void</text><ellipse cx="32" cy="326.5469" fill="#84BE84" rx="3" ry="3" style="stroke: #038048; stroke-width: 1.0;"/><text fill="#000000" font-family="sans-serif" font-size="11" lengthAdjust="spacingAndGlyphs" textLength="81" x="41" y="330.9658">getMaze(): Maze</text><ellipse cx="32" cy="340.3828" fill="#84BE84" rx="3" ry="3" style="stroke: #038048; stroke-width: 1.0;"/><text fill="#000000" font-family="sans-serif" font-size="11" lengthAdjust="spacingAndGlyphs" textLength="87" x="41" y="344.8018">getBlockSize(): int</text><ellipse cx="32" cy="354.2188" fill="#84BE84" rx="3" ry="3" style="stroke: #038048; stroke-width: 1.0;"/><text fill="#000000" font-family="sans-serif" font-size="11" lengthAdjust="spacingAndGlyphs" textLength="85" x="41" y="358.6377">reset(Maze): void</text></a><!--MD5=[3ea458d433f53e831f622a7b045ec21c]
class javax.swing.JComponent--><rect codeLine="21" fill="#FEFECE" filter="url(#fpev5ryv7nf6u)" height="40.1875" id="javax.swing.JComponent" style="stroke: #A80036; stroke-width: 1.5;" width="112" x="7" y="18"/><ellipse cx="22" cy="38.0938" fill="#A9DCDF" rx="11" ry="11" style="stroke: #A80036; stroke-width: 1.0;"/><path d="M24.1875,39.8594 L20.0469,39.8594 L19.625,40.8906 L20.0469,40.8906 Q20.6563,40.8906 20.9219,41.125 Q21.1875,41.3594 21.1875,41.75 Q21.1875,42.125 20.9219,42.3594 Q20.6563,42.5938 20.0469,42.5938 L17.75,42.5938 Q17.1406,42.5938 16.8906,42.3594 Q16.625,42.125 16.625,41.7344 Q16.625,41.3594 16.9063,41.125 Q17.1719,40.875 17.7969,40.8906 L20.4688,34.2344 L19.3594,34.2344 Q18.75,34.2344 18.4844,34 Q18.2188,33.7656 18.2188,33.375 Q18.2188,33 18.4844,32.7656 Q18.75,32.5313 19.3594,32.5313 L23.0313,32.5313 L26.4219,40.8906 Q27.0156,40.8906 27.2031,41.0313 Q27.5938,41.2969 27.5938,41.75 Q27.5938,42.125 27.3281,42.3594 Q27.0781,42.5938 26.4688,42.5938 L24.1719,42.5938 Q23.5625,42.5938 23.2969,42.3594 Q23.0313,42.125 23.0313,41.7344 Q23.0313,41.3594 23.2969,41.125 Q23.5625,40.8906 24.1719,40.8906 L24.5938,40.8906 L24.1875,39.8594 Z M23.4688,38.1563 L22.1094,34.7813 L20.7344,38.1563 L23.4688,38.1563 Z "/><text fill="#000000" font-family="sans-serif" font-size="14" font-style="italic" lengthAdjust="spacingAndGlyphs" textLength="80" x="36" y="37.5332">JComponent</text><text fill="#000000" font-family="sans-serif" font-size="10" font-style="italic" lengthAdjust="spacingAndGlyphs" textLength="55" x="48.5" y="50.9902">javax.swing</text><!--MD5=[6631281fcee7fc541b441b6c950a0fa0]
class java.awt.event.ActionListener--><rect codeLine="22" fill="#FEFECE" filter="url(#fpev5ryv7nf6u)" height="62.0234" id="java.awt.event.ActionListener" style="stroke: #A80036; stroke-width: 1.5;" width="199" x="154.5" y="7"/><ellipse cx="204.75" cy="27.0938" fill="#B4A7E5" rx="11" ry="11" style="stroke: #A80036; stroke-width: 1.0;"/><path d="M205.7031,23.7344 L205.7031,30.3906 L207.4219,30.3906 Q208.0313,30.3906 208.2969,30.625 Q208.5625,30.8594 208.5625,31.25 Q208.5625,31.625 208.2969,31.8594 Q208.0313,32.0938 207.4219,32.0938 L202.2813,32.0938 Q201.6719,32.0938 201.4063,31.8594 Q201.1406,31.625 201.1406,31.2344 Q201.1406,30.8594 201.4063,30.625 Q201.6719,30.3906 202.2813,30.3906 L204,30.3906 L204,23.7344 L202.2813,23.7344 Q201.6719,23.7344 201.4063,23.5 Q201.1406,23.2656 201.1406,22.875 Q201.1406,22.5 201.4063,22.2656 Q201.6719,22.0313 202.2813,22.0313 L207.4219,22.0313 Q208.0313,22.0313 208.2969,22.2656 Q208.5625,22.5 208.5625,22.875 Q208.5625,23.2656 208.2969,23.5 Q208.0313,23.7344 207.4219,23.7344 L205.7031,23.7344 Z "/><text fill="#000000" font-family="sans-serif" font-size="14" font-style="italic" lengthAdjust="spacingAndGlyphs" textLength="90" x="225.25" y="26.5332">ActionListener</text><text fill="#000000" font-family="sans-serif" font-size="10" font-style="italic" lengthAdjust="spacingAndGlyphs" textLength="68" x="236.25" y="39.9902">java.awt.event</text><line style="stroke: #A80036; stroke-width: 1.5;" x1="155.5" x2="352.5" y1="47.1875" y2="47.1875"/><ellipse cx="165.5" cy="58.1875" fill="#84BE84" rx="3" ry="3" style="stroke: #038048; stroke-width: 1.0;"/><text fill="#000000" font-family="sans-serif" font-size="11" font-style="italic" lengthAdjust="spacingAndGlyphs" textLength="173" x="174.5" y="62.6064">actionPerformed(ActionEvent): void</text><!--MD5=[1737fcb7ca69e0ae15d314ab720d91a5]
reverse link javax.swing.JComponent to nz.ac.vuw.ecs.swen225.gp20.rendering.BoardView--><path codeLine="26" d="M80.18,76.44 C87.11,91.53 95.51,109.84 104.2,128.78 " fill="none" id="javax.swing.JComponent-backto-nz.ac.vuw.ecs.swen225.gp20.rendering.BoardView" style="stroke: #A80036; stroke-width: 1.0;"/><polygon fill="none" points="73.75,79.2,71.77,58.1,86.47,73.36,73.75,79.2" style="stroke: #A80036; stroke-width: 1.0;"/><!--MD5=[8a6f4e42fd0d4a6db4e1c0d822c0de48]
reverse link java.awt.event.ActionListener to nz.ac.vuw.ecs.swen225.gp20.rendering.BoardView--><path codeLine="27" d="M231.52,87.46 C225.68,100.06 219.13,114.19 212.41,128.69 " fill="none" id="java.awt.event.ActionListener-backto-nz.ac.vuw.ecs.swen225.gp20.rendering.BoardView" style="stroke: #A80036; stroke-width: 1.0; stroke-dasharray: 7.0,7.0;"/><polygon fill="none" points="225.28,84.3,240.04,69.1,237.98,90.19,225.28,84.3" style="stroke: #A80036; stroke-width: 1.0;"/><text fill="#888888" font-family="sans-serif" font-size="10" lengthAdjust="spacingAndGlyphs" textLength="190" x="82.25" y="388.4355">UMLDoclet 2.0.12, PlantUML 1.2020.16</text><!--MD5=[ac1054f189ba0013c0bda40f613288b0]
@startuml
    set namespaceSeparator none
    hide empty fields
    hide empty methods

    class "<size:14>BoardView\n<size:10>nz.ac.vuw.ecs.swen225.gp20.rendering" as nz.ac.vuw.ecs.swen225.gp20.rendering.BoardView [[BoardView.html]] {
        +isAnimating: boolean
        +BoardView(Maze)
        #paintComponent(Graphics): void
        +drawWholeBoard(Graphics): void
        +drawWindowedBoard(Graphics): void
        +animate(Graphics): void
        +initaliseAnimation(Movable, Tile, Tile, Direction): void
        +setAnimating(boolean): void
        +checkAnimation(): void
        +actionPerformed(ActionEvent): void
        +getMaze(): Maze
        +getBlockSize(): int
        +reset(Maze): void
    }

    abstract class "<size:14>JComponent\n<size:10>javax.swing" as javax.swing.JComponent
    interface "<size:14>ActionListener\n<size:10>java.awt.event" as java.awt.event.ActionListener {
        {abstract} +actionPerformed(ActionEvent): void
    }

    javax.swing.JComponent <|- - nz.ac.vuw.ecs.swen225.gp20.rendering.BoardView
    java.awt.event.ActionListener <|.. nz.ac.vuw.ecs.swen225.gp20.rendering.BoardView

    center footer UMLDoclet 2.0.12, PlantUML 1.2020.16
@enduml

PlantUML version 1.2020.16(Mon Aug 24 08:20:43 NZST 2020)
(APACHE source distribution)
Java Runtime: OpenJDK Runtime Environment
JVM: OpenJDK 64-Bit Server VM
Default Encoding: Cp1252
Language: en
Country: NZ
--></g></svg>