<?xml version="1.0" encoding="UTF-8" standalone="no"?><svg xmlns="http://www.w3.org/2000/svg" xmlns:xlink="http://www.w3.org/1999/xlink" contentScriptType="application/ecmascript" contentStyleType="text/css" height="591px" preserveAspectRatio="none" style="width:1322px;height:591px;" version="1.1" viewBox="0 0 1322 591" width="1322px" zoomAndPan="magnify"><defs><filter height="300%" id="fwis0thddfiu3" width="300%" x="-1" y="-1"><feGaussianBlur result="blurOut" stdDeviation="2.0"/><feColorMatrix in="blurOut" result="blurOut2" type="matrix" values="0 0 0 0 0 0 0 0 0 0 0 0 0 0 0 0 0 0 .4 0"/><feOffset dx="4.0" dy="4.0" in="blurOut2" result="blurOut3"/><feBlend in="SourceGraphic" in2="blurOut3" mode="normal"/></filter></defs><g><!--MD5=[28523cc797ef0d6b2f759847c2c98685]
cluster nz.ac.vuw.ecs.swen225.gp20.rendering--><polygon fill="#FFFFFF" filter="url(#fwis0thddfiu3)" points="16,227,297,227,304,250.6094,1300,250.6094,1300,562,16,562,16,227" style="stroke: #000000; stroke-width: 1.5;"/><line style="stroke: #000000; stroke-width: 1.5;" x1="16" x2="304" y1="250.6094" y2="250.6094"/><text fill="#000000" font-family="sans-serif" font-size="14" font-weight="bold" lengthAdjust="spacingAndGlyphs" textLength="275" x="20" y="243.5332">nz.ac.vuw.ecs.swen225.gp20.rendering</text><!--MD5=[3aa37de08da0e794ee4f90233c44bf5e]
cluster nz.ac.vuw.ecs.swen225.gp20.maze.event--><polygon fill="#FFFFFF" filter="url(#fwis0thddfiu3)" points="70,54.5,362,54.5,369,78.1094,372,78.1094,372,154.5,70,154.5,70,54.5" style="stroke: #000000; stroke-width: 1.5;"/><line style="stroke: #000000; stroke-width: 1.5;" x1="70" x2="369" y1="78.1094" y2="78.1094"/><text fill="#000000" font-family="sans-serif" font-size="14" font-weight="bold" lengthAdjust="spacingAndGlyphs" textLength="286" x="74" y="71.0332">nz.ac.vuw.ecs.swen225.gp20.maze.event</text><!--MD5=[535aab4de90d4dfa371a9b40d5438fc3]
cluster javax.swing--><polygon fill="#FFFFFF" filter="url(#fwis0thddfiu3)" points="571,6,659,6,666,29.6094,881,29.6094,881,203,571,203,571,6" style="stroke: #000000; stroke-width: 1.5;"/><line style="stroke: #000000; stroke-width: 1.5;" x1="571" x2="666" y1="29.6094" y2="29.6094"/><text fill="#000000" font-family="sans-serif" font-size="14" font-weight="bold" lengthAdjust="spacingAndGlyphs" textLength="82" x="575" y="22.5332">javax.swing</text><!--MD5=[d63c23c2d4b14118d71bd46d55a646bd]
cluster java.awt.event--><polygon fill="#FFFFFF" filter="url(#fwis0thddfiu3)" points="905,47.5,1013,47.5,1020,71.1094,1137,71.1094,1137,161.5,905,161.5,905,47.5" style="stroke: #000000; stroke-width: 1.5;"/><line style="stroke: #000000; stroke-width: 1.5;" x1="905" x2="1020" y1="71.1094" y2="71.1094"/><text fill="#000000" font-family="sans-serif" font-size="14" font-weight="bold" lengthAdjust="spacingAndGlyphs" textLength="102" x="909" y="64.0332">java.awt.event</text><!--MD5=[bdf0b9829a82f7c7f5de164018ea6f26]
class nz.ac.vuw.ecs.swen225.gp20.rendering.Animation--><a href="Animation.html" target="_top" title="Animation.html" xlink:actuate="onRequest" xlink:href="Animation.html" xlink:show="new" xlink:title="Animation.html" xlink:type="simple"><rect codeLine="3" fill="#FEFECE" filter="url(#fwis0thddfiu3)" height="200.1953" id="nz.ac.vuw.ecs.swen225.gp20.rendering.Animation" style="stroke: #A80036; stroke-width: 1.5;" width="237" x="1046.5" y="304.5"/><ellipse cx="1133.25" cy="320.5" fill="#ADD1B2" rx="11" ry="11" style="stroke: #A80036; stroke-width: 1.0;"/><path d="M1136.0156,316.375 Q1136.1719,316.1563 1136.3594,316.0469 Q1136.5469,315.9375 1136.7656,315.9375 Q1137.1406,315.9375 1137.375,316.2031 Q1137.6094,316.4531 1137.6094,317.0625 L1137.6094,318.5156 Q1137.6094,319.125 1137.375,319.3906 Q1137.1406,319.6563 1136.7656,319.6563 Q1136.4219,319.6563 1136.2188,319.4531 Q1136.0156,319.2656 1135.9063,318.75 Q1135.8594,318.3906 1135.6719,318.2031 Q1135.3438,317.8281 1134.7344,317.6094 Q1134.125,317.3906 1133.5,317.3906 Q1132.7344,317.3906 1132.0938,317.7188 Q1131.4688,318.0469 1130.9688,318.7969 Q1130.4844,319.5469 1130.4844,320.5781 L1130.4844,321.6719 Q1130.4844,322.9063 1131.375,323.7344 Q1132.2656,324.5469 1133.8594,324.5469 Q1134.7969,324.5469 1135.4531,324.2969 Q1135.8438,324.1406 1136.2656,323.7031 Q1136.5313,323.4375 1136.6719,323.3594 Q1136.8281,323.2813 1137.0313,323.2813 Q1137.3594,323.2813 1137.6094,323.5469 Q1137.875,323.7969 1137.875,324.1406 Q1137.875,324.4844 1137.5313,324.8906 Q1137.0313,325.4688 1136.2344,325.7969 Q1135.1563,326.25 1133.8594,326.25 Q1132.3438,326.25 1131.1406,325.625 Q1130.1563,325.125 1129.4688,324.0625 Q1128.7813,322.9844 1128.7813,321.7031 L1128.7813,320.5469 Q1128.7813,319.2188 1129.3906,318.0781 Q1130.0156,316.9219 1131.1094,316.3125 Q1132.2031,315.6875 1133.4375,315.6875 Q1134.1719,315.6875 1134.8125,315.8594 Q1135.4688,316.0156 1136.0156,316.375 Z "/><text fill="#000000" font-family="sans-serif" font-size="12" lengthAdjust="spacingAndGlyphs" textLength="55" x="1153.75" y="325.4102">Animation</text><line style="stroke: #A80036; stroke-width: 1.5;" x1="1047.5" x2="1282.5" y1="336.5" y2="336.5"/><line style="stroke: #A80036; stroke-width: 1.5;" x1="1047.5" x2="1282.5" y1="344.5" y2="344.5"/><ellipse cx="1057.5" cy="355.5" fill="#84BE84" rx="3" ry="3" style="stroke: #038048; stroke-width: 1.0;"/><text fill="#000000" font-family="sans-serif" font-size="11" lengthAdjust="spacingAndGlyphs" textLength="211" x="1066.5" y="359.9189">Animation(Movable, int, int, int, int, Direction)</text><ellipse cx="1057.5" cy="369.3359" fill="#84BE84" rx="3" ry="3" style="stroke: #038048; stroke-width: 1.0;"/><text fill="#000000" font-family="sans-serif" font-size="11" lengthAdjust="spacingAndGlyphs" textLength="77" x="1066.5" y="373.7549">getM(): Movable</text><ellipse cx="1057.5" cy="383.1719" fill="#84BE84" rx="3" ry="3" style="stroke: #038048; stroke-width: 1.0;"/><text fill="#000000" font-family="sans-serif" font-size="11" lengthAdjust="spacingAndGlyphs" textLength="78" x="1066.5" y="387.5908">getD(): Direction</text><ellipse cx="1057.5" cy="397.0078" fill="#84BE84" rx="3" ry="3" style="stroke: #038048; stroke-width: 1.0;"/><text fill="#000000" font-family="sans-serif" font-size="11" lengthAdjust="spacingAndGlyphs" textLength="71" x="1066.5" y="401.4268">getFromX(): int</text><ellipse cx="1057.5" cy="410.8438" fill="#84BE84" rx="3" ry="3" style="stroke: #038048; stroke-width: 1.0;"/><text fill="#000000" font-family="sans-serif" font-size="11" lengthAdjust="spacingAndGlyphs" textLength="72" x="1066.5" y="415.2627">getFromY(): int</text><ellipse cx="1057.5" cy="424.6797" fill="#84BE84" rx="3" ry="3" style="stroke: #038048; stroke-width: 1.0;"/><text fill="#000000" font-family="sans-serif" font-size="11" lengthAdjust="spacingAndGlyphs" textLength="59" x="1066.5" y="429.0986">getToX(): int</text><ellipse cx="1057.5" cy="438.5156" fill="#84BE84" rx="3" ry="3" style="stroke: #038048; stroke-width: 1.0;"/><text fill="#000000" font-family="sans-serif" font-size="11" lengthAdjust="spacingAndGlyphs" textLength="60" x="1066.5" y="442.9346">getToY(): int</text><ellipse cx="1057.5" cy="452.3516" fill="#84BE84" rx="3" ry="3" style="stroke: #038048; stroke-width: 1.0;"/><text fill="#000000" font-family="sans-serif" font-size="11" lengthAdjust="spacingAndGlyphs" textLength="112" x="1066.5" y="456.7705">setFromX(double): void</text><ellipse cx="1057.5" cy="466.1875" fill="#84BE84" rx="3" ry="3" style="stroke: #038048; stroke-width: 1.0;"/><text fill="#000000" font-family="sans-serif" font-size="11" lengthAdjust="spacingAndGlyphs" textLength="113" x="1066.5" y="470.6064">setFromY(double): void</text><ellipse cx="1057.5" cy="480.0234" fill="#84BE84" rx="3" ry="3" style="stroke: #038048; stroke-width: 1.0;"/><text fill="#000000" font-family="sans-serif" font-size="11" lengthAdjust="spacingAndGlyphs" textLength="100" x="1066.5" y="484.4424">setToX(double): void</text><ellipse cx="1057.5" cy="493.8594" fill="#84BE84" rx="3" ry="3" style="stroke: #038048; stroke-width: 1.0;"/><text fill="#000000" font-family="sans-serif" font-size="11" lengthAdjust="spacingAndGlyphs" textLength="101" x="1066.5" y="498.2783">setToY(double): void</text></a><!--MD5=[38401d3046419493790a6f54eb33f2be]
class nz.ac.vuw.ecs.swen225.gp20.rendering.AnimationHandler--><a href="AnimationHandler.html" target="_top" title="AnimationHandler.html" xlink:actuate="onRequest" xlink:href="AnimationHandler.html" xlink:show="new" xlink:title="AnimationHandler.html" xlink:type="simple"><rect codeLine="17" fill="#FEFECE" filter="url(#fwis0thddfiu3)" height="172.5234" id="nz.ac.vuw.ecs.swen225.gp20.rendering.AnimationHandler" style="stroke: #A80036; stroke-width: 1.5;" width="238" x="464" y="318"/><ellipse cx="529.25" cy="334" fill="#ADD1B2" rx="11" ry="11" style="stroke: #A80036; stroke-width: 1.0;"/><path d="M532.0156,329.875 Q532.1719,329.6563 532.3594,329.5469 Q532.5469,329.4375 532.7656,329.4375 Q533.1406,329.4375 533.375,329.7031 Q533.6094,329.9531 533.6094,330.5625 L533.6094,332.0156 Q533.6094,332.625 533.375,332.8906 Q533.1406,333.1563 532.7656,333.1563 Q532.4219,333.1563 532.2188,332.9531 Q532.0156,332.7656 531.9063,332.25 Q531.8594,331.8906 531.6719,331.7031 Q531.3438,331.3281 530.7344,331.1094 Q530.125,330.8906 529.5,330.8906 Q528.7344,330.8906 528.0938,331.2188 Q527.4688,331.5469 526.9688,332.2969 Q526.4844,333.0469 526.4844,334.0781 L526.4844,335.1719 Q526.4844,336.4063 527.375,337.2344 Q528.2656,338.0469 529.8594,338.0469 Q530.7969,338.0469 531.4531,337.7969 Q531.8438,337.6406 532.2656,337.2031 Q532.5313,336.9375 532.6719,336.8594 Q532.8281,336.7813 533.0313,336.7813 Q533.3594,336.7813 533.6094,337.0469 Q533.875,337.2969 533.875,337.6406 Q533.875,337.9844 533.5313,338.3906 Q533.0313,338.9688 532.2344,339.2969 Q531.1563,339.75 529.8594,339.75 Q528.3438,339.75 527.1406,339.125 Q526.1563,338.625 525.4688,337.5625 Q524.7813,336.4844 524.7813,335.2031 L524.7813,334.0469 Q524.7813,332.7188 525.3906,331.5781 Q526.0156,330.4219 527.1094,329.8125 Q528.2031,329.1875 529.4375,329.1875 Q530.1719,329.1875 530.8125,329.3594 Q531.4688,329.5156 532.0156,329.875 Z "/><text fill="#000000" font-family="sans-serif" font-size="12" lengthAdjust="spacingAndGlyphs" textLength="99" x="549.75" y="338.9102">AnimationHandler</text><line style="stroke: #A80036; stroke-width: 1.5;" x1="465" x2="701" y1="350" y2="350"/><polygon fill="none" points="475,356,479,360,475,364,471,360" style="stroke: #B38D22; stroke-width: 1.0;"/><text fill="#000000" font-family="sans-serif" font-size="11" lengthAdjust="spacingAndGlyphs" textLength="63" x="484" y="365.4189">toolkit: Toolkit</text><line style="stroke: #A80036; stroke-width: 1.5;" x1="465" x2="701" y1="371.8359" y2="371.8359"/><ellipse cx="475" cy="382.8359" fill="#84BE84" rx="3" ry="3" style="stroke: #038048; stroke-width: 1.0;"/><text fill="#000000" font-family="sans-serif" font-size="11" lengthAdjust="spacingAndGlyphs" textLength="179" x="484" y="387.2549">AnimationHandler(Maze, BoardView)</text><ellipse cx="475" cy="396.6719" fill="#84BE84" rx="3" ry="3" style="stroke: #038048; stroke-width: 1.0;"/><text fill="#000000" font-family="sans-serif" font-size="11" lengthAdjust="spacingAndGlyphs" textLength="120" x="484" y="401.0908">update(MazeEvent): void</text><ellipse cx="475" cy="410.5078" fill="#84BE84" rx="3" ry="3" style="stroke: #038048; stroke-width: 1.0;"/><text fill="#000000" font-family="sans-serif" font-size="11" lengthAdjust="spacingAndGlyphs" textLength="156" x="484" y="414.9268">update(MazeEventPushed): void</text><ellipse cx="475" cy="424.3438" fill="#84BE84" rx="3" ry="3" style="stroke: #038048; stroke-width: 1.0;"/><text fill="#000000" font-family="sans-serif" font-size="11" lengthAdjust="spacingAndGlyphs" textLength="185" x="484" y="428.7627">update(MazeEventPushedWater): void</text><ellipse cx="475" cy="438.1797" fill="#84BE84" rx="3" ry="3" style="stroke: #038048; stroke-width: 1.0;"/><text fill="#000000" font-family="sans-serif" font-size="11" lengthAdjust="spacingAndGlyphs" textLength="187" x="484" y="442.5986">update(MazeEventEnemyWalked): void</text><ellipse cx="475" cy="452.0156" fill="#84BE84" rx="3" ry="3" style="stroke: #038048; stroke-width: 1.0;"/><text fill="#000000" font-family="sans-serif" font-size="11" lengthAdjust="spacingAndGlyphs" textLength="180" x="484" y="456.4346">update(MazeEventWalkedKilled): void</text><ellipse cx="475" cy="465.8516" fill="#84BE84" rx="3" ry="3" style="stroke: #038048; stroke-width: 1.0;"/><text fill="#000000" font-family="sans-serif" font-size="11" lengthAdjust="spacingAndGlyphs" textLength="212" x="484" y="470.2705">update(MazeEventEnemyWalkedKilled): void</text><ellipse cx="475" cy="479.6875" fill="#84BE84" rx="3" ry="3" style="stroke: #038048; stroke-width: 1.0;"/><text fill="#000000" font-family="sans-serif" font-size="11" lengthAdjust="spacingAndGlyphs" textLength="200" x="484" y="484.1064">update(MazeEventWalkedDrowned): void</text></a><!--MD5=[cce5c5df116daf6399e47722091cf7aa]
class nz.ac.vuw.ecs.swen225.gp20.rendering.BoardView--><a href="BoardView.html" target="_top" title="BoardView.html" xlink:actuate="onRequest" xlink:href="BoardView.html" xlink:show="new" xlink:title="BoardView.html" xlink:type="simple"><rect codeLine="29" fill="#FEFECE" filter="url(#fwis0thddfiu3)" height="227.8672" id="nz.ac.vuw.ecs.swen225.gp20.rendering.BoardView" style="stroke: #A80036; stroke-width: 1.5;" width="274" x="737" y="290.5"/><ellipse cx="840.25" cy="306.5" fill="#ADD1B2" rx="11" ry="11" style="stroke: #A80036; stroke-width: 1.0;"/><path d="M843.0156,302.375 Q843.1719,302.1563 843.3594,302.0469 Q843.5469,301.9375 843.7656,301.9375 Q844.1406,301.9375 844.375,302.2031 Q844.6094,302.4531 844.6094,303.0625 L844.6094,304.5156 Q844.6094,305.125 844.375,305.3906 Q844.1406,305.6563 843.7656,305.6563 Q843.4219,305.6563 843.2188,305.4531 Q843.0156,305.2656 842.9063,304.75 Q842.8594,304.3906 842.6719,304.2031 Q842.3438,303.8281 841.7344,303.6094 Q841.125,303.3906 840.5,303.3906 Q839.7344,303.3906 839.0938,303.7188 Q838.4688,304.0469 837.9688,304.7969 Q837.4844,305.5469 837.4844,306.5781 L837.4844,307.6719 Q837.4844,308.9063 838.375,309.7344 Q839.2656,310.5469 840.8594,310.5469 Q841.7969,310.5469 842.4531,310.2969 Q842.8438,310.1406 843.2656,309.7031 Q843.5313,309.4375 843.6719,309.3594 Q843.8281,309.2813 844.0313,309.2813 Q844.3594,309.2813 844.6094,309.5469 Q844.875,309.7969 844.875,310.1406 Q844.875,310.4844 844.5313,310.8906 Q844.0313,311.4688 843.2344,311.7969 Q842.1563,312.25 840.8594,312.25 Q839.3438,312.25 838.1406,311.625 Q837.1563,311.125 836.4688,310.0625 Q835.7813,308.9844 835.7813,307.7031 L835.7813,306.5469 Q835.7813,305.2188 836.3906,304.0781 Q837.0156,302.9219 838.1094,302.3125 Q839.2031,301.6875 840.4375,301.6875 Q841.1719,301.6875 841.8125,301.8594 Q842.4688,302.0156 843.0156,302.375 Z "/><text fill="#000000" font-family="sans-serif" font-size="12" lengthAdjust="spacingAndGlyphs" textLength="59" x="860.75" y="311.4102">BoardView</text><line style="stroke: #A80036; stroke-width: 1.5;" x1="738" x2="1010" y1="322.5" y2="322.5"/><ellipse cx="748" cy="333.5" fill="none" rx="3" ry="3" style="stroke: #038048; stroke-width: 1.0;"/><text fill="#000000" font-family="sans-serif" font-size="11" lengthAdjust="spacingAndGlyphs" textLength="99" x="757" y="337.9189">isAnimating: boolean</text><line style="stroke: #A80036; stroke-width: 1.5;" x1="738" x2="1010" y1="344.3359" y2="344.3359"/><ellipse cx="748" cy="355.3359" fill="#84BE84" rx="3" ry="3" style="stroke: #038048; stroke-width: 1.0;"/><text fill="#000000" font-family="sans-serif" font-size="11" lengthAdjust="spacingAndGlyphs" textLength="89" x="757" y="359.7549">BoardView(Maze)</text><polygon fill="#FFFF44" points="748,364.1719,752,368.1719,748,372.1719,744,368.1719" style="stroke: #B38D22; stroke-width: 1.0;"/><text fill="#000000" font-family="sans-serif" font-size="11" lengthAdjust="spacingAndGlyphs" textLength="155" x="757" y="373.5908">paintComponent(Graphics): void</text><ellipse cx="748" cy="383.0078" fill="#84BE84" rx="3" ry="3" style="stroke: #038048; stroke-width: 1.0;"/><text fill="#000000" font-family="sans-serif" font-size="11" lengthAdjust="spacingAndGlyphs" textLength="163" x="757" y="387.4268">drawWholeBoard(Graphics): void</text><ellipse cx="748" cy="396.8438" fill="#84BE84" rx="3" ry="3" style="stroke: #038048; stroke-width: 1.0;"/><text fill="#000000" font-family="sans-serif" font-size="11" lengthAdjust="spacingAndGlyphs" textLength="185" x="757" y="401.2627">drawWindowedBoard(Graphics): void</text><ellipse cx="748" cy="410.6797" fill="#84BE84" rx="3" ry="3" style="stroke: #038048; stroke-width: 1.0;"/><text fill="#000000" font-family="sans-serif" font-size="11" lengthAdjust="spacingAndGlyphs" textLength="115" x="757" y="415.0986">animate(Graphics): void</text><ellipse cx="748" cy="424.5156" fill="#84BE84" rx="3" ry="3" style="stroke: #038048; stroke-width: 1.0;"/><text fill="#000000" font-family="sans-serif" font-size="11" lengthAdjust="spacingAndGlyphs" textLength="248" x="757" y="428.9346">initaliseAnimation(Movable, Tile, Tile, Direction): void</text><ellipse cx="748" cy="438.3516" fill="#84BE84" rx="3" ry="3" style="stroke: #038048; stroke-width: 1.0;"/><text fill="#000000" font-family="sans-serif" font-size="11" lengthAdjust="spacingAndGlyphs" textLength="134" x="757" y="442.7705">setAnimating(boolean): void</text><ellipse cx="748" cy="452.1875" fill="#84BE84" rx="3" ry="3" style="stroke: #038048; stroke-width: 1.0;"/><text fill="#000000" font-family="sans-serif" font-size="11" lengthAdjust="spacingAndGlyphs" textLength="110" x="757" y="456.6064">checkAnimation(): void</text><ellipse cx="748" cy="466.0234" fill="#84BE84" rx="3" ry="3" style="stroke: #038048; stroke-width: 1.0;"/><text fill="#000000" font-family="sans-serif" font-size="11" lengthAdjust="spacingAndGlyphs" textLength="171" x="757" y="470.4424">actionPerformed(ActionEvent): void</text><ellipse cx="748" cy="479.8594" fill="#84BE84" rx="3" ry="3" style="stroke: #038048; stroke-width: 1.0;"/><text fill="#000000" font-family="sans-serif" font-size="11" lengthAdjust="spacingAndGlyphs" textLength="81" x="757" y="484.2783">getMaze(): Maze</text><ellipse cx="748" cy="493.6953" fill="#84BE84" rx="3" ry="3" style="stroke: #038048; stroke-width: 1.0;"/><text fill="#000000" font-family="sans-serif" font-size="11" lengthAdjust="spacingAndGlyphs" textLength="87" x="757" y="498.1143">getBlockSize(): int</text><ellipse cx="748" cy="507.5313" fill="#84BE84" rx="3" ry="3" style="stroke: #038048; stroke-width: 1.0;"/><text fill="#000000" font-family="sans-serif" font-size="11" lengthAdjust="spacingAndGlyphs" textLength="85" x="757" y="511.9502">reset(Maze): void</text></a><!--MD5=[2f66584364dad241d03b9bd7c8cc2e6d]
class nz.ac.vuw.ecs.swen225.gp20.rendering.SoundEffect--><a href="SoundEffect.html" target="_top" title="SoundEffect.html" xlink:actuate="onRequest" xlink:href="SoundEffect.html" xlink:show="new" xlink:title="SoundEffect.html" xlink:type="simple"><rect codeLine="45" fill="#FEFECE" filter="url(#fwis0thddfiu3)" height="75.6719" id="nz.ac.vuw.ecs.swen225.gp20.rendering.SoundEffect" style="stroke: #A80036; stroke-width: 1.5;" width="122" x="307" y="366.5"/><ellipse cx="332.8" cy="382.5" fill="#ADD1B2" rx="11" ry="11" style="stroke: #A80036; stroke-width: 1.0;"/><path d="M335.5656,378.375 Q335.7219,378.1563 335.9094,378.0469 Q336.0969,377.9375 336.3156,377.9375 Q336.6906,377.9375 336.925,378.2031 Q337.1594,378.4531 337.1594,379.0625 L337.1594,380.5156 Q337.1594,381.125 336.925,381.3906 Q336.6906,381.6563 336.3156,381.6563 Q335.9719,381.6563 335.7688,381.4531 Q335.5656,381.2656 335.4563,380.75 Q335.4094,380.3906 335.2219,380.2031 Q334.8938,379.8281 334.2844,379.6094 Q333.675,379.3906 333.05,379.3906 Q332.2844,379.3906 331.6438,379.7188 Q331.0188,380.0469 330.5188,380.7969 Q330.0344,381.5469 330.0344,382.5781 L330.0344,383.6719 Q330.0344,384.9063 330.925,385.7344 Q331.8156,386.5469 333.4094,386.5469 Q334.3469,386.5469 335.0031,386.2969 Q335.3938,386.1406 335.8156,385.7031 Q336.0813,385.4375 336.2219,385.3594 Q336.3781,385.2813 336.5813,385.2813 Q336.9094,385.2813 337.1594,385.5469 Q337.425,385.7969 337.425,386.1406 Q337.425,386.4844 337.0813,386.8906 Q336.5813,387.4688 335.7844,387.7969 Q334.7063,388.25 333.4094,388.25 Q331.8938,388.25 330.6906,387.625 Q329.7063,387.125 329.0188,386.0625 Q328.3313,384.9844 328.3313,383.7031 L328.3313,382.5469 Q328.3313,381.2188 328.9406,380.0781 Q329.5656,378.9219 330.6594,378.3125 Q331.7531,377.6875 332.9875,377.6875 Q333.7219,377.6875 334.3625,377.8594 Q335.0188,378.0156 335.5656,378.375 Z "/><text fill="#000000" font-family="sans-serif" font-size="12" lengthAdjust="spacingAndGlyphs" textLength="66" x="349.2" y="387.4102">SoundEffect</text><line style="stroke: #A80036; stroke-width: 1.5;" x1="308" x2="428" y1="398.5" y2="398.5"/><line style="stroke: #A80036; stroke-width: 1.5;" x1="308" x2="428" y1="406.5" y2="406.5"/><ellipse cx="318" cy="417.5" fill="#84BE84" rx="3" ry="3" style="stroke: #038048; stroke-width: 1.0;"/><text fill="#000000" font-family="sans-serif" font-size="11" lengthAdjust="spacingAndGlyphs" textLength="96" x="327" y="421.9189">SoundEffect(String)</text><ellipse cx="318" cy="431.3359" fill="#84BE84" rx="3" ry="3" style="stroke: #038048; stroke-width: 1.0;"/><text fill="#000000" font-family="sans-serif" font-size="11" lengthAdjust="spacingAndGlyphs" textLength="54" x="327" y="435.7549">play(): void</text></a><!--MD5=[bef12b3d8df063b3de5ebf9d042eaf17]
class nz.ac.vuw.ecs.swen225.gp20.rendering.SoundHandler--><a href="SoundHandler.html" target="_top" title="SoundHandler.html" xlink:actuate="onRequest" xlink:href="SoundHandler.html" xlink:show="new" xlink:title="SoundHandler.html" xlink:type="simple"><rect codeLine="50" fill="#FEFECE" filter="url(#fwis0thddfiu3)" height="283.2109" id="nz.ac.vuw.ecs.swen225.gp20.rendering.SoundHandler" style="stroke: #A80036; stroke-width: 1.5;" width="239" x="32.5" y="263"/><ellipse cx="107.75" cy="279" fill="#ADD1B2" rx="11" ry="11" style="stroke: #A80036; stroke-width: 1.0;"/><path d="M110.5156,274.875 Q110.6719,274.6563 110.8594,274.5469 Q111.0469,274.4375 111.2656,274.4375 Q111.6406,274.4375 111.875,274.7031 Q112.1094,274.9531 112.1094,275.5625 L112.1094,277.0156 Q112.1094,277.625 111.875,277.8906 Q111.6406,278.1563 111.2656,278.1563 Q110.9219,278.1563 110.7188,277.9531 Q110.5156,277.7656 110.4063,277.25 Q110.3594,276.8906 110.1719,276.7031 Q109.8438,276.3281 109.2344,276.1094 Q108.625,275.8906 108,275.8906 Q107.2344,275.8906 106.5938,276.2188 Q105.9688,276.5469 105.4688,277.2969 Q104.9844,278.0469 104.9844,279.0781 L104.9844,280.1719 Q104.9844,281.4063 105.875,282.2344 Q106.7656,283.0469 108.3594,283.0469 Q109.2969,283.0469 109.9531,282.7969 Q110.3438,282.6406 110.7656,282.2031 Q111.0313,281.9375 111.1719,281.8594 Q111.3281,281.7813 111.5313,281.7813 Q111.8594,281.7813 112.1094,282.0469 Q112.375,282.2969 112.375,282.6406 Q112.375,282.9844 112.0313,283.3906 Q111.5313,283.9688 110.7344,284.2969 Q109.6563,284.75 108.3594,284.75 Q106.8438,284.75 105.6406,284.125 Q104.6563,283.625 103.9688,282.5625 Q103.2813,281.4844 103.2813,280.2031 L103.2813,279.0469 Q103.2813,277.7188 103.8906,276.5781 Q104.5156,275.4219 105.6094,274.8125 Q106.7031,274.1875 107.9375,274.1875 Q108.6719,274.1875 109.3125,274.3594 Q109.9688,274.5156 110.5156,274.875 Z "/><text fill="#000000" font-family="sans-serif" font-size="12" lengthAdjust="spacingAndGlyphs" textLength="80" x="128.25" y="283.9102">SoundHandler</text><line style="stroke: #A80036; stroke-width: 1.5;" x1="33.5" x2="270.5" y1="295" y2="295"/><line style="stroke: #A80036; stroke-width: 1.5;" x1="33.5" x2="270.5" y1="303" y2="303"/><ellipse cx="43.5" cy="314" fill="#84BE84" rx="3" ry="3" style="stroke: #038048; stroke-width: 1.0;"/><text fill="#000000" font-family="sans-serif" font-size="11" lengthAdjust="spacingAndGlyphs" textLength="102" x="52.5" y="318.4189">SoundHandler(Maze)</text><ellipse cx="43.5" cy="327.8359" fill="#84BE84" rx="3" ry="3" style="stroke: #038048; stroke-width: 1.0;"/><text fill="#000000" font-family="sans-serif" font-size="11" lengthAdjust="spacingAndGlyphs" textLength="108" x="52.5" y="332.2549">initialiseSounds(): void</text><ellipse cx="43.5" cy="341.6719" fill="#84BE84" rx="3" ry="3" style="stroke: #038048; stroke-width: 1.0;"/><text fill="#000000" font-family="sans-serif" font-size="11" lengthAdjust="spacingAndGlyphs" textLength="125" x="52.5" y="346.0908">initialiseListSounds(): void</text><ellipse cx="43.5" cy="355.5078" fill="#84BE84" rx="3" ry="3" style="stroke: #038048; stroke-width: 1.0;"/><text fill="#000000" font-family="sans-serif" font-size="11" lengthAdjust="spacingAndGlyphs" textLength="113" x="52.5" y="359.9268">playSound(String): void</text><ellipse cx="43.5" cy="369.3438" fill="#84BE84" rx="3" ry="3" style="stroke: #038048; stroke-width: 1.0;"/><text fill="#000000" font-family="sans-serif" font-size="11" lengthAdjust="spacingAndGlyphs" textLength="213" x="52.5" y="373.7627">playRandomSound(List&lt;SoundEffect&gt;): void</text><ellipse cx="43.5" cy="383.1797" fill="#84BE84" rx="3" ry="3" style="stroke: #038048; stroke-width: 1.0;"/><text fill="#000000" font-family="sans-serif" font-size="11" lengthAdjust="spacingAndGlyphs" textLength="164" x="52.5" y="387.5986">update(MazeEventUnlocked): void</text><ellipse cx="43.5" cy="397.0156" fill="#84BE84" rx="3" ry="3" style="stroke: #038048; stroke-width: 1.0;"/><text fill="#000000" font-family="sans-serif" font-size="11" lengthAdjust="spacingAndGlyphs" textLength="156" x="52.5" y="401.4346">update(MazeEventPushed): void</text><ellipse cx="43.5" cy="410.8516" fill="#84BE84" rx="3" ry="3" style="stroke: #038048; stroke-width: 1.0;"/><text fill="#000000" font-family="sans-serif" font-size="11" lengthAdjust="spacingAndGlyphs" textLength="171" x="52.5" y="415.2705">update(MazeEventTeleported): void</text><ellipse cx="43.5" cy="424.6875" fill="#84BE84" rx="3" ry="3" style="stroke: #038048; stroke-width: 1.0;"/><text fill="#000000" font-family="sans-serif" font-size="11" lengthAdjust="spacingAndGlyphs" textLength="185" x="52.5" y="429.1064">update(MazeEventPushedWater): void</text><ellipse cx="43.5" cy="438.5234" fill="#84BE84" rx="3" ry="3" style="stroke: #038048; stroke-width: 1.0;"/><text fill="#000000" font-family="sans-serif" font-size="11" lengthAdjust="spacingAndGlyphs" textLength="155" x="52.5" y="442.9424">update(MazeEventWalked): void</text><ellipse cx="43.5" cy="452.3594" fill="#84BE84" rx="3" ry="3" style="stroke: #038048; stroke-width: 1.0;"/><text fill="#000000" font-family="sans-serif" font-size="11" lengthAdjust="spacingAndGlyphs" textLength="151" x="52.5" y="456.7783">update(MazeEventPickup): void</text><ellipse cx="43.5" cy="466.1953" fill="#84BE84" rx="3" ry="3" style="stroke: #038048; stroke-width: 1.0;"/><text fill="#000000" font-family="sans-serif" font-size="11" lengthAdjust="spacingAndGlyphs" textLength="142" x="52.5" y="470.6143">update(MazeEventWon): void</text><ellipse cx="43.5" cy="480.0313" fill="#84BE84" rx="3" ry="3" style="stroke: #038048; stroke-width: 1.0;"/><text fill="#000000" font-family="sans-serif" font-size="11" lengthAdjust="spacingAndGlyphs" textLength="160" x="52.5" y="484.4502">update(MazeEventInfoField): void</text><ellipse cx="43.5" cy="493.8672" fill="#84BE84" rx="3" ry="3" style="stroke: #038048; stroke-width: 1.0;"/><text fill="#000000" font-family="sans-serif" font-size="11" lengthAdjust="spacingAndGlyphs" textLength="181" x="52.5" y="498.2861">update(MazeEventExitUnlocked): void</text><ellipse cx="43.5" cy="507.7031" fill="#84BE84" rx="3" ry="3" style="stroke: #038048; stroke-width: 1.0;"/><text fill="#000000" font-family="sans-serif" font-size="11" lengthAdjust="spacingAndGlyphs" textLength="180" x="52.5" y="512.1221">update(MazeEventWalkedKilled): void</text><ellipse cx="43.5" cy="521.5391" fill="#84BE84" rx="3" ry="3" style="stroke: #038048; stroke-width: 1.0;"/><text fill="#000000" font-family="sans-serif" font-size="11" lengthAdjust="spacingAndGlyphs" textLength="212" x="52.5" y="525.958">update(MazeEventEnemyWalkedKilled): void</text><ellipse cx="43.5" cy="535.375" fill="#84BE84" rx="3" ry="3" style="stroke: #038048; stroke-width: 1.0;"/><text fill="#000000" font-family="sans-serif" font-size="11" lengthAdjust="spacingAndGlyphs" textLength="200" x="52.5" y="539.7939">update(MazeEventWalkedDrowned): void</text></a><!--MD5=[a332cefbfed17df6d36ecc563de89414]
class nz.ac.vuw.ecs.swen225.gp20.maze.event.MazeEventListener--><a href="..\maze\event\MazeEventListener.html" target="_top" title="..\maze\event\MazeEventListener.html" xlink:actuate="onRequest" xlink:href="..\maze\event\MazeEventListener.html" xlink:show="new" xlink:title="..\maze\event\MazeEventListener.html" xlink:type="simple"><rect codeLine="77" fill="#FEFECE" filter="url(#fwis0thddfiu3)" height="48" id="nz.ac.vuw.ecs.swen225.gp20.maze.event.MazeEventListener" style="stroke: #A80036; stroke-width: 1.5;" width="135" x="112.5" y="90.5"/><ellipse cx="127.5" cy="106.5" fill="#ADD1B2" rx="11" ry="11" style="stroke: #A80036; stroke-width: 1.0;"/><path d="M130.2656,102.375 Q130.4219,102.1563 130.6094,102.0469 Q130.7969,101.9375 131.0156,101.9375 Q131.3906,101.9375 131.625,102.2031 Q131.8594,102.4531 131.8594,103.0625 L131.8594,104.5156 Q131.8594,105.125 131.625,105.3906 Q131.3906,105.6563 131.0156,105.6563 Q130.6719,105.6563 130.4688,105.4531 Q130.2656,105.2656 130.1563,104.75 Q130.1094,104.3906 129.9219,104.2031 Q129.5938,103.8281 128.9844,103.6094 Q128.375,103.3906 127.75,103.3906 Q126.9844,103.3906 126.3438,103.7188 Q125.7188,104.0469 125.2188,104.7969 Q124.7344,105.5469 124.7344,106.5781 L124.7344,107.6719 Q124.7344,108.9063 125.625,109.7344 Q126.5156,110.5469 128.1094,110.5469 Q129.0469,110.5469 129.7031,110.2969 Q130.0938,110.1406 130.5156,109.7031 Q130.7813,109.4375 130.9219,109.3594 Q131.0781,109.2813 131.2813,109.2813 Q131.6094,109.2813 131.8594,109.5469 Q132.125,109.7969 132.125,110.1406 Q132.125,110.4844 131.7813,110.8906 Q131.2813,111.4688 130.4844,111.7969 Q129.4063,112.25 128.1094,112.25 Q126.5938,112.25 125.3906,111.625 Q124.4063,111.125 123.7188,110.0625 Q123.0313,108.9844 123.0313,107.7031 L123.0313,106.5469 Q123.0313,105.2188 123.6406,104.0781 Q124.2656,102.9219 125.3594,102.3125 Q126.4531,101.6875 127.6875,101.6875 Q128.4219,101.6875 129.0625,101.8594 Q129.7188,102.0156 130.2656,102.375 Z "/><text fill="#000000" font-family="sans-serif" font-size="12" lengthAdjust="spacingAndGlyphs" textLength="103" x="141.5" y="111.4102">MazeEventListener</text><line style="stroke: #A80036; stroke-width: 1.5;" x1="113.5" x2="246.5" y1="122.5" y2="122.5"/><line style="stroke: #A80036; stroke-width: 1.5;" x1="113.5" x2="246.5" y1="130.5" y2="130.5"/></a><!--MD5=[3ea458d433f53e831f622a7b045ec21c]
class javax.swing.JComponent--><rect codeLine="81" fill="#FEFECE" filter="url(#fwis0thddfiu3)" height="144.8516" id="javax.swing.JComponent" style="stroke: #A80036; stroke-width: 1.5;" width="278" x="587" y="42"/><ellipse cx="686.25" cy="58" fill="#A9DCDF" rx="11" ry="11" style="stroke: #A80036; stroke-width: 1.0;"/><path d="M688.4375,59.7656 L684.2969,59.7656 L683.875,60.7969 L684.2969,60.7969 Q684.9063,60.7969 685.1719,61.0313 Q685.4375,61.2656 685.4375,61.6563 Q685.4375,62.0313 685.1719,62.2656 Q684.9063,62.5 684.2969,62.5 L682,62.5 Q681.3906,62.5 681.1406,62.2656 Q680.875,62.0313 680.875,61.6406 Q680.875,61.2656 681.1563,61.0313 Q681.4219,60.7813 682.0469,60.7969 L684.7188,54.1406 L683.6094,54.1406 Q683,54.1406 682.7344,53.9063 Q682.4688,53.6719 682.4688,53.2813 Q682.4688,52.9063 682.7344,52.6719 Q683,52.4375 683.6094,52.4375 L687.2813,52.4375 L690.6719,60.7969 Q691.2656,60.7969 691.4531,60.9375 Q691.8438,61.2031 691.8438,61.6563 Q691.8438,62.0313 691.5781,62.2656 Q691.3281,62.5 690.7188,62.5 L688.4219,62.5 Q687.8125,62.5 687.5469,62.2656 Q687.2813,62.0313 687.2813,61.6406 Q687.2813,61.2656 687.5469,61.0313 Q687.8125,60.7969 688.4219,60.7969 L688.8438,60.7969 L688.4375,59.7656 Z M687.7188,58.0625 L686.3594,54.6875 L684.9844,58.0625 L687.7188,58.0625 Z "/><text fill="#000000" font-family="sans-serif" font-size="12" font-style="italic" lengthAdjust="spacingAndGlyphs" textLength="71" x="706.75" y="62.9102">JComponent</text><line style="stroke: #A80036; stroke-width: 1.5;" x1="588" x2="864" y1="74" y2="74"/><polygon fill="none" points="598,80,602,84,598,88,594,84" style="stroke: #B38D22; stroke-width: 1.0;"/><text fill="#000000" font-family="sans-serif" font-size="11" lengthAdjust="spacingAndGlyphs" textLength="77" x="607" y="89.4189">ui: ComponentUI</text><polygon fill="none" points="598,93.8359,602,97.8359,598,101.8359,594,97.8359" style="stroke: #B38D22; stroke-width: 1.0;"/><text fill="#000000" font-family="sans-serif" font-size="11" lengthAdjust="spacingAndGlyphs" textLength="141" x="607" y="103.2549">listenerList: EventListenerList</text><ellipse cx="598" cy="112.6719" fill="none" rx="3" ry="3" style="stroke: #038048; stroke-width: 1.0;"/><text fill="#000000" font-family="sans-serif" font-size="11" lengthAdjust="spacingAndGlyphs" text-decoration="underline" textLength="101" x="607" y="117.0908">WHEN_FOCUSED: int</text><ellipse cx="598" cy="126.5078" fill="none" rx="3" ry="3" style="stroke: #038048; stroke-width: 1.0;"/><text fill="#000000" font-family="sans-serif" font-size="11" lengthAdjust="spacingAndGlyphs" text-decoration="underline" textLength="252" x="607" y="130.9268">WHEN_ANCESTOR_OF_FOCUSED_COMPONENT: int</text><ellipse cx="598" cy="140.3438" fill="none" rx="3" ry="3" style="stroke: #038048; stroke-width: 1.0;"/><text fill="#000000" font-family="sans-serif" font-size="11" lengthAdjust="spacingAndGlyphs" text-decoration="underline" textLength="166" x="607" y="144.7627">WHEN_IN_FOCUSED_WINDOW: int</text><ellipse cx="598" cy="154.1797" fill="none" rx="3" ry="3" style="stroke: #038048; stroke-width: 1.0;"/><text fill="#000000" font-family="sans-serif" font-size="11" lengthAdjust="spacingAndGlyphs" text-decoration="underline" textLength="132" x="607" y="158.5986">UNDEFINED_CONDITION: int</text><ellipse cx="598" cy="168.0156" fill="none" rx="3" ry="3" style="stroke: #038048; stroke-width: 1.0;"/><text fill="#000000" font-family="sans-serif" font-size="11" lengthAdjust="spacingAndGlyphs" text-decoration="underline" textLength="140" x="607" y="172.4346">TOOL_TIP_TEXT_KEY: String</text><line style="stroke: #A80036; stroke-width: 1.5;" x1="588" x2="864" y1="178.8516" y2="178.8516"/><!--MD5=[6631281fcee7fc541b441b6c950a0fa0]
class java.awt.event.ActionListener--><rect codeLine="93" fill="#FEFECE" filter="url(#fwis0thddfiu3)" height="61.8359" id="java.awt.event.ActionListener" style="stroke: #A80036; stroke-width: 1.5;" width="199" x="921.5" y="83.5"/><ellipse cx="977.75" cy="99.5" fill="#B4A7E5" rx="11" ry="11" style="stroke: #A80036; stroke-width: 1.0;"/><path d="M978.7031,96.1406 L978.7031,102.7969 L980.4219,102.7969 Q981.0313,102.7969 981.2969,103.0313 Q981.5625,103.2656 981.5625,103.6563 Q981.5625,104.0313 981.2969,104.2656 Q981.0313,104.5 980.4219,104.5 L975.2813,104.5 Q974.6719,104.5 974.4063,104.2656 Q974.1406,104.0313 974.1406,103.6406 Q974.1406,103.2656 974.4063,103.0313 Q974.6719,102.7969 975.2813,102.7969 L977,102.7969 L977,96.1406 L975.2813,96.1406 Q974.6719,96.1406 974.4063,95.9063 Q974.1406,95.6719 974.1406,95.2813 Q974.1406,94.9063 974.4063,94.6719 Q974.6719,94.4375 975.2813,94.4375 L980.4219,94.4375 Q981.0313,94.4375 981.2969,94.6719 Q981.5625,94.9063 981.5625,95.2813 Q981.5625,95.6719 981.2969,95.9063 Q981.0313,96.1406 980.4219,96.1406 L978.7031,96.1406 Z "/><text fill="#000000" font-family="sans-serif" font-size="12" font-style="italic" lengthAdjust="spacingAndGlyphs" textLength="78" x="998.25" y="104.4102">ActionListener</text><line style="stroke: #A80036; stroke-width: 1.5;" x1="922.5" x2="1119.5" y1="115.5" y2="115.5"/><line style="stroke: #A80036; stroke-width: 1.5;" x1="922.5" x2="1119.5" y1="123.5" y2="123.5"/><ellipse cx="932.5" cy="134.5" fill="#84BE84" rx="3" ry="3" style="stroke: #038048; stroke-width: 1.0;"/><text fill="#000000" font-family="sans-serif" font-size="11" font-style="italic" lengthAdjust="spacingAndGlyphs" textLength="173" x="941.5" y="138.9189">actionPerformed(ActionEvent): void</text><!--MD5=[214490cb79609e48951f438089d736f8]
reverse link nz.ac.vuw.ecs.swen225.gp20.maze.event.MazeEventListener to nz.ac.vuw.ecs.swen225.gp20.rendering.AnimationHandler--><path codeLine="70" d="M267.09,136 C322.29,152.07 393.01,178.59 446,219 C480.89,245.61 511.1,283.42 534.2,317.89 " fill="none" id="nz.ac.vuw.ecs.swen225.gp20.maze.event.MazeEventListener-backto-nz.ac.vuw.ecs.swen225.gp20.rendering.AnimationHandler" style="stroke: #A80036; stroke-width: 1.0;"/><polygon fill="none" points="264.9,142.66,247.51,130.55,268.66,129.17,264.9,142.66" style="stroke: #A80036; stroke-width: 1.0;"/><!--MD5=[1737fcb7ca69e0ae15d314ab720d91a5]
reverse link javax.swing.JComponent to nz.ac.vuw.ecs.swen225.gp20.rendering.BoardView--><path codeLine="71" d="M772.08,205.17 C785.92,232.1 801.28,262 815.8,290.24 " fill="none" id="javax.swing.JComponent-backto-nz.ac.vuw.ecs.swen225.gp20.rendering.BoardView" style="stroke: #A80036; stroke-width: 1.0;"/><polygon fill="none" points="765.69,208.05,762.77,187.06,778.14,201.65,765.69,208.05" style="stroke: #A80036; stroke-width: 1.0;"/><!--MD5=[8a6f4e42fd0d4a6db4e1c0d822c0de48]
reverse link java.awt.event.ActionListener to nz.ac.vuw.ecs.swen225.gp20.rendering.BoardView--><path codeLine="72" d="M996.4,163.7 C978.75,198.28 954.21,246.35 931.74,290.38 " fill="none" id="java.awt.event.ActionListener-backto-nz.ac.vuw.ecs.swen225.gp20.rendering.BoardView" style="stroke: #A80036; stroke-width: 1.0; stroke-dasharray: 7.0,7.0;"/><polygon fill="none" points="990.36,160.14,1005.68,145.51,1002.83,166.5,990.36,160.14" style="stroke: #A80036; stroke-width: 1.0;"/><!--MD5=[dda521ea065922f9a7b44ab31e7bdda2]
reverse link nz.ac.vuw.ecs.swen225.gp20.maze.event.MazeEventListener to nz.ac.vuw.ecs.swen225.gp20.rendering.SoundHandler--><path codeLine="73" d="M175.8,158.66 C173.08,186.69 169.36,224.95 165.67,262.89 " fill="none" id="nz.ac.vuw.ecs.swen225.gp20.maze.event.MazeEventListener-backto-nz.ac.vuw.ecs.swen225.gp20.rendering.SoundHandler" style="stroke: #A80036; stroke-width: 1.0;"/><polygon fill="none" points="168.85,157.81,177.76,138.58,182.79,159.16,168.85,157.81" style="stroke: #A80036; stroke-width: 1.0;"/><text fill="#888888" font-family="sans-serif" font-size="10" lengthAdjust="spacingAndGlyphs" textLength="190" x="557" y="578.3809">UMLDoclet 2.0.12, PlantUML 1.2020.16</text><!--MD5=[258d8a92ee72c5e31536b8b1f2ddd8b6]
@startuml
    namespace nz.ac.vuw.ecs.swen225.gp20.rendering {

        class Animation [[Animation.html]] {
            +Animation(Movable, int, int, int, int, Direction)
            +getM(): Movable
            +getD(): Direction
            +getFromX(): int
            +getFromY(): int
            +getToX(): int
            +getToY(): int
            +setFromX(double): void
            +setFromY(double): void
            +setToX(double): void
            +setToY(double): void
        }

        class AnimationHandler [[AnimationHandler.html]] {
            #toolkit: Toolkit
            +AnimationHandler(Maze, BoardView)
            +update(MazeEvent): void
            +update(MazeEventPushed): void
            +update(MazeEventPushedWater): void
            +update(MazeEventEnemyWalked): void
            +update(MazeEventWalkedKilled): void
            +update(MazeEventEnemyWalkedKilled): void
            +update(MazeEventWalkedDrowned): void
        }

        class BoardView [[BoardView.html]] {
            +isAnimating: boolean
            +BoardView(Maze)
            #paintComponent(Graphics): void
            +drawWholeBoard(Graphics): void
            +drawWindowedBoard(Graphics): void
            +animate(Graphics): void
            +initaliseAnimation(Movable, Tile, Tile, Direction): void
            +setAnimating(boolean): void
            +checkAnimation(): void
            +actionPerformed(ActionEvent): void
            +getMaze(): Maze
            +getBlockSize(): int
            +reset(Maze): void
        }

        class SoundEffect [[SoundEffect.html]] {
            +SoundEffect(String)
            +play(): void
        }

        class SoundHandler [[SoundHandler.html]] {
            +SoundHandler(Maze)
            +initialiseSounds(): void
            +initialiseListSounds(): void
            +playSound(String): void
            +playRandomSound(List<SoundEffect>): void
            +update(MazeEventUnlocked): void
            +update(MazeEventPushed): void
            +update(MazeEventTeleported): void
            +update(MazeEventPushedWater): void
            +update(MazeEventWalked): void
            +update(MazeEventPickup): void
            +update(MazeEventWon): void
            +update(MazeEventInfoField): void
            +update(MazeEventExitUnlocked): void
            +update(MazeEventWalkedKilled): void
            +update(MazeEventEnemyWalkedKilled): void
            +update(MazeEventWalkedDrowned): void
        }

        nz.ac.vuw.ecs.swen225.gp20.maze.event.MazeEventListener <|- - AnimationHandler
        javax.swing.JComponent <|- - BoardView
        java.awt.event.ActionListener <|.. BoardView
        nz.ac.vuw.ecs.swen225.gp20.maze.event.MazeEventListener <|- - SoundHandler
    }

    namespace nz.ac.vuw.ecs.swen225.gp20.maze.event {
        class MazeEventListener [[..\maze\event\MazeEventListener.html]]
    }

    namespace javax.swing {
        abstract class JComponent {
            #ui: ComponentUI
            #listenerList: EventListenerList
            {static} +WHEN_FOCUSED: int
            {static} +WHEN_ANCESTOR_OF_FOCUSED_COMPONENT: int
            {static} +WHEN_IN_FOCUSED_WINDOW: int
            {static} +UNDEFINED_CONDITION: int
            {static} +TOOL_TIP_TEXT_KEY: String
        }
    }

    namespace java.awt.event {
        interface ActionListener {
            {abstract} +actionPerformed(ActionEvent): void
        }
    }

    center footer UMLDoclet 2.0.12, PlantUML 1.2020.16
@enduml

PlantUML version 1.2020.16(Mon Aug 24 08:20:43 NZST 2020)
(APACHE source distribution)
Java Runtime: OpenJDK Runtime Environment
JVM: OpenJDK 64-Bit Server VM
Default Encoding: Cp1252
Language: en
Country: NZ
--></g></svg>