<?xml version="1.0" encoding="UTF-8" standalone="no"?><svg xmlns="http://www.w3.org/2000/svg" xmlns:xlink="http://www.w3.org/1999/xlink" contentScriptType="application/ecmascript" contentStyleType="text/css" height="427px" preserveAspectRatio="none" style="width:265px;height:427px;" version="1.1" viewBox="0 0 265 427" width="265px" zoomAndPan="magnify"><defs><filter height="300%" id="f8gqlslhlz9hp" width="300%" x="-1" y="-1"><feGaussianBlur result="blurOut" stdDeviation="2.0"/><feColorMatrix in="blurOut" result="blurOut2" type="matrix" values="0 0 0 0 0 0 0 0 0 0 0 0 0 0 0 0 0 0 .4 0"/><feOffset dx="4.0" dy="4.0" in="blurOut2" result="blurOut3"/><feBlend in="SourceGraphic" in2="blurOut3" mode="normal"/></filter></defs><g><!--MD5=[bef12b3d8df063b3de5ebf9d042eaf17]
class nz.ac.vuw.ecs.swen225.gp20.rendering.SoundHandler--><a href="SoundHandler.html" target="_top" title="SoundHandler.html" xlink:actuate="onRequest" xlink:href="SoundHandler.html" xlink:show="new" xlink:title="SoundHandler.html" xlink:type="simple"><rect codeLine="5" fill="#FEFECE" filter="url(#f8gqlslhlz9hp)" height="283.3984" id="nz.ac.vuw.ecs.swen225.gp20.rendering.SoundHandler" style="stroke: #A80036; stroke-width: 1.5;" width="239" x="7" y="107"/><ellipse cx="31.9" cy="127.0938" fill="#ADD1B2" rx="11" ry="11" style="stroke: #A80036; stroke-width: 1.0;"/><path d="M34.6656,122.9688 Q34.8219,122.75 35.0094,122.6406 Q35.1969,122.5313 35.4156,122.5313 Q35.7906,122.5313 36.025,122.7969 Q36.2594,123.0469 36.2594,123.6563 L36.2594,125.1094 Q36.2594,125.7188 36.025,125.9844 Q35.7906,126.25 35.4156,126.25 Q35.0719,126.25 34.8688,126.0469 Q34.6656,125.8594 34.5563,125.3438 Q34.5094,124.9844 34.3219,124.7969 Q33.9938,124.4219 33.3844,124.2031 Q32.775,123.9844 32.15,123.9844 Q31.3844,123.9844 30.7438,124.3125 Q30.1188,124.6406 29.6188,125.3906 Q29.1344,126.1406 29.1344,127.1719 L29.1344,128.2656 Q29.1344,129.5 30.025,130.3281 Q30.9156,131.1406 32.5094,131.1406 Q33.4469,131.1406 34.1031,130.8906 Q34.4938,130.7344 34.9156,130.2969 Q35.1813,130.0313 35.3219,129.9531 Q35.4781,129.875 35.6813,129.875 Q36.0094,129.875 36.2594,130.1406 Q36.525,130.3906 36.525,130.7344 Q36.525,131.0781 36.1813,131.4844 Q35.6813,132.0625 34.8844,132.3906 Q33.8063,132.8438 32.5094,132.8438 Q30.9938,132.8438 29.7906,132.2188 Q28.8063,131.7188 28.1188,130.6563 Q27.4313,129.5781 27.4313,128.2969 L27.4313,127.1406 Q27.4313,125.8125 28.0406,124.6719 Q28.6656,123.5156 29.7594,122.9063 Q30.8531,122.2813 32.0875,122.2813 Q32.8219,122.2813 33.4625,122.4531 Q34.1188,122.6094 34.6656,122.9688 Z "/><text fill="#000000" font-family="sans-serif" font-size="14" lengthAdjust="spacingAndGlyphs" textLength="90" x="95.6" y="126.5332">SoundHandler</text><text fill="#000000" font-family="sans-serif" font-size="10" lengthAdjust="spacingAndGlyphs" textLength="185" x="48.1" y="139.9902">nz.ac.vuw.ecs.swen225.gp20.rendering</text><line style="stroke: #A80036; stroke-width: 1.5;" x1="8" x2="245" y1="147.1875" y2="147.1875"/><ellipse cx="18" cy="158.1875" fill="#84BE84" rx="3" ry="3" style="stroke: #038048; stroke-width: 1.0;"/><text fill="#000000" font-family="sans-serif" font-size="11" lengthAdjust="spacingAndGlyphs" textLength="102" x="27" y="162.6064">SoundHandler(Maze)</text><ellipse cx="18" cy="172.0234" fill="#84BE84" rx="3" ry="3" style="stroke: #038048; stroke-width: 1.0;"/><text fill="#000000" font-family="sans-serif" font-size="11" lengthAdjust="spacingAndGlyphs" textLength="108" x="27" y="176.4424">initialiseSounds(): void</text><ellipse cx="18" cy="185.8594" fill="#84BE84" rx="3" ry="3" style="stroke: #038048; stroke-width: 1.0;"/><text fill="#000000" font-family="sans-serif" font-size="11" lengthAdjust="spacingAndGlyphs" textLength="125" x="27" y="190.2783">initialiseListSounds(): void</text><ellipse cx="18" cy="199.6953" fill="#84BE84" rx="3" ry="3" style="stroke: #038048; stroke-width: 1.0;"/><text fill="#000000" font-family="sans-serif" font-size="11" lengthAdjust="spacingAndGlyphs" textLength="113" x="27" y="204.1143">playSound(String): void</text><ellipse cx="18" cy="213.5313" fill="#84BE84" rx="3" ry="3" style="stroke: #038048; stroke-width: 1.0;"/><text fill="#000000" font-family="sans-serif" font-size="11" lengthAdjust="spacingAndGlyphs" textLength="213" x="27" y="217.9502">playRandomSound(List&lt;SoundEffect&gt;): void</text><ellipse cx="18" cy="227.3672" fill="#84BE84" rx="3" ry="3" style="stroke: #038048; stroke-width: 1.0;"/><text fill="#000000" font-family="sans-serif" font-size="11" lengthAdjust="spacingAndGlyphs" textLength="164" x="27" y="231.7861">update(MazeEventUnlocked): void</text><ellipse cx="18" cy="241.2031" fill="#84BE84" rx="3" ry="3" style="stroke: #038048; stroke-width: 1.0;"/><text fill="#000000" font-family="sans-serif" font-size="11" lengthAdjust="spacingAndGlyphs" textLength="156" x="27" y="245.6221">update(MazeEventPushed): void</text><ellipse cx="18" cy="255.0391" fill="#84BE84" rx="3" ry="3" style="stroke: #038048; stroke-width: 1.0;"/><text fill="#000000" font-family="sans-serif" font-size="11" lengthAdjust="spacingAndGlyphs" textLength="171" x="27" y="259.458">update(MazeEventTeleported): void</text><ellipse cx="18" cy="268.875" fill="#84BE84" rx="3" ry="3" style="stroke: #038048; stroke-width: 1.0;"/><text fill="#000000" font-family="sans-serif" font-size="11" lengthAdjust="spacingAndGlyphs" textLength="185" x="27" y="273.2939">update(MazeEventPushedWater): void</text><ellipse cx="18" cy="282.7109" fill="#84BE84" rx="3" ry="3" style="stroke: #038048; stroke-width: 1.0;"/><text fill="#000000" font-family="sans-serif" font-size="11" lengthAdjust="spacingAndGlyphs" textLength="155" x="27" y="287.1299">update(MazeEventWalked): void</text><ellipse cx="18" cy="296.5469" fill="#84BE84" rx="3" ry="3" style="stroke: #038048; stroke-width: 1.0;"/><text fill="#000000" font-family="sans-serif" font-size="11" lengthAdjust="spacingAndGlyphs" textLength="151" x="27" y="300.9658">update(MazeEventPickup): void</text><ellipse cx="18" cy="310.3828" fill="#84BE84" rx="3" ry="3" style="stroke: #038048; stroke-width: 1.0;"/><text fill="#000000" font-family="sans-serif" font-size="11" lengthAdjust="spacingAndGlyphs" textLength="142" x="27" y="314.8018">update(MazeEventWon): void</text><ellipse cx="18" cy="324.2188" fill="#84BE84" rx="3" ry="3" style="stroke: #038048; stroke-width: 1.0;"/><text fill="#000000" font-family="sans-serif" font-size="11" lengthAdjust="spacingAndGlyphs" textLength="160" x="27" y="328.6377">update(MazeEventInfoField): void</text><ellipse cx="18" cy="338.0547" fill="#84BE84" rx="3" ry="3" style="stroke: #038048; stroke-width: 1.0;"/><text fill="#000000" font-family="sans-serif" font-size="11" lengthAdjust="spacingAndGlyphs" textLength="181" x="27" y="342.4736">update(MazeEventExitUnlocked): void</text><ellipse cx="18" cy="351.8906" fill="#84BE84" rx="3" ry="3" style="stroke: #038048; stroke-width: 1.0;"/><text fill="#000000" font-family="sans-serif" font-size="11" lengthAdjust="spacingAndGlyphs" textLength="180" x="27" y="356.3096">update(MazeEventWalkedKilled): void</text><ellipse cx="18" cy="365.7266" fill="#84BE84" rx="3" ry="3" style="stroke: #038048; stroke-width: 1.0;"/><text fill="#000000" font-family="sans-serif" font-size="11" lengthAdjust="spacingAndGlyphs" textLength="212" x="27" y="370.1455">update(MazeEventEnemyWalkedKilled): void</text><ellipse cx="18" cy="379.5625" fill="#84BE84" rx="3" ry="3" style="stroke: #038048; stroke-width: 1.0;"/><text fill="#000000" font-family="sans-serif" font-size="11" lengthAdjust="spacingAndGlyphs" textLength="200" x="27" y="383.9814">update(MazeEventWalkedDrowned): void</text></a><!--MD5=[a332cefbfed17df6d36ecc563de89414]
class nz.ac.vuw.ecs.swen225.gp20.maze.event.MazeEventListener--><a href="..\maze\event\MazeEventListener.html" target="_top" title="..\maze\event\MazeEventListener.html" xlink:actuate="onRequest" xlink:href="..\maze\event\MazeEventListener.html" xlink:show="new" xlink:title="..\maze\event\MazeEventListener.html" xlink:type="simple"><rect codeLine="25" fill="#FEFECE" filter="url(#f8gqlslhlz9hp)" height="40.1875" id="nz.ac.vuw.ecs.swen225.gp20.maze.event.MazeEventListener" style="stroke: #A80036; stroke-width: 1.5;" width="227" x="13" y="7"/><ellipse cx="28" cy="27.0938" fill="#ADD1B2" rx="11" ry="11" style="stroke: #A80036; stroke-width: 1.0;"/><path d="M30.7656,22.9688 Q30.9219,22.75 31.1094,22.6406 Q31.2969,22.5313 31.5156,22.5313 Q31.8906,22.5313 32.125,22.7969 Q32.3594,23.0469 32.3594,23.6563 L32.3594,25.1094 Q32.3594,25.7188 32.125,25.9844 Q31.8906,26.25 31.5156,26.25 Q31.1719,26.25 30.9688,26.0469 Q30.7656,25.8594 30.6563,25.3438 Q30.6094,24.9844 30.4219,24.7969 Q30.0938,24.4219 29.4844,24.2031 Q28.875,23.9844 28.25,23.9844 Q27.4844,23.9844 26.8438,24.3125 Q26.2188,24.6406 25.7188,25.3906 Q25.2344,26.1406 25.2344,27.1719 L25.2344,28.2656 Q25.2344,29.5 26.125,30.3281 Q27.0156,31.1406 28.6094,31.1406 Q29.5469,31.1406 30.2031,30.8906 Q30.5938,30.7344 31.0156,30.2969 Q31.2813,30.0313 31.4219,29.9531 Q31.5781,29.875 31.7813,29.875 Q32.1094,29.875 32.3594,30.1406 Q32.625,30.3906 32.625,30.7344 Q32.625,31.0781 32.2813,31.4844 Q31.7813,32.0625 30.9844,32.3906 Q29.9063,32.8438 28.6094,32.8438 Q27.0938,32.8438 25.8906,32.2188 Q24.9063,31.7188 24.2188,30.6563 Q23.5313,29.5781 23.5313,28.2969 L23.5313,27.1406 Q23.5313,25.8125 24.1406,24.6719 Q24.7656,23.5156 25.8594,22.9063 Q26.9531,22.2813 28.1875,22.2813 Q28.9219,22.2813 29.5625,22.4531 Q30.2188,22.6094 30.7656,22.9688 Z "/><text fill="#000000" font-family="sans-serif" font-size="14" lengthAdjust="spacingAndGlyphs" textLength="120" x="79.5" y="26.5332">MazeEventListener</text><text fill="#000000" font-family="sans-serif" font-size="10" lengthAdjust="spacingAndGlyphs" textLength="195" x="42" y="39.9902">nz.ac.vuw.ecs.swen225.gp20.maze.event</text></a><!--MD5=[dda521ea065922f9a7b44ab31e7bdda2]
reverse link nz.ac.vuw.ecs.swen225.gp20.maze.event.MazeEventListener to nz.ac.vuw.ecs.swen225.gp20.rendering.SoundHandler--><path codeLine="27" d="M126.5,67.12 C126.5,78.89 126.5,92.55 126.5,106.98 " fill="none" id="nz.ac.vuw.ecs.swen225.gp20.maze.event.MazeEventListener-backto-nz.ac.vuw.ecs.swen225.gp20.rendering.SoundHandler" style="stroke: #A80036; stroke-width: 1.0;"/><polygon fill="none" points="119.5,67.1,126.5,47.1,133.5,67.1,119.5,67.1" style="stroke: #A80036; stroke-width: 1.0;"/><text fill="#888888" font-family="sans-serif" font-size="10" lengthAdjust="spacingAndGlyphs" textLength="190" x="28.5" y="413.7793">UMLDoclet 2.0.12, PlantUML 1.2020.16</text><!--MD5=[b17e1e594c9948d5238792d8303e42ea]
@startuml
    set namespaceSeparator none
    hide empty fields
    hide empty methods

    class "<size:14>SoundHandler\n<size:10>nz.ac.vuw.ecs.swen225.gp20.rendering" as nz.ac.vuw.ecs.swen225.gp20.rendering.SoundHandler [[SoundHandler.html]] {
        +SoundHandler(Maze)
        +initialiseSounds(): void
        +initialiseListSounds(): void
        +playSound(String): void
        +playRandomSound(List<SoundEffect>): void
        +update(MazeEventUnlocked): void
        +update(MazeEventPushed): void
        +update(MazeEventTeleported): void
        +update(MazeEventPushedWater): void
        +update(MazeEventWalked): void
        +update(MazeEventPickup): void
        +update(MazeEventWon): void
        +update(MazeEventInfoField): void
        +update(MazeEventExitUnlocked): void
        +update(MazeEventWalkedKilled): void
        +update(MazeEventEnemyWalkedKilled): void
        +update(MazeEventWalkedDrowned): void
    }

    class "<size:14>MazeEventListener\n<size:10>nz.ac.vuw.ecs.swen225.gp20.maze.event" as nz.ac.vuw.ecs.swen225.gp20.maze.event.MazeEventListener [[..\maze\event\MazeEventListener.html]]

    nz.ac.vuw.ecs.swen225.gp20.maze.event.MazeEventListener <|- - nz.ac.vuw.ecs.swen225.gp20.rendering.SoundHandler

    center footer UMLDoclet 2.0.12, PlantUML 1.2020.16
@enduml

PlantUML version 1.2020.16(Mon Aug 24 08:20:43 NZST 2020)
(APACHE source distribution)
Java Runtime: OpenJDK Runtime Environment
JVM: OpenJDK 64-Bit Server VM
Default Encoding: Cp1252
Language: en
Country: NZ
--></g></svg>