<?xml version="1.0" encoding="UTF-8" standalone="no"?><svg xmlns="http://www.w3.org/2000/svg" xmlns:xlink="http://www.w3.org/1999/xlink" contentScriptType="application/ecmascript" contentStyleType="text/css" height="288px" preserveAspectRatio="none" style="width:252px;height:288px;" version="1.1" viewBox="0 0 252 288" width="252px" zoomAndPan="magnify"><defs><filter height="300%" id="fdwywe9ls8cwk" width="300%" x="-1" y="-1"><feGaussianBlur result="blurOut" stdDeviation="2.0"/><feColorMatrix in="blurOut" result="blurOut2" type="matrix" values="0 0 0 0 0 0 0 0 0 0 0 0 0 0 0 0 0 0 .4 0"/><feOffset dx="4.0" dy="4.0" in="blurOut2" result="blurOut3"/><feBlend in="SourceGraphic" in2="blurOut3" mode="normal"/></filter></defs><g><!--MD5=[133cf6edabb0abeccc641af1f00ffdcb]
class nz.ac.vuw.ecs.swen225.gp20.application.BoardPanel--><a href="BoardPanel.html" target="_top" title="BoardPanel.html" xlink:actuate="onRequest" xlink:href="BoardPanel.html" xlink:show="new" xlink:title="BoardPanel.html" xlink:type="simple"><rect codeLine="5" fill="#FEFECE" filter="url(#fdwywe9ls8cwk)" height="145.0391" id="nz.ac.vuw.ecs.swen225.gp20.application.BoardPanel" style="stroke: #A80036; stroke-width: 1.5;" width="226" x="7" y="107"/><ellipse cx="22" cy="127.0938" fill="#ADD1B2" rx="11" ry="11" style="stroke: #A80036; stroke-width: 1.0;"/><path d="M24.7656,122.9688 Q24.9219,122.75 25.1094,122.6406 Q25.2969,122.5313 25.5156,122.5313 Q25.8906,122.5313 26.125,122.7969 Q26.3594,123.0469 26.3594,123.6563 L26.3594,125.1094 Q26.3594,125.7188 26.125,125.9844 Q25.8906,126.25 25.5156,126.25 Q25.1719,126.25 24.9688,126.0469 Q24.7656,125.8594 24.6563,125.3438 Q24.6094,124.9844 24.4219,124.7969 Q24.0938,124.4219 23.4844,124.2031 Q22.875,123.9844 22.25,123.9844 Q21.4844,123.9844 20.8438,124.3125 Q20.2188,124.6406 19.7188,125.3906 Q19.2344,126.1406 19.2344,127.1719 L19.2344,128.2656 Q19.2344,129.5 20.125,130.3281 Q21.0156,131.1406 22.6094,131.1406 Q23.5469,131.1406 24.2031,130.8906 Q24.5938,130.7344 25.0156,130.2969 Q25.2813,130.0313 25.4219,129.9531 Q25.5781,129.875 25.7813,129.875 Q26.1094,129.875 26.3594,130.1406 Q26.625,130.3906 26.625,130.7344 Q26.625,131.0781 26.2813,131.4844 Q25.7813,132.0625 24.9844,132.3906 Q23.9063,132.8438 22.6094,132.8438 Q21.0938,132.8438 19.8906,132.2188 Q18.9063,131.7188 18.2188,130.6563 Q17.5313,129.5781 17.5313,128.2969 L17.5313,127.1406 Q17.5313,125.8125 18.1406,124.6719 Q18.7656,123.5156 19.8594,122.9063 Q20.9531,122.2813 22.1875,122.2813 Q22.9219,122.2813 23.5625,122.4531 Q24.2188,122.6094 24.7656,122.9688 Z "/><text fill="#000000" font-family="sans-serif" font-size="14" lengthAdjust="spacingAndGlyphs" textLength="74" x="96" y="126.5332">BoardPanel</text><text fill="#000000" font-family="sans-serif" font-size="10" lengthAdjust="spacingAndGlyphs" textLength="194" x="36" y="139.9902">nz.ac.vuw.ecs.swen225.gp20.application</text><line style="stroke: #A80036; stroke-width: 1.5;" x1="8" x2="232" y1="147.1875" y2="147.1875"/><ellipse cx="18" cy="158.1875" fill="#84BE84" rx="3" ry="3" style="stroke: #038048; stroke-width: 1.0;"/><text fill="#000000" font-family="sans-serif" font-size="11" lengthAdjust="spacingAndGlyphs" textLength="89" x="27" y="162.6064">BoardPanel(Maze)</text><ellipse cx="18" cy="172.0234" fill="#84BE84" rx="3" ry="3" style="stroke: #038048; stroke-width: 1.0;"/><text fill="#000000" font-family="sans-serif" font-size="11" lengthAdjust="spacingAndGlyphs" textLength="113" x="27" y="176.4424">getBoard(): BoardView</text><ellipse cx="18" cy="185.8594" fill="#84BE84" rx="3" ry="3" style="stroke: #038048; stroke-width: 1.0;"/><text fill="#000000" font-family="sans-serif" font-size="11" lengthAdjust="spacingAndGlyphs" textLength="126" x="27" y="190.2783">getInfoFieldLabel(): JLabel</text><ellipse cx="18" cy="199.6953" fill="#84BE84" rx="3" ry="3" style="stroke: #038048; stroke-width: 1.0;"/><text fill="#000000" font-family="sans-serif" font-size="11" lengthAdjust="spacingAndGlyphs" textLength="147" x="27" y="204.1143">getInfoFieldTextLabel(): JLabel</text><ellipse cx="18" cy="213.5313" fill="#84BE84" rx="3" ry="3" style="stroke: #038048; stroke-width: 1.0;"/><text fill="#000000" font-family="sans-serif" font-size="11" lengthAdjust="spacingAndGlyphs" textLength="155" x="27" y="217.9502">getRecordingIconLabel(): JLabel</text><ellipse cx="18" cy="227.3672" fill="#84BE84" rx="3" ry="3" style="stroke: #038048; stroke-width: 1.0;"/><text fill="#000000" font-family="sans-serif" font-size="11" lengthAdjust="spacingAndGlyphs" textLength="153" x="27" y="231.7861">getReplayingIconLabel(): JLabel</text><ellipse cx="18" cy="241.2031" fill="#84BE84" rx="3" ry="3" style="stroke: #038048; stroke-width: 1.0;"/><text fill="#000000" font-family="sans-serif" font-size="11" lengthAdjust="spacingAndGlyphs" textLength="142" x="27" y="245.6221">getPausedIconLabel(): JLabel</text></a><!--MD5=[5e6c2f023040cfdbf03fc9c867f5d54e]
class javax.swing.JLayeredPane--><rect codeLine="15" fill="#FEFECE" filter="url(#fdwywe9ls8cwk)" height="40.1875" id="javax.swing.JLayeredPane" style="stroke: #A80036; stroke-width: 1.5;" width="123" x="58.5" y="7"/><ellipse cx="73.5" cy="27.0938" fill="#ADD1B2" rx="11" ry="11" style="stroke: #A80036; stroke-width: 1.0;"/><path d="M76.2656,22.9688 Q76.4219,22.75 76.6094,22.6406 Q76.7969,22.5313 77.0156,22.5313 Q77.3906,22.5313 77.625,22.7969 Q77.8594,23.0469 77.8594,23.6563 L77.8594,25.1094 Q77.8594,25.7188 77.625,25.9844 Q77.3906,26.25 77.0156,26.25 Q76.6719,26.25 76.4688,26.0469 Q76.2656,25.8594 76.1563,25.3438 Q76.1094,24.9844 75.9219,24.7969 Q75.5938,24.4219 74.9844,24.2031 Q74.375,23.9844 73.75,23.9844 Q72.9844,23.9844 72.3438,24.3125 Q71.7188,24.6406 71.2188,25.3906 Q70.7344,26.1406 70.7344,27.1719 L70.7344,28.2656 Q70.7344,29.5 71.625,30.3281 Q72.5156,31.1406 74.1094,31.1406 Q75.0469,31.1406 75.7031,30.8906 Q76.0938,30.7344 76.5156,30.2969 Q76.7813,30.0313 76.9219,29.9531 Q77.0781,29.875 77.2813,29.875 Q77.6094,29.875 77.8594,30.1406 Q78.125,30.3906 78.125,30.7344 Q78.125,31.0781 77.7813,31.4844 Q77.2813,32.0625 76.4844,32.3906 Q75.4063,32.8438 74.1094,32.8438 Q72.5938,32.8438 71.3906,32.2188 Q70.4063,31.7188 69.7188,30.6563 Q69.0313,29.5781 69.0313,28.2969 L69.0313,27.1406 Q69.0313,25.8125 69.6406,24.6719 Q70.2656,23.5156 71.3594,22.9063 Q72.4531,22.2813 73.6875,22.2813 Q74.4219,22.2813 75.0625,22.4531 Q75.7188,22.6094 76.2656,22.9688 Z "/><text fill="#000000" font-family="sans-serif" font-size="14" lengthAdjust="spacingAndGlyphs" textLength="91" x="87.5" y="26.5332">JLayeredPane</text><text fill="#000000" font-family="sans-serif" font-size="10" lengthAdjust="spacingAndGlyphs" textLength="54" x="106" y="39.9902">javax.swing</text><!--MD5=[4338c021fbbf565b2ab1b257515a849c]
reverse link javax.swing.JLayeredPane to nz.ac.vuw.ecs.swen225.gp20.application.BoardPanel--><path codeLine="17" d="M120,67.32 C120,79.44 120,93.19 120,106.79 " fill="none" id="javax.swing.JLayeredPane-backto-nz.ac.vuw.ecs.swen225.gp20.application.BoardPanel" style="stroke: #A80036; stroke-width: 1.0;"/><polygon fill="none" points="113,67.06,120,47.06,127,67.06,113,67.06" style="stroke: #A80036; stroke-width: 1.0;"/><text fill="#888888" font-family="sans-serif" font-size="10" lengthAdjust="spacingAndGlyphs" textLength="190" x="22" y="275.4199">UMLDoclet 2.0.12, PlantUML 1.2020.16</text><!--MD5=[6768317f7e3a29ec92369c9a16e9a7bc]
@startuml
    set namespaceSeparator none
    hide empty fields
    hide empty methods

    class "<size:14>BoardPanel\n<size:10>nz.ac.vuw.ecs.swen225.gp20.application" as nz.ac.vuw.ecs.swen225.gp20.application.BoardPanel [[BoardPanel.html]] {
        +BoardPanel(Maze)
        +getBoard(): BoardView
        +getInfoFieldLabel(): JLabel
        +getInfoFieldTextLabel(): JLabel
        +getRecordingIconLabel(): JLabel
        +getReplayingIconLabel(): JLabel
        +getPausedIconLabel(): JLabel
    }

    class "<size:14>JLayeredPane\n<size:10>javax.swing" as javax.swing.JLayeredPane

    javax.swing.JLayeredPane <|- - nz.ac.vuw.ecs.swen225.gp20.application.BoardPanel

    center footer UMLDoclet 2.0.12, PlantUML 1.2020.16
@enduml

PlantUML version 1.2020.16(Mon Aug 24 08:20:43 NZST 2020)
(APACHE source distribution)
Java Runtime: OpenJDK Runtime Environment
JVM: OpenJDK 64-Bit Server VM
Default Encoding: Cp1252
Language: en
Country: NZ
--></g></svg>