<?xml version="1.0" encoding="UTF-8" standalone="no"?><svg xmlns="http://www.w3.org/2000/svg" xmlns:xlink="http://www.w3.org/1999/xlink" contentScriptType="application/ecmascript" contentStyleType="text/css" height="664px" preserveAspectRatio="none" style="width:487px;height:664px;" version="1.1" viewBox="0 0 487 664" width="487px" zoomAndPan="magnify"><defs><filter height="300%" id="f19p29yotii8ok" width="300%" x="-1" y="-1"><feGaussianBlur result="blurOut" stdDeviation="2.0"/><feColorMatrix in="blurOut" result="blurOut2" type="matrix" values="0 0 0 0 0 0 0 0 0 0 0 0 0 0 0 0 0 0 .4 0"/><feOffset dx="4.0" dy="4.0" in="blurOut2" result="blurOut3"/><feBlend in="SourceGraphic" in2="blurOut3" mode="normal"/></filter></defs><g><!--MD5=[d278bdffc36e20006e2ca607403c7855]
class nz.ac.vuw.ecs.swen225.gp20.application.Gui--><a href="Gui.html" target="_top" title="Gui.html" xlink:actuate="onRequest" xlink:href="Gui.html" xlink:show="new" xlink:title="Gui.html" xlink:type="simple"><rect codeLine="5" fill="#FEFECE" filter="url(#f19p29yotii8ok)" height="498.9375" id="nz.ac.vuw.ecs.swen225.gp20.application.Gui" style="stroke: #A80036; stroke-width: 1.5;" width="238" x="125.5" y="129"/><ellipse cx="145.9" cy="149.0938" fill="#ADD1B2" rx="11" ry="11" style="stroke: #A80036; stroke-width: 1.0;"/><path d="M148.6656,144.9688 Q148.8219,144.75 149.0094,144.6406 Q149.1969,144.5313 149.4156,144.5313 Q149.7906,144.5313 150.025,144.7969 Q150.2594,145.0469 150.2594,145.6563 L150.2594,147.1094 Q150.2594,147.7188 150.025,147.9844 Q149.7906,148.25 149.4156,148.25 Q149.0719,148.25 148.8688,148.0469 Q148.6656,147.8594 148.5563,147.3438 Q148.5094,146.9844 148.3219,146.7969 Q147.9938,146.4219 147.3844,146.2031 Q146.775,145.9844 146.15,145.9844 Q145.3844,145.9844 144.7438,146.3125 Q144.1188,146.6406 143.6188,147.3906 Q143.1344,148.1406 143.1344,149.1719 L143.1344,150.2656 Q143.1344,151.5 144.025,152.3281 Q144.9156,153.1406 146.5094,153.1406 Q147.4469,153.1406 148.1031,152.8906 Q148.4938,152.7344 148.9156,152.2969 Q149.1813,152.0313 149.3219,151.9531 Q149.4781,151.875 149.6813,151.875 Q150.0094,151.875 150.2594,152.1406 Q150.525,152.3906 150.525,152.7344 Q150.525,153.0781 150.1813,153.4844 Q149.6813,154.0625 148.8844,154.3906 Q147.8063,154.8438 146.5094,154.8438 Q144.9938,154.8438 143.7906,154.2188 Q142.8063,153.7188 142.1188,152.6563 Q141.4313,151.5781 141.4313,150.2969 L141.4313,149.1406 Q141.4313,147.8125 142.0406,146.6719 Q142.6656,145.5156 143.7594,144.9063 Q144.8531,144.2813 146.0875,144.2813 Q146.8219,144.2813 147.4625,144.4531 Q148.1188,144.6094 148.6656,144.9688 Z "/><text fill="#000000" font-family="sans-serif" font-size="14" lengthAdjust="spacingAndGlyphs" textLength="22" x="247.1" y="148.5332">Gui</text><text fill="#000000" font-family="sans-serif" font-size="10" lengthAdjust="spacingAndGlyphs" textLength="194" x="161.1" y="161.9902">nz.ac.vuw.ecs.swen225.gp20.application</text><line style="stroke: #A80036; stroke-width: 1.5;" x1="126.5" x2="362.5" y1="169.1875" y2="169.1875"/><ellipse cx="136.5" cy="180.1875" fill="none" rx="3" ry="3" style="stroke: #038048; stroke-width: 1.0;"/><text fill="#000000" font-family="sans-serif" font-size="11" lengthAdjust="spacingAndGlyphs" textLength="115" x="145.5" y="184.6064">boardPanel: BoardPanel</text><line style="stroke: #A80036; stroke-width: 1.5;" x1="126.5" x2="362.5" y1="191.0234" y2="191.0234"/><ellipse cx="136.5" cy="202.0234" fill="#84BE84" rx="3" ry="3" style="stroke: #038048; stroke-width: 1.0;"/><text fill="#000000" font-family="sans-serif" font-size="11" lengthAdjust="spacingAndGlyphs" textLength="50" x="145.5" y="206.4424">Gui(Maze)</text><ellipse cx="136.5" cy="215.8594" fill="#84BE84" rx="3" ry="3" style="stroke: #038048; stroke-width: 1.0;"/><text fill="#000000" font-family="sans-serif" font-size="11" lengthAdjust="spacingAndGlyphs" textLength="171" x="145.5" y="220.2783">actionPerformed(ActionEvent): void</text><ellipse cx="136.5" cy="229.6953" fill="#84BE84" rx="3" ry="3" style="stroke: #038048; stroke-width: 1.0;"/><text fill="#000000" font-family="sans-serif" font-size="11" lengthAdjust="spacingAndGlyphs" textLength="102" x="145.5" y="234.1143">move(Direction): void</text><ellipse cx="136.5" cy="243.5313" fill="#84BE84" rx="3" ry="3" style="stroke: #038048; stroke-width: 1.0;"/><text fill="#000000" font-family="sans-serif" font-size="11" lengthAdjust="spacingAndGlyphs" textLength="169" x="145.5" y="247.9502">executeMove(Move, boolean): void</text><ellipse cx="136.5" cy="257.3672" fill="#84BE84" rx="3" ry="3" style="stroke: #038048; stroke-width: 1.0;"/><text fill="#000000" font-family="sans-serif" font-size="11" lengthAdjust="spacingAndGlyphs" textLength="102" x="145.5" y="261.7861">pause(boolean): void</text><ellipse cx="136.5" cy="271.2031" fill="#84BE84" rx="3" ry="3" style="stroke: #038048; stroke-width: 1.0;"/><text fill="#000000" font-family="sans-serif" font-size="11" lengthAdjust="spacingAndGlyphs" textLength="70" x="145.5" y="275.6221">resume(): void</text><ellipse cx="136.5" cy="285.0391" fill="#84BE84" rx="3" ry="3" style="stroke: #038048; stroke-width: 1.0;"/><text fill="#000000" font-family="sans-serif" font-size="11" lengthAdjust="spacingAndGlyphs" textLength="106" x="145.5" y="289.458">loadLevel(Maze): void</text><ellipse cx="136.5" cy="298.875" fill="#84BE84" rx="3" ry="3" style="stroke: #038048; stroke-width: 1.0;"/><text fill="#000000" font-family="sans-serif" font-size="11" lengthAdjust="spacingAndGlyphs" textLength="161" x="145.5" y="303.2939">decrementTreasurePickUp(): void</text><ellipse cx="136.5" cy="312.7109" fill="#84BE84" rx="3" ry="3" style="stroke: #038048; stroke-width: 1.0;"/><text fill="#000000" font-family="sans-serif" font-size="11" lengthAdjust="spacingAndGlyphs" textLength="136" x="145.5" y="317.1299">reinitialiseBoard(Maze): void</text><ellipse cx="136.5" cy="326.5469" fill="#84BE84" rx="3" ry="3" style="stroke: #038048; stroke-width: 1.0;"/><text fill="#000000" font-family="sans-serif" font-size="11" lengthAdjust="spacingAndGlyphs" textLength="143" x="145.5" y="330.9658">restartUnfinishedLevel(): void</text><ellipse cx="136.5" cy="340.3828" fill="#84BE84" rx="3" ry="3" style="stroke: #038048; stroke-width: 1.0;"/><text fill="#000000" font-family="sans-serif" font-size="11" lengthAdjust="spacingAndGlyphs" textLength="113" x="145.5" y="344.8018">restartFirstLevel(): void</text><ellipse cx="136.5" cy="354.2188" fill="#84BE84" rx="3" ry="3" style="stroke: #038048; stroke-width: 1.0;"/><text fill="#000000" font-family="sans-serif" font-size="11" lengthAdjust="spacingAndGlyphs" textLength="74" x="145.5" y="358.6377">undoGui(): void</text><ellipse cx="136.5" cy="368.0547" fill="#84BE84" rx="3" ry="3" style="stroke: #038048; stroke-width: 1.0;"/><text fill="#000000" font-family="sans-serif" font-size="11" lengthAdjust="spacingAndGlyphs" textLength="149" x="145.5" y="372.4736">openFileChooser(boolean): File</text><ellipse cx="136.5" cy="381.8906" fill="#84BE84" rx="3" ry="3" style="stroke: #038048; stroke-width: 1.0;"/><text fill="#000000" font-family="sans-serif" font-size="11" lengthAdjust="spacingAndGlyphs" textLength="129" x="145.5" y="386.3096">clearInventoryPanel(): void</text><ellipse cx="136.5" cy="395.7266" fill="#84BE84" rx="3" ry="3" style="stroke: #038048; stroke-width: 1.0;"/><text fill="#000000" font-family="sans-serif" font-size="11" lengthAdjust="spacingAndGlyphs" textLength="135" x="145.5" y="400.1455">reloadInventoryPanel(): void</text><ellipse cx="136.5" cy="409.5625" fill="#84BE84" rx="3" ry="3" style="stroke: #038048; stroke-width: 1.0;"/><text fill="#000000" font-family="sans-serif" font-size="11" lengthAdjust="spacingAndGlyphs" textLength="94" x="145.5" y="413.9814">getFrame(): JFrame</text><ellipse cx="136.5" cy="423.3984" fill="#84BE84" rx="3" ry="3" style="stroke: #038048; stroke-width: 1.0;"/><text fill="#000000" font-family="sans-serif" font-size="11" lengthAdjust="spacingAndGlyphs" textLength="113" x="145.5" y="427.8174">getBoard(): BoardView</text><ellipse cx="136.5" cy="437.2344" fill="#84BE84" rx="3" ry="3" style="stroke: #038048; stroke-width: 1.0;"/><text fill="#000000" font-family="sans-serif" font-size="11" lengthAdjust="spacingAndGlyphs" textLength="81" x="145.5" y="441.6533">getMaze(): Maze</text><ellipse cx="136.5" cy="451.0703" fill="#84BE84" rx="3" ry="3" style="stroke: #038048; stroke-width: 1.0;"/><text fill="#000000" font-family="sans-serif" font-size="11" lengthAdjust="spacingAndGlyphs" textLength="132" x="145.5" y="455.4893">getIsTimerActive(): boolean</text><ellipse cx="136.5" cy="464.9063" fill="#84BE84" rx="3" ry="3" style="stroke: #038048; stroke-width: 1.0;"/><text fill="#000000" font-family="sans-serif" font-size="11" lengthAdjust="spacingAndGlyphs" textLength="141" x="145.5" y="469.3252">getCurrentTimeStamp(): Long</text><ellipse cx="136.5" cy="478.7422" fill="#84BE84" rx="3" ry="3" style="stroke: #038048; stroke-width: 1.0;"/><text fill="#000000" font-family="sans-serif" font-size="11" lengthAdjust="spacingAndGlyphs" textLength="164" x="145.5" y="483.1611">setTreasuresValueLabel(int): void</text><ellipse cx="136.5" cy="492.5781" fill="#84BE84" rx="3" ry="3" style="stroke: #038048; stroke-width: 1.0;"/><text fill="#000000" font-family="sans-serif" font-size="11" lengthAdjust="spacingAndGlyphs" textLength="164" x="145.5" y="496.9971">setInfoFieldTextLabel(String): void</text><ellipse cx="136.5" cy="506.4141" fill="#84BE84" rx="3" ry="3" style="stroke: #038048; stroke-width: 1.0;"/><text fill="#000000" font-family="sans-serif" font-size="11" lengthAdjust="spacingAndGlyphs" textLength="168" x="145.5" y="510.833">showInfoFieldToGui(boolean): void</text><ellipse cx="136.5" cy="520.25" fill="#84BE84" rx="3" ry="3" style="stroke: #038048; stroke-width: 1.0;"/><text fill="#000000" font-family="sans-serif" font-size="11" lengthAdjust="spacingAndGlyphs" textLength="187" x="145.5" y="524.6689">update(MazeEventEnemyWalked): void</text><ellipse cx="136.5" cy="534.0859" fill="#84BE84" rx="3" ry="3" style="stroke: #038048; stroke-width: 1.0;"/><text fill="#000000" font-family="sans-serif" font-size="11" lengthAdjust="spacingAndGlyphs" textLength="151" x="145.5" y="538.5049">update(MazeEventPickup): void</text><ellipse cx="136.5" cy="547.9219" fill="#84BE84" rx="3" ry="3" style="stroke: #038048; stroke-width: 1.0;"/><text fill="#000000" font-family="sans-serif" font-size="11" lengthAdjust="spacingAndGlyphs" textLength="164" x="145.5" y="552.3408">update(MazeEventUnlocked): void</text><ellipse cx="136.5" cy="561.7578" fill="#84BE84" rx="3" ry="3" style="stroke: #038048; stroke-width: 1.0;"/><text fill="#000000" font-family="sans-serif" font-size="11" lengthAdjust="spacingAndGlyphs" textLength="160" x="145.5" y="566.1768">update(MazeEventInfoField): void</text><ellipse cx="136.5" cy="575.5938" fill="#84BE84" rx="3" ry="3" style="stroke: #038048; stroke-width: 1.0;"/><text fill="#000000" font-family="sans-serif" font-size="11" lengthAdjust="spacingAndGlyphs" textLength="142" x="145.5" y="580.0127">update(MazeEventWon): void</text><ellipse cx="136.5" cy="589.4297" fill="#84BE84" rx="3" ry="3" style="stroke: #038048; stroke-width: 1.0;"/><text fill="#000000" font-family="sans-serif" font-size="11" lengthAdjust="spacingAndGlyphs" textLength="180" x="145.5" y="593.8486">update(MazeEventWalkedKilled): void</text><ellipse cx="136.5" cy="603.2656" fill="#84BE84" rx="3" ry="3" style="stroke: #038048; stroke-width: 1.0;"/><text fill="#000000" font-family="sans-serif" font-size="11" lengthAdjust="spacingAndGlyphs" textLength="212" x="145.5" y="607.6846">update(MazeEventEnemyWalkedKilled): void</text><ellipse cx="136.5" cy="617.1016" fill="#84BE84" rx="3" ry="3" style="stroke: #038048; stroke-width: 1.0;"/><text fill="#000000" font-family="sans-serif" font-size="11" lengthAdjust="spacingAndGlyphs" textLength="200" x="145.5" y="621.5205">update(MazeEventWalkedDrowned): void</text></a><!--MD5=[a332cefbfed17df6d36ecc563de89414]
class nz.ac.vuw.ecs.swen225.gp20.maze.event.MazeEventListener--><a href="..\maze\event\MazeEventListener.html" target="_top" title="..\maze\event\MazeEventListener.html" xlink:actuate="onRequest" xlink:href="..\maze\event\MazeEventListener.html" xlink:show="new" xlink:title="..\maze\event\MazeEventListener.html" xlink:type="simple"><rect codeLine="40" fill="#FEFECE" filter="url(#f19p29yotii8ok)" height="40.1875" id="nz.ac.vuw.ecs.swen225.gp20.maze.event.MazeEventListener" style="stroke: #A80036; stroke-width: 1.5;" width="227" x="7" y="18"/><ellipse cx="22" cy="38.0938" fill="#ADD1B2" rx="11" ry="11" style="stroke: #A80036; stroke-width: 1.0;"/><path d="M24.7656,33.9688 Q24.9219,33.75 25.1094,33.6406 Q25.2969,33.5313 25.5156,33.5313 Q25.8906,33.5313 26.125,33.7969 Q26.3594,34.0469 26.3594,34.6563 L26.3594,36.1094 Q26.3594,36.7188 26.125,36.9844 Q25.8906,37.25 25.5156,37.25 Q25.1719,37.25 24.9688,37.0469 Q24.7656,36.8594 24.6563,36.3438 Q24.6094,35.9844 24.4219,35.7969 Q24.0938,35.4219 23.4844,35.2031 Q22.875,34.9844 22.25,34.9844 Q21.4844,34.9844 20.8438,35.3125 Q20.2188,35.6406 19.7188,36.3906 Q19.2344,37.1406 19.2344,38.1719 L19.2344,39.2656 Q19.2344,40.5 20.125,41.3281 Q21.0156,42.1406 22.6094,42.1406 Q23.5469,42.1406 24.2031,41.8906 Q24.5938,41.7344 25.0156,41.2969 Q25.2813,41.0313 25.4219,40.9531 Q25.5781,40.875 25.7813,40.875 Q26.1094,40.875 26.3594,41.1406 Q26.625,41.3906 26.625,41.7344 Q26.625,42.0781 26.2813,42.4844 Q25.7813,43.0625 24.9844,43.3906 Q23.9063,43.8438 22.6094,43.8438 Q21.0938,43.8438 19.8906,43.2188 Q18.9063,42.7188 18.2188,41.6563 Q17.5313,40.5781 17.5313,39.2969 L17.5313,38.1406 Q17.5313,36.8125 18.1406,35.6719 Q18.7656,34.5156 19.8594,33.9063 Q20.9531,33.2813 22.1875,33.2813 Q22.9219,33.2813 23.5625,33.4531 Q24.2188,33.6094 24.7656,33.9688 Z "/><text fill="#000000" font-family="sans-serif" font-size="14" lengthAdjust="spacingAndGlyphs" textLength="120" x="73.5" y="37.5332">MazeEventListener</text><text fill="#000000" font-family="sans-serif" font-size="10" lengthAdjust="spacingAndGlyphs" textLength="195" x="36" y="50.9902">nz.ac.vuw.ecs.swen225.gp20.maze.event</text></a><!--MD5=[6631281fcee7fc541b441b6c950a0fa0]
class java.awt.event.ActionListener--><rect codeLine="41" fill="#FEFECE" filter="url(#f19p29yotii8ok)" height="62.0234" id="java.awt.event.ActionListener" style="stroke: #A80036; stroke-width: 1.5;" width="199" x="269" y="7"/><ellipse cx="319.25" cy="27.0938" fill="#B4A7E5" rx="11" ry="11" style="stroke: #A80036; stroke-width: 1.0;"/><path d="M320.2031,23.7344 L320.2031,30.3906 L321.9219,30.3906 Q322.5313,30.3906 322.7969,30.625 Q323.0625,30.8594 323.0625,31.25 Q323.0625,31.625 322.7969,31.8594 Q322.5313,32.0938 321.9219,32.0938 L316.7813,32.0938 Q316.1719,32.0938 315.9063,31.8594 Q315.6406,31.625 315.6406,31.2344 Q315.6406,30.8594 315.9063,30.625 Q316.1719,30.3906 316.7813,30.3906 L318.5,30.3906 L318.5,23.7344 L316.7813,23.7344 Q316.1719,23.7344 315.9063,23.5 Q315.6406,23.2656 315.6406,22.875 Q315.6406,22.5 315.9063,22.2656 Q316.1719,22.0313 316.7813,22.0313 L321.9219,22.0313 Q322.5313,22.0313 322.7969,22.2656 Q323.0625,22.5 323.0625,22.875 Q323.0625,23.2656 322.7969,23.5 Q322.5313,23.7344 321.9219,23.7344 L320.2031,23.7344 Z "/><text fill="#000000" font-family="sans-serif" font-size="14" font-style="italic" lengthAdjust="spacingAndGlyphs" textLength="90" x="339.75" y="26.5332">ActionListener</text><text fill="#000000" font-family="sans-serif" font-size="10" font-style="italic" lengthAdjust="spacingAndGlyphs" textLength="68" x="350.75" y="39.9902">java.awt.event</text><line style="stroke: #A80036; stroke-width: 1.5;" x1="270" x2="467" y1="47.1875" y2="47.1875"/><ellipse cx="280" cy="58.1875" fill="#84BE84" rx="3" ry="3" style="stroke: #038048; stroke-width: 1.0;"/><text fill="#000000" font-family="sans-serif" font-size="11" font-style="italic" lengthAdjust="spacingAndGlyphs" textLength="173" x="289" y="62.6064">actionPerformed(ActionEvent): void</text><!--MD5=[7ccad5f71bbe6300f0715e8d5724aec2]
reverse link nz.ac.vuw.ecs.swen225.gp20.maze.event.MazeEventListener to nz.ac.vuw.ecs.swen225.gp20.application.Gui--><path codeLine="45" d="M134.44,77.05 C139.71,91.45 146.19,109.14 153.34,128.65 " fill="none" id="nz.ac.vuw.ecs.swen225.gp20.maze.event.MazeEventListener-backto-nz.ac.vuw.ecs.swen225.gp20.application.Gui" style="stroke: #A80036; stroke-width: 1.0;"/><polygon fill="none" points="127.83,79.36,127.52,58.17,140.97,74.54,127.83,79.36" style="stroke: #A80036; stroke-width: 1.0;"/><!--MD5=[9b878336950dcfd396be9d4335755075]
reverse link java.awt.event.ActionListener to nz.ac.vuw.ecs.swen225.gp20.application.Gui--><path codeLine="46" d="M350.61,87.83 C346.14,100.04 341.03,113.98 335.53,128.99 " fill="none" id="java.awt.event.ActionListener-backto-nz.ac.vuw.ecs.swen225.gp20.application.Gui" style="stroke: #A80036; stroke-width: 1.0; stroke-dasharray: 7.0,7.0;"/><polygon fill="none" points="344.04,85.41,357.5,69.04,357.19,90.23,344.04,85.41" style="stroke: #A80036; stroke-width: 1.0;"/><text fill="#888888" font-family="sans-serif" font-size="10" lengthAdjust="spacingAndGlyphs" textLength="190" x="139.5" y="651.3184">UMLDoclet 2.0.12, PlantUML 1.2020.16</text><!--MD5=[168e6a3506e5f5036a00deff63c6bd9d]
@startuml
    set namespaceSeparator none
    hide empty fields
    hide empty methods

    class "<size:14>Gui\n<size:10>nz.ac.vuw.ecs.swen225.gp20.application" as nz.ac.vuw.ecs.swen225.gp20.application.Gui [[Gui.html]] {
        +boardPanel: BoardPanel
        +Gui(Maze)
        +actionPerformed(ActionEvent): void
        +move(Direction): void
        +executeMove(Move, boolean): void
        +pause(boolean): void
        +resume(): void
        +loadLevel(Maze): void
        +decrementTreasurePickUp(): void
        +reinitialiseBoard(Maze): void
        +restartUnfinishedLevel(): void
        +restartFirstLevel(): void
        +undoGui(): void
        +openFileChooser(boolean): File
        +clearInventoryPanel(): void
        +reloadInventoryPanel(): void
        +getFrame(): JFrame
        +getBoard(): BoardView
        +getMaze(): Maze
        +getIsTimerActive(): boolean
        +getCurrentTimeStamp(): Long
        +setTreasuresValueLabel(int): void
        +setInfoFieldTextLabel(String): void
        +showInfoFieldToGui(boolean): void
        +update(MazeEventEnemyWalked): void
        +update(MazeEventPickup): void
        +update(MazeEventUnlocked): void
        +update(MazeEventInfoField): void
        +update(MazeEventWon): void
        +update(MazeEventWalkedKilled): void
        +update(MazeEventEnemyWalkedKilled): void
        +update(MazeEventWalkedDrowned): void
    }

    class "<size:14>MazeEventListener\n<size:10>nz.ac.vuw.ecs.swen225.gp20.maze.event" as nz.ac.vuw.ecs.swen225.gp20.maze.event.MazeEventListener [[..\maze\event\MazeEventListener.html]]
    interface "<size:14>ActionListener\n<size:10>java.awt.event" as java.awt.event.ActionListener {
        {abstract} +actionPerformed(ActionEvent): void
    }

    nz.ac.vuw.ecs.swen225.gp20.maze.event.MazeEventListener <|- - nz.ac.vuw.ecs.swen225.gp20.application.Gui
    java.awt.event.ActionListener <|.. nz.ac.vuw.ecs.swen225.gp20.application.Gui

    center footer UMLDoclet 2.0.12, PlantUML 1.2020.16
@enduml

PlantUML version 1.2020.16(Mon Aug 24 08:20:43 NZST 2020)
(APACHE source distribution)
Java Runtime: OpenJDK Runtime Environment
JVM: OpenJDK 64-Bit Server VM
Default Encoding: Cp1252
Language: en
Country: NZ
--></g></svg>