<?xml version="1.0" encoding="UTF-8" standalone="no"?><svg xmlns="http://www.w3.org/2000/svg" xmlns:xlink="http://www.w3.org/1999/xlink" contentScriptType="application/ecmascript" contentStyleType="text/css" height="255px" preserveAspectRatio="none" style="width:346px;height:255px;" version="1.1" viewBox="0 0 346 255" width="346px" zoomAndPan="magnify"><defs><filter height="300%" id="f15sgkg1t5uxcy" width="300%" x="-1" y="-1"><feGaussianBlur result="blurOut" stdDeviation="2.0"/><feColorMatrix in="blurOut" result="blurOut2" type="matrix" values="0 0 0 0 0 0 0 0 0 0 0 0 0 0 0 0 0 0 .4 0"/><feOffset dx="4.0" dy="4.0" in="blurOut2" result="blurOut3"/><feBlend in="SourceGraphic" in2="blurOut3" mode="normal"/></filter></defs><g><!--MD5=[ccfff9fb795e7a55561b3cda3054375a]
class nz.ac.vuw.ecs.swen225.gp20.application.InstructionsFrame--><a href="InstructionsFrame.html" target="_top" title="InstructionsFrame.html" xlink:actuate="onRequest" xlink:href="InstructionsFrame.html" xlink:show="new" xlink:title="InstructionsFrame.html" xlink:type="simple"><rect codeLine="5" fill="#FEFECE" filter="url(#f15sgkg1t5uxcy)" height="89.6953" id="nz.ac.vuw.ecs.swen225.gp20.application.InstructionsFrame" style="stroke: #A80036; stroke-width: 1.5;" width="226" x="26" y="129"/><ellipse cx="41" cy="149.0938" fill="#ADD1B2" rx="11" ry="11" style="stroke: #A80036; stroke-width: 1.0;"/><path d="M43.7656,144.9688 Q43.9219,144.75 44.1094,144.6406 Q44.2969,144.5313 44.5156,144.5313 Q44.8906,144.5313 45.125,144.7969 Q45.3594,145.0469 45.3594,145.6563 L45.3594,147.1094 Q45.3594,147.7188 45.125,147.9844 Q44.8906,148.25 44.5156,148.25 Q44.1719,148.25 43.9688,148.0469 Q43.7656,147.8594 43.6563,147.3438 Q43.6094,146.9844 43.4219,146.7969 Q43.0938,146.4219 42.4844,146.2031 Q41.875,145.9844 41.25,145.9844 Q40.4844,145.9844 39.8438,146.3125 Q39.2188,146.6406 38.7188,147.3906 Q38.2344,148.1406 38.2344,149.1719 L38.2344,150.2656 Q38.2344,151.5 39.125,152.3281 Q40.0156,153.1406 41.6094,153.1406 Q42.5469,153.1406 43.2031,152.8906 Q43.5938,152.7344 44.0156,152.2969 Q44.2813,152.0313 44.4219,151.9531 Q44.5781,151.875 44.7813,151.875 Q45.1094,151.875 45.3594,152.1406 Q45.625,152.3906 45.625,152.7344 Q45.625,153.0781 45.2813,153.4844 Q44.7813,154.0625 43.9844,154.3906 Q42.9063,154.8438 41.6094,154.8438 Q40.0938,154.8438 38.8906,154.2188 Q37.9063,153.7188 37.2188,152.6563 Q36.5313,151.5781 36.5313,150.2969 L36.5313,149.1406 Q36.5313,147.8125 37.1406,146.6719 Q37.7656,145.5156 38.8594,144.9063 Q39.9531,144.2813 41.1875,144.2813 Q41.9219,144.2813 42.5625,144.4531 Q43.2188,144.6094 43.7656,144.9688 Z "/><text fill="#000000" font-family="sans-serif" font-size="14" lengthAdjust="spacingAndGlyphs" textLength="113" x="95.5" y="148.5332">InstructionsFrame</text><text fill="#000000" font-family="sans-serif" font-size="10" lengthAdjust="spacingAndGlyphs" textLength="194" x="55" y="161.9902">nz.ac.vuw.ecs.swen225.gp20.application</text><line style="stroke: #A80036; stroke-width: 1.5;" x1="27" x2="251" y1="169.1875" y2="169.1875"/><ellipse cx="37" cy="180.1875" fill="#84BE84" rx="3" ry="3" style="stroke: #038048; stroke-width: 1.0;"/><text fill="#000000" font-family="sans-serif" font-size="11" lengthAdjust="spacingAndGlyphs" textLength="110" x="46" y="184.6064">InstructionsFrame(Gui)</text><ellipse cx="37" cy="194.0234" fill="#84BE84" rx="3" ry="3" style="stroke: #038048; stroke-width: 1.0;"/><text fill="#000000" font-family="sans-serif" font-size="11" lengthAdjust="spacingAndGlyphs" textLength="150" x="46" y="198.4424">initialiseWindowListener(): void</text><ellipse cx="37" cy="207.8594" fill="#84BE84" rx="3" ry="3" style="stroke: #038048; stroke-width: 1.0;"/><text fill="#000000" font-family="sans-serif" font-size="11" lengthAdjust="spacingAndGlyphs" textLength="171" x="46" y="212.2783">actionPerformed(ActionEvent): void</text></a><!--MD5=[18a7562403221f513ca44e0f82c4c17a]
class javax.swing.JFrame--><rect codeLine="11" fill="#FEFECE" filter="url(#f15sgkg1t5uxcy)" height="40.1875" id="javax.swing.JFrame" style="stroke: #A80036; stroke-width: 1.5;" width="86" x="7" y="18"/><ellipse cx="22" cy="38.0938" fill="#ADD1B2" rx="11" ry="11" style="stroke: #A80036; stroke-width: 1.0;"/><path d="M24.7656,33.9688 Q24.9219,33.75 25.1094,33.6406 Q25.2969,33.5313 25.5156,33.5313 Q25.8906,33.5313 26.125,33.7969 Q26.3594,34.0469 26.3594,34.6563 L26.3594,36.1094 Q26.3594,36.7188 26.125,36.9844 Q25.8906,37.25 25.5156,37.25 Q25.1719,37.25 24.9688,37.0469 Q24.7656,36.8594 24.6563,36.3438 Q24.6094,35.9844 24.4219,35.7969 Q24.0938,35.4219 23.4844,35.2031 Q22.875,34.9844 22.25,34.9844 Q21.4844,34.9844 20.8438,35.3125 Q20.2188,35.6406 19.7188,36.3906 Q19.2344,37.1406 19.2344,38.1719 L19.2344,39.2656 Q19.2344,40.5 20.125,41.3281 Q21.0156,42.1406 22.6094,42.1406 Q23.5469,42.1406 24.2031,41.8906 Q24.5938,41.7344 25.0156,41.2969 Q25.2813,41.0313 25.4219,40.9531 Q25.5781,40.875 25.7813,40.875 Q26.1094,40.875 26.3594,41.1406 Q26.625,41.3906 26.625,41.7344 Q26.625,42.0781 26.2813,42.4844 Q25.7813,43.0625 24.9844,43.3906 Q23.9063,43.8438 22.6094,43.8438 Q21.0938,43.8438 19.8906,43.2188 Q18.9063,42.7188 18.2188,41.6563 Q17.5313,40.5781 17.5313,39.2969 L17.5313,38.1406 Q17.5313,36.8125 18.1406,35.6719 Q18.7656,34.5156 19.8594,33.9063 Q20.9531,33.2813 22.1875,33.2813 Q22.9219,33.2813 23.5625,33.4531 Q24.2188,33.6094 24.7656,33.9688 Z "/><text fill="#000000" font-family="sans-serif" font-size="14" lengthAdjust="spacingAndGlyphs" textLength="47" x="39.5" y="37.5332">JFrame</text><text fill="#000000" font-family="sans-serif" font-size="10" lengthAdjust="spacingAndGlyphs" textLength="54" x="36" y="50.9902">javax.swing</text><!--MD5=[6631281fcee7fc541b441b6c950a0fa0]
class java.awt.event.ActionListener--><rect codeLine="12" fill="#FEFECE" filter="url(#f15sgkg1t5uxcy)" height="62.0234" id="java.awt.event.ActionListener" style="stroke: #A80036; stroke-width: 1.5;" width="199" x="128.5" y="7"/><ellipse cx="178.75" cy="27.0938" fill="#B4A7E5" rx="11" ry="11" style="stroke: #A80036; stroke-width: 1.0;"/><path d="M179.7031,23.7344 L179.7031,30.3906 L181.4219,30.3906 Q182.0313,30.3906 182.2969,30.625 Q182.5625,30.8594 182.5625,31.25 Q182.5625,31.625 182.2969,31.8594 Q182.0313,32.0938 181.4219,32.0938 L176.2813,32.0938 Q175.6719,32.0938 175.4063,31.8594 Q175.1406,31.625 175.1406,31.2344 Q175.1406,30.8594 175.4063,30.625 Q175.6719,30.3906 176.2813,30.3906 L178,30.3906 L178,23.7344 L176.2813,23.7344 Q175.6719,23.7344 175.4063,23.5 Q175.1406,23.2656 175.1406,22.875 Q175.1406,22.5 175.4063,22.2656 Q175.6719,22.0313 176.2813,22.0313 L181.4219,22.0313 Q182.0313,22.0313 182.2969,22.2656 Q182.5625,22.5 182.5625,22.875 Q182.5625,23.2656 182.2969,23.5 Q182.0313,23.7344 181.4219,23.7344 L179.7031,23.7344 Z "/><text fill="#000000" font-family="sans-serif" font-size="14" font-style="italic" lengthAdjust="spacingAndGlyphs" textLength="90" x="199.25" y="26.5332">ActionListener</text><text fill="#000000" font-family="sans-serif" font-size="10" font-style="italic" lengthAdjust="spacingAndGlyphs" textLength="68" x="210.25" y="39.9902">java.awt.event</text><line style="stroke: #A80036; stroke-width: 1.5;" x1="129.5" x2="326.5" y1="47.1875" y2="47.1875"/><ellipse cx="139.5" cy="58.1875" fill="#84BE84" rx="3" ry="3" style="stroke: #038048; stroke-width: 1.0;"/><text fill="#000000" font-family="sans-serif" font-size="11" font-style="italic" lengthAdjust="spacingAndGlyphs" textLength="173" x="148.5" y="62.6064">actionPerformed(ActionEvent): void</text><!--MD5=[c6ba5dd39a9e507897ce3e276e3340e7]
reverse link javax.swing.JFrame to nz.ac.vuw.ecs.swen225.gp20.application.InstructionsFrame--><path codeLine="16" d="M73.88,74.96 C84.91,91.57 98.11,111.43 109.73,128.93 " fill="none" id="javax.swing.JFrame-backto-nz.ac.vuw.ecs.swen225.gp20.application.InstructionsFrame" style="stroke: #A80036; stroke-width: 1.0;"/><polygon fill="none" points="67.99,78.73,62.75,58.2,79.65,70.99,67.99,78.73" style="stroke: #A80036; stroke-width: 1.0;"/><!--MD5=[dd1122c5c2f0ad218437c25907026186]
reverse link java.awt.event.ActionListener to nz.ac.vuw.ecs.swen225.gp20.application.InstructionsFrame--><path codeLine="17" d="M196.89,85.84 C187.63,99.78 177.51,115.01 168.37,128.78 " fill="none" id="java.awt.event.ActionListener-backto-nz.ac.vuw.ecs.swen225.gp20.application.InstructionsFrame" style="stroke: #A80036; stroke-width: 1.0; stroke-dasharray: 7.0,7.0;"/><polygon fill="none" points="191.13,81.86,208.03,69.07,202.79,89.61,191.13,81.86" style="stroke: #A80036; stroke-width: 1.0;"/><text fill="#888888" font-family="sans-serif" font-size="10" lengthAdjust="spacingAndGlyphs" textLength="190" x="69.25" y="242.0762">UMLDoclet 2.0.12, PlantUML 1.2020.16</text><!--MD5=[73146698df9074e8fd76de81f873ffe0]
@startuml
    set namespaceSeparator none
    hide empty fields
    hide empty methods

    class "<size:14>InstructionsFrame\n<size:10>nz.ac.vuw.ecs.swen225.gp20.application" as nz.ac.vuw.ecs.swen225.gp20.application.InstructionsFrame [[InstructionsFrame.html]] {
        +InstructionsFrame(Gui)
        +initialiseWindowListener(): void
        +actionPerformed(ActionEvent): void
    }

    class "<size:14>JFrame\n<size:10>javax.swing" as javax.swing.JFrame
    interface "<size:14>ActionListener\n<size:10>java.awt.event" as java.awt.event.ActionListener {
        {abstract} +actionPerformed(ActionEvent): void
    }

    javax.swing.JFrame <|- - nz.ac.vuw.ecs.swen225.gp20.application.InstructionsFrame
    java.awt.event.ActionListener <|.. nz.ac.vuw.ecs.swen225.gp20.application.InstructionsFrame

    center footer UMLDoclet 2.0.12, PlantUML 1.2020.16
@enduml

PlantUML version 1.2020.16(Mon Aug 24 08:20:43 NZST 2020)
(APACHE source distribution)
Java Runtime: OpenJDK Runtime Environment
JVM: OpenJDK 64-Bit Server VM
Default Encoding: Cp1252
Language: en
Country: NZ
--></g></svg>