<?xml version="1.0" encoding="UTF-8" standalone="no"?><svg xmlns="http://www.w3.org/2000/svg" xmlns:xlink="http://www.w3.org/1999/xlink" contentScriptType="application/ecmascript" contentStyleType="text/css" height="413px" preserveAspectRatio="none" style="width:273px;height:413px;" version="1.1" viewBox="0 0 273 413" width="273px" zoomAndPan="magnify"><defs><filter height="300%" id="f1vu5jx4abgbj6" width="300%" x="-1" y="-1"><feGaussianBlur result="blurOut" stdDeviation="2.0"/><feColorMatrix in="blurOut" result="blurOut2" type="matrix" values="0 0 0 0 0 0 0 0 0 0 0 0 0 0 0 0 0 0 .4 0"/><feOffset dx="4.0" dy="4.0" in="blurOut2" result="blurOut3"/><feBlend in="SourceGraphic" in2="blurOut3" mode="normal"/></filter></defs><g><!--MD5=[43e2ba9142b179c3e85a142a22d0adec]
class nz.ac.vuw.ecs.swen225.gp20.application.MenuBar--><a href="MenuBar.html" target="_top" title="MenuBar.html" xlink:actuate="onRequest" xlink:href="MenuBar.html" xlink:show="new" xlink:title="MenuBar.html" xlink:type="simple"><rect codeLine="5" fill="#FEFECE" filter="url(#f1vu5jx4abgbj6)" height="269.5625" id="nz.ac.vuw.ecs.swen225.gp20.application.MenuBar" style="stroke: #A80036; stroke-width: 1.5;" width="247" x="7" y="107"/><ellipse cx="31.45" cy="127.0938" fill="#ADD1B2" rx="11" ry="11" style="stroke: #A80036; stroke-width: 1.0;"/><path d="M34.2156,122.9688 Q34.3719,122.75 34.5594,122.6406 Q34.7469,122.5313 34.9656,122.5313 Q35.3406,122.5313 35.575,122.7969 Q35.8094,123.0469 35.8094,123.6563 L35.8094,125.1094 Q35.8094,125.7188 35.575,125.9844 Q35.3406,126.25 34.9656,126.25 Q34.6219,126.25 34.4188,126.0469 Q34.2156,125.8594 34.1063,125.3438 Q34.0594,124.9844 33.8719,124.7969 Q33.5438,124.4219 32.9344,124.2031 Q32.325,123.9844 31.7,123.9844 Q30.9344,123.9844 30.2938,124.3125 Q29.6688,124.6406 29.1688,125.3906 Q28.6844,126.1406 28.6844,127.1719 L28.6844,128.2656 Q28.6844,129.5 29.575,130.3281 Q30.4656,131.1406 32.0594,131.1406 Q32.9969,131.1406 33.6531,130.8906 Q34.0438,130.7344 34.4656,130.2969 Q34.7313,130.0313 34.8719,129.9531 Q35.0281,129.875 35.2313,129.875 Q35.5594,129.875 35.8094,130.1406 Q36.075,130.3906 36.075,130.7344 Q36.075,131.0781 35.7313,131.4844 Q35.2313,132.0625 34.4344,132.3906 Q33.3563,132.8438 32.0594,132.8438 Q30.5438,132.8438 29.3406,132.2188 Q28.3563,131.7188 27.6688,130.6563 Q26.9813,129.5781 26.9813,128.2969 L26.9813,127.1406 Q26.9813,125.8125 27.5906,124.6719 Q28.2156,123.5156 29.3094,122.9063 Q30.4031,122.2813 31.6375,122.2813 Q32.3719,122.2813 33.0125,122.4531 Q33.6688,122.6094 34.2156,122.9688 Z "/><text fill="#000000" font-family="sans-serif" font-size="14" lengthAdjust="spacingAndGlyphs" textLength="57" x="116.05" y="126.5332">MenuBar</text><text fill="#000000" font-family="sans-serif" font-size="10" lengthAdjust="spacingAndGlyphs" textLength="194" x="47.55" y="139.9902">nz.ac.vuw.ecs.swen225.gp20.application</text><line style="stroke: #A80036; stroke-width: 1.5;" x1="8" x2="253" y1="147.1875" y2="147.1875"/><ellipse cx="18" cy="158.1875" fill="#84BE84" rx="3" ry="3" style="stroke: #038048; stroke-width: 1.0;"/><text fill="#000000" font-family="sans-serif" font-size="11" lengthAdjust="spacingAndGlyphs" textLength="121" x="27" y="162.6064">MenuBar(ActionListener)</text><ellipse cx="18" cy="172.0234" fill="#84BE84" rx="3" ry="3" style="stroke: #038048; stroke-width: 1.0;"/><text fill="#000000" font-family="sans-serif" font-size="11" lengthAdjust="spacingAndGlyphs" textLength="149" x="27" y="176.4424">getSaveMenuItem(): JMenuItem</text><ellipse cx="18" cy="185.8594" fill="#84BE84" rx="3" ry="3" style="stroke: #038048; stroke-width: 1.0;"/><text fill="#000000" font-family="sans-serif" font-size="11" lengthAdjust="spacingAndGlyphs" textLength="148" x="27" y="190.2783">getLoadMenuItem(): JMenuItem</text><ellipse cx="18" cy="199.6953" fill="#84BE84" rx="3" ry="3" style="stroke: #038048; stroke-width: 1.0;"/><text fill="#000000" font-family="sans-serif" font-size="11" lengthAdjust="spacingAndGlyphs" textLength="141" x="27" y="204.1143">getExitMenuItem(): JMenuItem</text><ellipse cx="18" cy="213.5313" fill="#84BE84" rx="3" ry="3" style="stroke: #038048; stroke-width: 1.0;"/><text fill="#000000" font-family="sans-serif" font-size="11" lengthAdjust="spacingAndGlyphs" textLength="154" x="27" y="217.9502">getPauseMenuItem(): JMenuItem</text><ellipse cx="18" cy="227.3672" fill="#84BE84" rx="3" ry="3" style="stroke: #038048; stroke-width: 1.0;"/><text fill="#000000" font-family="sans-serif" font-size="11" lengthAdjust="spacingAndGlyphs" textLength="144" x="27" y="231.7861">getPlayMenuItem(): JMenuItem</text><ellipse cx="18" cy="241.2031" fill="#84BE84" rx="3" ry="3" style="stroke: #038048; stroke-width: 1.0;"/><text fill="#000000" font-family="sans-serif" font-size="11" lengthAdjust="spacingAndGlyphs" textLength="163" x="27" y="245.6221">getResumeMenuItem(): JMenuItem</text><ellipse cx="18" cy="255.0391" fill="#84BE84" rx="3" ry="3" style="stroke: #038048; stroke-width: 1.0;"/><text fill="#000000" font-family="sans-serif" font-size="11" lengthAdjust="spacingAndGlyphs" textLength="149" x="27" y="259.458">getUndoMenuItem(): JMenuItem</text><ellipse cx="18" cy="268.875" fill="#84BE84" rx="3" ry="3" style="stroke: #038048; stroke-width: 1.0;"/><text fill="#000000" font-family="sans-serif" font-size="11" lengthAdjust="spacingAndGlyphs" textLength="166" x="27" y="273.2939">getExitSaveMenuItem(): JMenuItem</text><ellipse cx="18" cy="282.7109" fill="#84BE84" rx="3" ry="3" style="stroke: #038048; stroke-width: 1.0;"/><text fill="#000000" font-family="sans-serif" font-size="11" lengthAdjust="spacingAndGlyphs" textLength="197" x="27" y="287.1299">getLoadRecordingMenuItem(): JMenuItem</text><ellipse cx="18" cy="296.5469" fill="#84BE84" rx="3" ry="3" style="stroke: #038048; stroke-width: 1.0;"/><text fill="#000000" font-family="sans-serif" font-size="11" lengthAdjust="spacingAndGlyphs" textLength="196" x="27" y="300.9658">getStartRecordingMenuItem(): JMenuItem</text><ellipse cx="18" cy="310.3828" fill="#84BE84" rx="3" ry="3" style="stroke: #038048; stroke-width: 1.0;"/><text fill="#000000" font-family="sans-serif" font-size="11" lengthAdjust="spacingAndGlyphs" textLength="189" x="27" y="314.8018">getShowInstructMenuItem(): JMenuItem</text><ellipse cx="18" cy="324.2188" fill="#84BE84" rx="3" ry="3" style="stroke: #038048; stroke-width: 1.0;"/><text fill="#000000" font-family="sans-serif" font-size="11" lengthAdjust="spacingAndGlyphs" textLength="166" x="27" y="328.6377">getStopPlayMenuItem(): JMenuItem</text><ellipse cx="18" cy="338.0547" fill="#84BE84" rx="3" ry="3" style="stroke: #038048; stroke-width: 1.0;"/><text fill="#000000" font-family="sans-serif" font-size="11" lengthAdjust="spacingAndGlyphs" textLength="195" x="27" y="342.4736">getStopRecordingMenuItem(): JMenuItem</text><ellipse cx="18" cy="351.8906" fill="#84BE84" rx="3" ry="3" style="stroke: #038048; stroke-width: 1.0;"/><text fill="#000000" font-family="sans-serif" font-size="11" lengthAdjust="spacingAndGlyphs" textLength="221" x="27" y="356.3096">getRestartCurrentLevelMenuItem(): JMenuItem</text><ellipse cx="18" cy="365.7266" fill="#84BE84" rx="3" ry="3" style="stroke: #038048; stroke-width: 1.0;"/><text fill="#000000" font-family="sans-serif" font-size="11" lengthAdjust="spacingAndGlyphs" textLength="194" x="27" y="370.1455">getStartFirstLevelMenuItem(): JMenuItem</text></a><!--MD5=[e1d5997e74a9e0bf94752554eaad51e9]
class javax.swing.JMenuBar--><rect codeLine="24" fill="#FEFECE" filter="url(#f1vu5jx4abgbj6)" height="40.1875" id="javax.swing.JMenuBar" style="stroke: #A80036; stroke-width: 1.5;" width="95" x="83" y="7"/><ellipse cx="98" cy="27.0938" fill="#ADD1B2" rx="11" ry="11" style="stroke: #A80036; stroke-width: 1.0;"/><path d="M100.7656,22.9688 Q100.9219,22.75 101.1094,22.6406 Q101.2969,22.5313 101.5156,22.5313 Q101.8906,22.5313 102.125,22.7969 Q102.3594,23.0469 102.3594,23.6563 L102.3594,25.1094 Q102.3594,25.7188 102.125,25.9844 Q101.8906,26.25 101.5156,26.25 Q101.1719,26.25 100.9688,26.0469 Q100.7656,25.8594 100.6563,25.3438 Q100.6094,24.9844 100.4219,24.7969 Q100.0938,24.4219 99.4844,24.2031 Q98.875,23.9844 98.25,23.9844 Q97.4844,23.9844 96.8438,24.3125 Q96.2188,24.6406 95.7188,25.3906 Q95.2344,26.1406 95.2344,27.1719 L95.2344,28.2656 Q95.2344,29.5 96.125,30.3281 Q97.0156,31.1406 98.6094,31.1406 Q99.5469,31.1406 100.2031,30.8906 Q100.5938,30.7344 101.0156,30.2969 Q101.2813,30.0313 101.4219,29.9531 Q101.5781,29.875 101.7813,29.875 Q102.1094,29.875 102.3594,30.1406 Q102.625,30.3906 102.625,30.7344 Q102.625,31.0781 102.2813,31.4844 Q101.7813,32.0625 100.9844,32.3906 Q99.9063,32.8438 98.6094,32.8438 Q97.0938,32.8438 95.8906,32.2188 Q94.9063,31.7188 94.2188,30.6563 Q93.5313,29.5781 93.5313,28.2969 L93.5313,27.1406 Q93.5313,25.8125 94.1406,24.6719 Q94.7656,23.5156 95.8594,22.9063 Q96.9531,22.2813 98.1875,22.2813 Q98.9219,22.2813 99.5625,22.4531 Q100.2188,22.6094 100.7656,22.9688 Z "/><text fill="#000000" font-family="sans-serif" font-size="14" lengthAdjust="spacingAndGlyphs" textLength="63" x="112" y="26.5332">JMenuBar</text><text fill="#000000" font-family="sans-serif" font-size="10" lengthAdjust="spacingAndGlyphs" textLength="54" x="116.5" y="39.9902">javax.swing</text><!--MD5=[ed7dfb46bb572136f78c3582e9261e9b]
reverse link javax.swing.JMenuBar to nz.ac.vuw.ecs.swen225.gp20.application.MenuBar--><path codeLine="26" d="M130.5,67.31 C130.5,79.07 130.5,92.67 130.5,106.99 " fill="none" id="javax.swing.JMenuBar-backto-nz.ac.vuw.ecs.swen225.gp20.application.MenuBar" style="stroke: #A80036; stroke-width: 1.0;"/><polygon fill="none" points="123.5,67.28,130.5,47.28,137.5,67.28,123.5,67.28" style="stroke: #A80036; stroke-width: 1.0;"/><text fill="#888888" font-family="sans-serif" font-size="10" lengthAdjust="spacingAndGlyphs" textLength="190" x="32.5" y="399.9434">UMLDoclet 2.0.12, PlantUML 1.2020.16</text><!--MD5=[18687f7e392b63788f6d17e6996bc0f7]
@startuml
    set namespaceSeparator none
    hide empty fields
    hide empty methods

    class "<size:14>MenuBar\n<size:10>nz.ac.vuw.ecs.swen225.gp20.application" as nz.ac.vuw.ecs.swen225.gp20.application.MenuBar [[MenuBar.html]] {
        +MenuBar(ActionListener)
        +getSaveMenuItem(): JMenuItem
        +getLoadMenuItem(): JMenuItem
        +getExitMenuItem(): JMenuItem
        +getPauseMenuItem(): JMenuItem
        +getPlayMenuItem(): JMenuItem
        +getResumeMenuItem(): JMenuItem
        +getUndoMenuItem(): JMenuItem
        +getExitSaveMenuItem(): JMenuItem
        +getLoadRecordingMenuItem(): JMenuItem
        +getStartRecordingMenuItem(): JMenuItem
        +getShowInstructMenuItem(): JMenuItem
        +getStopPlayMenuItem(): JMenuItem
        +getStopRecordingMenuItem(): JMenuItem
        +getRestartCurrentLevelMenuItem(): JMenuItem
        +getStartFirstLevelMenuItem(): JMenuItem
    }

    class "<size:14>JMenuBar\n<size:10>javax.swing" as javax.swing.JMenuBar

    javax.swing.JMenuBar <|- - nz.ac.vuw.ecs.swen225.gp20.application.MenuBar

    center footer UMLDoclet 2.0.12, PlantUML 1.2020.16
@enduml

PlantUML version 1.2020.16(Mon Aug 24 08:20:43 NZST 2020)
(APACHE source distribution)
Java Runtime: OpenJDK Runtime Environment
JVM: OpenJDK 64-Bit Server VM
Default Encoding: Cp1252
Language: en
Country: NZ
--></g></svg>