<?xml version="1.0" encoding="UTF-8" standalone="no"?><svg xmlns="http://www.w3.org/2000/svg" xmlns:xlink="http://www.w3.org/1999/xlink" contentScriptType="application/ecmascript" contentStyleType="text/css" height="334px" preserveAspectRatio="none" style="width:252px;height:334px;" version="1.1" viewBox="0 0 252 334" width="252px" zoomAndPan="magnify"><defs><filter height="300%" id="fxmfn555t52gm" width="300%" x="-1" y="-1"><feGaussianBlur result="blurOut" stdDeviation="2.0"/><feColorMatrix in="blurOut" result="blurOut2" type="matrix" values="0 0 0 0 0 0 0 0 0 0 0 0 0 0 0 0 0 0 .4 0"/><feOffset dx="4.0" dy="4.0" in="blurOut2" result="blurOut3"/><feBlend in="SourceGraphic" in2="blurOut3" mode="normal"/></filter></defs><g><!--MD5=[9dbcc2348c695e8b041c511ecfd601e5]
class nz.ac.vuw.ecs.swen225.gp20.application.PopupDialog--><a href="PopupDialog.html" target="_top" title="PopupDialog.html" xlink:actuate="onRequest" xlink:href="PopupDialog.html" xlink:show="new" xlink:title="PopupDialog.html" xlink:type="simple"><rect codeLine="5" fill="#FEFECE" filter="url(#fxmfn555t52gm)" height="89.6953" id="nz.ac.vuw.ecs.swen225.gp20.application.PopupDialog" style="stroke: #A80036; stroke-width: 1.5;" width="226" x="7" y="107"/><ellipse cx="22" cy="127.0938" fill="#ADD1B2" rx="11" ry="11" style="stroke: #A80036; stroke-width: 1.0;"/><path d="M24.7656,122.9688 Q24.9219,122.75 25.1094,122.6406 Q25.2969,122.5313 25.5156,122.5313 Q25.8906,122.5313 26.125,122.7969 Q26.3594,123.0469 26.3594,123.6563 L26.3594,125.1094 Q26.3594,125.7188 26.125,125.9844 Q25.8906,126.25 25.5156,126.25 Q25.1719,126.25 24.9688,126.0469 Q24.7656,125.8594 24.6563,125.3438 Q24.6094,124.9844 24.4219,124.7969 Q24.0938,124.4219 23.4844,124.2031 Q22.875,123.9844 22.25,123.9844 Q21.4844,123.9844 20.8438,124.3125 Q20.2188,124.6406 19.7188,125.3906 Q19.2344,126.1406 19.2344,127.1719 L19.2344,128.2656 Q19.2344,129.5 20.125,130.3281 Q21.0156,131.1406 22.6094,131.1406 Q23.5469,131.1406 24.2031,130.8906 Q24.5938,130.7344 25.0156,130.2969 Q25.2813,130.0313 25.4219,129.9531 Q25.5781,129.875 25.7813,129.875 Q26.1094,129.875 26.3594,130.1406 Q26.625,130.3906 26.625,130.7344 Q26.625,131.0781 26.2813,131.4844 Q25.7813,132.0625 24.9844,132.3906 Q23.9063,132.8438 22.6094,132.8438 Q21.0938,132.8438 19.8906,132.2188 Q18.9063,131.7188 18.2188,130.6563 Q17.5313,129.5781 17.5313,128.2969 L17.5313,127.1406 Q17.5313,125.8125 18.1406,124.6719 Q18.7656,123.5156 19.8594,122.9063 Q20.9531,122.2813 22.1875,122.2813 Q22.9219,122.2813 23.5625,122.4531 Q24.2188,122.6094 24.7656,122.9688 Z "/><text fill="#000000" font-family="sans-serif" font-size="14" lengthAdjust="spacingAndGlyphs" textLength="81" x="92.5" y="126.5332">PopupDialog</text><text fill="#000000" font-family="sans-serif" font-size="10" lengthAdjust="spacingAndGlyphs" textLength="194" x="36" y="139.9902">nz.ac.vuw.ecs.swen225.gp20.application</text><line style="stroke: #A80036; stroke-width: 1.5;" x1="8" x2="232" y1="147.1875" y2="147.1875"/><ellipse cx="18" cy="158.1875" fill="#84BE84" rx="3" ry="3" style="stroke: #038048; stroke-width: 1.0;"/><text fill="#000000" font-family="sans-serif" font-size="11" lengthAdjust="spacingAndGlyphs" textLength="197" x="27" y="162.6064">PopupDialog(DialogState, ActionListener)</text><ellipse cx="18" cy="172.0234" fill="#84BE84" rx="3" ry="3" style="stroke: #038048; stroke-width: 1.0;"/><text fill="#000000" font-family="sans-serif" font-size="11" lengthAdjust="spacingAndGlyphs" textLength="118" x="27" y="176.4424">getNextButton(): JButton</text><ellipse cx="18" cy="185.8594" fill="#84BE84" rx="3" ry="3" style="stroke: #038048; stroke-width: 1.0;"/><text fill="#000000" font-family="sans-serif" font-size="11" lengthAdjust="spacingAndGlyphs" textLength="131" x="27" y="190.2783">getRestartButton(): JButton</text></a><!--MD5=[c13749207e1e160b2790bec8d09e837f]
class javax.swing.JDialog--><rect codeLine="11" fill="#FEFECE" filter="url(#fxmfn555t52gm)" height="40.1875" id="javax.swing.JDialog" style="stroke: #A80036; stroke-width: 1.5;" width="86" x="77" y="7"/><ellipse cx="92" cy="27.0938" fill="#ADD1B2" rx="11" ry="11" style="stroke: #A80036; stroke-width: 1.0;"/><path d="M94.7656,22.9688 Q94.9219,22.75 95.1094,22.6406 Q95.2969,22.5313 95.5156,22.5313 Q95.8906,22.5313 96.125,22.7969 Q96.3594,23.0469 96.3594,23.6563 L96.3594,25.1094 Q96.3594,25.7188 96.125,25.9844 Q95.8906,26.25 95.5156,26.25 Q95.1719,26.25 94.9688,26.0469 Q94.7656,25.8594 94.6563,25.3438 Q94.6094,24.9844 94.4219,24.7969 Q94.0938,24.4219 93.4844,24.2031 Q92.875,23.9844 92.25,23.9844 Q91.4844,23.9844 90.8438,24.3125 Q90.2188,24.6406 89.7188,25.3906 Q89.2344,26.1406 89.2344,27.1719 L89.2344,28.2656 Q89.2344,29.5 90.125,30.3281 Q91.0156,31.1406 92.6094,31.1406 Q93.5469,31.1406 94.2031,30.8906 Q94.5938,30.7344 95.0156,30.2969 Q95.2813,30.0313 95.4219,29.9531 Q95.5781,29.875 95.7813,29.875 Q96.1094,29.875 96.3594,30.1406 Q96.625,30.3906 96.625,30.7344 Q96.625,31.0781 96.2813,31.4844 Q95.7813,32.0625 94.9844,32.3906 Q93.9063,32.8438 92.6094,32.8438 Q91.0938,32.8438 89.8906,32.2188 Q88.9063,31.7188 88.2188,30.6563 Q87.5313,29.5781 87.5313,28.2969 L87.5313,27.1406 Q87.5313,25.8125 88.1406,24.6719 Q88.7656,23.5156 89.8594,22.9063 Q90.9531,22.2813 92.1875,22.2813 Q92.9219,22.2813 93.5625,22.4531 Q94.2188,22.6094 94.7656,22.9688 Z "/><text fill="#000000" font-family="sans-serif" font-size="14" lengthAdjust="spacingAndGlyphs" textLength="46" x="110" y="26.5332">JDialog</text><text fill="#000000" font-family="sans-serif" font-size="10" lengthAdjust="spacingAndGlyphs" textLength="54" x="106" y="39.9902">javax.swing</text><!--MD5=[fe4021046b68984d5b0d90b649f757da]
class nz.ac.vuw.ecs.swen225.gp20.application.PopupDialog.DialogState--><a href="PopupDialog.DialogState.html" target="_top" title="PopupDialog.DialogState.html" xlink:actuate="onRequest" xlink:href="PopupDialog.DialogState.html" xlink:show="new" xlink:title="PopupDialog.DialogState.html" xlink:type="simple"><rect codeLine="12" fill="#FEFECE" filter="url(#fxmfn555t52gm)" height="40.1875" id="nz.ac.vuw.ecs.swen225.gp20.application.PopupDialog.DialogState" style="stroke: #A80036; stroke-width: 1.5;" width="226" x="7" y="257"/><ellipse cx="22" cy="277.0938" fill="#EB937F" rx="11" ry="11" style="stroke: #A80036; stroke-width: 1.0;"/><path d="M20.8594,277.8906 L20.8594,280.3906 L25.1875,280.3906 L25.1875,279.4688 Q25.1875,278.8594 25.4219,278.5938 Q25.6719,278.3281 26.0469,278.3281 Q26.4219,278.3281 26.6563,278.5938 Q26.8906,278.8594 26.8906,279.4688 L26.8906,282.0938 L18.8906,282.0938 Q18.2656,282.0938 18,281.8594 Q17.75,281.625 17.75,281.2344 Q17.75,280.8594 18.0156,280.625 Q18.2813,280.3906 18.8906,280.3906 L19.1563,280.3906 L19.1563,273.7344 L18.8906,273.7344 Q18.2656,273.7344 18,273.5 Q17.75,273.2656 17.75,272.875 Q17.75,272.5 18,272.2656 Q18.2656,272.0313 18.8906,272.0313 L26.5156,272.0313 L26.5156,274.625 Q26.5156,275.2344 26.2813,275.5 Q26.0625,275.75 25.6719,275.75 Q25.2969,275.75 25.0625,275.5 Q24.8281,275.2344 24.8281,274.625 L24.8281,273.7344 L20.8594,273.7344 L20.8594,276.1875 L22.3438,276.1875 Q22.3438,275.5313 22.4688,275.3438 Q22.7344,274.9375 23.2031,274.9375 Q23.5781,274.9375 23.8125,275.2031 Q24.0469,275.4531 24.0469,276.0625 L24.0469,278.0313 Q24.0469,278.5781 23.9219,278.7656 Q23.6563,279.1563 23.2031,279.1563 Q22.7344,279.1563 22.4688,278.75 Q22.3438,278.5625 22.3438,277.8906 L20.8594,277.8906 Z "/><text fill="#000000" font-family="sans-serif" font-size="14" lengthAdjust="spacingAndGlyphs" textLength="158" x="54" y="276.5332">PopupDialog.DialogState</text><text fill="#000000" font-family="sans-serif" font-size="10" lengthAdjust="spacingAndGlyphs" textLength="194" x="36" y="289.9902">nz.ac.vuw.ecs.swen225.gp20.application</text></a><!--MD5=[62c2b92d3c088ab1b614bcd86580e81a]
reverse link javax.swing.JDialog to nz.ac.vuw.ecs.swen225.gp20.application.PopupDialog--><path codeLine="14" d="M120,67.25 C120,79.89 120,93.98 120,106.94 " fill="none" id="javax.swing.JDialog-backto-nz.ac.vuw.ecs.swen225.gp20.application.PopupDialog" style="stroke: #A80036; stroke-width: 1.0;"/><polygon fill="none" points="113,67.22,120,47.22,127,67.22,113,67.22" style="stroke: #A80036; stroke-width: 1.0;"/><!--MD5=[a8eeb4a7362b6d74e5c4db03fa439601]
reverse link nz.ac.vuw.ecs.swen225.gp20.application.PopupDialog to nz.ac.vuw.ecs.swen225.gp20.application.PopupDialog.DialogState--><path codeLine="15" d="M120,212.34 C120,228.49 120,244.84 120,256.92 " fill="none" id="nz.ac.vuw.ecs.swen225.gp20.application.PopupDialog-backto-nz.ac.vuw.ecs.swen225.gp20.application.PopupDialog.DialogState" style="stroke: #A80036; stroke-width: 1.0;"/><ellipse cx="120" cy="205.06" fill="#FFFFFF" rx="8" ry="8" style="stroke: #A80036; stroke-width: 1.0;"/><line style="stroke: #A80036; stroke-width: 1.0;" x1="120" x2="120" y1="213.06" y2="197.06"/><line style="stroke: #A80036; stroke-width: 1.0;" x1="112" x2="128" y1="205.06" y2="205.06"/><text fill="#888888" font-family="sans-serif" font-size="10" lengthAdjust="spacingAndGlyphs" textLength="190" x="22" y="320.5684">UMLDoclet 2.0.12, PlantUML 1.2020.16</text><!--MD5=[a2a3dc9027e5424cff48696ac2fe19b9]
@startuml
    set namespaceSeparator none
    hide empty fields
    hide empty methods

    class "<size:14>PopupDialog\n<size:10>nz.ac.vuw.ecs.swen225.gp20.application" as nz.ac.vuw.ecs.swen225.gp20.application.PopupDialog [[PopupDialog.html]] {
        +PopupDialog(DialogState, ActionListener)
        +getNextButton(): JButton
        +getRestartButton(): JButton
    }

    class "<size:14>JDialog\n<size:10>javax.swing" as javax.swing.JDialog
    enum "<size:14>PopupDialog.DialogState\n<size:10>nz.ac.vuw.ecs.swen225.gp20.application" as nz.ac.vuw.ecs.swen225.gp20.application.PopupDialog.DialogState [[PopupDialog.DialogState.html]]

    javax.swing.JDialog <|- - nz.ac.vuw.ecs.swen225.gp20.application.PopupDialog
    nz.ac.vuw.ecs.swen225.gp20.application.PopupDialog +- - nz.ac.vuw.ecs.swen225.gp20.application.PopupDialog.DialogState

    center footer UMLDoclet 2.0.12, PlantUML 1.2020.16
@enduml

PlantUML version 1.2020.16(Mon Aug 24 08:20:43 NZST 2020)
(APACHE source distribution)
Java Runtime: OpenJDK Runtime Environment
JVM: OpenJDK 64-Bit Server VM
Default Encoding: Cp1252
Language: en
Country: NZ
--></g></svg>