<?xml version="1.0" encoding="UTF-8" standalone="no"?><svg xmlns="http://www.w3.org/2000/svg" xmlns:xlink="http://www.w3.org/1999/xlink" contentScriptType="application/ecmascript" contentStyleType="text/css" height="288px" preserveAspectRatio="none" style="width:252px;height:288px;" version="1.1" viewBox="0 0 252 288" width="252px" zoomAndPan="magnify"><defs><filter height="300%" id="f159j7y2jr11zf" width="300%" x="-1" y="-1"><feGaussianBlur result="blurOut" stdDeviation="2.0"/><feColorMatrix in="blurOut" result="blurOut2" type="matrix" values="0 0 0 0 0 0 0 0 0 0 0 0 0 0 0 0 0 0 .4 0"/><feOffset dx="4.0" dy="4.0" in="blurOut2" result="blurOut3"/><feBlend in="SourceGraphic" in2="blurOut3" mode="normal"/></filter></defs><g><!--MD5=[f89c022e79308d56c8385146373e3392]
class nz.ac.vuw.ecs.swen225.gp20.application.RecnplayControlsPanel--><a href="RecnplayControlsPanel.html" target="_top" title="RecnplayControlsPanel.html" xlink:actuate="onRequest" xlink:href="RecnplayControlsPanel.html" xlink:show="new" xlink:title="RecnplayControlsPanel.html" xlink:type="simple"><rect codeLine="5" fill="#FEFECE" filter="url(#f159j7y2jr11zf)" height="145.0391" id="nz.ac.vuw.ecs.swen225.gp20.application.RecnplayControlsPanel" style="stroke: #A80036; stroke-width: 1.5;" width="226" x="7" y="107"/><ellipse cx="22" cy="127.0938" fill="#ADD1B2" rx="11" ry="11" style="stroke: #A80036; stroke-width: 1.0;"/><path d="M24.7656,122.9688 Q24.9219,122.75 25.1094,122.6406 Q25.2969,122.5313 25.5156,122.5313 Q25.8906,122.5313 26.125,122.7969 Q26.3594,123.0469 26.3594,123.6563 L26.3594,125.1094 Q26.3594,125.7188 26.125,125.9844 Q25.8906,126.25 25.5156,126.25 Q25.1719,126.25 24.9688,126.0469 Q24.7656,125.8594 24.6563,125.3438 Q24.6094,124.9844 24.4219,124.7969 Q24.0938,124.4219 23.4844,124.2031 Q22.875,123.9844 22.25,123.9844 Q21.4844,123.9844 20.8438,124.3125 Q20.2188,124.6406 19.7188,125.3906 Q19.2344,126.1406 19.2344,127.1719 L19.2344,128.2656 Q19.2344,129.5 20.125,130.3281 Q21.0156,131.1406 22.6094,131.1406 Q23.5469,131.1406 24.2031,130.8906 Q24.5938,130.7344 25.0156,130.2969 Q25.2813,130.0313 25.4219,129.9531 Q25.5781,129.875 25.7813,129.875 Q26.1094,129.875 26.3594,130.1406 Q26.625,130.3906 26.625,130.7344 Q26.625,131.0781 26.2813,131.4844 Q25.7813,132.0625 24.9844,132.3906 Q23.9063,132.8438 22.6094,132.8438 Q21.0938,132.8438 19.8906,132.2188 Q18.9063,131.7188 18.2188,130.6563 Q17.5313,129.5781 17.5313,128.2969 L17.5313,127.1406 Q17.5313,125.8125 18.1406,124.6719 Q18.7656,123.5156 19.8594,122.9063 Q20.9531,122.2813 22.1875,122.2813 Q22.9219,122.2813 23.5625,122.4531 Q24.2188,122.6094 24.7656,122.9688 Z "/><text fill="#000000" font-family="sans-serif" font-size="14" lengthAdjust="spacingAndGlyphs" textLength="148" x="59" y="126.5332">RecnplayControlsPanel</text><text fill="#000000" font-family="sans-serif" font-size="10" lengthAdjust="spacingAndGlyphs" textLength="194" x="36" y="139.9902">nz.ac.vuw.ecs.swen225.gp20.application</text><line style="stroke: #A80036; stroke-width: 1.5;" x1="8" x2="232" y1="147.1875" y2="147.1875"/><ellipse cx="18" cy="158.1875" fill="#84BE84" rx="3" ry="3" style="stroke: #038048; stroke-width: 1.0;"/><text fill="#000000" font-family="sans-serif" font-size="11" lengthAdjust="spacingAndGlyphs" textLength="189" x="27" y="162.6064">RecnplayControlsPanel(ActionListener)</text><ellipse cx="18" cy="172.0234" fill="#84BE84" rx="3" ry="3" style="stroke: #038048; stroke-width: 1.0;"/><text fill="#000000" font-family="sans-serif" font-size="11" lengthAdjust="spacingAndGlyphs" textLength="147" x="27" y="176.4424">getLastFrameButton(): JButton</text><ellipse cx="18" cy="185.8594" fill="#84BE84" rx="3" ry="3" style="stroke: #038048; stroke-width: 1.0;"/><text fill="#000000" font-family="sans-serif" font-size="11" lengthAdjust="spacingAndGlyphs" textLength="139" x="27" y="190.2783">getAutoPlayButton(): JButton</text><ellipse cx="18" cy="199.6953" fill="#84BE84" rx="3" ry="3" style="stroke: #038048; stroke-width: 1.0;"/><text fill="#000000" font-family="sans-serif" font-size="11" lengthAdjust="spacingAndGlyphs" textLength="160" x="27" y="204.1143">getFasterReplayButton(): JButton</text><ellipse cx="18" cy="213.5313" fill="#84BE84" rx="3" ry="3" style="stroke: #038048; stroke-width: 1.0;"/><text fill="#000000" font-family="sans-serif" font-size="11" lengthAdjust="spacingAndGlyphs" textLength="148" x="27" y="217.9502">getNextFrameButton(): JButton</text><ellipse cx="18" cy="227.3672" fill="#84BE84" rx="3" ry="3" style="stroke: #038048; stroke-width: 1.0;"/><text fill="#000000" font-family="sans-serif" font-size="11" lengthAdjust="spacingAndGlyphs" textLength="164" x="27" y="231.7861">getSlowerReplayButton(): JButton</text><ellipse cx="18" cy="241.2031" fill="#84BE84" rx="3" ry="3" style="stroke: #038048; stroke-width: 1.0;"/><text fill="#000000" font-family="sans-serif" font-size="11" lengthAdjust="spacingAndGlyphs" textLength="173" x="27" y="245.6221">getStandardReplayButton(): JButton</text></a><!--MD5=[56a185cb33bdc7c23303e5865f20a19b]
class javax.swing.JPanel--><rect codeLine="15" fill="#FEFECE" filter="url(#f159j7y2jr11zf)" height="40.1875" id="javax.swing.JPanel" style="stroke: #A80036; stroke-width: 1.5;" width="86" x="77" y="7"/><ellipse cx="92" cy="27.0938" fill="#ADD1B2" rx="11" ry="11" style="stroke: #A80036; stroke-width: 1.0;"/><path d="M94.7656,22.9688 Q94.9219,22.75 95.1094,22.6406 Q95.2969,22.5313 95.5156,22.5313 Q95.8906,22.5313 96.125,22.7969 Q96.3594,23.0469 96.3594,23.6563 L96.3594,25.1094 Q96.3594,25.7188 96.125,25.9844 Q95.8906,26.25 95.5156,26.25 Q95.1719,26.25 94.9688,26.0469 Q94.7656,25.8594 94.6563,25.3438 Q94.6094,24.9844 94.4219,24.7969 Q94.0938,24.4219 93.4844,24.2031 Q92.875,23.9844 92.25,23.9844 Q91.4844,23.9844 90.8438,24.3125 Q90.2188,24.6406 89.7188,25.3906 Q89.2344,26.1406 89.2344,27.1719 L89.2344,28.2656 Q89.2344,29.5 90.125,30.3281 Q91.0156,31.1406 92.6094,31.1406 Q93.5469,31.1406 94.2031,30.8906 Q94.5938,30.7344 95.0156,30.2969 Q95.2813,30.0313 95.4219,29.9531 Q95.5781,29.875 95.7813,29.875 Q96.1094,29.875 96.3594,30.1406 Q96.625,30.3906 96.625,30.7344 Q96.625,31.0781 96.2813,31.4844 Q95.7813,32.0625 94.9844,32.3906 Q93.9063,32.8438 92.6094,32.8438 Q91.0938,32.8438 89.8906,32.2188 Q88.9063,31.7188 88.2188,30.6563 Q87.5313,29.5781 87.5313,28.2969 L87.5313,27.1406 Q87.5313,25.8125 88.1406,24.6719 Q88.7656,23.5156 89.8594,22.9063 Q90.9531,22.2813 92.1875,22.2813 Q92.9219,22.2813 93.5625,22.4531 Q94.2188,22.6094 94.7656,22.9688 Z "/><text fill="#000000" font-family="sans-serif" font-size="14" lengthAdjust="spacingAndGlyphs" textLength="42" x="112" y="26.5332">JPanel</text><text fill="#000000" font-family="sans-serif" font-size="10" lengthAdjust="spacingAndGlyphs" textLength="54" x="106" y="39.9902">javax.swing</text><!--MD5=[12b36ce3ef8ce4af4581c43fde5f3b0f]
reverse link javax.swing.JPanel to nz.ac.vuw.ecs.swen225.gp20.application.RecnplayControlsPanel--><path codeLine="17" d="M120,67.32 C120,79.44 120,93.19 120,106.79 " fill="none" id="javax.swing.JPanel-backto-nz.ac.vuw.ecs.swen225.gp20.application.RecnplayControlsPanel" style="stroke: #A80036; stroke-width: 1.0;"/><polygon fill="none" points="113,67.06,120,47.06,127,67.06,113,67.06" style="stroke: #A80036; stroke-width: 1.0;"/><text fill="#888888" font-family="sans-serif" font-size="10" lengthAdjust="spacingAndGlyphs" textLength="190" x="22" y="275.4199">UMLDoclet 2.0.12, PlantUML 1.2020.16</text><!--MD5=[01d9994a8e3e9ae539ce13d8104caab9]
@startuml
    set namespaceSeparator none
    hide empty fields
    hide empty methods

    class "<size:14>RecnplayControlsPanel\n<size:10>nz.ac.vuw.ecs.swen225.gp20.application" as nz.ac.vuw.ecs.swen225.gp20.application.RecnplayControlsPanel [[RecnplayControlsPanel.html]] {
        +RecnplayControlsPanel(ActionListener)
        +getLastFrameButton(): JButton
        +getAutoPlayButton(): JButton
        +getFasterReplayButton(): JButton
        +getNextFrameButton(): JButton
        +getSlowerReplayButton(): JButton
        +getStandardReplayButton(): JButton
    }

    class "<size:14>JPanel\n<size:10>javax.swing" as javax.swing.JPanel

    javax.swing.JPanel <|- - nz.ac.vuw.ecs.swen225.gp20.application.RecnplayControlsPanel

    center footer UMLDoclet 2.0.12, PlantUML 1.2020.16
@enduml

PlantUML version 1.2020.16(Mon Aug 24 08:20:43 NZST 2020)
(APACHE source distribution)
Java Runtime: OpenJDK Runtime Environment
JVM: OpenJDK 64-Bit Server VM
Default Encoding: Cp1252
Language: en
Country: NZ
--></g></svg>